<svg width="25" height="24" viewBox="0 0 25 24" fill="none" xmlns="http://www.w3.org/2000/svg">
<g clip-path="url(#clip0_509_9666)">
<path fill-rule="evenodd" clip-rule="evenodd" d="M13.6738 6.39844C13.6738 5.98422 13.338 5.64844 12.9238 5.64844C12.5096 5.64844 12.1738 5.98422 12.1738 6.39844V12.9706L9.95416 10.7509C9.66126 10.458 9.18639 10.458 8.8935 10.7509C8.6006 11.0438 8.6006 11.5187 8.8935 11.8116L12.3067 15.2248C12.4421 15.4204 12.668 15.5484 12.9238 15.5484C13.1796 15.5484 13.4056 15.4204 13.5409 15.2248L16.9542 11.8116C17.2471 11.5187 17.2471 11.0438 16.9542 10.7509C16.6613 10.458 16.1864 10.458 15.8935 10.7509L13.6738 12.9706V6.39844ZM7.32422 14.7344C7.73843 14.7344 8.07422 15.0702 8.07422 15.4844V16.8844C8.07422 17.0568 8.1427 17.2221 8.2646 17.344C8.3865 17.4659 8.55183 17.5344 8.72422 17.5344H17.1242C17.2966 17.5344 17.4619 17.4659 17.5838 17.344C17.7057 17.2221 17.7742 17.0568 17.7742 16.8844V15.4844C17.7742 15.0702 18.11 14.7344 18.5242 14.7344C18.9384 14.7344 19.2742 15.0702 19.2742 15.4844V16.8844C19.2742 17.4546 19.0477 18.0015 18.6445 18.4047C18.2413 18.8079 17.6944 19.0344 17.1242 19.0344H8.72422C8.154 19.0344 7.60714 18.8079 7.20394 18.4047C6.80074 18.0015 6.57422 17.4546 6.57422 16.8844V15.4844C6.57422 15.0702 6.91001 14.7344 7.32422 14.7344Z" fill="url(#paint0_linear_509_9666)"/>
</g>
<defs>
<linearGradient id="paint0_linear_509_9666" x1="19.2742" y1="7.32168" x2="1.39632" y2="9.52399" gradientUnits="userSpaceOnUse">
<stop stop-color="#FA6E63"/>
<stop offset="0.536458" stop-color="#D82B1B"/>
</linearGradient>
<clipPath id="clip0_509_9666">
<rect x="0.960938" width="24" height="24" rx="12" fill="white"/>
</clipPath>
</defs>
</svg>
