<svg width="37" height="36" viewBox="0 0 37 36" fill="none" xmlns="http://www.w3.org/2000/svg">
<circle cx="18.9492" cy="18" r="18" fill="#3B5172"/>
<path d="M11.4453 15.7453C11.4453 13.2626 13.4527 11.25 15.9458 11.25H21.9448C24.4304 11.25 26.4453 13.2711 26.4453 15.7453V24.75H15.9458C13.4603 24.75 11.4453 22.7289 11.4453 20.2547V15.7453ZM24.9453 23.25V15.7453C24.9453 14.0965 23.599 12.75 21.9448 12.75H15.9458C14.2837 12.75 12.9453 14.0884 12.9453 15.7453V20.2547C12.9453 21.9035 14.2917 23.25 15.9458 23.25H24.9453ZM20.4453 17.25H21.9453V18.75H20.4453V17.25ZM15.9453 17.25H17.4453V18.75H15.9453V17.25Z" fill="white"/>
</svg>
