<svg width="37" height="36" viewBox="0 0 37 36" fill="none" xmlns="http://www.w3.org/2000/svg">
<circle cx="18.957" cy="18" r="18" fill="#3B5172"/>
<path d="M26.457 21.7438C26.4563 23.897 24.9432 25.6966 22.9224 26.1384L22.4439 24.7029C23.3469 24.5555 24.1144 24.005 24.5557 23.2422H22.707C21.8786 23.2422 21.207 22.5706 21.207 21.7422V18.7422C21.207 17.9137 21.8786 17.2422 22.707 17.2422H24.9106C24.5415 14.2825 22.0167 11.9922 18.957 11.9922C15.8973 11.9922 13.3725 14.2825 13.0034 17.2422H15.207C16.0355 17.2422 16.707 17.9137 16.707 18.7422V21.7422C16.707 22.5706 16.0355 23.2422 15.207 23.2422H12.957C12.1286 23.2422 11.457 22.5706 11.457 21.7422V17.9922C11.457 13.8501 14.8149 10.4922 18.957 10.4922C23.0991 10.4922 26.457 13.8501 26.457 17.9922V18.7412V18.7422V21.7422V21.7438ZM24.957 21.7422V18.7422H22.707V21.7422H24.957ZM12.957 18.7422V21.7422H15.207V18.7422H12.957Z" fill="white"/>
</svg>
