<svg width="48" height="49" viewBox="0 0 48 49" fill="none" xmlns="http://www.w3.org/2000/svg">
<g clip-path="url(#clip0_22_2004)">
<path d="M38.9996 26.0893L23.9996 40.9453L8.99963 26.0893C8.01024 25.1265 7.23091 23.9693 6.71072 22.6906C6.19053 21.4118 5.94075 20.0392 5.9771 18.6592C6.01345 17.2791 6.33515 15.9216 6.92194 14.672C7.50873 13.4224 8.3479 12.3078 9.3866 11.3985C10.4253 10.4891 11.641 9.80469 12.9572 9.38828C14.2735 8.97186 15.6616 8.83248 17.0344 8.97892C18.4071 9.12535 19.7346 9.55443 20.9334 10.2391C22.1321 10.9238 23.1761 11.8493 23.9996 12.9573C24.8267 11.8574 25.8719 10.94 27.0698 10.2625C28.2678 9.58509 29.5926 9.16221 30.9615 9.02036C32.3304 8.8785 33.7138 9.02071 35.0252 9.4381C36.3366 9.85549 37.5477 10.5391 38.5827 11.446C39.6178 12.353 40.4545 13.4639 41.0405 14.7091C41.6265 15.9543 41.9491 17.3071 41.9882 18.6827C42.0274 20.0584 41.7822 21.4273 41.2679 22.7038C40.7536 23.9803 39.9814 25.137 38.9996 26.1013" fill="url(#paint0_linear_22_2004)"/>
</g>
<defs>
<linearGradient id="paint0_linear_22_2004" x1="41.9923" y1="12.9254" x2="-8.40601" y2="20.2856" gradientUnits="userSpaceOnUse">
<stop stop-color="#FA6E63"/>
<stop offset="0.536458" stop-color="#D82B1B"/>
</linearGradient>
<clipPath id="clip0_22_2004">
<rect width="48" height="48" fill="white" transform="translate(0 0.945312)"/>
</clipPath>
</defs>
</svg>
