<svg width="30" height="33" viewBox="0 0 30 33" fill="none" xmlns="http://www.w3.org/2000/svg">
<g filter="url(#filter0_d_509_9658)">
<rect x="3.42188" y="3.25" width="21.75" height="25.5" rx="2.25" fill="#FAFBFC" stroke="white" stroke-width="1.5"/>
<path d="M15.1059 12.3766C15.2945 12.1875 15.4395 11.9533 15.5411 11.6739M15.1059 12.3766C14.9221 12.5614 14.6973 12.7011 14.4314 12.7957C14.1703 12.8902 13.8777 12.9375 13.5538 12.9375H11.9873C11.863 12.9375 11.7623 12.8368 11.7623 12.7125V8.6625C11.7623 8.53824 11.863 8.4375 11.9873 8.4375H13.5538C13.8777 8.4375 14.1703 8.48478 14.4314 8.57933L15.5411 11.6739M15.1059 12.3766L15.159 12.4296C15.159 12.4295 15.159 12.4295 15.1591 12.4295L15.1059 12.3766ZM15.5411 11.6739C15.6426 11.3902 15.6934 11.0614 15.6934 10.6875C15.6934 10.3136 15.6426 9.98693 15.5411 9.70756V11.6739ZM9.70497 9.28113L9.70496 9.28114L9.70623 9.28218C9.80117 9.35953 9.85268 9.47354 9.85268 9.63664V9.9461C9.85268 10.1088 9.80139 10.2256 9.7056 10.3075C9.60733 10.3873 9.46454 10.432 9.26767 10.432H8.18715C8.10431 10.432 8.03715 10.3648 8.03715 10.282V9.30075C8.03715 9.21791 8.10431 9.15075 8.18715 9.15075H9.26767C9.46425 9.15075 9.60673 9.19744 9.70497 9.28113ZM14.4567 8.50874C14.1862 8.41082 13.8849 8.3625 13.5538 8.3625H11.9873C11.8216 8.3625 11.6873 8.49681 11.6873 8.6625V12.7125C11.6873 12.8782 11.8216 13.0125 11.9873 13.0125H13.5538C13.8849 13.0125 14.1862 12.9642 14.4567 12.8663C14.4568 12.8662 14.4568 12.8662 14.4569 12.8662L14.4567 8.50874ZM7.06758 12.7125C7.06758 12.8782 7.20189 13.0125 7.36758 13.0125H7.73715C7.90284 13.0125 8.03715 12.8782 8.03715 12.7125V11.3702C8.03715 11.2874 8.10431 11.2202 8.18715 11.2202H9.31844C9.80035 11.2202 10.1839 11.0942 10.4582 10.832C10.7317 10.5705 10.8658 10.2208 10.8658 9.79137C10.8658 9.36193 10.7317 9.01224 10.4582 8.75077C10.1839 8.48858 9.80035 8.3625 9.31844 8.3625H7.36758C7.20189 8.3625 7.06758 8.49681 7.06758 8.6625V12.7125ZM14.4172 11.9214C14.2016 12.117 13.9163 12.2178 13.5538 12.2178H12.8069C12.724 12.2178 12.6569 12.1506 12.6569 12.0678V9.3072C12.6569 9.22436 12.724 9.1572 12.8069 9.1572H13.5538C13.9163 9.1572 14.2016 9.25801 14.4172 9.45364C14.6293 9.64604 14.7408 9.93254 14.7408 10.3265V11.0485C14.7408 11.4425 14.6293 11.729 14.4172 11.9214ZM16.7108 12.7125C16.7108 12.8782 16.8451 13.0125 17.0108 13.0125H17.3803C17.546 13.0125 17.6803 12.8782 17.6803 12.7125V11.2026C17.6803 11.1198 17.7475 11.0526 17.8303 11.0526H19.4619C19.6276 11.0526 19.7619 10.9183 19.7619 10.7526V10.5579C19.7619 10.3922 19.6276 10.2579 19.4619 10.2579H17.8303C17.7475 10.2579 17.6803 10.1908 17.6803 10.1079V9.3072C17.6803 9.22436 17.7475 9.1572 17.8303 9.1572H19.723C19.8887 9.1572 20.023 9.02288 20.023 8.8572V8.6625C20.023 8.49681 19.8887 8.3625 19.723 8.3625H17.0108C16.8451 8.3625 16.7108 8.49681 16.7108 8.6625V12.7125Z" fill="#EE2D20" stroke="#EE2D20" stroke-width="0.15"/>
<path d="M7.91797 19H20.668" stroke="#EE2D20" stroke-opacity="0.2" stroke-width="2.25" stroke-linecap="round"/>
<path d="M7.91797 23.5H15.418" stroke="#EE2D20" stroke-opacity="0.2" stroke-width="2.25" stroke-linecap="round"/>
</g>
<defs>
<filter id="filter0_d_509_9658" x="0.246652" y="0.785715" width="29.1429" height="32.1429" filterUnits="userSpaceOnUse" color-interpolation-filters="sRGB">
<feFlood flood-opacity="0" result="BackgroundImageFix"/>
<feColorMatrix in="SourceAlpha" type="matrix" values="0 0 0 0 0 0 0 0 0 0 0 0 0 0 0 0 0 0 127 0" result="hardAlpha"/>
<feOffset dx="0.857143" dy="0.857143"/>
<feGaussianBlur stdDeviation="1.28571"/>
<feComposite in2="hardAlpha" operator="out"/>
<feColorMatrix type="matrix" values="0 0 0 0 0 0 0 0 0 0 0 0 0 0 0 0 0 0 0.12 0"/>
<feBlend mode="normal" in2="BackgroundImageFix" result="effect1_dropShadow_509_9658"/>
<feBlend mode="normal" in="SourceGraphic" in2="effect1_dropShadow_509_9658" result="shape"/>
</filter>
</defs>
</svg>
