<svg width="462" height="177" viewBox="0 0 462 177" fill="none" xmlns="http://www.w3.org/2000/svg">
<g clip-path="url(#clip0_2_1856)">
<path d="M349.782 94.7253C350.369 95.4106 350.894 96.1559 350.707 96.6626C349.923 98.7759 347.81 100.212 345.199 101.16C345.698 98.2319 347.021 95.3999 349.782 94.7253ZM379.03 107.531C380.729 106.244 383.09 105.064 385.533 104.48C384.799 108.957 380.586 113.936 378.051 116.257C376.162 117.992 373.974 119.256 371.626 120.145C372.267 115.169 374.914 110.649 379.03 107.531ZM348.89 119.905C350.023 120.737 351.227 121.589 352.477 122.42C352.634 122.536 352.703 122.585 352.703 122.585C352.695 122.575 352.678 122.559 352.67 122.549C355.714 124.568 359.023 126.439 362.323 127.477C363.634 127.891 364.975 128.2 366.333 128.419C369.417 132.676 373.686 136.36 377.818 139.389C378.526 139.909 379.245 140.409 379.973 140.891C379.991 140.905 380.005 140.916 380.026 140.927C380.022 140.924 380.017 140.92 380.014 140.917C390.067 147.564 401.885 150.443 413.163 144.628L403.825 137.741C397.025 141.219 389.458 141.683 382.033 139.836C380.386 139.425 378.81 138.78 377.261 138.095C376.907 137.697 376.582 137.323 376.335 137.021C374.359 134.591 373.131 131.727 372.366 128.733C379.489 128.352 386.378 125.281 390.735 119.409C393.177 116.12 396.285 111.203 394.207 107.031C393.915 106.443 393.479 105.887 392.99 105.343C393.015 105.36 393.042 105.371 393.067 105.391C390.489 102.389 388.295 101.463 386.106 100.291C385.098 99.6813 384.153 99.1079 383.379 98.5706C376.101 93.5093 366.154 102.385 363.481 108.589C361.43 113.349 361.497 117.763 362.846 121.8C359.481 121.887 356.099 121.437 352.998 120.6C351.885 120.3 350.807 119.896 349.753 119.435C349.147 118.759 348.622 118.143 348.369 117.789C346.657 115.368 345.786 112.564 345.351 109.676C349.211 109.665 353.011 108.595 356.239 106.061C360.693 102.571 357.449 97.7426 354.035 95.1733C350.443 92.4693 343.843 85.2333 338.714 88.5879C334.742 91.1879 334.655 97.2173 335.95 102.703C333.865 102.751 331.985 102.623 330.67 102.381C329.063 102.087 327.531 101.476 326.055 100.78C325.657 100.369 325.262 99.9559 324.871 99.5413C321.141 95.5866 318.157 90.9373 315.443 86.2506C310.909 78.4199 307.379 69.8853 304.762 61.2066L295.445 54.3359C298.515 64.4759 302.855 74.2813 308.457 83.2666C312.373 89.5506 317.259 94.5026 322.758 98.9573C322.562 98.8679 322.798 99.0599 323.477 99.5373C325.811 101.395 328.245 103.177 330.774 104.928C332.901 106.399 335.317 107.6 337.853 108.432C338.463 109.817 339.117 111.015 339.743 111.899C342.287 115.491 345.402 117.349 348.89 119.905Z" fill="#ADCAEB"/>
<path d="M413.168 144.632L403.827 137.742C397.027 141.22 389.46 141.684 382.035 139.837C380.388 139.428 378.812 138.781 377.263 138.097C378.156 139.098 379.264 140.257 380.016 140.918C390.07 147.565 401.89 150.448 413.168 144.632Z" fill="#ADCAEB"/>
<path d="M349.026 94.9701C349.005 95.6088 348.917 96.2488 348.688 96.8701C348.092 98.4741 346.87 99.6701 345.322 100.557C345.041 101.89 344.936 103.271 344.96 104.502C344.994 106.214 345.098 107.957 345.357 109.669C349.217 109.659 353.017 108.589 356.245 106.054C360.697 102.563 357.454 97.7355 354.041 95.1661C354.005 95.1408 353.965 95.1075 353.929 95.0781C353.225 94.8328 352.362 94.6528 351.718 94.5928C350.68 94.4941 349.789 94.6408 349.026 94.9701Z" fill="#ADCAEB"/>
<path d="M323.478 99.5396C323.235 99.3476 322.998 99.1542 322.759 98.9582C322.563 98.8702 322.799 99.0622 323.478 99.5396Z" fill="#96AECB"/>
<path d="M330.673 102.375C329.066 102.079 327.534 101.47 326.058 100.774C326.631 101.365 327.215 101.947 327.834 102.491C325.745 101.093 324.295 100.109 323.478 99.5312C325.814 101.389 328.247 103.171 330.777 104.922C332.903 106.393 335.319 107.594 337.855 108.426C337.113 106.741 336.445 104.773 335.959 102.726C333.947 102.775 332.071 102.631 330.673 102.375Z" fill="#ADCAEB"/>
<path d="M330.241 104.559C329.622 104.016 326.63 101.371 326.055 100.78C325.657 100.369 325.263 99.9559 324.871 99.5413C321.141 95.5866 318.157 90.9373 315.443 86.2506C310.909 78.4199 307.379 69.8853 304.762 61.2066L295.445 54.3359C298.515 64.4759 302.855 74.2813 308.457 83.2666C312.374 89.5506 316.735 94.3266 322.234 98.7826C322.473 98.9759 322.71 99.1706 322.951 99.3639C324.757 101 328.151 103.16 330.241 104.559Z" fill="#ADCAEB"/>
<path d="M380.029 140.927C380.026 140.924 380.019 140.919 380.017 140.916C380.003 140.907 379.989 140.9 379.975 140.891C379.994 140.904 380.009 140.915 380.029 140.927Z" fill="#96AECB"/>
<path d="M362.328 127.475C363.637 127.888 364.98 128.198 366.336 128.415C364.834 126.343 363.632 124.132 362.85 121.796C359.485 121.884 356.104 121.435 353.002 120.597C351.9 120.301 350.837 119.892 349.793 119.438L352.048 122.095C355.25 124.338 358.454 126.255 362.328 127.475Z" fill="#ADCAEB"/>
<path d="M379.971 140.894C375.83 138.029 374.164 136.474 376.736 137.878C376.91 137.955 377.086 138.023 377.259 138.098C376.906 137.701 376.58 137.326 376.332 137.025C374.358 134.594 373.13 131.73 372.364 128.737C372.064 127.554 371.827 126.355 371.656 125.149C371.416 123.455 371.415 121.779 371.624 120.149C372.266 115.173 374.912 110.653 379.027 107.534C380.727 106.247 383.088 105.067 385.531 104.483C388.164 103.857 390.888 103.93 392.988 105.346C391.251 103.418 388.806 101.341 386.403 99.8886C385.394 99.2806 384.45 98.7286 383.676 98.1913C376.399 93.1313 366.152 102.389 363.479 108.593C361.428 113.353 361.495 117.766 362.844 121.803C363.626 124.139 364.83 126.35 366.331 128.422C369.415 132.679 373.684 136.363 377.816 139.393C378.524 139.913 379.243 140.413 379.971 140.894Z" fill="#ADCAEB"/>
<path d="M385.539 104.478C384.805 108.954 380.591 113.934 378.058 116.255C376.167 117.99 373.979 119.254 371.633 120.143C371.423 121.774 371.425 123.45 371.665 125.143C371.835 126.349 372.073 127.549 372.373 128.73C379.494 128.349 386.385 125.279 390.742 119.406C393.182 116.117 396.291 111.201 394.213 107.027C393.922 106.441 393.485 105.885 392.995 105.339C390.897 103.925 388.173 103.85 385.539 104.478Z" fill="#ADCAEB"/>
<path d="M419.403 23.4219C411.723 30.1859 401.491 33.4565 401.491 33.4565C401.491 33.4565 404.806 39.4539 404.785 45.6605C414.663 43.1779 421.926 38.4339 427.143 33.4859L419.403 23.4219Z" fill="#96AECB"/>
<path d="M330.527 48.7613L332.937 31.8906L342.175 40.3253L330.527 48.7613Z" fill="#96AECB"/>
<path d="M286.298 23.6754L288.709 6.80469L297.946 15.2394L286.298 23.6754Z" fill="#96AECB"/>
<path d="M214.974 80.0853C214.974 80.0853 198.593 74.312 193.658 54.0906C198.162 54.0306 202.495 51.3906 202.495 51.3906C202.495 51.3906 209.258 73.3226 223.205 71.24C222.361 74.728 214.974 80.0853 214.974 80.0853Z" fill="#96AECB"/>
<path d="M117.814 44.2108C117.814 44.2108 122.531 33.3308 136.539 30.9375C136.366 34.0095 137.955 37.0868 137.955 37.0868C137.955 37.0868 122.694 40.6428 123.443 50.2402C121.109 49.5002 117.814 44.2108 117.814 44.2108Z" fill="#96AECB"/>
<path d="M379.296 71.3874C379.296 71.3874 405.507 80.3007 416.031 111.698C418.804 110.618 422.292 109.615 425.856 109.526C416.688 73.8034 387.541 63.9141 387.541 63.9141C387.541 63.9141 382.136 67.9341 377.921 72.4527C378.768 71.7807 379.296 71.3874 379.296 71.3874Z" fill="#96AECB"/>
<path d="M462.834 132.405C469.274 127.365 477.586 125.231 477.586 125.231C477.586 125.231 475.221 120.292 475.526 115.344C467.529 116.865 461.518 120.315 457.126 124.019L462.834 132.405Z" fill="#96AECB"/>
<path d="M276.647 40.8922L254.413 65.8668L253.729 30.9375L276.647 40.8922Z" fill="#96AECB"/>
<path d="M164.75 76.4375L162.046 89.7828L155.067 82.6268L164.75 76.4375Z" fill="#DD0707"/>
<path d="M271.251 101.32L267.866 118.023L259.132 109.067L271.251 101.32Z" fill="#DD0707"/>
<path d="M196.897 9.0625L208.47 16.2385L187.543 21.4158L196.897 9.0625Z" fill="#ADCAEB"/>
<path d="M63.3894 76.7896C63.3894 76.7896 78.6614 65.3763 100.115 73.2229C97.4187 77.3683 97.1814 82.9323 97.1814 82.9323C97.1814 82.9323 73.0454 75.7069 66.4307 89.6976C63.7667 86.7949 63.3894 76.7896 63.3894 76.7896Z" fill="#DD0707"/>
<path d="M448.475 21.7242L456.278 18.8549L455.958 10.5469L461.1 17.0802L468.902 14.2095L464.278 21.1175L469.418 27.6509L461.418 25.3882L456.794 32.2975L456.475 23.9882L448.475 21.7242Z" fill="#96AECB"/>
<path d="M0.152587 15.5523L7.95525 12.683L7.63525 4.375L12.7779 10.9083L20.5793 8.03767L15.9553 14.9457L21.0953 21.479L13.0953 19.2163L8.47125 26.1257L8.15259 17.8163L0.152587 15.5523Z" fill="white"/>
<path d="M87.0762 47.933L80.7668 53.1384L81.8442 40.2344L87.0762 47.933Z" fill="#96AECB"/>
<path d="M133.006 82.0729L126.645 76.9329L139.501 75.4063L133.006 82.0729Z" fill="#ADCAEB"/>
<path d="M94.6699 181.209L101.359 176.5L99.3019 189.287L94.6699 181.209Z" fill="#96AECB"/>
<path d="M101.924 137.539L96.3717 139.467L91.7983 126.287L97.3517 124.359L101.924 137.539Z" fill="white"/>
<path d="M241.309 72.394L229.031 82.0566L236.077 64.6953L241.309 72.394Z" fill="#96AECB"/>
<path d="M257.209 99.2057L250.848 94.0657L263.704 92.5391L257.209 99.2057Z" fill="white"/>
<path d="M361.702 47.2394L356.012 51.934L356.983 40.2967L361.702 47.2394Z" fill="white"/>
<path d="M420.22 66.9261L414.482 62.2901L426.077 60.9141L420.22 66.9261Z" fill="white"/>
<path d="M426.427 141.357L425.997 135.977L431.941 141.666L426.427 141.357Z" fill="#DD0707"/>
<path d="M375.087 128.04L370.081 129.779L365.958 117.894L370.965 116.156L375.087 128.04Z" fill="#ADCAEB"/>
<path d="M241.258 43.8569L235.054 47.8462L237.39 36.4063L241.258 43.8569Z" fill="#96AECB"/>
<path d="M278.759 79.3099L273.608 74.0312L285.284 74.0313L278.759 79.3099Z" fill="#DD0707"/>
<path d="M294.43 144.964L294.638 139.57L299.87 145.922L294.43 144.964Z" fill="#ADCAEB"/>
<path d="M245.024 125.677L239.848 126.813L237.154 114.524L242.329 113.391L245.024 125.677Z" fill="#ADCAEB"/>
<path d="M201.282 42.3402L205.918 36.6016L207.294 48.1976L201.282 42.3402Z" fill="#DD0707"/>
<path d="M111.889 7.77344L116.137 13.8041L104.606 11.9494L111.889 7.77344Z" fill="#96AECB"/>
<path d="M308.718 8.07031L312.963 14.101L301.436 12.2463L308.718 8.07031Z" fill="#96AECB"/>
<path d="M137.937 65.6482L143.317 65.2189L137.627 71.1629L137.937 65.6482Z" fill="#ADCAEB"/>
<path d="M151.257 14.3012L149.519 9.29454L161.404 5.17188L163.141 10.1785L151.257 14.3012Z" fill="white"/>
<path d="M36.2949 29.8211L41.5816 29.4531L42.4563 42.0025L37.1723 42.3705L36.2949 29.8211Z" fill="white"/>
<path d="M448.484 50.2467L440.063 45.6814L456.896 44.1641L448.484 50.2467Z" fill="white"/>
<path d="M415.357 126.381L424.05 122.063L421.551 133.611L415.357 126.381Z" fill="white"/>
<path d="M462.346 98.616L455.1 100.413L448.898 88.5786L456.146 86.7813L462.346 98.616Z" fill="#DD0707"/>
</g>
<defs>
<clipPath id="clip0_2_1856">
<rect width="462" height="177" fill="white"/>
</clipPath>
</defs>
</svg>
