<svg width="24" height="25" viewBox="0 0 24 25" fill="none" xmlns="http://www.w3.org/2000/svg">
<g opacity="0.2" clip-path="url(#clip0_123_625)">
<path d="M8.00098 10.9456C8.00098 10.4151 8.21169 9.90642 8.58676 9.53134C8.96184 9.15627 9.47054 8.94556 10.001 8.94556H18.001C18.5314 8.94556 19.0401 9.15627 19.4152 9.53134C19.7903 9.90642 20.001 10.4151 20.001 10.9456V18.9456C20.001 19.476 19.7903 19.9847 19.4152 20.3598C19.0401 20.7348 18.5314 20.9456 18.001 20.9456H10.001C9.47054 20.9456 8.96184 20.7348 8.58676 20.3598C8.21169 19.9847 8.00098 19.476 8.00098 18.9456V10.9456Z" stroke="black" stroke-width="1.5" stroke-linecap="round" stroke-linejoin="round"/>
<path d="M15.999 8.94507V6.94507C15.999 6.41464 15.7883 5.90593 15.4132 5.53085C15.0382 5.15578 14.5295 4.94507 13.999 4.94507H5.99902C5.46859 4.94507 4.95988 5.15578 4.58481 5.53085C4.20974 5.90593 3.99902 6.41464 3.99902 6.94507V14.9451C3.99902 15.4755 4.20974 15.9842 4.58481 16.3593C4.95988 16.7344 5.46859 16.9451 5.99902 16.9451H7.99902" stroke="black" stroke-width="1.5" stroke-linecap="round" stroke-linejoin="round"/>
</g>
<defs>
<clipPath id="clip0_123_625">
<rect width="24" height="24" fill="white" transform="translate(0 0.945312)"/>
</clipPath>
</defs>
</svg>
