<svg width="36" height="37" viewBox="0 0 36 37" fill="none" xmlns="http://www.w3.org/2000/svg">
<rect x="0.5" y="1.44531" width="35" height="35" rx="7.5" stroke="#686868" stroke-opacity="0.1"/>
<g clip-path="url(#clip0_22_3175)">
<path d="M17.9997 12.2787C14.3177 12.2787 11.333 15.2633 11.333 18.9453C11.333 22.2727 13.771 25.0307 16.9583 25.5313V20.872H15.265V18.9453H16.9583V17.4767C16.9583 15.806 17.953 14.8833 19.4763 14.8833C20.2057 14.8833 20.9683 15.0133 20.9683 15.0133V16.6533H20.1283C19.2997 16.6533 19.0417 17.1673 19.0417 17.6947V18.9453H20.8903L20.595 20.872H19.0417V25.5313C22.2283 25.0313 24.6663 22.272 24.6663 18.9453C24.6663 15.2633 21.6817 12.2787 17.9997 12.2787Z" fill="#3B5172"/>
</g>
<defs>
<clipPath id="clip0_22_3175">
<rect width="16" height="16" fill="white" transform="translate(10 10.9453)"/>
</clipPath>
</defs>
</svg>
