<svg width="36" height="37" viewBox="0 0 36 37" fill="none" xmlns="http://www.w3.org/2000/svg">
<rect x="0.5" y="1.44531" width="35" height="35" rx="7.5" stroke="#686868" stroke-opacity="0.1"/>
<g clip-path="url(#clip0_22_3189)">
<path d="M17.9997 12.2865C19.811 12.2865 20.037 12.2931 20.7477 12.3265C21.4577 12.3598 21.941 12.4711 22.3663 12.6365C22.8063 12.8058 23.177 13.0351 23.5477 13.4051C23.8867 13.7384 24.149 14.1415 24.3163 14.5865C24.481 15.0111 24.593 15.4951 24.6263 16.2051C24.6577 16.9158 24.6663 17.1418 24.6663 18.9531C24.6663 20.7645 24.6597 20.9905 24.6263 21.7011C24.593 22.4111 24.481 22.8945 24.3163 23.3198C24.1495 23.765 23.8871 24.1682 23.5477 24.5011C23.2143 24.84 22.8112 25.1023 22.3663 25.2698C21.9417 25.4345 21.4577 25.5465 20.7477 25.5798C20.037 25.6111 19.811 25.6198 17.9997 25.6198C16.1883 25.6198 15.9623 25.6131 15.2517 25.5798C14.5417 25.5465 14.0583 25.4345 13.633 25.2698C13.1879 25.1028 12.7847 24.8404 12.4517 24.5011C12.1126 24.1679 11.8503 23.7648 11.683 23.3198C11.5177 22.8951 11.4063 22.4111 11.373 21.7011C11.3417 20.9905 11.333 20.7645 11.333 18.9531C11.333 17.1418 11.3397 16.9158 11.373 16.2051C11.4063 15.4945 11.5177 15.0118 11.683 14.5865C11.8498 14.1413 12.1122 13.738 12.4517 13.4051C12.7848 13.066 13.188 12.8036 13.633 12.6365C14.0583 12.4711 14.541 12.3598 15.2517 12.3265C15.9623 12.2951 16.1883 12.2865 17.9997 12.2865ZM17.9997 15.6198C17.1156 15.6198 16.2678 15.971 15.6427 16.5961C15.0175 17.2212 14.6663 18.0691 14.6663 18.9531C14.6663 19.8372 15.0175 20.685 15.6427 21.3102C16.2678 21.9353 17.1156 22.2865 17.9997 22.2865C18.8837 22.2865 19.7316 21.9353 20.3567 21.3102C20.9818 20.685 21.333 19.8372 21.333 18.9531C21.333 18.0691 20.9818 17.2212 20.3567 16.5961C19.7316 15.971 18.8837 15.6198 17.9997 15.6198ZM22.333 15.4531C22.333 15.2321 22.2452 15.0202 22.0889 14.8639C21.9326 14.7076 21.7207 14.6198 21.4997 14.6198C21.2787 14.6198 21.0667 14.7076 20.9104 14.8639C20.7541 15.0202 20.6663 15.2321 20.6663 15.4531C20.6663 15.6741 20.7541 15.8861 20.9104 16.0424C21.0667 16.1987 21.2787 16.2865 21.4997 16.2865C21.7207 16.2865 21.9326 16.1987 22.0889 16.0424C22.2452 15.8861 22.333 15.6741 22.333 15.4531ZM17.9997 16.9531C18.5301 16.9531 19.0388 17.1638 19.4139 17.5389C19.789 17.914 19.9997 18.4227 19.9997 18.9531C19.9997 19.4836 19.789 19.9923 19.4139 20.3673C19.0388 20.7424 18.5301 20.9531 17.9997 20.9531C17.4692 20.9531 16.9605 20.7424 16.5855 20.3673C16.2104 19.9923 15.9997 19.4836 15.9997 18.9531C15.9997 18.4227 16.2104 17.914 16.5855 17.5389C16.9605 17.1638 17.4692 16.9531 17.9997 16.9531Z" fill="#3B5172"/>
</g>
<defs>
<clipPath id="clip0_22_3189">
<rect width="16" height="16" fill="white" transform="translate(10 10.9531)"/>
</clipPath>
</defs>
</svg>
