<svg width="40" height="41" viewBox="0 0 40 41" fill="none" xmlns="http://www.w3.org/2000/svg">
<g clip-path="url(#clip0_22_638)">
<rect y="0.945312" width="40" height="40" rx="20" fill="white"/>
<g opacity="0.9">
<mask id="mask0_22_638" style="mask-type:alpha" maskUnits="userSpaceOnUse" x="0" y="2" width="40" height="41">
<circle cx="20" cy="22.9453" r="20" fill="#D9D9D9"/>
</mask>
<g mask="url(#mask0_22_638)">
<path d="M8.80452 42.9435H2.71191V28.3806L8.80452 25.6031V42.9435Z" fill="white" stroke="#253650" stroke-width="0.658528" stroke-linecap="round" stroke-linejoin="round"/>
<path d="M8.54262 42.9444H7.63629L7.48124 37.4446H2.71191V29.0707H7.17107L7.90852 24.9251H8.54262V42.9444Z" fill="#E3F0FF"/>
<path d="M11.6035 30.3458L11.6449 25.1009" stroke="#253650" stroke-width="0.658528" stroke-linecap="round" stroke-linejoin="round"/>
<path d="M16.1381 30.3457L8.84975 22.6852H4.05244C3.98369 22.6852 3.92152 22.726 3.89426 22.7892L2.28508 26.5154L0.73487 30.1051C0.697137 30.1924 0.737373 30.2938 0.82476 30.3316C0.846327 30.3409 0.869572 30.3457 0.893049 30.3457H8.5465" fill="white"/>
<path d="M16.1381 30.3457L8.84975 22.6852H4.05244C3.98369 22.6852 3.92152 22.726 3.89426 22.7892L2.28508 26.5154L0.73487 30.1051C0.697137 30.1924 0.737373 30.2938 0.82476 30.3316C0.846327 30.3409 0.869572 30.3457 0.893049 30.3457H8.5465" fill="#253650"/>
<path d="M7.65776 25.1083H6.26508C6.16992 25.1083 6.09277 25.0312 6.09277 24.936C6.09277 24.8921 6.10957 24.8498 6.13973 24.8178L14.505 15.9453H23.8679L15.2184 25.1083" fill="white"/>
<path d="M8.87545 25.1083H6.26508C6.16992 25.1083 6.09277 25.0312 6.09277 24.936C6.09277 24.8921 6.10957 24.8498 6.13973 24.8178L14.505 15.9453H23.8679L15.2184 25.1083" stroke="#253650" stroke-width="0.658528" stroke-linecap="round" stroke-linejoin="round"/>
<path d="M8.3916 26.7688L15.1596 19.9973L22.0103 27.1203L25.3185 27.0445L26.9829 25.2456L21.7863 22.2235L15.4215 17.4369L8.43641 24.1084L8.3916 26.7688Z" fill="#E3F0FF"/>
<path d="M15.8733 16.995L23.4235 23.4942L22.2243 42.9436H8.80546L8.70898 24.2592L14.7016 18.1321" fill="white"/>
<path d="M15.8733 16.995L23.4235 23.4942L22.2243 42.9436H8.80546L8.70898 24.2592L14.7016 18.1321" stroke="#253650" stroke-width="0.658528" stroke-linecap="round" stroke-linejoin="round"/>
<path d="M22.1816 25.8704V42.9454H29.2562V27.0075L22.1816 22.8861" fill="#E0EEFF"/>
<path d="M22.1816 25.8704V42.9454H29.2562V27.0075L22.1816 22.8861" stroke="#253650" stroke-width="0.658528" stroke-linecap="round" stroke-linejoin="round"/>
<path d="M35.2462 22.6852L39.2145 30.092C39.2596 30.1759 39.228 30.2803 39.144 30.3253C39.119 30.3387 39.091 30.3457 39.0627 30.3457H28.2783" fill="#E3F0FF"/>
<path d="M35.2462 22.6852L39.2145 30.092C39.2596 30.1759 39.228 30.2803 39.144 30.3253C39.119 30.3387 39.091 30.3457 39.0627 30.3457H28.2783" stroke="#253650" stroke-width="0.658528" stroke-linecap="round" stroke-linejoin="round"/>
<path d="M25.4004 42.9434H32.6749V28.3804H25.4004" fill="white"/>
<path d="M25.4004 42.9434H32.6749V28.3804H25.4004" stroke="#253650" stroke-width="0.658528" stroke-linecap="round" stroke-linejoin="round"/>
<path d="M25.4004 30.4044V41.69" stroke="#253650" stroke-width="0.658528" stroke-linecap="round" stroke-linejoin="round"/>
<path d="M33.8848 23.2276L32.1687 28.4035L32.1309 28.3829V42.9458H37.0757V29.7041C37.0757 29.676 37.0688 29.6483 37.056 29.6236L35.3735 26.4393" fill="#E0EEFF"/>
<path d="M33.8848 23.2276L32.1687 28.4035L32.1309 28.3829V42.9458H37.0757V29.7041C37.0757 29.676 37.0688 29.6483 37.056 29.6236L35.3735 26.4393" stroke="#253650" stroke-width="0.658528" stroke-linecap="round" stroke-linejoin="round"/>
<path opacity="0.07" d="M34.4358 24.5987L25.4004 26.0701L25.5796 31.6044H32.1306L34.0946 26.8351L36.8549 31.3632L36.8068 29.0268L34.4358 24.5987Z" fill="#253650"/>
<path d="M25.3315 24.9285L22.3369 22.6852H35.0142C35.1094 22.6852 35.1864 22.7623 35.1864 22.8575C35.1864 22.8742 35.1841 22.8909 35.1792 22.907L32.984 30.2229C32.9623 30.2958 32.8951 30.3457 32.819 30.3457H24.6437C24.5485 30.3457 24.4714 30.2686 24.4714 30.1734C24.4714 30.159 24.4732 30.1447 24.4767 30.1307L25.4246 26.4241" fill="white"/>
<path d="M25.3315 24.9285L22.3369 22.6852H35.0142C35.1094 22.6852 35.1864 22.7623 35.1864 22.8575C35.1864 22.8742 35.1841 22.8909 35.1792 22.907L32.984 30.2229C32.9623 30.2958 32.8951 30.3457 32.819 30.3457H24.6437C24.5485 30.3457 24.4714 30.2686 24.4714 30.1734C24.4714 30.159 24.4732 30.1447 24.4767 30.1307L25.4246 26.4241" fill="#253650"/>
<path d="M19.756 27.15H11.0479V37.3813H19.756V27.15Z" fill="white"/>
<path d="M30.2531 35.8505V38.0697H27.124V34.7478C27.124 34.3329 27.289 33.9355 27.5825 33.6428C27.876 33.3497 28.2739 33.1858 28.6884 33.1867C29.5511 33.1867 30.2511 33.8851 30.2531 34.7478V34.8821" fill="white"/>
<path d="M24.7111 22.6789L26.9096 25.1083H23.2175C23.17 25.1083 23.1247 25.0887 23.0921 25.0542L14.5039 15.9453H23.7524C23.8011 15.9453 23.8475 15.9659 23.8802 16.002L29.2184 21.9001" fill="white"/>
<path d="M24.7111 22.6788L26.9096 25.1083H23.2175C23.17 25.1083 23.1247 25.0887 23.0921 25.0542L14.5039 15.9453L23.5 15.9446C23.5487 15.9446 24 15.9446 24 15.9446L29.9995 22.4453" fill="#253650"/>
<path d="M29.9292 22.6801H24.7119" stroke="#253650" stroke-width="0.658528" stroke-linecap="round" stroke-linejoin="round"/>
</g>
</g>
</g>
<defs>
<clipPath id="clip0_22_638">
<rect y="0.945312" width="40" height="40" rx="20" fill="white"/>
</clipPath>
</defs>
</svg>
