<svg width="36" height="37" viewBox="0 0 36 37" fill="none" xmlns="http://www.w3.org/2000/svg">
<rect x="0.5" y="1.44531" width="35" height="35" rx="7.5" stroke="#686868" stroke-opacity="0.1"/>
<g clip-path="url(#clip0_22_3184)">
<path d="M24.7742 14.716C24.2653 14.9411 23.7255 15.089 23.1729 15.1547C23.7554 14.8063 24.1913 14.258 24.3995 13.612C23.8529 13.9373 23.2535 14.1653 22.6289 14.2887C22.2093 13.8397 21.6531 13.542 21.0468 13.4417C20.4406 13.3415 19.8182 13.4443 19.2764 13.7343C18.7346 14.0243 18.3038 14.4851 18.051 15.0452C17.7981 15.6053 17.7374 16.2332 17.8782 16.8313C16.7696 16.7758 15.6851 16.4877 14.6951 15.9858C13.705 15.4839 12.8316 14.7794 12.1315 13.918C11.8837 14.3436 11.7535 14.8275 11.7542 15.32C11.7542 16.2867 12.2462 17.1407 12.9942 17.6407C12.5516 17.6267 12.1186 17.5072 11.7315 17.292V17.3267C11.7317 17.9705 11.9545 18.5944 12.3621 19.0927C12.7698 19.591 13.3372 19.933 13.9682 20.0607C13.5573 20.172 13.1264 20.1884 12.7082 20.1087C12.8861 20.6628 13.2329 21.1475 13.6999 21.4947C14.167 21.842 14.731 22.0345 15.3129 22.0453C14.7345 22.4995 14.0723 22.8353 13.3641 23.0334C12.6559 23.2316 11.9156 23.2882 11.1855 23.2C12.46 24.0196 13.9436 24.4547 15.4589 24.4533C20.5875 24.4533 23.3922 20.2047 23.3922 16.52C23.3922 16.4 23.3889 16.2787 23.3835 16.16C23.9295 15.7654 24.4006 15.2767 24.7749 14.7167L24.7742 14.716Z" fill="#3B5172"/>
</g>
<defs>
<clipPath id="clip0_22_3184">
<rect width="16" height="16" fill="white" transform="translate(10 10.9453)"/>
</clipPath>
</defs>
</svg>
