<svg width="36" height="37" viewBox="0 0 36 37" fill="none" xmlns="http://www.w3.org/2000/svg">
<rect x="0.5" y="1.44531" width="35" height="35" rx="7.5" stroke="#686868" stroke-opacity="0.1"/>
<path d="M11.3386 25.6146L12.2399 22.3026C11.646 21.2845 11.334 20.1266 11.3359 18.9479C11.3359 15.2659 14.3206 12.2812 18.0026 12.2812C21.6846 12.2812 24.6693 15.2659 24.6693 18.9479C24.6693 22.6299 21.6846 25.6146 18.0026 25.6146C16.8245 25.6165 15.6671 25.3047 14.6493 24.7113L11.3386 25.6146ZM15.5966 15.8199C15.5105 15.8253 15.4264 15.8479 15.3493 15.8866C15.277 15.9275 15.2109 15.9787 15.1533 16.0386C15.0733 16.1139 15.0279 16.1793 14.9793 16.2426C14.7329 16.5632 14.6004 16.9569 14.6026 17.3612C14.6039 17.6879 14.6893 18.0059 14.8226 18.3033C15.0953 18.9046 15.5439 19.5412 16.1366 20.1312C16.2793 20.2733 16.4186 20.4159 16.5686 20.5486C17.3042 21.1962 18.1808 21.6633 19.1286 21.9126L19.5079 21.9706C19.6313 21.9773 19.7546 21.9679 19.8786 21.9619C20.0728 21.9519 20.2624 21.8993 20.4339 21.8079C20.5446 21.7493 20.5966 21.7199 20.6893 21.6613C20.6893 21.6613 20.7179 21.6426 20.7726 21.6012C20.8626 21.5346 20.9179 21.4873 20.9926 21.4093C21.0479 21.3519 21.0959 21.2846 21.1326 21.2079C21.1846 21.0993 21.2366 20.8919 21.2579 20.7192C21.2739 20.5872 21.2693 20.5153 21.2673 20.4706C21.2646 20.3993 21.2053 20.3253 21.1406 20.2939L20.7526 20.1199C20.7526 20.1199 20.1726 19.8673 19.8186 19.7059C19.7813 19.6896 19.7413 19.6804 19.7006 19.6786C19.655 19.6739 19.6089 19.679 19.5654 19.6936C19.522 19.7082 19.4821 19.732 19.4486 19.7632V19.7619C19.4453 19.7619 19.4006 19.7999 18.9186 20.3839C18.8909 20.4211 18.8528 20.4492 18.8091 20.4646C18.7655 20.4801 18.7182 20.4821 18.6733 20.4706C18.6298 20.459 18.5873 20.4443 18.5459 20.4266C18.4633 20.3919 18.4346 20.3786 18.3779 20.3539L18.3746 20.3526C17.9932 20.1861 17.6401 19.9611 17.3279 19.6859C17.2439 19.6126 17.1659 19.5326 17.0859 19.4552C16.8237 19.2041 16.5951 18.9199 16.4059 18.6099L16.3666 18.5466C16.3384 18.504 16.3155 18.4581 16.2986 18.4099C16.2733 18.3119 16.3393 18.2333 16.3393 18.2333C16.3393 18.2333 16.5013 18.0559 16.5766 17.9599C16.6393 17.8801 16.6979 17.7971 16.7519 17.7113C16.8306 17.5846 16.8553 17.4546 16.8139 17.3539C16.6273 16.8979 16.4339 16.4439 16.2353 15.9932C16.1959 15.9039 16.0793 15.8399 15.9733 15.8273C15.9373 15.8233 15.9013 15.8193 15.8653 15.8166C15.7758 15.8121 15.686 15.813 15.5966 15.8193V15.8199Z" fill="#3B5172"/>
</svg>
