<svg width="720" height="562" viewBox="0 0 720 562" fill="none" xmlns="http://www.w3.org/2000/svg">
<g clip-path="url(#clip0_509_9768)">
<path d="M719.961 321.891H-0.0585938V357.039H719.961V321.891Z" fill="#E0EEFF"/>
<path d="M719.961 25.7188H-0.0585938V561.996H719.961V25.7188Z" fill="url(#paint0_linear_509_9768)"/>
<path d="M719.961 321.891H-0.0585938V357.039H719.961V321.891Z" fill="#E0EEFF"/>
<path d="M476.85 73.4688H219.23V309.855H476.85V73.4688Z" fill="#EDF5FF"/>
<path d="M365.094 190.361H451.629C451.629 183.878 443.8 176.929 436.733 179.451C437.564 174.36 429.251 169.688 422.451 169.476C415.33 169.254 406.969 174.152 407.176 179.451C406.553 174.775 399.072 171.346 390.032 179.451C382.8 185.935 370.393 189.426 365.094 190.361Z" fill="#C7E0FF"/>
<path d="M304.344 159.542H250.293C250.293 155.492 255.183 151.152 259.597 152.727C259.078 149.547 264.271 146.629 268.518 146.497C272.966 146.358 278.188 149.417 278.058 152.727C278.448 149.807 283.121 147.665 288.767 152.727C293.285 156.777 301.034 158.958 304.344 159.542Z" fill="#C7E0FF"/>
<path d="M476.85 232.242H219.23V309.855H476.85V232.242Z" fill="#E0EEFF"/>
<path d="M476.85 232.242H219.23V240.242H476.85V232.242Z" fill="white"/>
<path opacity="0.5" d="M-0.0585938 561.996H719.961V357.586L492.584 25.7188H-0.0585938V561.996Z" fill="url(#paint1_linear_509_9768)"/>
<path d="M219.23 232.242H296.918M476.85 232.242H426.148M302.155 232.242H420.913" stroke="#657A99" stroke-miterlimit="10" stroke-linecap="round" stroke-linejoin="round"/>
<path d="M219.23 240.242H376.678M476.85 240.242H394.656M382.271 240.242H388.93" stroke="#657A99" stroke-miterlimit="10" stroke-linecap="round" stroke-linejoin="round"/>
<path d="M396.428 381.797L406.129 430.744M415.206 476.542L407.403 437.173" stroke="#657A99" stroke-miterlimit="10" stroke-linecap="round" stroke-linejoin="round"/>
<path d="M382.102 381.797V475.906" stroke="#657A99" stroke-miterlimit="10" stroke-linecap="round" stroke-linejoin="round"/>
<path d="M350.731 385.945H411.635V377.633H350.731V385.945Z" fill="#C7E0FF"/>
<path d="M719.961 321.891H170.966M356.945 357.039H-0.0585938V321.891H166.345M362.155 357.039H629.714" stroke="#657A99" stroke-miterlimit="10" stroke-linecap="round" stroke-linejoin="round"/>
<path fill-rule="evenodd" clip-rule="evenodd" d="M219.058 72.7461L219.058 309.849L476.896 309.849L476.896 72.7461L219.058 72.7461ZM199 321.984L494.426 321.984L494.426 25.7218L199 25.7218L199 321.984Z" fill="url(#paint2_linear_509_9768)"/>
<path d="M124.959 357.044H-37.0433V128.74C-37.0433 84.0064 -0.779053 47.7422 43.9547 47.7422C88.6885 47.7422 124.953 84.0064 124.953 128.74V357.044H124.959Z" fill="#E0EEFF"/>
<path d="M115.61 90.9404C121.575 102.225 124.953 115.088 124.953 128.74V231.137M113.057 86.4618C98.8161 63.2361 73.1947 47.7422 43.9547 47.7422C38.9355 47.7422 34.0228 48.1987 29.2561 49.0726M23.6601 50.3056C21.8761 50.7659 20.1159 51.2855 18.3817 51.8621M13.5674 53.6353C-16.1097 65.6544 -37.0433 94.7528 -37.0433 128.74V357.044H124.959H124.953V249.116M124.953 237.13V242.815" stroke="#657A99" stroke-miterlimit="10" stroke-linecap="round" stroke-linejoin="round"/>
<path d="M116.342 335.589H-28.4286V131.57C-28.4286 91.5944 3.97826 59.1875 43.9538 59.1875C83.9293 59.1875 116.336 91.5944 116.336 131.57V335.589H116.342Z" fill="#EDF5FF"/>
<path d="M43.9551 47.7422V134.571M43.9551 357.044V151.728M43.9551 146.152V141.005" stroke="#657A99" stroke-miterlimit="10" stroke-linecap="round" stroke-linejoin="round"/>
<path d="M124.959 128.734H109.612M-37.0433 128.734H100.427" stroke="#657A99" stroke-miterlimit="10" stroke-linecap="round" stroke-linejoin="round"/>
<path d="M567.957 357.044H729.959V128.74C729.959 84.0064 693.695 47.7422 648.961 47.7422C604.227 47.7422 567.963 84.0064 567.963 128.74V357.044H567.957Z" fill="#E0EEFF"/>
<path d="M577.306 90.9404C571.341 102.225 567.963 115.088 567.963 128.74V231.137M579.859 86.4618C594.1 63.2361 619.721 47.7422 648.961 47.7422C653.981 47.7422 658.893 48.1987 663.66 49.0726M669.256 50.3056C671.04 50.7659 672.8 51.2855 674.534 51.8621M679.349 53.6353C709.026 65.6544 729.959 94.7528 729.959 128.74V357.044H708.478M567.963 237.13V242.815M567.963 249.116V357.044H567.957H703.141" stroke="#657A99" stroke-miterlimit="10" stroke-linecap="round" stroke-linejoin="round"/>
<path d="M576.574 335.589H721.345V131.57C721.345 91.5944 688.938 59.1875 648.962 59.1875C608.987 59.1875 576.58 91.5944 576.58 131.57V335.589H576.574Z" fill="#EDF5FF"/>
<path d="M648.961 47.7422V134.571M648.961 357.044V151.728M648.961 146.152V141.005" stroke="#657A99" stroke-miterlimit="10" stroke-linecap="round" stroke-linejoin="round"/>
<path d="M567.957 128.734H583.304M729.959 128.734H592.489" stroke="#657A99" stroke-miterlimit="10" stroke-linecap="round" stroke-linejoin="round"/>
<path d="M4.78 423.625H60.032C60.032 423.625 82.605 459.408 53.2926 485.148H15.8979C15.8979 485.148 -16.4439 468.771 4.78 423.625Z" fill="#C7E0FF"/>
<path d="M38.8034 423.625H4.78C-6.9534 448.584 -2.31546 464.749 4.17847 474.216M42.4023 423.625H60.032C60.032 423.625 82.605 459.408 53.2926 485.148H41.3466M5.53634 476.07C10.4814 482.405 15.8979 485.148 15.8979 485.148H33.1172M36.414 485.148H38.2985" stroke="#657A99" stroke-miterlimit="10" stroke-linecap="round" stroke-linejoin="round"/>
<path d="M32.9484 423.628C32.9484 423.628 23.6481 371.074 27.352 335.366C31.0559 299.657 45.1093 272.706 66.7205 257.547C66.7205 257.547 42.511 284.386 38.4699 338.682C34.4287 392.979 32.9484 423.634 32.9484 423.634V423.628Z" fill="#E0EEFF"/>
<path d="M36.9828 295.955C37.8342 293.926 38.7339 291.95 39.6809 290.027M35.0913 300.765C31.2891 311.103 28.6676 322.682 27.352 335.366C23.6481 371.074 32.9484 423.628 32.9484 423.628V423.634C32.9484 423.634 34.4052 393.466 38.3737 339.977M41.6465 286.238C48.1616 274.303 56.6147 264.635 66.7205 257.547C66.7205 257.547 43.4154 283.383 38.7197 335.64" stroke="#657A99" stroke-miterlimit="10" stroke-linecap="round" stroke-linejoin="round"/>
<path d="M-12.0586 272.023C-12.0586 272.023 23.656 330.249 27.6971 381.484C27.6971 381.484 32.4129 286.508 -12.0586 272.023Z" fill="white"/>
<path d="M7.75071 310.798C16.7313 331.289 25.7797 357.174 27.6971 381.484C27.6971 381.484 32.4129 286.508 -12.0586 272.023C-12.0586 272.023 -4.68912 284.038 3.73343 301.954M5.28186 305.29C5.67015 306.138 6.05982 306.996 6.45029 307.866L5.28186 305.29Z" stroke="#657A99" stroke-miterlimit="10" stroke-linecap="round" stroke-linejoin="round"/>
<path d="M34.5727 395.314C34.5727 395.314 39.1884 355.57 52.9546 351.192C52.9546 351.192 41.2559 350.517 36.6588 366.014L34.5664 395.314H34.5727Z" fill="#E0EEFF" stroke="#657A99" stroke-miterlimit="10" stroke-linecap="round" stroke-linejoin="round"/>
<path d="M58.5352 454.688V485.149H60.8212C60.8212 485.149 64.8811 468.647 67.4232 466.873C69.9653 465.1 69.7092 454.688 69.7092 454.688H58.5414H58.5352Z" fill="white" stroke="#657A99" stroke-miterlimit="10" stroke-linecap="round" stroke-linejoin="round"/>
<path d="M127.83 455.82H140.778C140.778 455.82 140.016 467.244 137.48 472.572C134.944 477.9 136.212 486.276 136.212 486.276H132.402C132.402 486.276 132.658 476.376 131.64 473.078C130.622 469.78 126.818 462.672 127.83 455.82Z" fill="white" stroke="#657A99" stroke-miterlimit="10" stroke-linecap="round" stroke-linejoin="round"/>
<path d="M238.033 455.82H250.981C250.981 455.82 250.712 467.507 247.683 472.572C246.178 475.095 246.415 486.276 246.415 486.276H242.605C242.605 486.276 242.861 476.376 241.843 473.078C240.825 469.78 237.021 462.672 238.033 455.82Z" fill="white" stroke="#657A99" stroke-miterlimit="10" stroke-linecap="round" stroke-linejoin="round"/>
<path d="M72.0586 370.182C72.0586 370.182 90.7216 339.632 149.821 338.702C208.921 337.771 233.093 366.521 282.28 370.188V419.981H74.5445L72.0586 370.182Z" fill="#C7E0FF"/>
<path d="M152.409 338.68C153.32 338.679 154.223 338.685 155.118 338.698M158.273 338.773C211.352 340.531 235.506 366.701 282.28 370.188V419.981H74.5445L72.0586 370.182C72.0586 370.182 90.4566 340.066 148.564 338.726" stroke="#657A99" stroke-miterlimit="10" stroke-linecap="round" stroke-linejoin="round"/>
<path d="M368.439 455.82V486.282H366.153C366.153 486.282 362.093 469.78 359.551 468.006C357.015 466.232 357.265 455.82 357.265 455.82H368.432H368.439Z" fill="white" stroke="#657A99" stroke-miterlimit="10" stroke-linecap="round" stroke-linejoin="round"/>
<path d="M62.352 425.425C62.1084 419.692 61.7274 402.534 61.7274 402.534C61.7274 402.534 52.9456 398.836 51.7901 389.13C50.6346 379.424 57.5614 370.18 67.0428 370.18H161.695L144.474 455.818L58.5357 454.6C58.5357 454.6 63.0391 441.534 62.352 425.419V425.425Z" fill="#E0EEFF"/>
<path d="M104.518 455.252L106.766 455.284M109.806 455.327L144.474 455.818L161.695 370.18H100.322M100.752 455.199L58.5357 454.6C58.5357 454.6 62.5736 442.884 62.419 427.959M82.004 370.18H67.0428C58.2165 370.18 51.604 378.19 51.6645 387.128M89.6802 370.18H94.9139M62.2699 423.232C62.0314 416.222 61.7274 402.534 61.7274 402.534C61.7274 402.534 54.3798 399.44 52.242 391.484" stroke="#657A99" stroke-miterlimit="10" stroke-linecap="round" stroke-linejoin="round"/>
<path d="M265.06 385.205C264.26 376.192 272.805 370.415 282.28 370.184C291.755 369.953 298.688 379.428 297.533 389.134C296.377 398.84 287.595 402.538 287.595 402.538V421.682L265.06 455.829V385.205Z" fill="#C7E0FF"/>
<path d="M293.517 375.468C290.756 372.18 286.808 370.073 282.28 370.184C272.805 370.415 264.26 376.192 265.06 385.205V455.829L287.595 421.682V402.538C287.595 402.538 296.377 398.84 297.533 389.134C297.976 385.408 297.228 381.716 295.602 378.595" stroke="#657A99" stroke-miterlimit="10" stroke-linecap="round" stroke-linejoin="round"/>
<path d="M161.508 373.983C161.508 373.983 163.288 366.387 161.508 360.785C159.728 355.182 165.012 358.605 170.615 360.785C176.218 362.965 208.909 360.785 215.717 359.23C222.525 357.674 229.952 352.584 229.715 356.431C229.477 360.279 221.951 407.636 229.715 419.978H161.152L161.502 373.983H161.508Z" fill="white"/>
<path d="M144.474 385.205C143.674 376.192 152.219 370.415 161.694 370.184C171.169 369.953 178.102 379.428 176.947 389.134C175.791 398.84 167.009 402.538 167.009 402.538V421.682L144.474 455.829V385.205Z" fill="#E0EEFF"/>
<path d="M144.474 389.134V385.205C143.674 376.192 152.219 370.415 161.694 370.184C171.169 369.953 178.102 379.428 176.947 389.134C176.573 392.276 175.4 394.788 173.985 396.748M144.474 392.909V455.829L167.009 421.682V402.538C167.009 402.538 169.499 401.49 172.002 399.044" stroke="#657A99" stroke-miterlimit="10" stroke-linecap="round" stroke-linejoin="round"/>
<path d="M368.435 455.822H144.473V453.805C144.473 435.123 159.619 419.977 178.301 419.977H334.613C353.295 419.977 368.441 435.123 368.441 453.805V455.822H368.435Z" fill="#E0EEFF"/>
<path d="M300.567 455.822H173.164M304.095 455.822H307.531M311.059 455.822H368.435H368.441V453.805C368.441 435.123 353.295 419.977 334.613 419.977H178.301C159.619 419.977 144.473 435.123 144.473 453.805V455.822H160.557M165.303 455.822H169.456" stroke="#657A99" stroke-miterlimit="10" stroke-linecap="round" stroke-linejoin="round"/>
<path d="M258.368 497.872L259.718 479.9L274.152 479.055L272.653 498.213L258.368 497.872Z" fill="white" stroke="#253650" stroke-width="1.31978" stroke-miterlimit="10" stroke-linecap="round" stroke-linejoin="round"/>
<path d="M297.188 514.502C295.482 515.906 287.436 516.894 283.439 514.771C279.442 512.648 268.819 506.667 264.96 506.684C261.101 506.701 255.971 506.251 256.65 501.7C257.329 497.148 258.471 493.769 258.471 493.769C258.471 493.769 262.694 498.938 265.619 497.497C268.545 496.056 266.521 493.581 267.698 492.32C268.875 491.058 273.196 490.598 274.333 491.249C275.47 491.9 280.125 500.045 283.786 502.422C287.447 504.799 296.766 509.811 297.577 511.429C298.389 513.048 298.56 513.37 297.188 514.502Z" fill="#253650" stroke="#253650" stroke-width="1.31978" stroke-miterlimit="10" stroke-linecap="round" stroke-linejoin="round"/>
<path d="M293.225 408.969L280.315 483.643L250.667 484.024L258.696 436.75L293.225 408.969Z" fill="#253650" stroke="#253650" stroke-width="1.31978" stroke-miterlimit="10" stroke-linecap="round" stroke-linejoin="round"/>
<g style="mix-blend-mode:multiply" opacity="0.5">
<path d="M293.225 408.969L280.315 483.643L250.667 484.024L258.696 436.75L293.225 408.969Z" fill="#253650"/>
<path d="M293.225 408.969L280.315 483.643L250.667 484.024L258.696 436.75L293.225 408.969Z" stroke="#253650" stroke-width="1.31978" stroke-miterlimit="10" stroke-linecap="round" stroke-linejoin="round"/>
</g>
<path d="M221.281 475.082L234.943 463.328L245.748 472.938L231.141 485.424L221.281 475.082Z" fill="white" stroke="#253650" stroke-width="1.31978" stroke-miterlimit="10" stroke-linecap="round" stroke-linejoin="round"/>
<path d="M236.971 514.294C234.771 514.08 228.384 509.089 227.059 504.762C225.733 500.435 222.451 488.694 219.71 485.978C216.97 483.261 213.66 479.316 217.359 476.577C221.057 473.839 224.254 472.257 224.254 472.257C224.254 472.257 223.585 478.898 226.673 479.947C229.761 480.997 230.08 477.816 231.804 477.757C233.528 477.697 236.908 480.426 237.252 481.69C237.596 482.955 235.128 492.006 236.036 496.275C236.944 500.545 239.989 510.678 239.419 512.397C238.849 514.115 238.741 514.464 236.971 514.294Z" fill="#253650" stroke="#253650" stroke-width="1.31978" stroke-miterlimit="10" stroke-linecap="round" stroke-linejoin="round"/>
<path d="M195.762 388.85L285.744 392.775C285.744 392.775 303.315 393.566 302.947 410.646C302.838 415.826 300.944 420.829 297.849 424.987L251.815 479.731L225.506 460.947L260.39 420.966L215.105 420.775C198.311 420.693 192.436 405.289 195.762 388.836V388.85Z" fill="#253650" stroke="#253650" stroke-width="1.31978" stroke-miterlimit="10" stroke-linecap="round" stroke-linejoin="round"/>
<path d="M260.389 420.987C260.389 420.987 265.8 413.994 277.537 410.75" stroke="white" stroke-width="0.8" stroke-miterlimit="10"/>
<path d="M251.488 479.477L289.008 436.25" stroke="white" stroke-linecap="round" stroke-linejoin="round"/>
<path d="M279.09 358.34L249.878 322.448C245.665 317.268 238.059 316.464 232.852 320.649C227.495 324.956 226.772 332.849 231.257 338.056L261.342 372.98C265.854 378.31 274.033 378.419 278.695 373.212C282.443 369.013 282.607 362.729 279.09 358.354V358.34Z" fill="#C7E0FF"/>
<path d="M295.982 334.908L289.521 347.517L278.52 340.96L286.958 330.109L295.982 334.908Z" fill="#C7E0FF"/>
<path d="M279.743 371.774L300.367 347.073L279.824 333.469L260.413 359.342C256.705 365.258 259.104 373.096 265.484 375.945C270.623 378.235 276.662 376.476 279.756 371.787L279.743 371.774Z" fill="#C7E0FF"/>
<path d="M213.027 318.947L195.538 325.776C193.098 326.798 192.689 328.925 192.239 331.529C190.194 343.252 185.273 377.658 191.08 410.128C191.08 410.128 197.283 413.754 223.074 403.953L251.305 382.184L245.116 325.612C244.693 321.782 243.126 318.183 239.268 318.047L227.504 318.347L213.027 318.96V318.947Z" fill="#C7E0FF"/>
<path d="M246.506 341.522L245.715 331.203" stroke="#253650" stroke-miterlimit="10" stroke-linecap="round" stroke-linejoin="round"/>
<path d="M255.743 349.911L296.201 312.383L296.938 321.039L257.774 360.952L255.743 349.911Z" fill="#E0EEFF"/>
<path d="M255.743 349.903L296.201 312.375L296.938 321.031L257.774 360.944L255.743 349.903Z" fill="#E0EEFF" stroke="#657A99" stroke-miterlimit="10" stroke-linecap="round" stroke-linejoin="round"/>
<path d="M252.317 349.794L254.784 343.905L246.523 341.506C246.101 341.342 245.664 341.206 245.187 341.124C240.035 340.17 235.782 343.223 231.978 350.107C228.175 356.991 221.237 355.069 217.256 356.609C213.276 358.136 192.447 364.066 196.55 390.811C199.058 407.169 203.188 417.72 209.854 420.542C210.522 420.828 211.204 421.019 211.926 421.155L219.683 423.431L221.918 418.688C223.186 417.951 224.495 417.093 225.871 416.043C225.871 416.043 232.374 412.417 239.244 391.397C239.244 391.397 240.962 384.704 246.319 382.032C251.472 379.456 259.092 369.968 252.317 349.821V349.794Z" fill="#E0EEFF"/>
<path d="M245.187 341.124C240.035 340.17 235.782 343.223 231.978 350.107C229.506 354.581 225.71 355.336 222.262 355.738M217.256 356.609C213.276 358.136 192.447 364.066 196.55 390.811C199.058 407.169 203.188 417.72 209.854 420.542C210.522 420.828 211.204 421.019 211.926 421.155L219.683 423.431L221.918 418.688C223.186 417.951 224.495 417.093 225.871 416.043C225.871 416.043 232.374 412.417 239.244 391.397C239.244 391.397 240.962 384.704 246.319 382.032C251.472 379.456 259.092 369.968 252.317 349.821V349.794L254.784 343.905L247.523 341.796" stroke="#657A99" stroke-miterlimit="10" stroke-linecap="round" stroke-linejoin="round"/>
<path d="M261.085 350.22C261.085 350.22 259.94 344.877 254.774 343.909C249.607 342.941 245.368 346.008 241.565 352.892C237.762 359.776 230.823 357.854 226.843 359.394C222.862 360.921 202.033 366.851 206.136 393.596C210.253 420.341 218.65 431.615 235.471 418.815C235.471 418.815 241.974 415.188 248.844 394.169C248.844 394.169 250.562 387.475 255.919 384.804C261.262 382.132 269.291 372.004 261.072 350.22H261.085Z" fill="white"/>
<path d="M257.923 349.915L295.982 314.609L299.117 321.043L259.94 360.957L257.923 349.915Z" fill="white"/>
<path d="M309.232 316.416C309.614 316.756 310.2 316.784 310.609 316.456C311.086 316.088 311.168 315.407 310.8 314.93L300.63 302.171C300.262 301.693 299.581 301.612 299.104 301.98C298.627 302.348 298.545 303.029 298.913 303.506L309.082 316.266C309.082 316.266 309.177 316.375 309.232 316.416Z" fill="#657A99"/>
<path d="M306.193 319.931C306.575 320.272 307.161 320.299 307.57 319.972C308.047 319.604 308.129 318.922 307.761 318.445L297.591 305.686C297.223 305.209 296.542 305.127 296.065 305.495C295.587 305.863 295.506 306.545 295.874 307.022L306.043 319.781C306.043 319.781 306.138 319.89 306.193 319.931Z" fill="#657A99"/>
<path d="M307.32 302.812H304.744L293.348 310.869L294.207 315.285L300.9 312.068L307.32 302.812Z" fill="#E0EEFF" stroke="#657A99" stroke-miterlimit="10" stroke-linecap="round" stroke-linejoin="round"/>
<path d="M295.983 314.604L295.315 311.673L307.324 302.812L311.359 309.465L302.322 321.038H299.118L295.983 314.604Z" fill="white"/>
<path d="M227.848 373.914L235.113 390.599L231.351 393.639L224.303 377.472L227.848 373.914Z" fill="#C7E0FF"/>
<path d="M250.652 370.509C250.652 374.366 248.103 377.502 244.954 377.502C241.805 377.502 239.256 374.366 239.256 370.509C239.256 366.651 241.805 363.516 244.954 363.516C248.103 363.516 250.652 366.651 250.652 370.509Z" fill="#C7E0FF"/>
<path d="M296.703 316.25L229.976 378.792" stroke="#657A99" stroke-miterlimit="10" stroke-linecap="round" stroke-linejoin="round"/>
<path d="M297.547 317.82L231.243 381.698" stroke="#657A99" stroke-miterlimit="10" stroke-linecap="round" stroke-linejoin="round"/>
<path d="M298.229 319.664L232.797 385.273" stroke="#657A99" stroke-miterlimit="10" stroke-linecap="round" stroke-linejoin="round"/>
<path d="M295.978 314.602L299.113 321.036" stroke="#657A99" stroke-miterlimit="10" stroke-linecap="round" stroke-linejoin="round"/>
<path d="M294.193 342.567C294.193 342.567 295.801 338.21 297.587 330.944C298.8 326.01 299.073 322.343 299.127 320.503C299.154 319.644 298.855 318.812 298.282 318.172C297.328 317.095 295.706 315.459 294.193 314.777C293.347 314.396 292.311 314.682 291.821 315.459C291.507 315.963 291.439 316.618 292.216 317.354L295.31 319.957C295.447 320.066 295.528 320.23 295.542 320.407L295.706 322.575C295.392 322.916 294.708 323.61 294.479 323.654C294.193 323.708 288.494 316.913 286.995 316.186C285.667 315.542 284.169 316.48 284.962 317.693C284.17 316.846 282.902 315.774 281.82 316.459C280.426 317.339 280.493 318.341 282.499 320.379C281.976 320.902 281.076 322.565 282.332 323.95C283.901 325.682 287.264 328.245 286.995 330.127L286.245 335.375C286.082 336.506 294.193 342.567 294.193 342.567Z" fill="white" stroke="#253650" stroke-width="1.31978" stroke-miterlimit="10" stroke-linecap="round" stroke-linejoin="round"/>
<path d="M285.461 318.25L291.375 324.363" stroke="#253650" stroke-linecap="round" stroke-linejoin="round"/>
<path d="M282.504 320.203L288.418 326.316" stroke="#253650" stroke-linecap="round" stroke-linejoin="round"/>
<path d="M211.601 389.631L219.374 389.229C219.374 389.229 223.136 391.544 227.167 394.783C227.167 394.783 230.132 400.386 231.65 401.875C233.168 403.365 235.022 403.926 233.627 400.798C232.231 397.667 230.351 393.268 231.007 393.145C231.664 393.023 235.308 399.291 237.445 401.126C238.065 401.658 240.043 402.676 240.509 401.628C242.952 401.303 241.381 398.552 241.01 397.87C241.01 397.87 243.544 397.804 242.534 395.948C240.637 392.466 234.315 383.38 230.269 381.243C226.222 379.106 216.462 375.448 214.594 375.859C213.663 376.064 209.2 379.599 211.595 389.629L211.601 389.631Z" fill="white" stroke="#253650" stroke-width="1.31978" stroke-miterlimit="10" stroke-linecap="round" stroke-linejoin="round"/>
<path d="M234.491 389.053C234.491 389.053 238.663 394.274 241.176 398.127" stroke="#253650" stroke-width="1.31978" stroke-miterlimit="10" stroke-linecap="round" stroke-linejoin="round"/>
<path d="M233.593 391.89C233.593 391.89 237.879 397.758 240.392 401.611" stroke="#253650" stroke-width="1.31978" stroke-miterlimit="10" stroke-linecap="round" stroke-linejoin="round"/>
<path d="M178.328 390.606L216.361 390.606L219.745 371.991L181.484 367.825C174.56 366.961 168.457 372.429 168.554 379.406C168.635 385.029 172.77 389.767 178.328 390.606Z" fill="#C7E0FF"/>
<path d="M190.288 383.686L211.212 342.409C214.238 336.452 211.88 329.173 205.95 326.12C199.843 322.971 192.332 325.506 189.402 331.736L169.718 373.421C166.678 379.705 169.909 387.23 176.561 389.37C181.918 391.088 187.725 388.689 190.301 383.686H190.288Z" fill="#C7E0FF"/>
<path d="M209.848 345.078L196.84 369.963H199.761" stroke="#253650" stroke-miterlimit="10" stroke-linecap="round" stroke-linejoin="round"/>
<path d="M234.772 283.278C240.261 285.751 244.199 289.314 243.376 302.774C246.983 315.174 240.248 319.77 237.052 320.862C233.941 321.924 230.797 322.417 230.797 322.417L230.797 334.278L227.629 339.331C227.629 339.331 205.083 326.004 202.779 323.699L209.975 320.36L213.076 311.775C213.076 311.775 209.37 310.334 208.543 306.214C207.716 302.095 209.523 299.362 213.076 299.665C213.076 299.665 228.256 280.339 234.768 283.271L234.772 283.278Z" fill="white" stroke="#253650" stroke-width="1.31978" stroke-miterlimit="10" stroke-linecap="round" stroke-linejoin="round"/>
<path d="M230.021 309.151C230.021 309.151 232.267 313.642 236.586 311.695" stroke="#253650" stroke-width="1.31978" stroke-miterlimit="10" stroke-linecap="round" stroke-linejoin="round"/>
<path d="M234.925 301.352C234.925 302.067 235.426 304.39 235.426 304.39C236.226 304.39 238.098 304.854 238.086 306.085C238.073 307.421 235.759 307.225 234.925 307.392" stroke="#253650" stroke-width="1.31978" stroke-miterlimit="10" stroke-linecap="round" stroke-linejoin="round"/>
<path d="M213.066 302.641C212.299 302.678 210.937 302.764 210.539 303.771C209.941 305.288 211.469 307.588 213.066 307.79" stroke="#253650" stroke-width="1.31978" stroke-miterlimit="10" stroke-linecap="round" stroke-linejoin="round"/>
<path d="M220.787 319.25L230.602 322.437L230.706 325.858L220.787 319.25Z" fill="#253650" stroke="#253650" stroke-width="1.31978" stroke-miterlimit="10" stroke-linecap="round" stroke-linejoin="round"/>
<path d="M216.16 311.312C216.16 311.312 215.141 311.718 213.241 311.861" stroke="#253650" stroke-width="1.31978" stroke-miterlimit="10" stroke-linecap="round" stroke-linejoin="round"/>
<path d="M246.628 286.841C243.555 292.886 236.427 291.686 223.187 290.44L221.241 296.472C221.241 296.472 218.691 296.413 218.438 297.649C218.186 298.884 218.937 305.368 218.937 305.368L217.062 305.487C217.062 305.487 217.265 302.14 215.921 300.844C214.172 299.157 210.872 299.502 209.487 300.566C209.487 300.566 209.189 296.082 209.251 293.311C209.313 290.54 212.368 281.136 222.855 279.792C232.81 262.999 252.456 275.375 246.628 286.841Z" fill="#253650" stroke="#253650" stroke-width="1.31978" stroke-miterlimit="10" stroke-linecap="round" stroke-linejoin="round"/>
<path d="M209.799 283.328L212.969 284.421" stroke="#253650" stroke-width="1.31978" stroke-miterlimit="10" stroke-linecap="round" stroke-linejoin="round"/>
<path d="M209.798 286.021L212.359 285.516" stroke="#253650" stroke-width="1.31978" stroke-miterlimit="10" stroke-linecap="round" stroke-linejoin="round"/>
<path d="M228.801 300.633C228.75 299.66 229.16 298.848 229.718 298.818C230.275 298.789 230.768 299.554 230.82 300.527C230.871 301.5 230.46 302.313 229.903 302.342C229.346 302.371 228.852 301.606 228.801 300.633Z" fill="#253650"/>
<path d="M238.561 299.914C238.51 298.941 238.92 298.129 239.478 298.1C240.035 298.07 240.528 298.835 240.579 299.808C240.63 300.781 240.22 301.594 239.663 301.623C239.105 301.653 238.612 300.888 238.561 299.914Z" fill="#253650"/>
<path d="M346.395 0V25.5398M346.395 83.69V44.0265M346.395 38.0183V32.1642" stroke="#253650" stroke-miterlimit="10" stroke-linecap="round" stroke-linejoin="round"/>
<path d="M341.866 83.6875H352.246L355.607 97.2107H338.199L341.866 83.6875Z" fill="#253650" stroke="#253650" stroke-miterlimit="10" stroke-linecap="round" stroke-linejoin="round"/>
<path d="M274.969 128.509C274.969 128.509 302.351 96.2109 346.385 96.2109C390.42 96.2109 423.717 128.509 423.717 128.509H274.969Z" fill="white"/>
<path d="M346.385 96.2109C302.351 96.2109 274.969 128.509 274.969 128.509H386.225C349.475 128.509 344.353 106.977 346.385 96.2109Z" fill="#C7E0FF"/>
<path d="M668.121 250.484V370.099M668.121 486.364V472.295M668.121 468.291V380.809M668.121 376.441V373.087" stroke="#657A99" stroke-miterlimit="10" stroke-linecap="round" stroke-linejoin="round"/>
<path d="M721.96 486.362L680.373 318.354M622.512 486.362L632.331 439.531M678.628 311.304L668.12 268.852L633.577 433.591" stroke="#657A99" stroke-miterlimit="10" stroke-linecap="round" stroke-linejoin="round"/>
<path d="M709.344 198.828H629.758V250.482H709.344V198.828Z" fill="white"/>
<path d="M629.758 250.482H709.344C673.153 245.977 652.294 214.169 646.388 198.828H629.758V250.482Z" fill="#C7E0FF"/>
<path d="M431.952 363.808C438.666 352.296 463.113 349.123 493.556 374.913C493.556 374.913 483.887 313.665 502.869 310.804C521.85 307.937 539.401 326.919 573.786 321.191C608.17 315.464 636.82 302.21 643.984 306.863C651.148 311.516 632.167 385.3 618.195 398.192C604.229 411.083 592.405 366.312 567.696 376.343C542.98 386.374 553.011 428.279 515.048 429.709C477.085 431.139 465.98 407.86 455.949 397.473C445.918 387.086 426.936 372.402 431.952 363.808Z" fill="#E0EEFF"/>
<path d="M455.951 397.473C445.92 387.086 426.938 372.402 431.954 363.808C438.668 352.296 463.115 349.123 493.558 374.913C493.558 374.913 483.889 313.665 502.871 310.804C521.852 307.937 539.403 326.919 573.788 321.191C578.337 320.433 582.787 319.544 587.1 318.581M640.641 343.18C639.524 347.693 638.255 352.339 636.879 356.938M641.973 337.552C645.52 321.781 646.867 308.734 643.986 306.863C638.39 303.228 619.685 310.519 595.378 316.615M589.845 317.955C590.316 317.845 590.786 317.734 591.255 317.623" stroke="#657A99" stroke-miterlimit="10" stroke-linecap="round" stroke-linejoin="round"/>
<path d="M482.905 486.751H477.928C477.928 486.751 480.962 459.134 485.479 442.402C486.924 437.049 499.832 438.657 497.789 444.74C495.747 450.824 482.905 486.751 482.905 486.751Z" fill="white" stroke="#657A99" stroke-miterlimit="10" stroke-linecap="round" stroke-linejoin="round"/>
<path d="M620.032 486.751H625.009C625.009 486.751 620.032 456.56 617.458 439.402C616.013 434.049 603.106 435.657 605.148 441.74C607.191 447.824 620.032 486.751 620.032 486.751Z" fill="white" stroke="#657A99" stroke-miterlimit="10" stroke-linecap="round" stroke-linejoin="round"/>
<path d="M529.905 486.751H524.928C524.928 486.751 527.962 459.134 532.479 442.402C533.924 437.049 546.832 438.657 544.789 444.74C542.747 450.824 529.905 486.751 529.905 486.751Z" fill="white" stroke="#657A99" stroke-miterlimit="10" stroke-linecap="round" stroke-linejoin="round"/>
<path d="M431.951 363.807C426.936 372.401 445.917 387.086 455.948 397.473C465.979 407.86 477.079 431.139 515.048 429.708C553.017 428.278 542.986 386.367 567.695 376.343C592.411 366.312 604.228 411.083 618.194 398.191C623.984 392.845 630.642 377.03 635.933 360.016C635.933 360.016 625.752 416.492 621.067 429.771C616.389 443.05 600 452.881 553.661 452.881C507.322 452.881 489.521 453.537 476.423 452.881C453.125 451.719 460.976 419.178 454.887 409.346C448.803 399.515 423.044 380.053 431.945 363.807H431.951Z" fill="#C7E0FF"/>
<path d="M515.048 429.708C477.079 431.139 465.979 407.86 455.948 397.473C445.917 387.086 426.936 372.401 431.951 363.807H431.945C423.044 380.053 448.803 399.515 454.887 409.346C460.976 419.178 453.125 451.719 476.423 452.881C489.381 453.53 506.944 452.895 552.194 452.881M619.843 396.42C625.22 389.87 631.138 375.436 635.933 360.016C635.933 360.016 629.234 397.176 624.204 418.298M617.342 398.909C604.141 408.974 592.605 368.988 569.802 375.609M565.353 377.441C545.674 387.985 550.475 421.088 524.4 428.335M555.451 452.876C556.015 452.873 556.575 452.868 557.13 452.862M561.443 452.783C601.866 451.726 616.661 442.278 621.067 429.771C621.38 428.885 621.717 427.807 622.074 426.566M517.836 429.524C518.999 429.411 520.114 429.258 521.182 429.066M622.902 423.534C623.06 422.93 623.221 422.304 623.384 421.655L622.902 423.534Z" stroke="#657A99" stroke-miterlimit="10" stroke-linecap="round" stroke-linejoin="round"/>
<path d="M598.032 486.751H603.009C603.009 486.751 598.032 460.802 595.458 442.402C594.013 437.049 581.106 438.657 583.148 444.74C585.191 450.824 598.032 486.751 598.032 486.751Z" fill="white" stroke="#657A99" stroke-miterlimit="10" stroke-linecap="round" stroke-linejoin="round"/>
<path d="M489.362 335.081C477.887 337.426 423.649 359.603 419.227 364.752C414.813 369.901 417.009 377.165 422.057 382.526C427.105 387.886 446.074 414.698 465.925 427.626C485.776 440.563 481.299 443.119 485.776 447.496C486.484 448.185 486.825 441.262 486.025 436.269C485.225 431.276 480.122 429.575 479.101 425.603C478.08 421.631 477.51 412.547 475.009 412.096C472.518 411.646 467.295 416.749 465.594 416.749C463.893 416.749 454.744 406.533 450.524 396.088C446.303 385.643 443.582 377.928 438.24 374.977L501.366 358.12C501.366 358.12 508.589 331.136 489.362 335.072V335.081Z" fill="white" stroke="#253650" stroke-width="1.31978" stroke-miterlimit="10" stroke-linecap="round" stroke-linejoin="round"/>
<path d="M509.746 350.719C502.399 356.521 499.08 365.247 496.579 381.475C494.078 397.704 489.885 426.309 487.954 431.302C486.023 436.294 478.989 444.239 477.399 454.003C475.808 463.768 475.808 489.716 473.537 494.065C471.266 498.414 468.121 500.51 469.565 503.489C471.882 508.262 477.573 510.661 478.392 515.213C478.76 517.254 478.346 523.893 482.658 524.463C486.97 525.033 498.786 524.021 496.34 523.534C487.587 521.787 489.72 511.057 481.592 495.095C479.449 490.883 498.96 456.394 500.321 444.698C501.682 433.012 504.183 426.539 512.008 411.101C519.842 395.663 530.324 376.712 528.806 355.031C528.126 345.303 519.474 343.023 509.737 350.719H509.746Z" fill="white" stroke="#253650" stroke-width="1.31978" stroke-miterlimit="10" stroke-linecap="round" stroke-linejoin="round"/>
<path d="M467.643 414.803C467.643 414.803 470.3 421.404 469.197 425.248C469.197 425.248 462.549 423.464 463.055 426.655C463.561 429.836 471.33 432.383 476.047 436.842C480.764 441.302 484.285 445.706 484.285 445.706L486.869 446.653C486.869 446.653 488.782 436.079 485.085 432.383C478.005 425.303 478.649 412.973 475.909 411.235C474.511 410.343 467.625 414.803 467.625 414.803H467.643Z" fill="#253650" stroke="#253650" stroke-width="1.31978" stroke-miterlimit="10" stroke-linecap="round" stroke-linejoin="round"/>
<path d="M488.555 438.852C488.242 435.91 487.056 433.289 485.483 430.816C483.681 427.993 481.907 425.409 480.923 422.164C479.737 418.256 479.369 414.247 477.319 410.634C476.721 409.576 475.084 410.523 475.682 411.59C477.539 414.863 477.999 418.55 478.946 422.136C479.755 425.216 481.263 427.883 483.01 430.503C484.27 432.388 485.382 434.255 486.072 436.36C481.953 437.997 479.967 441.068 479.967 441.068C480.509 442.466 483.865 447.863 485.566 449.123C485.548 449.187 485.529 449.251 485.52 449.316C485.198 450.493 487.019 450.989 487.35 449.822C488.334 446.245 488.95 442.558 488.555 438.852Z" fill="#E0EEFF"/>
<path d="M473.199 429.963C471.995 431.168 470.891 432.354 470.468 434.046C470.367 434.441 470.983 434.606 471.075 434.211C471.47 432.62 472.509 431.526 473.64 430.404C473.925 430.119 473.484 429.669 473.19 429.963H473.199Z" fill="white"/>
<path d="M476.952 433.203C475.655 434.049 474.561 435.125 474.248 436.688C474.175 437.084 474.782 437.258 474.855 436.854C475.131 435.447 476.106 434.509 477.264 433.746C477.604 433.525 477.292 432.974 476.942 433.203H476.952Z" fill="white"/>
<path d="M479.932 436.777C479.068 437.494 478.066 438.57 478.103 439.774C478.121 440.179 478.746 440.179 478.737 439.774C478.7 438.745 479.647 437.825 480.383 437.218C480.695 436.961 480.245 436.51 479.932 436.777Z" fill="white"/>
<path d="M385.548 328.906C385.548 328.906 379.745 329.983 377.194 331.59C376.562 332.189 376.63 334.527 378.708 333.902C380.795 333.276 382.541 331.646 386.587 332.032C391.175 332.465 393.98 332.134 393.98 332.134L385.548 328.906Z" fill="white" stroke="#253650" stroke-width="1.31978" stroke-miterlimit="10" stroke-linecap="round" stroke-linejoin="round"/>
<path d="M536.673 173.83C536.673 173.83 539.215 168.503 541.427 166.455C542.169 166 544.41 166.67 543.268 168.516C542.124 170.37 540.098 171.634 539.424 175.642C538.654 180.186 537.608 182.809 537.608 182.809L536.673 173.83Z" fill="white" stroke="#253650" stroke-width="1.31978" stroke-miterlimit="10" stroke-linecap="round" stroke-linejoin="round"/>
<path d="M492.176 263.807C498.381 256.323 504.184 249.904 507.945 245.776C511.696 241.648 523.556 227.825 523.556 227.825C523.556 227.825 534.294 196.818 535.048 191.752C535.802 186.686 534.902 176.809 534.351 174.796C533.799 172.782 531.883 165.747 533.964 164.787C534.533 164.524 535.158 164.756 536.326 170.521C537.291 175.302 538.34 178.603 539.535 181.168C540.721 183.734 541.64 186.023 543.102 185.104C544.564 184.184 546.423 176.433 548.684 178.879C549.226 179.466 546.77 182.936 546.678 185.777C546.586 188.618 545.098 197.22 540.804 198.406C540.804 198.406 536.276 223.739 532.709 231.242C529.141 238.745 519.42 258.823 516.303 265.591C513.195 272.367 525.308 299.058 523.101 320.399C523.101 320.399 529.893 341.971 528.946 354.697C528.946 354.697 519.503 345.07 501.913 359.929C493.16 331.416 485.372 336.124 485.372 336.124C485.372 336.124 494.622 329.871 494.3 323.876C493.987 317.881 481.372 309.68 474.743 306.213C474.743 306.213 452.777 319.463 443.095 322.617C433.422 325.77 422.978 331.71 409.728 336.105C408.689 336.455 404.578 339.183 400.919 340.16C396.242 341.409 390.94 341.878 388.761 342.402C388.761 342.402 388.858 339.878 391.461 339.253C394.063 338.627 398.115 337.144 398.005 336.105C397.904 335.066 393.1 332.542 389.573 331.002C381.883 327.644 378.338 329.503 378.049 328.042C377.759 326.58 380.753 325.51 384.082 326.025C387.41 326.549 395.093 328.772 402.798 329.084C410.504 329.397 438.137 312.308 438.137 312.308L472.462 287.29L492.176 263.807Z" fill="white" stroke="#253650" stroke-width="1.31978" stroke-miterlimit="10" stroke-linecap="round" stroke-linejoin="round"/>
<path d="M472.627 494.734C472.627 494.734 477.023 500.693 479.156 500.978C479.156 500.978 478.052 497.456 480.195 495.921C482.374 494.357 485.822 494.128 486.438 500.224C486.833 504.177 490.033 518.99 491.385 520.434L481.059 523.836C481.059 523.836 477.657 522.282 478.163 517.39C478.687 512.379 471.965 507.745 469.749 504.527C468.085 502.118 468.14 499.893 472.637 494.734H472.627Z" fill="#253650" stroke="#253650" stroke-width="1.31978" stroke-miterlimit="10" stroke-linecap="round" stroke-linejoin="round"/>
<path d="M481.092 505.034C483.235 505.107 485.506 504.675 487.262 503.379C487.584 503.14 487.262 502.588 486.94 502.836C485.267 504.068 483.143 504.473 481.092 504.399C480.688 504.39 480.688 505.015 481.092 505.034Z" fill="white"/>
<path d="M482.499 509.235C482.104 509.152 481.929 509.759 482.334 509.842C484.449 510.292 487.235 509.768 488.835 508.251C489.129 507.975 488.687 507.525 488.393 507.81C486.968 509.161 484.394 509.649 482.509 509.244L482.499 509.235Z" fill="white"/>
<path d="M484.006 513.489C483.62 513.361 483.455 513.977 483.841 514.096C485.744 514.712 487.96 513.728 489.477 512.598C489.799 512.358 489.477 511.807 489.155 512.055C487.767 513.085 485.753 514.05 484.006 513.489Z" fill="white"/>
<path d="M497.653 523.393C496.826 521.618 490.574 518.768 490.574 518.768C488.928 517.573 484.689 522.593 481.048 523.834C480.873 523.577 479.871 521.481 479.751 521.177C479.117 519.54 479.163 517.665 478.905 515.945C478.648 514.226 477.931 512.608 476.975 511.173C475.936 509.619 474.501 508.341 473.241 506.98C471.807 505.436 470.566 503.79 469.564 501.933C468.984 500.857 467.348 501.813 467.927 502.889C468.929 504.746 470.17 506.392 471.577 507.964C473.021 509.583 474.685 511.017 475.825 512.874C477.83 516.129 476.478 520.653 478.979 523.605C481.342 526.391 485.829 526.639 489.231 526.62C492.118 526.602 495.125 526.023 497.902 525.25C498.987 524.947 498.646 523.384 497.663 523.393H497.653Z" fill="#C7E0FF"/>
<path d="M452.648 300.787L461.243 314.349C462.647 314.481 473.654 307.723 474.975 307.529C476.295 307.334 474.975 314.349 484.983 314.676C487.613 317.291 490.83 322.162 490.83 322.162C490.83 322.162 514.114 313.843 524.752 314.349C524.752 314.349 524.078 295.157 521.715 289.585C521.715 289.585 519.187 274.68 517.66 267.784L521.908 254.872C521.908 254.872 518.193 248.03 513.633 237.906C513.633 237.906 509.22 241.708 506.351 244.889C503.482 248.071 500.613 252.171 500.613 252.171L483.756 271.144L470.234 286.937L452.648 300.787Z" fill="#C7E0FF"/>
<path d="M491.416 322.241C491.416 322.241 509.048 313.744 524.66 314.351C524.66 314.351 525.812 331.848 530.161 343.314C534.501 354.771 529.803 387.522 515.809 411.714C501.814 435.905 501.695 445.366 500.729 454.901C499.764 464.427 488.997 477.474 487.388 477.769C485.779 478.063 467.698 473.464 467.698 473.464L496.369 365.074C496.369 365.074 470.193 371.723 445.239 375.045L461.991 405.326L445.073 421.028C445.073 421.028 404.213 369.749 418.446 359.488C432.679 349.226 463.564 340.546 470.193 338.248C476.832 335.958 485.797 332.97 490.183 331.995C490.183 331.995 490.258 322.775 491.416 322.241Z" fill="#253650" stroke="#253650" stroke-width="1.31978" stroke-miterlimit="10" stroke-linecap="round" stroke-linejoin="round"/>
<path d="M513.18 320.781C514.14 325.774 518.565 335.931 528.586 336.621" stroke="white" stroke-linecap="round" stroke-linejoin="round"/>
<g style="mix-blend-mode:multiply" opacity="0.5">
<path d="M467.327 363.629C453.865 367.139 431.641 370.592 431.641 370.592C431.641 370.592 443.308 399.435 456.637 410.403L461.988 405.357C461.988 405.357 460.124 401.959 455.17 393.067C451.895 387.187 445.262 375.03 445.262 375.03C470.158 371.788 495.967 364.962 495.967 364.962C495.967 364.962 500.481 357.919 501.649 352.328C490.956 357.974 481.207 360.011 467.327 363.629Z" fill="#253650"/>
<path d="M467.327 363.629C453.865 367.139 431.641 370.592 431.641 370.592C431.641 370.592 443.308 399.435 456.637 410.403L461.988 405.357C461.988 405.357 460.124 401.959 455.17 393.067C451.895 387.187 445.262 375.03 445.262 375.03C470.158 371.788 495.967 364.962 495.967 364.962C495.967 364.962 500.481 357.919 501.649 352.328C490.956 357.974 481.207 360.011 467.327 363.629Z" stroke="#253650" stroke-width="1.31978" stroke-miterlimit="10" stroke-linecap="round" stroke-linejoin="round"/>
</g>
<g style="mix-blend-mode:multiply" opacity="0.5">
<path d="M530.162 343.31C525.822 331.854 523.898 320.507 523.898 320.507C511.421 320.02 498.164 322.944 495.35 324.139C508.094 323.395 522.576 324.213 523.247 339.963C523.854 354.482 519.413 371.226 514.172 384.944C511.754 391.399 508.324 397.651 505.097 403.904C502.476 408.345 499.654 413.181 498.844 418.422C498.035 422.661 499.249 426.89 499.856 430.927C500.665 436.977 500.058 442.623 498.642 448.47C495.856 458.575 491.268 468.267 486.367 477.802C486.809 477.802 487.158 477.783 487.379 477.746C488.988 477.452 499.755 464.414 500.72 454.879C501.686 445.344 501.805 435.883 515.8 411.692C529.794 387.5 534.492 354.758 530.153 343.292L530.162 343.31Z" fill="#253650"/>
<path d="M530.162 343.31C525.822 331.854 523.898 320.507 523.898 320.507C511.421 320.02 498.164 322.944 495.35 324.139C508.094 323.395 522.576 324.213 523.247 339.963C523.854 354.482 519.413 371.226 514.172 384.944C511.754 391.399 508.324 397.651 505.097 403.904C502.476 408.345 499.654 413.181 498.844 418.422C498.035 422.661 499.249 426.89 499.856 430.927C500.665 436.977 500.058 442.623 498.642 448.47C495.856 458.575 491.268 468.267 486.367 477.802C486.809 477.802 487.158 477.783 487.379 477.746C488.988 477.452 499.755 464.414 500.72 454.879C501.686 445.344 501.805 435.883 515.8 411.692C529.794 387.5 534.492 354.758 530.153 343.292L530.162 343.31Z" stroke="#253650" stroke-width="1.31978" stroke-miterlimit="10" stroke-linecap="round" stroke-linejoin="round"/>
</g>
<path d="M500.62 323.367V329.861L492.316 337.272" stroke="white" stroke-linecap="round" stroke-linejoin="round"/>
<path d="M491.66 326.537C497.563 323.869 512.245 318.738 523.754 319.556" stroke="white" stroke-linecap="round" stroke-linejoin="round"/>
<path d="M477.37 275.633C463.159 291.053 458.115 281.853 457.158 277.273L472.992 264.344L477.37 275.633Z" fill="#253650" stroke="#253650" stroke-miterlimit="10" stroke-linecap="round" stroke-linejoin="round"/>
<path d="M477.569 260.609L487.915 264.86C487.915 264.86 488.941 275.363 485.425 280.69C485.425 280.69 481.337 280.714 478.674 276.611L472.649 269.248C472.649 269.248 467.523 276.717 461.308 277.617C455.094 278.516 451.756 274.759 450.221 269.662C449.178 266.195 445.556 263.322 443.945 260.399C442.333 257.476 439.637 249.97 444.505 246.671C449.069 243.779 459.037 245.755 463.358 247.244C465.249 247.896 469.732 244.665 473.026 246.072C477.254 247.878 480.186 254.305 480.186 254.305L477.568 260.607L477.569 260.609Z" fill="white" stroke="#253650" stroke-miterlimit="10" stroke-linecap="round" stroke-linejoin="round"/>
<path d="M451.44 261.209C451.897 261.639 453.078 263.356 453.078 263.356C452.597 263.866 451.767 265.34 452.561 266.073C453.422 266.868 454.688 265.273 455.296 264.841" stroke="#253650" stroke-miterlimit="10" stroke-linecap="round" stroke-linejoin="round"/>
<path d="M459.239 264.462C459.239 264.462 459.818 268.828 455.725 269.539" stroke="#253650" stroke-miterlimit="10" stroke-linecap="round" stroke-linejoin="round"/>
<path d="M455.32 258.095C454.878 257.364 454.18 256.976 453.761 257.229C453.342 257.482 453.36 258.28 453.802 259.011C454.244 259.743 454.941 260.131 455.36 259.878C455.779 259.625 455.761 258.827 455.32 258.095Z" fill="#253650"/>
<path d="M448.736 261.806C448.294 261.075 447.596 260.686 447.177 260.939C446.758 261.192 446.776 261.991 447.218 262.722C447.66 263.454 448.357 263.842 448.776 263.589C449.195 263.336 449.177 262.538 448.736 261.806Z" fill="#253650"/>
<path d="M443.409 247.41C443.409 247.41 448.844 251.794 455.929 247.278C455.929 247.278 458.993 254.515 463.039 254.049C463.039 254.049 461.555 251.209 465.114 249.743C468.673 248.277 473.007 255.311 469.087 258.062C469.087 258.062 475.831 268.015 480.402 268.806C484.973 269.597 493.785 265.504 495.656 257.389C498.599 244.62 483.382 234.199 470.636 232.404C455.058 230.21 443.411 247.409 443.411 247.409L443.409 247.41Z" fill="#253650" stroke="#253650" stroke-miterlimit="10" stroke-linecap="round" stroke-linejoin="round"/>
<path d="M465.176 252.715C465.592 252.139 466.711 251.344 467.854 252.771" stroke="#253650" stroke-miterlimit="10" stroke-linecap="round" stroke-linejoin="round"/>
<path d="M356.002 471.491C356.002 471.491 356.414 473.875 357.088 477.147C357.272 478.032 357.474 478.979 357.688 479.96C359.02 485.923 360.952 493.169 362.849 495.093C366.214 498.51 378.35 502.234 379.06 502.676C379.511 502.957 380.383 507.29 380.966 510.427C381.303 512.245 381.54 513.66 381.54 513.66C381.54 513.66 379.739 516.687 379.191 519.557C378.854 521.323 378.985 523.027 380.3 523.934C380.3 523.934 385.706 518.887 386.503 515.61C386.503 515.61 386.376 514.129 386.197 512.056C385.811 507.605 385.176 500.424 384.996 499.399C384.729 497.892 377.732 495.943 376.492 494.348C375.253 492.753 372.86 489.301 372.86 489.301C372.86 489.301 375.45 485.436 377.351 481.323C377.478 481.051 377.601 480.775 377.719 480.503C378.446 478.843 379.02 477.178 379.235 475.745C379.616 473.248 377.202 470.852 374.578 469.033C371.704 467.04 368.58 465.734 368.58 465.734L356.002 471.491Z" fill="#C7E0FF"/>
<g style="mix-blend-mode:overlay">
<path d="M357.365 478.475C357.269 478.019 357.173 477.572 357.085 477.147C356.41 473.875 355.998 471.491 355.998 471.491L368.577 465.734C368.577 465.734 380.029 470.519 379.232 475.745C378.982 477.415 378.242 479.399 377.348 481.323C377.348 481.323 374.285 483.57 367.372 482.475C367.372 482.475 365.961 491.824 367.372 493.721C368.783 495.618 380.029 500.438 380.542 501.314C381.05 502.19 382.873 513.8 382.873 513.8C382.873 513.8 380.244 516.289 379.188 519.557C379.736 516.687 381.536 513.66 381.536 513.66C381.536 513.66 379.766 503.119 379.057 502.676C378.347 502.234 366.211 498.51 362.846 495.093C360.949 493.169 359.017 485.923 357.69 479.96C357.624 479.653 357.558 479.36 357.497 479.062C357.475 478.952 357.449 478.843 357.427 478.738C357.409 478.654 357.387 478.567 357.37 478.479L357.365 478.475Z" fill="#253650"/>
</g>
<path d="M374.578 501.01C376.958 501.895 378.796 502.512 379.06 502.676C379.511 502.957 380.383 507.29 380.966 510.427C381.303 512.245 381.54 513.66 381.54 513.66C381.54 513.66 379.739 516.687 379.191 519.557C378.854 521.323 378.985 523.027 380.3 523.934C380.3 523.934 385.706 518.887 386.503 515.61C386.503 515.61 386.376 514.129 386.197 512.056C385.811 507.605 385.176 500.424 384.996 499.399C384.729 497.892 377.732 495.943 376.492 494.348C375.253 492.753 372.86 489.301 372.86 489.301C372.86 489.301 375.45 485.436 377.351 481.323C377.478 481.051 377.601 480.775 377.719 480.503C378.446 478.843 379.02 477.178 379.235 475.745C379.616 473.248 377.202 470.852 374.578 469.033C371.704 467.04 368.58 465.734 368.58 465.734L356.002 471.491C356.002 471.491 356.414 473.875 357.088 477.147C357.272 478.032 357.474 478.979 357.688 479.96C359.02 485.923 360.952 493.169 362.849 495.093C364.301 496.567 367.386 498.099 370.482 499.399" stroke="#253650" stroke-miterlimit="10" stroke-linecap="round" stroke-linejoin="round"/>
<path d="M377.143 457.825C378.821 464.799 386.622 470.258 395.183 464.464C403.748 458.667 398.146 448.562 404.795 439.639C411.444 430.716 419.932 432.318 421.398 433.099C421.398 433.099 419.25 433.555 418.232 436.384C417.212 439.209 418.389 444.659 415.334 450.807C415.334 450.807 418.189 447.84 419.176 442.216C419.176 442.216 420.032 451.864 411.722 459.887C403.413 467.91 397.865 469.763 397.865 469.763C397.865 469.763 399.939 469.668 403.413 467.91C403.413 467.91 396.848 472.903 388.446 472.736C380.046 472.575 375.695 463.508 375.662 460.709L377.141 457.82L377.143 457.825Z" fill="#C7E0FF"/>
<path d="M404.795 439.639C398.146 448.562 403.748 458.667 395.183 464.464C386.622 470.258 378.821 464.799 377.143 457.825L377.141 457.82L375.662 460.709C375.695 463.508 380.046 472.575 388.446 472.736C396.848 472.903 403.413 467.91 403.413 467.91C399.939 469.668 397.865 469.763 397.865 469.763C397.865 469.763 403.413 467.91 411.722 459.887C420.032 451.864 419.176 442.216 419.176 442.216C418.189 447.84 415.334 450.807 415.334 450.807C418.389 444.659 417.212 439.209 418.232 436.384C419.25 433.555 421.398 433.099 421.398 433.099C420.199 432.46 414.297 431.271 408.549 435.749" stroke="#253650" stroke-miterlimit="10" stroke-linecap="round" stroke-linejoin="round"/>
<path d="M336.499 443.032C336.499 443.203 336.508 443.374 336.517 443.545C336.815 451.006 339.04 459.448 341.674 463.54C341.858 463.821 342.068 464.11 342.318 464.399C344.587 467.076 349.547 470.121 354.979 472.806C355.054 472.846 355.124 472.881 355.198 472.916C363.014 476.758 371.75 479.829 374.865 479.961C376.806 480.044 378.344 479.418 379.549 478.375C381.801 476.443 382.909 473.078 383.369 470.156C383.483 469.437 383.295 468.517 382.874 467.453C380.684 461.88 372.197 452.434 368.131 448.07C368.131 448.07 367.172 446.226 367.282 443.553C367.321 442.541 367.518 441.407 367.987 440.215C367.987 440.215 367.299 425.713 374.694 421.451V416.5C374.694 416.5 369.314 411.185 363.89 413.582C363.89 413.582 354.8 418.607 347.338 423.996C343.417 426.83 339.947 429.761 338.484 432.123C337.402 433.867 336.802 436.329 336.583 439.142C336.482 440.381 336.456 441.687 336.499 443.032Z" fill="#E0EEFF"/>
<path d="M353.595 419.585C355.89 419.582 355.102 423.83 353.101 424.973C351.099 426.117 346.588 426.567 346.569 424.87C346.551 423.173 351.292 419.59 353.593 419.587L353.595 419.585Z" fill="#253650"/>
<g style="mix-blend-mode:overlay">
<path d="M352.962 440.268C354.811 445.964 344.436 449.14 344.436 449.14C345.773 453.512 350.001 458.625 353.505 462.314C353.803 460.11 354.815 456.728 358.071 454.397C358.071 454.397 357.44 449.517 359.565 443.852C359.565 443.852 358.36 449.714 359.941 455.015C359.941 455.015 355.14 458.765 355.762 464.606C357.47 466.279 358.666 467.322 358.666 467.322L354.982 472.811C349.549 470.126 344.59 467.081 342.32 464.404C342.071 464.115 341.86 463.826 341.676 463.545C339.043 459.453 336.818 451.011 336.52 443.55C336.511 443.379 336.507 443.208 336.502 443.037C343.376 439.957 351.884 436.934 352.962 440.268Z" fill="#253650"/>
</g>
<g style="mix-blend-mode:overlay">
<path d="M355.198 472.916C363.014 476.758 371.75 479.829 374.865 479.961C376.806 480.044 378.344 479.418 379.548 478.375C379.548 478.375 369.91 478.445 361.958 469.398C361.958 469.398 368.718 454.125 368.131 448.07L365.463 450.121L355.198 472.916Z" fill="#253650"/>
</g>
<path d="M382.874 467.453C383.295 468.517 383.483 469.437 383.369 470.156C382.909 473.078 381.801 476.443 379.549 478.375C378.344 479.418 376.806 480.044 374.865 479.961C371.75 479.829 363.014 476.758 355.198 472.916C355.124 472.881 355.054 472.846 354.979 472.806C349.547 470.121 344.587 467.076 342.318 464.399C342.068 464.11 341.858 463.821 341.674 463.54C339.04 459.448 336.815 451.006 336.517 443.545C336.508 443.374 336.499 443.203 336.499 443.032C336.456 441.687 336.482 440.381 336.583 439.142C336.802 436.329 337.402 433.867 338.484 432.123C339.947 429.761 343.417 426.83 347.338 423.996C354.8 418.607 363.89 413.582 363.89 413.582C369.314 411.185 374.694 416.5 374.694 416.5L376.118 418.143C368.425 425.269 367.987 440.215 367.987 440.215C367.518 441.407 367.321 442.541 367.282 443.553" stroke="#253650" stroke-miterlimit="10" stroke-linecap="round" stroke-linejoin="round"/>
<path d="M352.707 440.726C352.698 441.229 352.633 441.72 352.484 442.167C351.599 444.826 341.942 446.859 341.675 448.191C341.408 449.519 344.067 456.52 344.067 458.557C344.067 459.521 343.217 462.027 342.319 464.401C341.316 467.052 340.256 469.541 340.256 469.541C334.411 475.652 332.194 470.25 332.725 468.831C333.255 467.411 337.859 459.972 337.859 459.972C337.859 459.972 334.341 451.832 332.803 447.438C332.343 446.128 332.059 445.151 332.102 444.826C333.847 437.743 338.375 432.648 338.375 432.648L351.323 435.319C351.323 435.319 352.733 438.22 352.698 440.73L352.707 440.726Z" fill="#E0EEFF"/>
<path d="M352.484 442.167C351.599 444.826 341.943 446.859 341.676 448.191C341.409 449.518 344.068 456.519 344.068 458.556C344.068 459.52 343.218 462.026 342.32 464.401C341.317 467.052 340.257 469.54 340.257 469.54C334.412 475.652 332.195 470.25 332.725 468.83C333.255 467.411 337.86 459.972 337.86 459.972C337.86 459.972 336.722 457.337 335.457 454.257M338.288 432.438C338.288 432.438 333.848 437.743 332.103 444.826C332.059 445.15 332.344 446.127 332.804 447.437C333.219 448.624 333.779 450.083 334.375 451.582" stroke="#253650" stroke-miterlimit="10" stroke-linecap="round" stroke-linejoin="round"/>
<g style="mix-blend-mode:overlay">
<path d="M374.894 473.437C374.894 473.437 374.005 470.988 373.786 468.688L373.812 472.81L374.894 473.437Z" fill="#253650"/>
</g>
<path d="M373.485 454.056L373.485 454.045C373.485 454.045 385.2 464.963 385.848 468.271C386.189 469.996 385.532 472.186 384.926 474.206C384.37 476.059 383.857 477.768 384.197 478.843C384.906 481.086 390.102 486.93 390.633 487.347C390.966 487.605 392.797 490.764 394.107 493.068C394.882 494.431 395.474 495.496 395.474 495.496C397.248 496.735 397.927 498.33 397.927 498.33C396.333 501.875 391.281 502.847 391.281 502.847C389.511 500.99 390.663 497.358 390.663 497.358C390.663 497.358 390.203 496.381 389.625 495.136C388.749 493.244 387.601 490.733 387.386 490.094C387.21 489.566 385.424 488.19 383.516 486.721C381.575 485.225 379.508 483.633 378.882 482.738C378.567 482.291 378.155 481.471 377.717 480.499C376.522 477.842 375.117 474.039 374.919 473.501C364.016 467.032 362.017 457.244 362.017 457.244L360.475 443.242L367.274 443.558C367.165 446.226 368.124 448.075 368.124 448.075C369.531 449.584 371.465 451.701 373.485 454.056Z" fill="#E0EEFF"/>
<path d="M367.274 443.555C367.165 446.223 368.124 448.072 368.124 448.072C368.929 448.935 371.887 452.166 374.353 454.738C376.351 456.822 377.32 457.713 379.524 460.02M370.728 470.524C371.953 471.558 373.343 472.563 374.919 473.498C375.117 474.036 376.522 477.839 377.717 480.496C378.155 481.469 378.567 482.288 378.882 482.735C379.416 483.498 380.999 484.77 382.659 486.056M381.346 461.975C383.634 464.498 385.594 466.969 385.848 468.268C386.189 469.993 385.532 472.184 384.926 474.203C384.37 476.056 383.857 477.765 384.197 478.84C384.906 481.083 390.102 486.927 390.633 487.344C390.966 487.602 392.797 490.761 394.107 493.065C394.882 494.428 395.474 495.493 395.474 495.493C397.248 496.733 397.927 498.327 397.927 498.327C396.333 501.872 391.281 502.844 391.281 502.844C389.511 500.987 390.663 497.355 390.663 497.355C390.663 497.355 390.203 496.378 389.625 495.133C388.749 493.241 387.601 490.73 387.386 490.091C387.261 489.716 386.327 488.915 385.113 487.957" stroke="#253650" stroke-miterlimit="10" stroke-linecap="round" stroke-linejoin="round"/>
<path d="M367.362 437.911C367.362 437.911 369.842 444.088 367.717 450.213C365.592 456.338 360.926 465.727 359.936 467.589C358.946 469.451 353.189 482.914 352.703 483.887C352.212 484.86 343.809 487.558 346.723 478.748C346.723 478.748 355.8 466.879 356.002 465.99C356.204 465.105 353.667 460.676 359.941 455.006C359.941 455.006 355.757 435.922 367.367 437.911H367.362Z" fill="#E0EEFF"/>
<path d="M367.898 437.922C367.898 437.922 369.844 444.093 367.719 450.218C367.487 450.887 367.225 451.594 366.94 452.327M359.943 455.011C353.669 460.68 356.205 465.109 356.004 465.994C355.802 466.884 346.725 478.752 346.725 478.752C343.811 487.563 352.214 484.864 352.705 483.891C353.191 482.919 358.948 469.455 359.938 467.593C360.663 466.231 363.357 460.836 365.582 455.639" stroke="#253650" stroke-miterlimit="10" stroke-linecap="round" stroke-linejoin="round"/>
<path d="M356.087 418.266C363.536 413.359 361.847 404.691 361.847 404.691C361.847 404.691 361.972 400.992 361.916 398.553C361.846 395.45 361.77 392.129 362.157 390.189C362.848 386.724 364.299 382.404 364.989 382.288C365.68 382.176 369.989 388.316 372.023 394.502C372.023 394.502 373.98 394.499 375.21 394.773C375.21 394.773 376.732 389.379 377.633 387.098C378.534 384.818 379.434 383.655 379.973 383.762C380.512 383.87 385.353 390.124 385.636 402.702C385.636 402.702 394.025 403.536 394.266 404.423C394.507 405.31 395.848 410.29 392.737 412.087C392.163 412.418 388.653 413.202 385.286 413.955L385.286 413.955C382.131 414.66 379.101 415.337 378.728 415.587C377.958 416.101 375.21 421.346 370.449 428.075C364.472 429.217 360.048 429.452 356.087 418.266Z" fill="#E0EEFF"/>
<path d="M356.085 418.266C359.635 415.643 360.997 411.181 361.52 408.092M370.162 428.122C374.924 421.393 377.956 416.101 378.726 415.587C379.099 415.337 382.129 414.66 385.284 413.955C388.651 413.202 392.161 412.418 392.735 412.087C395.847 410.29 394.505 405.31 394.264 404.423C394.023 403.536 385.635 402.702 385.635 402.702C385.351 390.124 380.51 383.87 379.971 383.762C379.432 383.655 378.533 384.818 377.632 387.098C376.73 389.379 375.208 394.773 375.208 394.773C373.978 394.499 372.021 394.502 372.021 394.502C369.987 388.316 365.678 382.176 364.988 382.288C364.297 382.404 362.846 386.724 362.155 390.189C361.768 392.129 361.844 395.45 361.914 398.553C361.95 400.129 361.911 402.232 361.878 403.522" stroke="#253650" stroke-miterlimit="10" stroke-linecap="round" stroke-linejoin="round"/>
<path d="M376.438 395.122C376.438 395.122 377.766 388.481 380.18 385.588C380.18 385.588 382.167 388.262 382.983 395.343C382.983 395.343 380.331 394.202 376.442 395.119L376.439 395.118L376.438 395.122Z" fill="#C7E0FF"/>
<path d="M372.987 424.162C371.738 423.834 368.629 423.367 364.307 420.102C359.985 416.837 359.237 414.932 359.015 414.589C358.793 414.246 358.556 414.664 358.102 415.324C357.648 415.985 356.997 416.445 357.232 416.933C357.467 417.421 358.651 419.713 363.003 422.763C367.031 425.583 370.929 426.381 371.479 426.49C372.033 426.6 372.184 425.908 372.446 425.418C372.808 424.744 373.319 424.251 372.987 424.162Z" fill="#DD0707"/>
<path d="M363.01 426.118C362.226 427.682 360.321 428.315 358.757 427.532C357.193 426.748 356.56 424.843 357.344 423.279C358.127 421.715 360.032 421.082 361.596 421.865C363.161 422.649 363.794 424.554 363.01 426.118Z" fill="#DD0707"/>
<path d="M362.155 422.227C362.96 423.167 363.175 424.534 362.585 425.711C361.801 427.276 359.896 427.909 358.332 427.125C358.128 427.023 357.943 426.904 357.773 426.767C358.039 427.077 358.369 427.341 358.756 427.535C360.321 428.319 362.225 427.686 363.009 426.122C363.691 424.761 363.299 423.144 362.155 422.227Z" fill="#253650"/>
<path d="M369.827 394.457C369.827 394.457 368.437 389.234 365.5 385.882C365.5 385.882 364.101 390.798 364.185 398.776C364.185 398.776 365.975 396.534 369.824 394.452L369.828 394.453L369.827 394.457Z" fill="#C7E0FF"/>
<path d="M375.45 401.546C375.483 402.441 375.951 403.149 376.493 403.128C377.036 403.108 377.449 402.364 377.416 401.472C377.382 400.58 376.914 399.868 376.372 399.889C375.83 399.909 375.416 400.653 375.45 401.546Z" fill="#29364E"/>
<path d="M381.371 400.63C381.399 401.379 381.789 401.974 382.244 401.957C382.699 401.94 383.044 401.321 383.015 400.569C382.987 399.817 382.597 399.225 382.142 399.242C381.687 399.259 381.343 399.878 381.371 400.63Z" fill="#29364E"/>
<path d="M388.556 408.77C388.529 408.908 388.618 409.033 388.749 409.059C388.879 409.085 389.011 408.997 389.037 408.866C389.064 408.735 388.975 408.603 388.845 408.577C388.714 408.551 388.582 408.639 388.556 408.77Z" fill="#29364E"/>
<path d="M388.879 406.982C388.725 406.952 388.627 406.805 388.657 406.651C388.688 406.497 388.835 406.399 388.989 406.43C389.143 406.46 389.241 406.607 389.21 406.761C389.179 406.915 389.033 407.013 388.879 406.982Z" fill="#29364E"/>
<path d="M385.993 406.653C385.859 406.626 385.773 406.498 385.8 406.364C385.827 406.23 385.955 406.144 386.089 406.171C386.223 406.198 386.308 406.326 386.282 406.46C386.255 406.594 386.127 406.679 385.993 406.653Z" fill="#29364E"/>
<path d="M390.619 408.169C390.592 408.299 390.681 408.431 390.811 408.457C390.942 408.483 391.074 408.395 391.1 408.265C391.126 408.134 391.038 408.002 390.907 407.976C390.777 407.95 390.645 408.038 390.619 408.169Z" fill="#29364E"/>
<path d="M394.798 409.622C395.187 410.475 395.691 411.876 395.906 413.716C396.276 416.881 394.548 417.974 393.236 417.242C392.129 416.626 390.763 412.229 389.084 410.283C391.334 410.359 393.392 409.979 394.798 409.618V409.622Z" fill="#DD0707"/>
<path d="M394.568 409.719C394.568 409.719 386.087 410.815 381.44 409.484" stroke="#29364E" stroke-linecap="round" stroke-linejoin="round"/>
<path d="M389.261 403.619C391.62 403.7 394.331 403.905 394.465 404.399C394.576 404.811 394.815 406.115 394.728 407.576C394.728 407.576 389.712 406.283 389.258 403.618L389.261 403.619Z" fill="#29364E"/>
<path d="M289.912 199.867H284.776L288.454 208.635M288.454 208.635C289.001 209.775 289.301 210.457 288.616 211.311C288.563 211.404 287.284 213.218 285.563 212.806C284.738 212.619 284.179 211.88 284.243 211.066C284.283 210.156 284.863 209.349 285.731 208.992C286.579 208.59 287.532 208.465 288.454 208.635Z" stroke="#253650" stroke-width="1.5" stroke-linecap="round" stroke-linejoin="round"/>
<path d="M351.279 251.539H346.143L349.821 260.307M349.821 260.307C350.368 261.447 350.668 262.129 349.983 262.983C349.93 263.076 348.651 264.89 346.93 264.478C346.105 264.291 345.546 263.552 345.61 262.738C345.65 261.828 346.23 261.021 347.098 260.664C347.946 260.261 348.899 260.137 349.821 260.307Z" stroke="#253650" stroke-width="1.5" stroke-linecap="round" stroke-linejoin="round"/>
</g>
<defs>
<linearGradient id="paint0_linear_509_9768" x1="639.31" y1="51.079" x2="639.31" y2="25.7187" gradientUnits="userSpaceOnUse">
<stop stop-color="#EDF5FF"/>
<stop offset="1" stop-color="#EDF5FF" stop-opacity="0"/>
</linearGradient>
<linearGradient id="paint1_linear_509_9768" x1="437.329" y1="106.497" x2="437.329" y2="25.7188" gradientUnits="userSpaceOnUse">
<stop stop-color="white"/>
<stop offset="1" stop-color="white" stop-opacity="0"/>
</linearGradient>
<linearGradient id="paint2_linear_509_9768" x1="208.439" y1="42.286" x2="485.268" y2="308.424" gradientUnits="userSpaceOnUse">
<stop stop-color="#FF8D8D"/>
<stop offset="1" stop-color="#BA2020"/>
</linearGradient>
<clipPath id="clip0_509_9768">
<rect width="720" height="562" fill="white" transform="translate(-0.0390625)"/>
</clipPath>
</defs>
</svg>
