<svg width="720" height="386" viewBox="0 0 720 386" fill="none" xmlns="http://www.w3.org/2000/svg">
<g clip-path="url(#clip0_483_42619)">
<g clip-path="url(#clip1_483_42619)">
<path d="M125.999 258.156C111.825 316.305 100.922 320.302 91.1099 318.849C72.2118 315.578 79.1169 267.605 82.0243 254.522C84.9317 241.439 96.9247 182.927 118.003 180.747C139.082 178.566 140.172 200.008 125.999 258.156Z" fill="#E0EEFF"/>
<g style="mix-blend-mode:overlay" opacity="0.5">
<path d="M118.002 180.747C139.08 178.566 140.171 200.008 125.997 258.156C118.177 290.236 111.353 305.835 105.159 313.129C137.339 205.011 127.129 179.825 118.002 180.747Z" fill="#253650"/>
</g>
<path d="M125.999 258.156C111.825 316.305 100.922 320.302 91.1099 318.849C87.4676 318.218 84.7838 315.927 82.8452 312.546M109.466 184.886C112.124 182.542 114.969 181.061 118.003 180.747C138.229 178.655 140.051 198.311 127.644 251.275M106.437 188.012C92.4872 204.533 84.3497 244.058 82.0243 254.522C80.0402 263.451 76.1943 288.627 79.9579 304.757M80.6826 307.439C80.9316 308.24 81.2039 309.011 81.5009 309.748" stroke="#657A99" stroke-miterlimit="10" stroke-linecap="round" stroke-linejoin="round"/>
<path d="M84.704 215.999C85.4309 265.425 80.7063 276.691 69.0767 277.054C53.4494 275.601 55.2665 254.522 54.5397 219.997C53.8128 185.471 58.8748 160.031 69.0767 160.031C76.7089 160.031 83.9772 166.573 84.704 215.999Z" fill="#C7E0FF"/>
<g style="mix-blend-mode:overlay" opacity="0.5">
<path d="M69.0776 160.031C76.7098 160.031 83.978 166.573 84.7049 215.999C85.107 243.343 83.8406 259.008 80.6594 267.609C83.9345 195.597 70.6384 167.831 63.581 162.95C65.2043 161.048 67.0383 160.031 69.0776 160.031Z" fill="#253650"/>
</g>
<g style="mix-blend-mode:overlay" opacity="0.5">
<path d="M65.7672 276.369C53.7142 272.271 55.2105 251.859 54.5397 219.993C54.4172 214.175 54.4591 208.615 54.6623 203.392C65.3911 217.84 66.5359 258.063 65.7672 276.369Z" fill="#253650"/>
</g>
<path d="M69.0767 160.031C61.3793 160.031 56.6079 174.514 55.0414 196.454M74.2732 161.556C79.7402 165.406 84.1465 178.087 84.704 215.999C85.4309 265.425 80.7063 276.691 69.0767 277.054C53.4494 275.601 55.2665 254.522 54.5397 219.997C54.4117 213.919 54.4631 208.124 54.6904 202.699M54.8244 199.911C54.8446 199.54 54.8656 199.172 54.8875 198.805" stroke="#657A99" stroke-miterlimit="10" stroke-linecap="round" stroke-linejoin="round"/>
<path d="M65.6002 273.932C69.1374 313.079 65.6002 334.916 52.1021 328.245C46.7403 325.596 36.6758 304.784 32.4979 273.932C28.3199 243.079 34.1048 208.691 45.3532 207.727C56.6016 206.763 60.7796 220.582 65.6002 273.932Z" fill="#E0EEFF"/>
<g style="mix-blend-mode:overlay" opacity="0.5">
<path d="M45.3521 207.727C56.6005 206.763 60.7785 220.582 65.5991 273.932C68.7619 308.934 66.2688 330.098 56.0567 329.419C62.8237 271.47 51.7399 224.146 45.3521 207.727Z" fill="#253650"/>
</g>
<path d="M61.1118 352.967L47.2019 239.696" stroke="#657A99" stroke-miterlimit="10" stroke-linecap="round" stroke-linejoin="round"/>
<g style="mix-blend-mode:overlay" opacity="0.5">
<path d="M32.4979 273.932C30.723 260.825 30.7461 247.08 32.2223 235.531C37.188 237.996 46.8567 245.927 45.8066 257.928C44.7565 269.929 36.9938 276.95 33.2438 278.96C32.9783 277.316 32.7291 275.639 32.4979 273.932Z" fill="#253650"/>
</g>
<path d="M125.795 299.216C106.897 321.894 102.173 347.672 102.173 357.727H128.339C132.216 353.608 142.367 342.318 151.962 330.107C163.955 314.843 181.399 281.408 173.767 274.139C166.135 266.871 149.418 270.868 125.795 299.216Z" fill="#E0EEFF"/>
<g style="mix-blend-mode:overlay" opacity="0.5">
<path d="M125.795 299.216C106.897 321.894 102.173 347.672 102.173 357.727C111.077 339.453 138.162 299.085 175.266 283.806C176.016 279.41 175.676 275.957 173.767 274.139C166.135 266.871 149.418 270.868 125.795 299.216Z" fill="#253650"/>
</g>
<path d="M167.246 271.091C169.865 271.435 172.047 272.501 173.767 274.139C181.399 281.408 163.955 314.843 151.962 330.107C142.367 342.318 132.216 353.608 128.339 357.727H102.173C102.173 347.672 106.897 321.894 125.795 299.216C137.978 284.596 148.325 276.453 156.535 272.992M163.348 271.091C162.297 271.215 161.194 271.434 160.041 271.756" stroke="#657A99" stroke-miterlimit="10" stroke-linecap="round" stroke-linejoin="round"/>
<path d="M-7.96094 351.799V295.465C20.7181 307.528 51.1125 342.03 52.7248 357.774H25.1269L-7.96094 351.799Z" fill="#C7E0FF"/>
<path d="M-7.96094 351.799V295.465C20.7181 307.528 51.1125 342.031 52.7248 357.774H25.1269L-7.96094 351.799Z" stroke="#657A99" stroke-miterlimit="10" stroke-linecap="round" stroke-linejoin="round"/>
<path d="M108.322 357.971C111.803 348.508 119.807 331.859 132.311 315.418M148.22 297.453C146.937 298.686 145.685 299.938 144.461 301.206C144.028 301.654 143.598 302.105 143.172 302.558M139.032 307.14C137.901 308.444 136.799 309.757 135.726 311.076" stroke="#657A99" stroke-miterlimit="10" stroke-linecap="round" stroke-linejoin="round"/>
<path d="M120.228 194.704C115.13 206.109 106.695 232.41 99.5855 271.772M87.9513 378.05C89.8167 338.304 93.9449 304.169 98.7914 276.256" stroke="#657A99" stroke-miterlimit="10" stroke-linecap="round" stroke-linejoin="round"/>
<path d="M70.0871 179.458V225.961M70.0871 377.597V240.933M70.0871 237.733V230.99" stroke="#657A99" stroke-miterlimit="10" stroke-linecap="round" stroke-linejoin="round"/>
<path d="M65.6002 273.932C69.1374 313.079 65.6002 334.916 52.1021 328.245C46.7403 325.596 36.6758 304.784 32.4979 273.932C28.3199 243.079 34.1048 208.691 45.3532 207.727C56.6016 206.763 60.7796 220.582 65.6002 273.932Z" stroke="#657A99" stroke-miterlimit="10" stroke-linecap="round" stroke-linejoin="round"/>
<path d="M46.2625 324.563C49.1095 319.382 47.2177 312.874 42.0368 310.027L28.5877 302.636C23.4068 299.789 16.8989 301.681 14.0518 306.862C11.2048 312.043 13.0967 318.551 18.2775 321.398L31.7267 328.789C36.9075 331.636 43.4154 329.744 46.2625 324.563Z" fill="white"/>
<path d="M2.03712 324.283C9.08765 327.795 16.2917 332.01 22.9903 336.737M45.8774 358.417C43.4907 355.058 40.6287 351.785 37.4212 348.635M31.6551 343.403C30.3236 342.281 28.954 341.179 27.5532 340.1" stroke="#657A99" stroke-miterlimit="10" stroke-linecap="round" stroke-linejoin="round"/>
<path d="M62.3447 294.696C57.6263 291.135 56.6885 284.423 60.2499 279.704L69.4952 267.456C73.0567 262.737 79.7688 261.8 84.4872 265.361C89.2055 268.923 90.1434 275.635 86.582 280.353L77.3366 292.602C73.7752 297.32 67.0631 298.258 62.3447 294.696Z" fill="white"/>
<ellipse cx="22.2221" cy="262.68" rx="21.6844" ry="19.9669" transform="rotate(-45 22.2221 262.68)" fill="#C7E0FF"/>
<g style="mix-blend-mode:overlay" opacity="0.5">
<path d="M6.88825 278.011C14.6858 285.809 27.8719 285.265 36.3402 276.797C37.3253 275.812 38.2032 274.763 38.9732 273.666C27.3042 262.108 9.05162 263.005 1.38398 264.898C1.50064 269.752 3.3221 274.445 6.88825 278.011Z" fill="#253650"/>
</g>
<path d="M20.7942 278.542C24.5658 282.314 31.1408 281.854 35.4797 277.515C39.8187 273.176 40.2786 266.601 36.5069 262.829C32.7352 259.057 26.1603 259.517 21.8213 263.856C19.4483 266.229 18.2355 269.271 18.2408 272.158M19.0836 276.087C18.799 275.471 18.587 274.823 18.4468 274.155" stroke="#657A99" stroke-miterlimit="10" stroke-linecap="round" stroke-linejoin="round"/>
<path d="M55.2155 357.971C55.2155 354.059 55.0238 349.817 54.6116 345.324M28.9114 270.176C33.6589 277.38 37.6523 284.895 40.9777 292.478M51.9236 327.2C50.8004 319.01 52.4826 299.555 68.1969 287.257M51.9236 327.2C53.2126 333.534 54.0891 339.63 54.6116 345.324M51.9236 327.2C49.7676 316.607 46.4575 305.349 41.72 294.197M28.9114 314.073C30.3572 314.656 32.1609 315.573 34.1457 316.835M54.6116 345.324C51.549 332.21 43.279 323.33 36.3195 318.31" stroke="#657A99" stroke-miterlimit="10" stroke-linecap="round" stroke-linejoin="round"/>
<path d="M42.0151 254.524C44.5028 261.826 42.5565 270.583 36.3408 276.799C27.8725 285.267 14.6864 285.811 6.8889 278.014C-0.577507 270.547 -0.396037 258.14 7.06743 249.665M41.0456 252.197C40.1694 250.437 39.0069 248.799 37.5553 247.347C30.767 240.559 19.8947 240.092 11.6067 245.673M8.91586 247.786C9.12952 247.592 9.3458 247.402 9.56455 247.217" stroke="#657A99" stroke-miterlimit="10" stroke-linecap="round" stroke-linejoin="round"/>
<path d="M479 222.968L531.49 170.377L582.122 222.968V382.995H479V222.968Z" fill="#F0F7FF"/>
<path d="M531.49 170.377L479 222.968V382.995H492.75V229.519L541.451 180.724L531.49 170.377Z" fill="white"/>
<path d="M775.35 222.967H582.119V376.824H775.35V222.967Z" fill="#E0EEFF"/>
<path d="M558.203 246.303H512.961V293.586H558.203V246.303Z" fill="#E0EEFF"/>
<path d="M517.882 265.526L533 250.408H548.096L517.882 280.622V265.526Z" fill="#C7E0FF"/>
<path d="M526.075 288.689L554.109 260.655V274.672L540.092 288.689H526.075Z" fill="#C7E0FF"/>
<path d="M522.455 288.689H517.882V250.408H554.108V288.689H528.205" stroke="#657A99" stroke-width="1.31978" stroke-miterlimit="10" stroke-linecap="round" stroke-linejoin="round"/>
<path d="M531.489 170.836V68.7041L582.122 17.0156L632.945 67.9379V170.836H531.489Z" fill="#F0F7FF"/>
<path d="M531.489 68.7041V170.836H541.738V72.8634L589.799 24.7083L582.122 17.0156L531.489 68.7041Z" fill="white"/>
<path d="M710.899 17.0156H582.119L632.943 67.9379H762.228L710.899 17.0156Z" fill="#C7E0FF"/>
<path d="M632.944 170.838V67.9395H762.229V210.281L632.944 170.838Z" fill="#E0EEFF"/>
<path d="M640.4 1.96875H632.944V17.0175H640.4V1.96875Z" fill="#F0F7FF" stroke="#657A99" stroke-width="1.31978" stroke-miterlimit="10" stroke-linecap="round" stroke-linejoin="round"/>
<path d="M582.117 222.966H775.348L721.466 170.84H531.949L582.117 222.966Z" fill="#C7E0FF"/>
<path d="M610.164 93.9238H554.262V157.955H610.164V93.9238Z" fill="#E0EEFF"/>
<path d="M561.119 119.802L582.243 98.6777H597.577L561.119 135.135V119.802Z" fill="#C7E0FF"/>
<path d="M566.672 152.618L603.368 115.923V132.056L582.806 152.618H566.672Z" fill="#C7E0FF"/>
<path d="M603.37 105.469V98.6777H561.122V152.618H603.37V112.472" stroke="#657A99" stroke-width="1.31978" stroke-miterlimit="10" stroke-linecap="round" stroke-linejoin="round"/>
<path d="M696.272 170.84H531.949" stroke="#657A99" stroke-width="1.31978" stroke-miterlimit="10" stroke-linecap="round" stroke-linejoin="round"/>
<path d="M664.983 1.96875H657.527V17.0175H664.983V1.96875Z" fill="#F0F7FF" stroke="#657A99" stroke-width="1.31978" stroke-miterlimit="10" stroke-linecap="round" stroke-linejoin="round"/>
<path d="M671.667 90.5977H670.725C663.436 90.5977 657.527 96.5065 657.527 103.795V132.358C657.527 139.647 663.436 145.556 670.725 145.556H671.667C678.956 145.556 684.864 139.647 684.864 132.358V103.795C684.864 96.5065 678.956 90.5977 671.667 90.5977Z" fill="#F0F7FF" stroke="#657A99" stroke-width="1.31978" stroke-miterlimit="10"/>
<path d="M626.415 248.262H625.473C618.184 248.262 612.275 254.171 612.275 261.46V290.022C612.275 297.311 618.184 303.22 625.473 303.22H626.415C633.704 303.22 639.613 297.311 639.613 290.022V261.46C639.613 254.171 633.704 248.262 626.415 248.262Z" fill="#F0F7FF" stroke="#657A99" stroke-width="1.31978" stroke-miterlimit="10"/>
<path d="M678.301 248.262H677.36C670.071 248.262 664.162 254.171 664.162 261.46V290.022C664.162 297.311 670.071 303.22 677.36 303.22H678.301C685.59 303.22 691.499 297.311 691.499 290.022V261.46C691.499 254.171 685.59 248.262 678.301 248.262Z" fill="#F0F7FF" stroke="#657A99" stroke-width="1.31978" stroke-miterlimit="10"/>
<path d="M728.824 248.262H727.882C720.593 248.262 714.685 254.171 714.685 261.46V290.022C714.685 297.311 720.593 303.22 727.882 303.22H728.824C736.113 303.22 742.022 297.311 742.022 290.022V261.46C742.022 254.171 736.113 248.262 728.824 248.262Z" fill="#F0F7FF" stroke="#657A99" stroke-width="1.31978" stroke-miterlimit="10"/>
<path d="M588.162 222.967H582.119V282.413M598.272 222.967H594.974M606.014 222.967H685.551H775.35V376.824H582.119V361.718V293.714" stroke="#657A99" stroke-width="1.31978" stroke-miterlimit="10" stroke-linecap="round" stroke-linejoin="round"/>
<path d="M531.491 170.836V91.7151M531.491 68.7041V79.8731M531.491 68.7041L582.124 17.0156L632.947 67.9379V141.55M531.491 68.7041L520.322 79.8731M632.947 170.836V152.591M531.491 86.8496V88.7225M632.947 150.021V145.47" stroke="#657A99" stroke-width="1.31978" stroke-miterlimit="10" stroke-linecap="round" stroke-linejoin="round"/>
<path d="M582.119 17.0156H590.926M632.943 67.9379H762.228L710.899 17.0156H604.259" stroke="#657A99" stroke-width="1.31978" stroke-miterlimit="10" stroke-linecap="round" stroke-linejoin="round"/>
<path d="M582.122 222.968L531.49 170.377L494.47 207.469M479 303.556V222.968L491.57 210.373" stroke="#657A99" stroke-width="1.31978" stroke-miterlimit="10" stroke-linecap="round" stroke-linejoin="round"/>
<path fill-rule="evenodd" clip-rule="evenodd" d="M542.384 77.3863H282.148V360.381H542.384V77.3863ZM268.828 55.3711V379.621H593.997V55.3711H268.828Z" fill="url(#paint0_linear_483_42619)"/>
<path d="M739.662 382.375V335.421C739.662 335.421 703.355 307.913 662.567 358.901C662.567 358.901 627.945 338.741 607.076 373.844C607.076 373.844 577.197 362.935 547.317 382.381H739.668L739.662 382.375Z" fill="#F0F7FF"/>
<path d="M739.662 335.421C739.662 335.421 727.217 325.992 708.714 328.407M547.317 382.381C577.197 362.935 607.076 373.844 607.076 373.844C627.945 338.741 662.567 358.901 662.567 358.901C674.423 344.08 685.9 335.892 696.218 331.732" stroke="#657A99" stroke-width="1.31978" stroke-miterlimit="10" stroke-linecap="round" stroke-linejoin="round"/>
<path d="M229.185 316.373C198.14 321.44 188.978 347.973 188.057 359.786C175.493 361.101 172.401 374.987 172.393 382.289H552.531C552.194 357.592 536.538 349.121 528.753 347.973C527.985 340.285 528.753 328.285 511.252 320.972C499.094 317.822 489.3 324.534 485.923 328.285C480.028 321.535 472.106 325.472 468.883 328.285C467.962 311.784 442.631 274.889 369.54 274.889C305.54 274.889 278.322 306.158 270.032 328.285C266.041 324.722 248.778 313.175 229.185 316.373Z" fill="white"/>
<path d="M172.393 382.289C172.401 374.987 175.493 361.101 188.057 359.786C188.978 347.973 198.14 321.44 229.185 316.373C248.778 313.175 266.041 324.722 270.032 328.285C278.322 306.158 305.54 274.889 369.54 274.889C442.631 274.889 467.962 311.784 468.883 328.285C472.106 325.472 480.028 321.535 485.923 328.285C489.3 324.534 499.094 317.822 511.252 320.972C528.752 328.285 527.985 340.285 528.752 347.973C536.538 349.121 552.194 357.592 552.531 382.289" stroke="#657A99" stroke-width="1.31978" stroke-miterlimit="10" stroke-linecap="round" stroke-linejoin="round"/>
<path d="M461.335 362.333C461.636 360.347 463.141 355.976 466.754 354.386C470.366 352.797 474.28 355.289 475.785 356.734C477.531 355.711 481.673 354.531 484.274 357.999" stroke="#657A99" stroke-width="1.31978" stroke-miterlimit="10" stroke-linecap="round" stroke-linejoin="round"/>
<path d="M0.0105438 382.703V329.921C0.0105438 329.921 40.8244 298.999 86.675 356.315C86.675 356.315 125.595 333.653 149.053 373.112C149.053 373.112 182.641 360.85 216.229 382.709H0.00427246L0.0105438 382.703Z" fill="#F0F5FF"/>
<path d="M0.0105506 329.921C0.0105506 329.921 40.8244 298.999 86.675 356.315C86.675 356.315 125.595 333.653 149.053 373.112C149.053 373.112 157.175 370.147 169.425 369.732M216.229 382.709C202.828 373.987 189.426 370.697 178.157 369.894" stroke="#657A99" stroke-width="1.31978" stroke-miterlimit="10" stroke-linecap="round" stroke-linejoin="round"/>
<path d="M439.622 316.557H273.104V330.985H439.622V316.557Z" fill="#F0F7FF"/>
<path d="M441.689 330.982L450.294 382.286H460.85L452.344 330.982H441.689Z" fill="#C7E0FF" stroke="#657A99" stroke-width="1.31978" stroke-linecap="round" stroke-linejoin="round"/>
<path d="M460.973 316.557H439.612V330.98H459.527L460.973 316.557Z" fill="#C7E0FF"/>
<path d="M460.684 319.442L460.973 316.557H439.612V330.98H459.527L460.385 322.42" stroke="#657A99" stroke-width="1.31978" stroke-miterlimit="10" stroke-linecap="round" stroke-linejoin="round"/>
<path d="M461.866 280.423L464.189 259.754L474.536 261.823L472.182 282.146L461.675 280.423" fill="#C7E0FF"/>
<path d="M461.866 280.423L464.189 259.754L474.536 261.823L472.182 282.146L461.675 280.423" stroke="#657A99" stroke-width="1.31978" stroke-miterlimit="10" stroke-linecap="round" stroke-linejoin="round"/>
<path d="M460.849 287.426L458.532 308.094H468.712L471.053 288.618L460.849 287.426Z" fill="#C7E0FF"/>
<path d="M460.849 287.426L458.532 308.094H468.712L471.053 288.618L460.849 287.426Z" stroke="#657A99" stroke-width="1.31978" stroke-miterlimit="10" stroke-linecap="round" stroke-linejoin="round"/>
<path d="M292.642 308.093H458.53L460.847 287.426H296.261L292.642 308.093Z" fill="#F0F7FF"/>
<path d="M449.86 308.097H458.53L460.851 287.479H296.473L292.642 308.097H438.738" stroke="#657A99" stroke-width="1.31978" stroke-miterlimit="10" stroke-linecap="round" stroke-linejoin="round"/>
<path d="M296.006 280.456H461.894L464.211 259.789H299.619L296.006 280.456Z" fill="#F0F7FF"/>
<path d="M440.797 280.458H461.894L464.089 259.93H299.921L296.006 280.458H415.843M427.107 280.458H424.152" stroke="#657A99" stroke-width="1.31978" stroke-miterlimit="10" stroke-linecap="round" stroke-linejoin="round"/>
<path d="M306.402 330.982L315.006 382.286H325.562L317.057 330.982H306.402Z" fill="#C7E0FF" stroke="#657A99" stroke-width="1.31978" stroke-linecap="round" stroke-linejoin="round"/>
<path d="M422.691 330.982L415.229 382.286H404.933L409.726 330.982H422.691Z" fill="#E0EEFF" stroke="#657A99" stroke-width="1.31978" stroke-miterlimit="10"/>
<path d="M301.53 330.982L294.068 382.286H283.771L288.565 330.982H301.53Z" fill="#E0EEFF" stroke="#657A99" stroke-width="1.31978" stroke-miterlimit="10"/>
<path d="M391.784 330.989H439.622V316.32H273.104V330.989H282.892M365.657 330.989H373.601M356.83 330.989H296.338M288.041 330.989H292.047" stroke="#657A99" stroke-width="1.31978" stroke-miterlimit="10" stroke-linecap="round" stroke-linejoin="round"/>
<path d="M376.366 97.6889H309.354C309.354 92.6678 315.416 87.2868 320.889 89.2401C320.245 85.2972 326.683 81.6795 331.949 81.5154C337.463 81.3436 343.938 85.1363 343.777 89.2401C344.26 85.6191 350.054 82.9637 357.054 89.2401C362.655 94.2611 372.262 96.9648 376.366 97.6889Z" fill="#F0F7FF"/>
<path d="M299.764 214.545C299.758 214.556 299.748 214.563 299.742 214.574C299.2 215.994 297.838 217.007 296.23 217.007H263.574C263.452 217.007 263.338 216.979 263.218 216.967H263.171C263.159 216.966 263.149 216.959 263.136 216.958C262.35 216.865 261.642 216.54 261.08 216.038C261.069 216.029 261.055 216.024 261.045 216.015L261.051 216.01C260.919 215.889 260.781 215.773 260.667 215.634C260.396 215.305 260.183 214.933 260.036 214.533C260.034 214.529 260.031 214.527 260.029 214.524L260.033 214.521C259.887 214.118 277.16 201.042 277.16 201.042C279.302 199.416 280.441 199.441 282.606 201.042C282.606 201.042 299.904 214.129 299.753 214.537L299.764 214.545Z" fill="#C7E0FF"/>
<path d="M279.91 199.539L260.124 214.408V193.344C260.124 191.291 261.785 189.627 263.834 189.627H295.987C298.036 189.627 299.697 191.291 299.697 193.344V214.408L279.91 199.539Z" fill="#E0EEFF"/>
<path d="M293.793 209.619C288.842 205.76 282.606 201.042 282.606 201.042C280.441 199.441 279.302 199.416 277.16 201.042C277.16 201.042 259.887 214.118 260.033 214.521L260.029 214.524C260.031 214.527 260.034 214.529 260.036 214.533C260.183 214.933 260.396 215.305 260.667 215.634C260.781 215.773 260.919 215.889 261.051 216.01L261.045 216.015C261.055 216.024 261.069 216.029 261.08 216.038C261.642 216.54 262.35 216.865 263.136 216.958C263.149 216.959 263.159 216.966 263.171 216.967H263.218C263.338 216.979 263.452 217.007 263.574 217.007H296.23C297.838 217.007 299.2 215.994 299.742 214.574C299.748 214.563 299.758 214.556 299.764 214.545L299.753 214.537C299.793 214.43 298.626 213.446 296.884 212.053" stroke="#253650" stroke-width="1.31978" stroke-miterlimit="10" stroke-linecap="round" stroke-linejoin="round"/>
<path d="M260.334 192.065C260.34 192.055 260.35 192.047 260.356 192.037C260.889 190.638 262.23 189.641 263.813 189.641H295.966C296.086 189.641 296.198 189.669 296.316 189.68H296.363C296.375 189.682 296.385 189.688 296.397 189.689C297.172 189.781 297.869 190.101 298.422 190.595C298.432 190.604 298.446 190.609 298.456 190.618L298.45 190.623C298.581 190.742 298.716 190.856 298.829 190.993C299.095 191.317 299.305 191.683 299.449 192.077C299.451 192.08 299.454 192.083 299.456 192.086L299.453 192.089C299.596 192.485 282.589 205.36 282.589 205.36C280.481 206.961 279.359 206.936 277.227 205.36C277.227 205.36 260.196 192.475 260.344 192.073L260.334 192.065Z" fill="#F0F5FF"/>
<path d="M260.334 192.065C260.34 192.055 260.35 192.047 260.356 192.037C260.889 190.638 262.23 189.641 263.813 189.641H295.966C296.086 189.641 296.198 189.669 296.316 189.68H296.363C296.375 189.682 296.385 189.688 296.397 189.689C297.172 189.781 297.869 190.101 298.422 190.595C298.432 190.604 298.446 190.609 298.456 190.618L298.45 190.623C298.581 190.742 298.716 190.856 298.829 190.993C299.095 191.317 299.305 191.683 299.449 192.077C299.451 192.08 299.454 192.083 299.456 192.086L299.453 192.089C299.596 192.485 282.589 205.36 282.589 205.36C280.481 206.961 279.359 206.936 277.227 205.36C277.227 205.36 260.196 192.475 260.344 192.073L260.334 192.065Z" stroke="#253650" stroke-width="1.31978" stroke-miterlimit="10" stroke-linecap="round" stroke-linejoin="round"/>
<path d="M260.124 214.408V203.876V198.61M260.124 193.344C260.124 191.291 261.785 189.627 263.834 189.627H295.987C298.036 189.627 299.697 191.291 299.697 193.344V214.408" stroke="#253650" stroke-width="1.31978" stroke-miterlimit="10" stroke-linecap="round" stroke-linejoin="round"/>
<path d="M208.353 201.269C214.669 197.043 219.286 193.9 227.23 192.576C232.756 191.655 236.983 193.541 241.038 195.612M253.265 199.768C250.347 199.768 247.771 198.892 245.278 197.741" stroke="#253650" stroke-width="1.31978" stroke-miterlimit="10" stroke-linecap="round" stroke-linejoin="round"/>
<path d="M220.663 207.521C238.995 199.759 243.915 210.328 253.267 210.328" stroke="#253650" stroke-width="1.31978" stroke-miterlimit="10" stroke-linecap="round" stroke-linejoin="round"/>
<circle cx="298.168" cy="190.416" r="4.98611" fill="#DD0707"/>
<path d="M226.66 371.812C226.517 374.067 226.66 377.316 226.66 377.732C226.66 378.147 228.633 379.129 228.798 380.196C228.963 381.263 228.633 382.249 227.812 382.249H220.745C220.089 382.249 220.196 375.87 219.12 366.304C218.026 356.549 215.174 341.211 215.174 341.211L236.008 332.225C236.008 332.225 227.517 358.357 226.66 371.812Z" fill="#C7E0FF" stroke="#253650" stroke-width="1.31978" stroke-linecap="round" stroke-linejoin="round"/>
<path d="M227.467 382.297C227.927 379.989 226.36 378.498 226.293 378.436L225.932 378.824C225.99 378.877 227.351 380.181 226.95 382.194L227.472 382.297H227.467Z" fill="white"/>
<path d="M225.12 382.288C225.521 379.881 224.173 378.497 224.115 378.439L223.74 378.814C223.789 378.864 224.95 380.073 224.597 382.198L225.12 382.288Z" fill="white"/>
<path d="M179.553 371.892C180.209 366.303 182.195 348.821 184.168 342.527L207.377 338.576C207.377 338.576 207.757 343.089 204.31 348.33C202.128 351.647 198.458 358.084 193.115 360.959C187.771 363.834 185.883 369.588 185.472 371.807C185.061 374.026 185.472 377.311 185.472 377.726C185.472 378.141 187.445 379.124 187.61 380.19C187.775 381.257 187.445 382.244 186.624 382.244H179.557C178.901 382.244 178.901 377.476 179.557 371.887L179.553 371.892Z" fill="#C7E0FF" stroke="#253650" stroke-width="1.31978" stroke-linecap="round" stroke-linejoin="round"/>
<path d="M186.282 382.299C186.746 379.991 185.174 378.5 185.107 378.438L184.746 378.826C184.804 378.879 186.165 380.183 185.764 382.196L186.286 382.299H186.282Z" fill="white"/>
<path d="M183.931 382.289C184.333 379.883 182.981 378.499 182.927 378.441L182.552 378.816C182.601 378.866 183.762 380.075 183.414 382.2L183.936 382.289H183.931Z" fill="white"/>
<path d="M179.059 329.149C172.586 330.056 165.354 325.266 167.407 316.074C169.461 306.878 179.898 308.253 185.241 299.637C190.585 291.021 186.393 284.361 185.241 283.379C185.241 283.379 185.572 285.352 183.514 287.16C181.46 288.968 176.447 289.789 172.255 294.432C172.255 294.432 173.818 291.021 178.255 288.307C178.255 288.307 169.791 290.803 165.765 300.526C161.738 310.248 162.019 315.57 162.019 315.57C162.019 315.57 161.408 313.779 161.738 310.248C161.738 310.248 159.698 317.48 162.644 324.547C165.586 331.613 174.724 332.274 177.108 331.368L179.063 329.149H179.059Z" fill="#C7E0FF"/>
<path d="M185.241 299.637C179.898 308.253 169.461 306.878 167.407 316.074C165.354 325.266 172.586 330.056 179.059 329.149H179.063L177.108 331.368C174.724 332.274 165.586 331.613 162.644 324.547C159.698 317.48 161.738 310.248 161.738 310.248C161.408 313.779 162.019 315.57 162.019 315.57C162.019 315.57 161.738 310.248 165.765 300.526C169.791 290.803 178.255 288.307 178.255 288.307C173.818 291.021 172.255 294.432 172.255 294.432C176.447 289.789 181.46 288.968 183.514 287.16C185.572 285.352 185.241 283.379 185.241 283.379C186.184 284.183 189.162 288.788 187.285 295.156" stroke="#253650" stroke-width="1.31978" stroke-miterlimit="10" stroke-linecap="round" stroke-linejoin="round"/>
<path d="M164.687 371.891C165.343 366.302 168.468 344.155 170.441 337.865C171.758 333.674 174.798 330.634 181.454 328.169C188.11 325.705 208.573 317.322 213.176 311.487C217.778 305.652 219.506 296.939 220.162 293.818C220.818 290.693 218.765 282.64 218.765 279.109C218.765 275.578 219.341 271.056 219.997 270.81C220.653 270.565 226.077 275.743 229.282 281.412C229.282 281.412 231.202 281.029 232.461 281.055C232.461 281.055 232.898 275.466 233.335 273.056C233.773 270.645 234.429 269.328 234.978 269.328C235.527 269.328 242.103 278.203 244.839 290.479C244.839 290.479 253.111 291.93 253.522 292.751C253.933 293.573 254.013 299.903 253.031 300.724C252.045 301.546 240.621 304.01 239.965 304.67C239.308 305.327 237.826 311.987 237.911 317.822C237.992 323.656 238.567 328.259 237.17 331.794C236.018 334.705 229.456 341.075 225.023 343.736C222.778 351.343 219.613 363.293 219.068 371.819C218.925 374.074 219.068 377.324 219.068 377.739C219.068 378.154 221.041 379.136 221.207 380.203C221.372 381.27 221.041 382.256 220.22 382.256H213.153C212.497 382.256 212.604 375.877 211.528 366.311C210.845 360.226 209.479 351.972 208.546 346.615C202.216 347.405 195.083 348.49 189.828 350.119C189.828 350.119 183.583 358.092 178.24 360.967C172.896 363.842 171.008 369.596 170.597 371.815C170.186 374.034 170.597 377.319 170.597 377.734C170.597 378.149 172.57 379.132 172.735 380.198C172.901 381.265 172.57 382.252 171.749 382.252H164.682C164.026 382.252 164.026 377.484 164.682 371.895L164.687 371.891Z" fill="#E0EEFF"/>
<path d="M219.997 270.81C219.341 271.056 218.765 275.578 218.765 279.109C218.765 282.64 220.818 290.693 220.162 293.818C219.506 296.939 217.778 305.652 213.176 311.487C208.573 317.322 188.11 325.705 181.454 328.169C174.798 330.634 171.758 333.674 170.441 337.865C168.468 344.155 165.343 366.302 164.687 371.891L164.682 371.895C164.026 377.484 164.026 382.252 164.682 382.252H171.749C172.57 382.252 172.901 381.265 172.735 380.198C172.57 379.132 170.597 378.149 170.597 377.734C170.597 377.319 170.186 374.034 170.597 371.815C171.008 369.596 172.896 363.842 178.24 360.967C183.583 358.092 189.828 350.119 189.828 350.119C195.083 348.49 202.216 347.405 208.546 346.615C209.479 351.972 210.845 360.226 211.528 366.311C212.604 375.877 212.497 382.256 213.153 382.256H220.22C221.041 382.256 221.372 381.27 221.207 380.203C221.041 379.136 219.068 378.154 219.068 377.739M232.461 281.055C232.461 281.055 232.898 275.466 233.335 273.056C233.773 270.645 234.429 269.328 234.978 269.328C235.527 269.328 242.103 278.203 244.839 290.479C244.839 290.479 253.111 291.93 253.522 292.751C253.933 293.573 254.013 299.903 253.031 300.724C252.045 301.546 240.621 304.01 239.965 304.67C239.308 305.327 237.826 311.987 237.911 317.822C237.992 323.656 238.567 328.259 237.17 331.794C236.018 334.705 229.456 341.075 225.023 343.736C222.984 350.645 220.186 361.137 219.282 369.392" stroke="#253650" stroke-width="1.31978" stroke-miterlimit="10" stroke-linecap="round" stroke-linejoin="round"/>
<path d="M232.505 281H237.653" stroke="#253650" stroke-width="1.31978" stroke-miterlimit="10" stroke-linecap="round" stroke-linejoin="round"/>
<path d="M226.822 281.816C226.822 281.816 224.438 276.968 220.903 274.254C220.903 274.254 220.492 279.347 222.135 287.155C222.135 287.155 223.452 284.606 226.818 281.812L226.822 281.816Z" fill="#C7E0FF"/>
<path d="M171.415 382.295C171.875 379.987 170.308 378.496 170.241 378.434L169.879 378.822C169.937 378.876 171.299 380.179 170.897 382.192L171.419 382.295H171.415Z" fill="white"/>
<path d="M169.067 382.286C169.469 379.879 168.121 378.496 168.063 378.438L167.688 378.812C167.737 378.862 168.897 380.071 168.545 382.196L169.067 382.286Z" fill="white"/>
<path d="M219.887 382.295C220.347 379.987 218.78 378.496 218.713 378.434L218.352 378.822C218.41 378.876 219.771 380.179 219.37 382.192L219.892 382.295H219.887Z" fill="white"/>
<path d="M217.536 382.286C217.937 379.879 216.589 378.496 216.531 378.438L216.156 378.812C216.205 378.862 217.366 380.071 217.013 382.196L217.536 382.286Z" fill="white"/>
<path d="M221.725 311.354C224.565 308.569 228.738 314.787 227.645 318.631C226.551 322.474 221.507 328.501 219.426 326.421C217.346 324.34 218.877 314.153 221.725 311.359V311.354Z" fill="#253650"/>
<path d="M174.222 332.122C175.954 330.631 178.298 329.336 181.454 328.167C188.11 325.703 208.573 317.319 213.175 311.484C214.18 310.212 215.046 308.802 215.796 307.342C214.711 316.221 216.242 326.305 207.917 332.22C199.587 338.14 191.98 336.729 184.467 335.068C179.887 334.059 176.878 332.26 174.222 332.122Z" fill="#253650"/>
<path d="M232.904 290.648C232.904 291.545 233.346 292.269 233.886 292.269C234.426 292.269 234.868 291.541 234.868 290.648C234.868 289.755 234.426 289.028 233.886 289.028C233.346 289.028 232.904 289.755 232.904 290.648Z" fill="#253650"/>
<path d="M239.85 289.582C239.85 290.332 240.216 290.939 240.671 290.939C241.126 290.939 241.492 290.332 241.492 289.582C241.492 288.832 241.126 288.225 240.671 288.225C240.216 288.225 239.85 288.832 239.85 289.582Z" fill="#253650"/>
<path d="M250.857 301.467C251.245 302.32 251.749 303.722 251.964 305.561C252.334 308.726 250.607 309.82 249.294 309.088C248.187 308.472 246.821 304.075 245.143 302.128C247.392 302.204 249.45 301.825 250.857 301.463V301.467Z" fill="#DD0707"/>
<path d="M249.499 296.896C249.499 296.896 243.169 295.704 243.169 294.227C243.169 292.749 245.647 292.236 248.348 292.008C251.044 291.78 253.611 292.544 253.816 293.2C254.022 293.856 252.624 295.499 249.499 296.896Z" fill="#253650"/>
<path d="M244.526 297.966C244.526 298.105 244.637 298.212 244.771 298.212C244.905 298.212 245.017 298.1 245.017 297.966C245.017 297.832 244.905 297.721 244.771 297.721C244.637 297.721 244.526 297.832 244.526 297.966Z" fill="#253650"/>
<path d="M242.925 299.882C242.79 299.882 242.68 299.772 242.68 299.636C242.68 299.501 242.79 299.391 242.925 299.391C243.061 299.391 243.171 299.501 243.171 299.636C243.171 299.772 243.061 299.882 242.925 299.882Z" fill="#253650"/>
<path d="M242.306 297.964C242.171 297.964 242.061 297.854 242.061 297.718C242.061 297.583 242.171 297.473 242.306 297.473C242.442 297.473 242.552 297.583 242.552 297.718C242.552 297.854 242.442 297.964 242.306 297.964Z" fill="#253650"/>
<path d="M252.023 298.674C252.032 298.808 252.148 298.911 252.286 298.902C252.42 298.893 252.523 298.777 252.514 298.638C252.505 298.505 252.389 298.402 252.251 298.411C252.117 298.42 252.014 298.536 252.023 298.674Z" fill="#253650"/>
<path d="M252.734 297.142C252.734 297.276 252.845 297.388 252.979 297.388C253.113 297.388 253.225 297.276 253.225 297.142C253.225 297.008 253.113 296.897 252.979 296.897C252.845 296.897 252.734 297.008 252.734 297.142Z" fill="#253650"/>
<path d="M235.649 308.326H236.359V311.357H235.649V308.326Z" fill="#253650"/>
<path d="M232.761 313.509C232.761 315.188 234.123 316.549 235.802 316.549C237.48 316.549 238.842 315.188 238.842 313.509C238.842 311.831 237.48 310.469 235.802 310.469C234.123 310.469 232.761 311.831 232.761 313.509Z" fill="#DD0707"/>
<path d="M235.166 310.535C234.073 310.995 233.3 312.076 233.3 313.339C233.3 315.017 234.662 316.379 236.34 316.379C236.559 316.379 236.769 316.357 236.974 316.312C236.613 316.464 236.216 316.549 235.8 316.549C234.122 316.549 232.76 315.187 232.76 313.508C232.76 312.049 233.791 310.83 235.166 310.535Z" fill="#253650"/>
<path d="M239.591 305.453C237.948 305.578 234.002 306.31 227.427 304.172C220.851 302.034 219.155 300.047 218.744 299.726C218.333 299.404 218.222 300.007 217.949 300.994C217.677 301.98 217.083 302.806 217.57 303.297C218.056 303.788 220.44 306.06 226.962 307.926C232.998 309.649 238.033 308.989 238.743 308.891C239.457 308.792 239.35 307.895 239.462 307.194C239.618 306.23 240.029 305.422 239.591 305.453Z" fill="#DD0707"/>
<path d="M366.393 349.522L364.999 358.796C364.999 358.796 355.033 358.935 350.717 358.376L351.723 347.019L366.393 349.522Z" fill="white" stroke="#253650" stroke-width="1.31978" stroke-miterlimit="10" stroke-linecap="round" stroke-linejoin="round"/>
<path d="M389.052 196.188C384.095 198.422 380.538 201.641 381.281 213.798C378.023 224.998 384.106 229.149 386.993 230.135C389.803 231.095 392.643 231.54 392.643 231.54L392.643 242.253L395.504 246.817C395.504 246.817 399.085 248.469 401.543 248.66C406.169 249.018 412.728 244.657 412.728 244.657L411.644 230.509L408.649 221.928C408.649 221.928 411.996 220.626 412.743 216.905C413.49 213.184 411.858 210.716 408.648 210.989C408.648 210.989 394.938 193.534 389.056 196.182L389.052 196.188Z" fill="white" stroke="#253650" stroke-width="1.31978" stroke-miterlimit="10" stroke-linecap="round" stroke-linejoin="round"/>
<path d="M388.915 212.515C388.915 213.162 388.462 215.26 388.462 215.26C387.74 215.26 386.049 215.678 386.06 216.791C386.071 217.997 388.162 217.821 388.915 217.971" stroke="#253650" stroke-width="1.31978" stroke-miterlimit="10" stroke-linecap="round" stroke-linejoin="round"/>
<path d="M408.656 213.679C409.349 213.713 410.58 213.791 410.939 214.701C411.479 216.071 410.099 218.148 408.657 218.33" stroke="#253650" stroke-width="1.31978" stroke-miterlimit="10" stroke-linecap="round" stroke-linejoin="round"/>
<path d="M410.507 237.435C404.347 243.727 392.2 244.257 389.579 238.784L372.041 278.93L399.509 284.635L410.507 237.435Z" fill="#E0EEFF"/>
<path d="M416.999 293.827C416.999 293.827 421.282 316.104 404.154 316.104H378.013L371.475 348.364C371.475 348.364 356.602 353.997 346.007 342.504C346.007 342.504 352.765 303.965 354.347 299.009C355.924 294.053 374.187 281.795 374.187 281.795L407.964 287.746L416.994 293.827H416.999Z" fill="#253650" stroke="#253650" stroke-width="1.31978" stroke-linecap="round" stroke-linejoin="round"/>
<path d="M415.575 231.945C415.575 231.945 439.575 234.017 446.021 242.395C453.835 252.549 449.051 261.632 430.115 267.384L420.117 247.545L420.268 294.349C420.268 294.349 417.389 298.142 410.27 293.289C403.15 288.435 400.449 286.423 395.429 285.54C395.429 285.54 399.814 252.544 402.392 248.454C404.969 244.364 409.662 241.636 410.571 236.034C411.48 230.433 409.592 227.936 415.57 231.945H415.575Z" fill="#C7E0FF" stroke="#253650" stroke-width="1.31978" stroke-linecap="round" stroke-linejoin="round"/>
<path d="M446.184 247.123C446.821 248.894 447.714 252.945 446.184 254.985" stroke="#253650" stroke-width="1.31978" stroke-miterlimit="10" stroke-linecap="round" stroke-linejoin="round"/>
<path d="M390.813 234.804C390.813 234.804 393.557 240.481 392.093 247.987C390.63 255.494 380.658 281.414 380.658 281.414L362.616 276.55L366.426 269.517L358.042 266.832C358.042 266.832 365.177 256.409 360.786 250.366L370.122 255.494C370.122 255.494 378.054 241.761 384.431 238.285C384.431 238.285 386.416 232.974 390.813 234.809V234.804Z" fill="#C7E0FF" stroke="#253650" stroke-width="1.31978" stroke-linecap="round" stroke-linejoin="round"/>
<path d="M370.25 255.779L373.263 257.097" stroke="#253650" stroke-width="1.31978" stroke-miterlimit="10" stroke-linecap="round" stroke-linejoin="round"/>
<path d="M402.402 248.457C404.98 244.368 409.254 241.674 410.163 236.072C411.073 230.471 409.726 227.762 415.581 231.948C418.217 233.832 416.942 240.628 415.042 244.841C413.143 249.055 412.314 249.221 411.905 252.111C411.491 255.001 404.964 245.546 402.402 248.457Z" fill="#C7E0FF" stroke="#253650" stroke-width="1.31978" stroke-linecap="round" stroke-linejoin="round"/>
<path d="M330.845 269.014C328.063 274.939 327.821 281.31 335.623 286.508C343.426 291.711 366.214 299.266 366.214 299.266L376.616 272.883C376.616 272.883 356.093 265.99 348.166 263.886C340.24 261.782 334.256 261.734 330.84 269.009L330.845 269.014Z" fill="#253650" stroke="#253650" stroke-width="1.31978" stroke-linecap="round" stroke-linejoin="round"/>
<path d="M376.619 280.319C376.619 280.319 378.723 274.249 376.619 272.888C374.515 271.526 367.95 278.134 365.717 285.732C363.489 293.325 364.974 299.519 366.212 299.271C367.45 299.023 372.777 295.181 376.614 280.319H376.619Z" fill="#253650" stroke="#253650" stroke-width="1.31978" stroke-miterlimit="10" stroke-linecap="round" stroke-linejoin="round"/>
<path d="M369.791 277.707C369.791 277.707 364.501 283.987 364.587 292.753L373.788 297.139C373.788 297.139 375.381 291.623 379.794 288.502C384.206 285.381 383.227 283.416 382.366 282.254L369.791 277.707Z" fill="white" stroke="#253650" stroke-width="1.31978" stroke-miterlimit="10" stroke-linecap="round" stroke-linejoin="round"/>
<path d="M399.716 287.007C400.065 292.06 396.971 301.315 391.752 308.709C386.532 316.103 380.898 318.519 376.62 317.313C372.348 316.108 365.955 308.983 372.079 296.306L369.55 295.106C369.55 295.106 367.381 289.908 372.735 288.433C378.089 286.959 378.267 288.223 380.301 285.727C382.335 283.23 380.651 281.416 380.651 281.416C380.651 281.416 381.329 277.714 390.789 280.109C398.231 281.992 399.597 285.425 399.71 287.002L399.716 287.007Z" fill="#C7E0FF"/>
<path d="M376.622 317.317C380.895 318.522 386.534 316.111 391.754 308.712C396.973 301.319 400.067 292.063 399.718 287.011C399.648 285.977 399.04 284.159 396.554 282.496C395.23 281.608 390.86 286.198 390.575 290.18C390.29 294.162 388.342 297.665 381.734 301.174C375.126 304.682 371.672 314.89 376.622 317.317Z" fill="white"/>
<path d="M397.178 289.263C396.524 294.725 393.07 307.009 384.485 312.455" stroke="#253650" stroke-width="1.31978" stroke-miterlimit="10" stroke-linecap="round" stroke-linejoin="round"/>
<path d="M392.961 280.761C392.961 280.761 388.091 282.037 387.014 287.009C385.938 291.981 385.938 293.213 383.474 294.634C381.009 296.054 372.938 299.122 372.991 307.618" stroke="#253650" stroke-width="1.31978" stroke-miterlimit="10" stroke-linecap="round" stroke-linejoin="round"/>
<path d="M372.087 296.307C372.087 296.307 375.596 292.653 380.821 291.98" stroke="#253650" stroke-width="1.31978" stroke-miterlimit="10" stroke-linecap="round" stroke-linejoin="round"/>
<path d="M380.817 289.733C380.817 289.733 377.793 287.726 374.145 288.081" stroke="#253650" stroke-width="1.31978" stroke-miterlimit="10" stroke-linecap="round" stroke-linejoin="round"/>
<path d="M344.169 360.049C344.169 360.049 331.906 361.443 331.556 368.201C331.206 374.96 330.512 376.424 339.079 377.188C347.651 377.952 371.408 378.721 367.297 371.473C367.297 371.473 370.423 358.343 364.999 357.536L357.541 357.504C357.541 357.504 359.591 351.891 355.916 350.638C352.246 349.384 348.711 349.922 348.178 351.014C347.645 352.107 345.348 359.28 344.158 360.044L344.169 360.049Z" fill="#C7E0FF"/>
<path d="M344.169 360.049C344.169 360.049 331.906 361.443 331.556 368.201C331.206 374.96 330.512 376.424 339.079 377.188C347.651 377.952 371.408 378.721 367.297 371.473C367.297 371.473 370.423 358.343 364.999 357.536L357.541 357.504C357.541 357.504 359.591 351.891 355.916 350.638C352.246 349.384 348.711 349.922 348.178 351.014C347.645 352.107 345.348 359.28 344.158 360.044L344.169 360.049Z" stroke="#253650" stroke-width="1.31978" stroke-miterlimit="10" stroke-linecap="round" stroke-linejoin="round"/>
<path d="M348.188 361.238C348.188 361.238 354.694 362.002 352.88 371.899" stroke="#253650" stroke-width="1.31978" stroke-miterlimit="10" stroke-linecap="round" stroke-linejoin="round"/>
<path d="M365.975 361.726C365.975 361.726 360.54 363.744 360.89 372.456C360.89 372.456 344.445 374.964 334.065 371.897" stroke="#253650" stroke-width="1.31978" stroke-miterlimit="10" stroke-linecap="round" stroke-linejoin="round"/>
<path d="M357.544 357.519L354.477 361.728" stroke="#253650" stroke-width="1.31978" stroke-miterlimit="10" stroke-linecap="round" stroke-linejoin="round"/>
<path d="M381.161 252.67C381.161 252.67 377.561 267.587 376.113 269.912" stroke="#253650" stroke-width="1.31978" stroke-miterlimit="10" stroke-linecap="round" stroke-linejoin="round"/>
<path d="M420.121 247.55C420.121 247.55 425.48 246.818 429.188 256.316C432.895 265.813 430.119 267.39 430.119 267.39C430.119 267.39 426.497 270.462 422.526 263.736C418.555 257.01 416.349 249.864 420.121 247.55Z" fill="#253650" stroke="#253650" stroke-width="1.31978" stroke-miterlimit="10" stroke-linecap="round" stroke-linejoin="round"/>
<path d="M432.114 241.765L420.124 247.545" stroke="#253650" stroke-width="1.31978" stroke-miterlimit="10" stroke-linecap="round" stroke-linejoin="round"/>
<path d="M430.194 259.195L422.526 262.87C422.526 262.87 420.126 267.058 417.951 272.271C417.951 272.271 418.034 279.197 417.356 281.419C416.678 283.641 415.192 285.148 414.896 281.419C414.6 277.684 414.105 272.481 413.411 272.707C412.717 272.933 412.495 280.851 411.404 283.727C411.088 284.562 409.722 286.573 408.726 285.81C406.213 286.776 406.283 283.315 406.283 282.467C406.283 282.467 403.816 283.727 403.816 281.419C403.816 277.087 405.135 265.066 407.901 260.901C410.666 256.736 418.119 248.126 420.126 247.545C421.127 247.255 427.256 248.315 430.2 259.19L430.194 259.195Z" fill="white" stroke="#253650" stroke-width="1.31978" stroke-miterlimit="10" stroke-linecap="round" stroke-linejoin="round"/>
<path d="M422.571 262.874C422.374 262.662 421.648 262.138 420.313 261.746" stroke="#253650" stroke-width="1.31978" stroke-miterlimit="10" stroke-linecap="round" stroke-linejoin="round"/>
<path d="M407.933 270.597C407.933 270.597 406.658 277.787 406.26 282.797" stroke="#253650" stroke-width="1.31978" stroke-miterlimit="10" stroke-linecap="round" stroke-linejoin="round"/>
<path d="M401.686 228.676L392.822 231.555L392.727 234.646L401.686 228.676Z" fill="#253650" stroke="#253650" stroke-width="1.31978" stroke-miterlimit="10" stroke-linecap="round" stroke-linejoin="round"/>
<path d="M410.276 272.851C410.276 272.851 409.23 280.721 408.832 285.731" stroke="#253650" stroke-width="1.31978" stroke-miterlimit="10" stroke-linecap="round" stroke-linejoin="round"/>
<path d="M360.785 250.37C360.785 250.37 357.728 247.674 356.13 251.409C354.532 255.144 351.809 264.922 351.809 264.922L358.04 266.832C358.04 266.832 365.44 256.688 360.785 250.365V250.37Z" fill="#253650" stroke="#253650" stroke-width="1.31978" stroke-miterlimit="10" stroke-linecap="round" stroke-linejoin="round"/>
<path d="M392.415 245.765C392.415 245.765 390.575 242.289 388.013 244.667C385.452 247.046 383.692 249.134 382.976 247.557C382.26 245.98 383.089 242.235 384.435 238.296C385.775 234.357 390.838 233.222 392.415 234.256C392.415 234.256 393.637 240.007 392.421 245.77L392.415 245.765Z" fill="#C7E0FF" stroke="#253650" stroke-width="1.31978" stroke-linecap="round" stroke-linejoin="round"/>
<path d="M362.233 256.81L356.814 254.388C356.814 254.388 355.91 252.994 354.645 250.681C353.381 248.367 350.929 246.815 351.623 244.216C352.317 241.617 349.092 241.216 348.054 244.503L348.516 257.154L353.849 265.548L358.052 266.84C358.052 266.84 362.066 260.56 362.244 256.81H362.233Z" fill="white" stroke="#253650" stroke-width="1.31978" stroke-miterlimit="10" stroke-linecap="round" stroke-linejoin="round"/>
<path d="M336.694 247.29L334.817 239.545C334.587 238.599 334.897 237.603 335.623 236.955L336.477 236.192C337.242 235.508 338.335 235.33 339.279 235.735L346.895 239.012C347.628 239.326 348.178 239.955 348.394 240.723L354.562 262.686C354.901 263.894 354.343 265.175 353.226 265.748L352.064 266.344C351.452 266.659 350.741 266.721 350.084 266.519L343.26 264.423C342.428 264.167 341.776 263.519 341.516 262.688L336.694 247.29Z" fill="#C7E0FF" stroke="#253650" stroke-width="1.31978" stroke-miterlimit="10" stroke-linecap="round" stroke-linejoin="round"/>
<path d="M339.766 255.277C339.766 255.277 339.82 256.418 340.288 257.424C340.756 258.431 343.276 259.329 343.97 261.519C344.665 263.71 342.01 263.056 340.623 262.834C338.179 262.444 335.832 261.88 336.267 258.483C336.573 256.102 339.771 255.277 339.771 255.277H339.766Z" fill="white" stroke="#253650" stroke-width="1.31978" stroke-miterlimit="10" stroke-linecap="round" stroke-linejoin="round"/>
<path d="M340.148 239.742L345.626 242.276L351.045 263.036" stroke="#253650" stroke-width="1.31978" stroke-miterlimit="10" stroke-linecap="round" stroke-linejoin="round"/>
<path d="M338.656 253.867C338.656 253.867 338.71 255.008 339.178 256.014C339.646 257.02 344.956 257.144 344.607 260.015C344.356 262.076 341.596 261.427 339.79 260.99C336.212 260.123 334.722 260.47 335.158 257.073C335.463 254.692 338.662 253.867 338.662 253.867H338.656Z" fill="white" stroke="#253650" stroke-width="1.31978" stroke-miterlimit="10" stroke-linecap="round" stroke-linejoin="round"/>
<path d="M337.417 251.386C337.417 251.386 337.471 252.527 337.939 253.534C338.408 254.54 344.121 255.055 344.112 257.629C344.107 259.033 342.983 259.481 340.765 258.944C337.186 258.077 333.483 257.989 333.919 254.592C334.224 252.212 337.423 251.386 337.423 251.386H337.417Z" fill="white" stroke="#253650" stroke-width="1.31978" stroke-miterlimit="10" stroke-linecap="round" stroke-linejoin="round"/>
<path d="M337.147 248.998C337.147 248.998 337.201 250.139 337.669 251.145C338.137 252.151 343.147 253.05 343.841 255.24C344.536 257.43 344.073 257.421 340.494 256.555C336.916 255.689 333.213 255.601 333.649 252.204C333.954 249.823 337.152 248.998 337.152 248.998H337.147Z" fill="white" stroke="#253650" stroke-width="1.31978" stroke-miterlimit="10" stroke-linecap="round" stroke-linejoin="round"/>
<path d="M405.864 221.511C405.864 221.511 406.784 221.877 408.501 222.007" stroke="#253650" stroke-width="1.31978" stroke-miterlimit="10" stroke-linecap="round" stroke-linejoin="round"/>
<path d="M378.344 199.41C381.119 204.87 387.558 203.786 399.517 202.66L401.275 208.108C401.275 208.108 403.577 208.055 403.806 209.171C404.034 210.287 403.355 216.143 403.355 216.143L405.049 216.251C405.049 216.251 404.866 213.228 406.08 212.057C407.66 210.534 410.639 210.845 411.891 211.806C411.891 211.806 412.16 207.756 412.104 205.253C412.048 202.75 409.289 194.256 399.817 193.042C390.825 177.875 373.08 189.053 378.344 199.41Z" fill="#253650" stroke="#253650" stroke-width="1.31978" stroke-miterlimit="10" stroke-linecap="round" stroke-linejoin="round"/>
<path d="M393.052 219.551C393.052 219.551 391.023 223.607 387.122 221.849" stroke="#253650" stroke-width="1.31978" stroke-miterlimit="10" stroke-linecap="round" stroke-linejoin="round"/>
<path d="M394.445 211.862C394.491 210.983 394.12 210.249 393.617 210.222C393.113 210.196 392.668 210.887 392.622 211.766C392.576 212.645 392.946 213.379 393.45 213.405C393.953 213.432 394.399 212.74 394.445 211.862Z" fill="#253650"/>
<path d="M385.629 211.213C385.676 210.334 385.305 209.6 384.801 209.574C384.298 209.547 383.852 210.238 383.806 211.117C383.76 211.996 384.131 212.73 384.634 212.757C385.138 212.783 385.583 212.092 385.629 211.213Z" fill="#253650"/>
<path d="M411.968 197.605L408.799 198.698" stroke="#253650" stroke-width="1.31978" stroke-miterlimit="10" stroke-linecap="round" stroke-linejoin="round"/>
<path d="M411.967 200.302L409.405 199.797" stroke="#253650" stroke-width="1.31978" stroke-miterlimit="10" stroke-linecap="round" stroke-linejoin="round"/>
<path d="M399.716 287.007C400.065 292.06 396.971 301.315 391.752 308.709C386.532 316.103 380.898 318.519 376.62 317.313C372.348 316.108 365.955 308.983 372.079 296.306L369.55 295.106C369.55 295.106 367.381 289.908 372.735 288.433C378.089 286.959 378.267 288.223 380.301 285.727C382.335 283.23 380.651 281.416 380.651 281.416C380.651 281.416 381.329 277.714 390.789 280.109C398.231 281.992 399.597 285.425 399.71 287.002L399.716 287.007Z" stroke="#253650" stroke-width="1.31978" stroke-miterlimit="10" stroke-linecap="round" stroke-linejoin="round"/>
</g>
</g>
<defs>
<linearGradient id="paint0_linear_483_42619" x1="575.816" y1="65.7305" x2="283.712" y2="369.569" gradientUnits="userSpaceOnUse">
<stop stop-color="#FF8D8D"/>
<stop offset="1" stop-color="#BA2020"/>
</linearGradient>
<clipPath id="clip0_483_42619">
<rect width="720" height="385" fill="white" transform="translate(0 0.945312)"/>
</clipPath>
<clipPath id="clip1_483_42619">
<rect width="720" height="385" fill="white" transform="translate(0 0.945312)"/>
</clipPath>
</defs>
</svg>
