<svg width="720" height="563" viewBox="0 0 720 563" fill="none" xmlns="http://www.w3.org/2000/svg">
<g clip-path="url(#clip0_483_42985)">
<path d="M601.941 380.878V482.734L587.828 488.554L312.197 335.973L309.587 22.5926L323.727 16.6514L358.458 35.0011M601.941 373.1V366.187M601.941 358.697V163.643L376.234 44.3927M343.657 320.68L334.992 316.229V49.5695L563.136 166.772V433.432L368.369 333.376M352.669 325.31L360.163 329.16" stroke="#657A99" stroke-miterlimit="10" stroke-linecap="round" stroke-linejoin="round"/>
<path fill-rule="evenodd" clip-rule="evenodd" d="M548.944 172.85L320.8 55.6473V322.307L548.944 439.51V172.85ZM309.535 22.7293V341.821L587.749 488.812V169.721L309.535 22.7293Z" fill="url(#paint0_linear_483_42985)"/>
<g clip-path="url(#clip1_483_42985)">
<path d="M-356.613 719.745L332.401 356.671L768.556 580.822" stroke="#657A99" stroke-miterlimit="10" stroke-linecap="round" stroke-linejoin="round"/>
<path d="M99.6477 556.919L91.0439 561.548" stroke="#C7E0FF" stroke-miterlimit="10" stroke-linecap="round" stroke-linejoin="round"/>
<path d="M103.949 559.237L95.3455 563.867" stroke="#C7E0FF" stroke-miterlimit="10" stroke-linecap="round" stroke-linejoin="round"/>
<path d="M108.252 561.55L99.6484 566.179" stroke="#C7E0FF" stroke-miterlimit="10" stroke-linecap="round" stroke-linejoin="round"/>
<path d="M96.4774 555.876L272.138 645.944L541.691 500.907L369.111 412.213L96.4774 555.876Z" fill="#C7E0FF"/>
<path d="M272.138 645.944L96.4774 555.876L150.207 527.563L369.111 412.213L391.896 423.923L176.738 541.297L298.68 604.419L515.705 487.552L541.691 500.907L324.486 617.777L272.138 645.944Z" fill="#E0EEFF"/>
<path d="M116.803 545.889L292.463 635.957" stroke="white" stroke-width="2" stroke-miterlimit="10" stroke-linecap="round" stroke-linejoin="round"/>
<path d="M125.828 539.484L301.489 629.552" stroke="white" stroke-width="2" stroke-miterlimit="10" stroke-linecap="round" stroke-linejoin="round"/>
<path d="M311.855 597.325L298.68 604.419L176.738 541.297L391.896 423.923L369.111 412.213L184.281 509.609M316.101 595.038L515.705 487.552L541.691 500.907L324.486 617.777L272.138 645.944L212.079 615.15M163.085 520.777L150.207 527.563L96.4774 555.876L202.745 610.364M170.21 517.023L176.738 513.583" stroke="#657A99" stroke-miterlimit="10" stroke-linecap="round" stroke-linejoin="round"/>
<path d="M614.697 563.579V429.498L595.882 439.396V573.464L614.697 563.579Z" fill="#C7E0FF"/>
<path d="M596.441 573.434L614.697 563.579V472.806M595.882 439.396L614.697 429.498V462.229M614.697 466.747V468.801" stroke="#657A99" stroke-miterlimit="10" stroke-linecap="round" stroke-linejoin="round"/>
<path d="M596.386 439.397V573.465L586.979 568.523V434.448L596.386 439.397Z" fill="#E0EEFF"/>
<path d="M596.386 492.406V573.465L586.979 568.523V434.448L596.386 439.397V484.616M596.386 489.263V486.803" stroke="#657A99" stroke-miterlimit="10" stroke-linecap="round" stroke-linejoin="round"/>
<path d="M474.54 627.396V493.315L455.725 503.213V637.282L474.54 627.396Z" fill="#C7E0FF"/>
<path d="M456.284 637.251L474.54 627.396V536.623M455.725 503.213L474.54 493.315V526.046M474.54 530.565V532.618" stroke="#657A99" stroke-miterlimit="10" stroke-linecap="round" stroke-linejoin="round"/>
<path d="M456.229 503.214V637.283L446.822 632.34V498.265L456.229 503.214Z" fill="#E0EEFF"/>
<path d="M456.229 556.223V637.283L446.822 632.34V498.265L456.229 503.214V548.434M456.229 553.08V550.62" stroke="#657A99" stroke-miterlimit="10" stroke-linecap="round" stroke-linejoin="round"/>
<path d="M153.218 498.628V364.547L134.403 374.445V508.513L153.218 498.628Z" fill="#C7E0FF"/>
<path d="M134.961 508.483L153.218 498.628V407.855M134.403 374.445L153.218 364.547V397.278M153.218 401.796V403.85" stroke="#657A99" stroke-miterlimit="10" stroke-linecap="round" stroke-linejoin="round"/>
<path d="M134.907 374.446V508.514L125.499 503.572V369.497L134.907 374.446Z" fill="#E0EEFF"/>
<path d="M134.907 427.455V508.514L125.499 503.572V369.497L134.907 374.446V419.665M134.907 424.312V421.852" stroke="#657A99" stroke-miterlimit="10" stroke-linecap="round" stroke-linejoin="round"/>
<path d="M99.0094 350.408V366.513L425.155 544.946L425.178 525.921L99.0094 350.408Z" fill="#E0EEFF"/>
<path d="M637.705 416.923L425.156 525.905L98.9959 350.409L307.819 243.09L637.705 416.923Z" fill="#EDF5FF"/>
<path d="M637.708 416.925V434.552L425.155 544.952L425.158 525.912L637.708 416.925Z" fill="#C7E0FF"/>
<path d="M425.155 544.952L496.179 508.062M537.383 468.367L425.158 525.912L425.157 535.432M543.425 465.269L637.708 416.925V434.552L513.167 499.238M502.33 504.867L507.626 502.116" stroke="#657A99" stroke-miterlimit="10" stroke-linecap="round" stroke-linejoin="round"/>
<path d="M637.705 416.923L625.407 410.442M98.9961 350.409L307.819 243.09L323.99 251.611M329.593 254.564L615.608 405.279M621.643 408.459L618.666 406.89" stroke="#657A99" stroke-miterlimit="10" stroke-linecap="round" stroke-linejoin="round"/>
<path d="M425.155 544.946L353.517 505.753M425.178 525.921L123.322 363.491M329.326 492.518L99.0094 366.513V350.408L113.534 358.224M336.575 496.484L344.163 500.635" stroke="#657A99" stroke-miterlimit="10" stroke-linecap="round" stroke-linejoin="round"/>
<path d="M422.87 494.185L381.165 457.149C377.877 454.231 379.294 450.331 384.334 448.45L429.355 431.646C434.394 429.765 441.148 430.608 444.436 433.526L486.141 470.562C489.43 473.481 488.012 477.381 482.973 479.261L437.952 496.065C432.912 497.946 426.159 497.103 422.87 494.185Z" fill="#7689A6"/>
<path d="M422.87 493.127L381.165 456.091C377.877 453.173 379.294 449.273 384.334 447.393L429.355 430.588C434.394 428.708 441.148 429.551 444.436 432.469L486.141 469.505C489.43 472.423 488.012 476.323 482.973 478.203L437.952 495.008C432.912 496.888 426.159 496.045 422.87 493.127Z" fill="#C7E0FF"/>
<path d="M477.094 461.471L486.141 469.505C489.43 472.423 488.012 476.323 482.973 478.203L437.952 495.008C432.912 496.888 426.159 496.045 422.87 493.127L381.165 456.091C377.877 453.173 379.294 449.273 384.334 447.393L429.355 430.588C434.394 428.708 441.148 429.551 444.436 432.469L472.78 457.64" stroke="#657A99" stroke-miterlimit="10" stroke-linecap="round" stroke-linejoin="round"/>
<path d="M426.14 487.898L394.245 459.363C390.956 456.445 392.373 452.545 397.413 450.664L431.971 437.784C437.01 435.903 443.764 436.746 447.052 439.664L478.948 468.199C482.237 471.117 480.819 475.017 475.78 476.898L441.222 489.778C436.182 491.659 429.429 490.816 426.14 487.898Z" fill="#E0EEFF"/>
<path d="M454.333 446.875C457.742 451.525 455.417 459.399 441.559 465.819C427.691 472.248 420.965 479.085 411.887 471.322C401.54 462.466 436.575 422.687 454.333 446.875Z" fill="#C7E0FF"/>
<path d="M452.453 443.98C457.668 449.195 453.87 455.948 445.607 458.561C437.344 461.173 429.942 468.704 426.348 471.9C422.753 475.096 410.683 472.892 409.951 466.75C408.895 457.986 432.619 424.137 452.462 443.98H452.453Z" fill="#EDF5FF"/>
<g style="mix-blend-mode:soft-light">
<path d="M416.386 473.037L416.451 472.898C418.479 468.868 421.212 464.876 424.575 461.022C429.207 455.723 438.859 454.658 445.177 453.064H445.224C450.309 451.767 453.653 448.886 454.858 447.71L454.608 447.451C453.422 448.609 450.143 451.443 445.14 452.703C438.748 454.315 429.021 455.399 424.315 460.79C420.971 464.616 418.239 468.59 416.21 472.601C412.745 471.434 410.596 469.405 410.309 467.006C410.244 466.487 410.281 465.867 410.411 465.153C410.689 463.634 411.309 462.124 412.273 460.67C416.043 454.936 419.396 450.396 422.213 447.191C424.001 445.162 424.195 444.931 426.937 442.754C426.937 442.754 423.741 444.903 421.944 446.95C419.109 450.165 415.756 454.713 411.967 460.466C410.976 461.967 410.337 463.523 410.049 465.089C409.911 465.839 409.873 466.497 409.948 467.043C410.253 469.619 412.551 471.786 416.238 472.99L416.386 473.037Z" fill="white"/>
</g>
<path d="M416.205 472.761L416.269 472.622C418.298 468.592 421.031 464.599 424.394 460.746C429.026 455.447 438.678 454.382 444.996 452.788H445.042C450.128 451.491 453.472 448.61 454.677 447.434L454.426 447.175C453.241 448.333 449.961 451.167 444.959 452.427C438.567 454.039 428.84 455.123 424.134 460.514C420.79 464.34 418.057 468.314 416.029 472.325C412.564 471.158 410.415 469.129 410.128 466.73C410.063 466.211 410.1 465.591 410.23 464.877C410.508 463.358 411.128 461.848 412.092 460.394C415.862 454.66 419.644 450.909 422.46 447.704C424.248 445.675 424.443 445.444 427.185 443.267C427.185 443.267 423.989 445.416 422.192 447.463C419.357 450.678 415.575 454.437 411.786 460.19C410.795 461.691 410.155 463.247 409.868 464.813C409.729 465.563 409.692 466.221 409.766 466.767C410.072 469.342 412.369 471.51 416.056 472.714L416.205 472.761Z" fill="#C7E0FF"/>
<path d="M451.666 443.293C451.666 443.293 447.831 441.746 443.217 443.34C438.937 444.813 435.63 446.35 435.63 446.35C435.63 446.35 439.391 442.561 444.551 441.811C449.656 441.079 450.387 442.117 450.387 442.117L451.666 443.293Z" fill="#C7E0FF"/>
<path d="M448.644 443.001L440.418 445.744L437.926 443.15L446.421 440.686L448.644 443.001Z" fill="#C7E0FF"/>
<path d="M448.239 443.016L440.494 445.396C440.494 445.396 442.43 442.108 444.32 442.099C446.21 442.099 448.239 443.016 448.239 443.016Z" fill="#C7E0FF"/>
<path d="M448.24 443.013L446.369 441.03C446.369 441.03 444.127 440.15 442.173 440.984C440.487 441.697 438.689 443.448 438.689 443.448L440.496 445.393C440.496 445.393 442.886 443.17 444.405 442.855C446.35 442.448 448.24 443.013 448.24 443.013Z" fill="white"/>
<path d="M441.559 465.826C427.691 472.255 420.965 479.092 411.887 471.329C408.341 468.293 410.125 461.625 414.718 455.145M416.702 452.57C417.05 452.151 417.409 451.736 417.778 451.325M418.938 450.08C428.698 439.993 444.282 433.193 454.333 446.882C457.497 451.197 455.722 458.289 444.374 464.419" stroke="#657A99" stroke-miterlimit="10" stroke-linecap="round" stroke-linejoin="round"/>
<path d="M452.195 444.381C454.817 447.003 455.227 449.911 453.937 452.488M409.955 466.748C410.687 472.89 422.758 475.095 426.352 471.899C429.946 468.703 437.348 461.172 445.611 458.559C448.392 457.68 450.638 456.377 452.195 454.837" stroke="#657A99" stroke-miterlimit="10" stroke-linecap="round" stroke-linejoin="round"/>
<path d="M258.679 323.961C279.691 323.961 296.724 313.908 296.724 301.507C296.724 289.106 279.691 279.052 258.679 279.052C237.668 279.052 220.635 289.106 220.635 301.507C220.635 313.908 237.668 323.961 258.679 323.961Z" fill="white"/>
<path d="M288.955 315.106C282.005 320.487 271.03 323.961 258.679 323.961C237.668 323.961 220.635 313.908 220.635 301.507C220.635 289.106 237.668 279.052 258.679 279.052C279.691 279.052 296.724 289.106 296.724 301.507C296.724 305.603 294.865 309.443 291.619 312.75" stroke="#657A99" stroke-miterlimit="10" stroke-linecap="round" stroke-linejoin="round"/>
<path d="M259.333 316.823C275.503 316.823 288.611 309.086 288.611 299.543C288.611 289.999 275.503 282.262 259.333 282.262C243.163 282.262 230.054 289.999 230.054 299.543C230.054 309.086 243.163 316.823 259.333 316.823Z" fill="#EDF5FF"/>
<path d="M238.324 311.579C233.206 308.467 230.054 304.222 230.054 299.543C230.054 289.999 243.163 282.262 259.333 282.262C275.503 282.262 288.611 289.999 288.611 299.543C288.611 309.086 275.503 316.823 259.333 316.823C253.204 316.823 247.515 315.712 242.812 313.812M239.743 312.386C240.086 312.568 240.436 312.745 240.793 312.918" stroke="#657A99" stroke-miterlimit="10" stroke-linecap="round" stroke-linejoin="round"/>
<path d="M263.67 285.545C263.971 284.786 264.135 284.008 264.135 283.197C264.135 277.246 255.529 272.42 244.909 272.42C234.289 272.42 225.683 277.246 225.683 283.197C225.683 283.929 225.814 284.642 226.062 285.335V285.349C226.082 285.388 226.102 285.434 226.115 285.473L231.451 298.931C231.549 299.225 231.66 299.513 231.791 299.794L231.837 299.905H231.85C233.74 303.77 238.86 306.549 244.902 306.549C250.945 306.549 256.065 303.77 257.955 299.905H257.968L258.02 299.774C258.138 299.519 258.243 299.258 258.334 298.99L263.67 285.538V285.545Z" fill="#C7E0FF"/>
<g style="mix-blend-mode:overlay" opacity="0.5">
<path d="M231.786 299.793C231.656 299.512 231.545 299.224 231.446 298.93C238.07 301.311 253.782 301.969 263.658 285.556L263.666 285.537V285.544C263.663 285.548 263.661 285.552 263.658 285.556L258.33 298.989C258.238 299.257 258.134 299.518 258.016 299.773L257.964 299.904H257.951C256.061 303.769 250.94 306.548 244.898 306.548C238.856 306.548 233.735 303.769 231.845 299.904H231.832L231.786 299.793Z" fill="#253650"/>
</g>
<path d="M226.745 279.656C226.996 279.251 227.289 278.857 227.621 278.476M228.879 277.245C232.322 274.337 238.215 272.42 244.909 272.42C255.529 272.42 264.135 277.246 264.135 283.197C264.135 284.008 263.971 284.786 263.67 285.545V285.538L258.334 298.99C258.243 299.258 258.138 299.519 258.02 299.774L257.968 299.905H257.955C256.065 303.77 250.945 306.549 244.902 306.549C238.86 306.549 233.74 303.77 231.85 299.905H231.837L231.791 299.794C231.66 299.513 231.549 299.225 231.451 298.931L226.115 285.473C226.102 285.434 226.082 285.388 226.062 285.349V285.335C225.814 284.642 225.683 283.929 225.683 283.197C225.683 282.66 225.753 282.133 225.888 281.617" stroke="#657A99" stroke-miterlimit="10" stroke-linecap="round" stroke-linejoin="round"/>
<path d="M244.908 292.261C254.23 292.261 261.786 287.819 261.786 282.34C261.786 276.862 254.23 272.42 244.908 272.42C235.587 272.42 228.03 276.862 228.03 282.34C228.03 287.819 235.587 292.261 244.908 292.261Z" fill="#EDF5FF"/>
<path d="M255.297 277.962C255.297 272.887 250.641 266.485 244.906 266.485C239.171 266.485 234.515 272.887 234.515 277.962C234.515 283.037 239.171 287.156 244.906 287.156C250.641 287.156 255.297 283.043 255.297 277.962Z" fill="#E0EEFF"/>
<circle cx="241.189" cy="271.522" r="0.901721" fill="white"/>
<circle cx="244.256" cy="269.716" r="0.901721" fill="white"/>
<circle cx="246.057" cy="273.322" r="0.901721" fill="white"/>
<path d="M240.254 267.927C236.852 270.106 234.515 274.367 234.515 277.962C234.515 283.037 239.171 287.156 244.906 287.156C250.641 287.156 255.297 283.043 255.297 277.962C255.297 272.887 250.641 266.485 244.906 266.485C243.809 266.485 242.751 266.72 241.758 267.134" stroke="#657A99" stroke-miterlimit="10" stroke-linecap="round" stroke-linejoin="round"/>
<path d="M289.171 294.708C289.472 293.949 289.635 293.171 289.635 292.36C289.635 286.409 281.029 281.583 270.409 281.583C259.789 281.583 251.184 286.409 251.184 292.36C251.184 293.093 251.314 293.806 251.563 294.499V294.512C251.582 294.551 251.602 294.597 251.615 294.636L256.951 308.094C257.049 308.388 257.161 308.676 257.291 308.957L257.337 309.068H257.35C259.24 312.933 264.36 315.712 270.403 315.712C276.445 315.712 281.566 312.933 283.456 309.068H283.469L283.521 308.938C283.639 308.683 283.743 308.421 283.835 308.153L289.171 294.701V294.708Z" fill="#C7E0FF"/>
<g style="mix-blend-mode:overlay" opacity="0.5">
<path d="M257.287 308.956C257.156 308.675 257.045 308.387 256.947 308.093C263.57 310.475 279.283 311.133 289.159 294.72L289.167 294.7V294.707C289.164 294.711 289.162 294.715 289.159 294.72L283.83 308.152C283.739 308.42 283.634 308.682 283.517 308.937L283.464 309.067H283.451C281.561 312.932 276.441 315.712 270.399 315.712C264.356 315.712 259.236 312.932 257.346 309.067H257.333L257.287 308.956Z" fill="#253650"/>
</g>
<path d="M253.644 299.752L251.615 294.636C251.602 294.597 251.582 294.551 251.563 294.512V294.499C251.314 293.805 251.184 293.093 251.184 292.36C251.184 286.409 259.789 281.583 270.409 281.583C281.029 281.583 289.635 286.409 289.635 292.36C289.635 293.171 289.472 293.949 289.171 294.708V294.701L283.835 308.153C283.743 308.421 283.639 308.683 283.521 308.938L283.469 309.068H283.456C281.566 312.933 276.445 315.712 270.403 315.712C264.36 315.712 259.24 312.933 257.35 309.068H257.337L257.291 308.957C257.161 308.676 257.049 308.388 256.951 308.094L255.165 303.59M254.223 301.214L254.672 302.346" stroke="#657A99" stroke-miterlimit="10" stroke-linecap="round" stroke-linejoin="round"/>
<path d="M270.409 301.424C279.73 301.424 287.287 296.982 287.287 291.504C287.287 286.025 279.73 281.583 270.409 281.583C261.087 281.583 253.531 286.025 253.531 291.504C253.531 296.982 261.087 301.424 270.409 301.424Z" fill="#EDF5FF"/>
<path d="M280.798 287.125C280.798 282.051 276.142 275.649 270.407 275.649C264.672 275.649 260.016 282.051 260.016 287.125C260.016 292.2 264.672 296.32 270.407 296.32C276.142 296.32 280.798 292.206 280.798 287.125Z" fill="#E0EEFF"/>
<circle cx="267.346" cy="281.337" r="0.901721" fill="white"/>
<circle cx="270.409" cy="279.535" r="0.901721" fill="white"/>
<circle cx="272.213" cy="283.144" r="0.901721" fill="white"/>
<path d="M275.496 277.384C273.991 276.313 272.255 275.649 270.407 275.649C264.672 275.649 260.016 282.051 260.016 287.125C260.016 292.2 264.672 296.32 270.407 296.32C276.142 296.32 280.798 292.206 280.798 287.125C280.798 284.399 279.454 281.29 277.322 278.996" stroke="#657A99" stroke-miterlimit="10" stroke-linecap="round" stroke-linejoin="round"/>
<path d="M553.002 392.814V430.942C553.002 436.768 545.63 443.136 529.928 443.136C514.226 443.136 509.914 434.465 509.914 431.173V392.83H553.002V392.814Z" fill="#E0EEFF"/>
<path d="M540.669 409.86C540.669 409.86 516.698 415.238 509.929 401.298V403.384C509.929 403.384 516.497 416.675 540.669 409.86Z" fill="#C7E0FF"/>
<g style="mix-blend-mode:overlay" opacity="0.5">
<path d="M529.928 443.13C545.63 443.13 553.002 436.763 553.002 430.936C545.381 434.581 534.369 440.058 521.521 430.936C512.439 424.489 510.91 401.884 509.914 392.824V431.168C509.914 434.46 514.226 443.13 529.928 443.13Z" fill="#253650"/>
</g>
<path d="M553.002 420.193V430.942C553.002 436.768 545.63 443.136 529.928 443.136C514.226 443.136 509.914 434.465 509.914 431.173V409.899M553.002 417.137V392.814V392.83H509.914V403.331M509.914 405.521V407.473" stroke="#657A99" stroke-miterlimit="10" stroke-linecap="round" stroke-linejoin="round"/>
<path d="M531.473 405.962C543.372 405.962 553.017 400.073 553.017 392.809C553.017 385.546 543.372 379.657 531.473 379.657C519.574 379.657 509.929 385.546 509.929 392.809C509.929 400.073 519.574 405.962 531.473 405.962Z" fill="#EDF5FF"/>
<path d="M531.473 405.962C543.372 405.962 553.017 400.073 553.017 392.809C553.017 385.546 543.372 379.657 531.473 379.657C519.574 379.657 509.929 385.546 509.929 392.809C509.929 400.073 519.574 405.962 531.473 405.962Z" stroke="#657A99" stroke-miterlimit="10" stroke-linecap="round" stroke-linejoin="round"/>
<path d="M531.476 404.353C542.427 404.353 551.304 399.185 551.304 392.808C551.304 386.432 542.427 381.264 531.476 381.264C520.525 381.264 511.647 386.432 511.647 392.808C511.647 399.185 520.525 404.353 531.476 404.353Z" fill="#C7E0FF"/>
<path d="M527.396 404.125C528.709 404.279 530.069 404.372 531.46 404.372V376.507H527.411V404.125H527.396Z" fill="#EDF5FF"/>
<path d="M531.476 387.429V376.487H527.427V387.429C527.427 387.429 529.498 389.068 531.476 387.429Z" fill="#C7E0FF"/>
<path d="M515.911 399.987C518.307 401.749 521.568 403.093 525.323 403.804V352.216L515.772 357.099L515.911 399.987Z" fill="#E0EEFF"/>
<g style="mix-blend-mode:overlay" opacity="0.5">
<path d="M542.556 383.234C547.826 385.304 551.304 388.828 551.304 392.816C551.304 398.132 545.137 402.599 536.745 403.959L542.556 383.249V383.234Z" fill="#253650"/>
</g>
<path d="M539.962 403.262C541.477 402.844 542.883 402.319 544.15 401.701C544.15 401.701 554.953 369.879 558.168 360.915C559.049 358.473 556.468 357.391 555.309 360.22C550.858 371.1 539.962 403.262 539.962 403.262Z" fill="#E0EEFF"/>
<path d="M554.549 371.246C556.033 366.934 557.346 363.194 558.15 360.922C559.031 358.48 556.45 357.398 555.291 360.226C554.302 362.622 553.019 366.068 551.597 369.963C551.597 369.963 552.2 371.647 554.549 371.261V371.246Z" fill="#C7E0FF"/>
<path d="M517.166 400.703V356.394" stroke="#C7E0FF" stroke-width="0.25" stroke-miterlimit="10"/>
<path d="M517.166 357.605L518.727 356.909" stroke="#C7E0FF" stroke-width="0.25" stroke-miterlimit="10"/>
<path d="M517.166 360.918L518.727 360.223" stroke="#C7E0FF" stroke-width="0.25" stroke-miterlimit="10"/>
<path d="M517.166 364.24L518.727 363.529" stroke="#C7E0FF" stroke-width="0.25" stroke-miterlimit="10"/>
<path d="M517.166 367.914L518.727 367.219" stroke="#C7E0FF" stroke-width="0.25" stroke-miterlimit="10"/>
<path d="M517.166 371.218L518.727 370.522" stroke="#C7E0FF" stroke-width="0.25" stroke-miterlimit="10"/>
<path d="M517.166 374.54L518.727 373.829" stroke="#C7E0FF" stroke-width="0.25" stroke-miterlimit="10"/>
<path d="M517.166 377.851L518.727 377.155" stroke="#C7E0FF" stroke-width="0.25" stroke-miterlimit="10"/>
<path d="M517.166 381.161L518.727 380.466" stroke="#C7E0FF" stroke-width="0.25" stroke-miterlimit="10"/>
<path d="M517.166 384.486L518.727 383.775" stroke="#C7E0FF" stroke-width="0.25" stroke-miterlimit="10"/>
<path d="M517.166 398.204L518.727 397.509" stroke="#C7E0FF" stroke-width="0.25" stroke-miterlimit="10"/>
<path d="M517.166 387.795L518.727 387.1" stroke="#C7E0FF" stroke-width="0.25" stroke-miterlimit="10"/>
<path d="M517.166 391.098L518.727 390.403" stroke="#C7E0FF" stroke-width="0.25" stroke-miterlimit="10"/>
<path d="M517.166 394.421L518.727 393.726" stroke="#C7E0FF" stroke-width="0.25" stroke-miterlimit="10"/>
<path d="M529.437 377.86C530.555 377.86 531.461 377.251 531.461 376.5C531.461 375.749 530.555 375.14 529.437 375.14C528.319 375.14 527.412 375.749 527.412 376.5C527.412 377.251 528.319 377.86 529.437 377.86Z" fill="#C7E0FF"/>
<path d="M529.437 377.86C530.555 377.86 531.461 377.251 531.461 376.5C531.461 375.749 530.555 375.14 529.437 375.14C528.319 375.14 527.412 375.749 527.412 376.5C527.412 377.251 528.319 377.86 529.437 377.86Z" stroke="#657A99" stroke-miterlimit="10" stroke-linecap="round" stroke-linejoin="round"/>
<path d="M539.962 403.262C539.962 403.262 550.858 371.1 555.309 360.22C556.468 357.391 559.049 358.473 558.168 360.915C554.953 369.879 544.15 401.701 544.15 401.701" stroke="#657A99" stroke-miterlimit="10" stroke-linecap="round" stroke-linejoin="round"/>
<path d="M515.911 399.987L515.772 357.099L525.323 352.216V403.804" stroke="#657A99" stroke-miterlimit="10" stroke-linecap="round" stroke-linejoin="round"/>
<path d="M527.396 404.125H527.411V376.507M531.46 404.372V376.507" stroke="#657A99" stroke-miterlimit="10" stroke-linecap="round" stroke-linejoin="round"/>
<path d="M219.98 383.862L227.834 371.313C229.004 369.443 227.33 367.39 224.1 366.723L202.409 362.269C199.178 361.609 195.608 362.583 194.437 364.454L186.583 377.003C185.413 378.873 187.087 380.926 190.317 381.587L212.008 386.04C215.239 386.701 218.809 385.726 219.98 383.856V383.862Z" fill="#657A99"/>
<path d="M219.98 383.051L227.834 370.502C229.004 368.631 227.33 366.578 224.1 365.911L202.409 361.458C199.178 360.797 195.608 361.772 194.437 363.642L186.583 376.191C185.413 378.061 187.087 380.115 190.317 380.782L212.008 385.235C215.239 385.895 218.809 384.921 219.98 383.051Z" fill="white"/>
<path d="M189.915 370.867L194.437 363.642C195.608 361.772 199.178 360.797 202.409 361.458L224.1 365.911C227.33 366.578 229.004 368.631 227.834 370.502L219.98 383.051C218.809 384.921 215.239 385.895 212.008 385.235L190.317 380.782C187.087 380.115 185.413 378.061 186.583 376.191L188.94 372.426" stroke="#657A99" stroke-miterlimit="10" stroke-linecap="round" stroke-linejoin="round"/>
<path d="M206.925 377.96C200.948 377.96 196.102 375.137 196.102 371.656C196.102 368.174 200.948 365.352 206.925 365.352C212.902 365.352 217.748 368.174 217.748 371.656C217.748 375.137 212.902 377.96 206.925 377.96Z" fill="#CED3F4"/>
<path d="M189.663 339.243H223.793C223.793 339.243 223.799 340.982 223.793 341.048C222.445 350.831 220.072 368.912 217.292 373.025C215.612 375.517 212.911 377.112 209.922 377.433C208.889 377.544 207.823 377.603 206.731 377.603C205.894 377.603 205.07 377.57 204.266 377.498C201.264 377.25 198.537 375.707 196.759 373.28C193.607 368.984 190.926 350.667 189.67 341.041C189.663 340.976 189.67 339.236 189.67 339.236L189.663 339.243Z" fill="#E0EEFF"/>
<g style="mix-blend-mode:overlay" opacity="0.5">
<path d="M217.288 373.028C219.022 370.463 220.597 362.466 221.864 354.436C217.217 357.949 204.667 362.867 191.646 354.436C193.013 362.499 194.792 370.608 196.755 373.283C205.064 377.193 213.906 374.742 217.288 373.028Z" fill="#253650"/>
</g>
<path d="M222.026 353.42C220.733 361.779 219.098 370.35 217.292 373.023C215.612 375.514 212.911 377.11 209.922 377.43C208.889 377.541 207.823 377.6 206.731 377.6C205.894 377.6 205.07 377.567 204.266 377.496C201.264 377.247 198.537 375.704 196.759 373.278C193.607 368.981 190.926 350.664 189.67 341.038C189.663 340.973 189.67 339.234 189.67 339.234L189.663 339.24H223.793C223.793 339.24 223.799 340.98 223.793 341.045C223.52 343.022 223.206 345.338 222.855 347.809M222.368 351.167C222.441 350.674 222.513 350.183 222.584 349.696" stroke="#657A99" stroke-miterlimit="10" stroke-linecap="round" stroke-linejoin="round"/>
<path d="M206.723 348.963C197.289 348.963 189.642 344.51 189.642 339.017C189.642 333.524 197.289 329.07 206.723 329.07C216.156 329.07 223.804 333.524 223.804 339.017C223.804 344.51 216.156 348.963 206.723 348.963Z" fill="white"/>
<path d="M204.647 348.891C196.193 348.294 189.642 344.101 189.642 339.017C189.642 333.524 197.289 329.07 206.723 329.07C216.156 329.07 223.804 333.524 223.804 339.017C223.804 344.101 217.253 348.294 208.798 348.891" stroke="#657A99" stroke-miterlimit="10" stroke-linecap="round" stroke-linejoin="round"/>
<path d="M206.722 347.945C197.827 347.945 190.616 343.913 190.616 338.94C190.616 333.967 197.827 329.935 206.722 329.935C215.618 329.935 222.829 333.967 222.829 338.94C222.829 343.913 215.618 347.945 206.722 347.945Z" fill="url(#paint1_linear_483_42985)"/>
<path d="M206.722 347.945C197.827 347.945 190.616 343.913 190.616 338.94C190.616 333.967 197.827 329.935 206.722 329.935C215.618 329.935 222.829 333.967 222.829 338.94C222.829 343.913 215.618 347.945 206.722 347.945Z" fill="#E0EEFF"/>
<path d="M206.723 336.193C213.648 336.193 219.534 338.639 221.81 342.072C219.534 345.499 213.648 347.951 206.723 347.951C199.798 347.951 193.913 345.505 191.637 342.072C193.913 338.646 199.798 336.193 206.723 336.193Z" fill="#C7E0FF"/>
<path d="M206.723 336.193C213.648 336.193 219.534 338.639 221.81 342.072C219.534 345.499 213.648 347.951 206.723 347.951C199.798 347.951 193.913 345.505 191.637 342.072C193.913 338.646 199.798 336.193 206.723 336.193Z" fill="#C7E0FF"/>
<path d="M219.518 333.567C219.85 342.771 214.852 346.92 212.311 347.844H200.987C191.145 342.854 197.202 340.775 196.509 332.459C195.816 324.142 174.054 330.518 164.629 324.835C157.088 320.289 161.949 308.616 165.322 303.349C166.846 308.616 170.195 306.123 180.868 306.123C191.541 306.123 188.907 317.904 189.046 323.172C189.184 328.439 219.103 322.063 219.518 333.567Z" fill="url(#paint2_linear_483_42985)"/>
<path d="M185.437 352.046C186.928 348.195 191.643 347.318 191.643 347.318L194.873 349.163C194.873 349.163 190.204 350.026 188.733 353.838C187.261 357.638 187.261 363.333 194.16 366.57C193.448 366.237 191.898 365.374 190.969 364.942C183.939 361.666 183.946 355.898 185.437 352.046Z" fill="#C7E0FF"/>
<path d="M188.731 353.837C190.209 350.025 194.871 349.161 194.871 349.161L194.767 350.417C193.766 350.79 190.804 351.692 189.81 354.256C187.868 359.265 189.764 363.247 194.695 365.543C198.259 367.204 198.69 366.811 199.639 367.249L200.162 368.767C200.162 368.767 201.156 369.826 194.198 366.589C187.24 363.352 187.247 357.643 188.724 353.831L188.731 353.837Z" fill="white"/>
<path d="M191.713 363.622C191.798 363.675 191.87 363.733 191.962 363.786C193.629 364.825 195.761 365.048 195.761 365.048L199.646 367.252C198.691 366.807 198.266 367.206 194.702 365.545C193.505 364.989 192.511 364.342 191.72 363.622H191.713Z" fill="#C7E0FF"/>
<path d="M185.437 352.046C186.928 348.195 191.643 347.318 191.643 347.318L194.873 349.163C194.873 349.163 190.204 350.026 188.733 353.838C187.261 357.638 187.261 363.333 194.16 366.57C193.448 366.237 191.898 365.374 190.969 364.942C183.939 361.666 183.946 355.898 185.437 352.046Z" stroke="#657A99" stroke-miterlimit="10" stroke-linecap="round" stroke-linejoin="round"/>
<path d="M709.391 468.639C709.036 473.843 725.764 485.286 746.646 481.759C767.529 478.232 743.027 461.326 730.349 458.908C717.671 456.49 709.956 460.35 709.391 468.639Z" fill="#E0EEFF"/>
<path d="M746.646 481.759C767.529 478.232 743.027 461.326 730.349 458.908C717.671 456.49 709.956 460.35 709.391 468.639C709.061 473.483 723.528 483.73 742.37 482.284" stroke="#657A99" stroke-miterlimit="10" stroke-linecap="round" stroke-linejoin="round"/>
<g style="mix-blend-mode:overlay" opacity="0.5">
<path d="M730.352 458.908C733.52 459.512 737.425 461.021 741.176 462.999C735.764 465.24 722.281 468.295 711.643 462.582C714.86 458.637 721.357 457.192 730.352 458.908Z" fill="#253650"/>
</g>
<path d="M707.797 457.889C713.062 468.217 727.684 461.583 736.266 459.566C744.848 457.55 775.482 444.442 773.236 432.344C770.99 420.246 747.501 418.632 733.2 425.083C718.898 431.534 701.798 446.125 707.797 457.889Z" fill="#C7E0FF"/>
<g style="mix-blend-mode:overlay" opacity="0.5">
<path d="M736.266 459.559C727.684 461.575 713.062 468.21 707.797 457.882C726.61 461.74 757.489 439.066 770.578 427.247C771.94 428.672 772.87 430.365 773.236 432.337C775.482 444.434 744.848 457.543 736.266 459.559Z" fill="#253650"/>
</g>
<path d="M769.73 426.45C771.555 428.028 772.799 429.987 773.236 432.344C775.482 444.442 744.848 457.55 736.266 459.566C727.684 461.583 713.062 468.217 707.797 457.889C701.798 446.125 718.898 431.534 733.2 425.083C740.326 421.869 749.734 420.657 757.658 421.747M765.981 424.067C764.807 423.516 763.527 423.05 762.168 422.669" stroke="#657A99" stroke-miterlimit="10" stroke-linecap="round" stroke-linejoin="round"/>
<path d="M689.191 454.601C682.035 446.301 653.705 453.872 645.239 486.414C636.773 518.955 662.747 504.824 673.4 497.259C684.054 489.694 698.32 465.188 689.191 454.596V454.601Z" fill="#C7E0FF"/>
<path d="M689.191 454.601C682.035 446.301 653.705 453.872 645.239 486.414C636.773 518.955 662.747 504.824 673.4 497.259C684.054 489.694 698.32 465.188 689.191 454.596V454.601Z" fill="#C7E0FF"/>
<g style="mix-blend-mode:overlay" opacity="0.5">
<path d="M645.233 486.414C652.837 457.186 676.464 448.102 686.383 452.569C671.919 459.059 643.439 478.45 645.233 504.094C643.205 501.168 642.821 495.685 645.233 486.414Z" fill="#253650"/>
</g>
<path d="M703.787 413.53C694.611 408.016 698.062 382.924 713.381 366.995C728.701 351.066 747.291 342.593 758.119 350.457C768.947 358.321 754.645 381.931 742.188 393.62C729.731 405.31 716.459 421.142 703.793 413.53H703.787Z" fill="#C7E0FF"/>
<g style="mix-blend-mode:overlay" opacity="0.5">
<path d="M742.188 393.628C754.645 381.938 768.947 358.329 758.119 350.465C757.094 363.033 744.792 393.244 703.787 413.538H703.793C716.459 421.149 729.731 405.318 742.188 393.628Z" fill="#253650"/>
</g>
<path d="M713.381 366.995C728.701 351.066 747.291 342.593 758.119 350.457C761.924 353.221 762.626 357.929 761.395 363.381M711.329 369.265C710.945 369.717 710.57 370.174 710.203 370.636M709.158 371.999C697.5 387.729 695.525 408.565 703.787 413.53H703.793C708.225 416.193 712.731 415.987 717.25 414.092M759.98 367.983C760.184 367.449 760.374 366.918 760.549 366.392M758.652 371.112C754.836 379.307 748.291 387.894 742.188 393.62C735.103 400.269 727.754 408.258 720.403 412.511" stroke="#657A99" stroke-miterlimit="10" stroke-linecap="round" stroke-linejoin="round"/>
<path d="M655.814 402.687C643.659 383.76 641.972 361.345 650.81 357.485C659.648 353.625 682.247 366.573 691.201 386.552C700.15 406.53 700.243 425.854 691.399 429.715C682.555 433.575 667.66 421.138 655.814 402.687Z" fill="#EDF5FF"/>
<g style="mix-blend-mode:overlay" opacity="0.5">
<path d="M691.201 386.552C682.247 366.573 659.648 353.625 650.81 357.485C684.264 369.388 696.061 402.904 697.777 418.175C698.675 409.886 696.478 398.332 691.201 386.552Z" fill="#253650"/>
</g>
<path d="M650.81 357.485C659.648 353.625 682.247 366.573 691.201 386.552C700.15 406.53 700.243 425.854 691.399 429.715C687.385 431.467 682.124 429.861 676.467 425.86M647.87 359.919C642.596 367.178 645.257 386.248 655.814 402.687C660.38 409.799 665.399 416.017 670.349 420.753M673.755 423.784C673.18 423.311 672.601 422.815 672.022 422.299" stroke="#657A99" stroke-miterlimit="10" stroke-linecap="round" stroke-linejoin="round"/>
<path d="M703.144 603.707C673.658 603.707 649.755 583.076 649.755 557.626C649.755 532.176 673.658 511.545 703.144 511.545C732.63 511.545 756.534 532.176 756.534 557.626C756.534 583.076 732.63 603.707 703.144 603.707Z" fill="white"/>
<path d="M703.144 603.704C673.658 603.704 649.755 583.073 649.755 557.623C649.755 545.408 655.261 534.303 664.248 526.057C656.044 543.484 662.533 563.258 688.147 570.221C713.761 577.184 739.333 570.221 756.534 557.623C756.534 583.073 732.63 603.704 703.144 603.704Z" fill="#C7E0FF"/>
<path d="M736.201 521.438C748.585 529.877 756.534 542.95 756.534 557.626C756.534 583.076 732.63 603.707 703.144 603.707C684.496 603.707 668.082 595.456 658.534 582.952M732.761 519.279C724.286 514.393 714.1 511.545 703.144 511.545C673.658 511.545 649.755 532.176 649.755 557.626C649.755 563.303 650.944 568.74 653.12 573.762M656.428 579.952C655.798 578.972 655.208 577.969 654.66 576.947" stroke="#657A99" stroke-miterlimit="10" stroke-linecap="round" stroke-linejoin="round"/>
<path d="M702.817 549.003C687.765 549.003 675.564 541.773 675.564 532.855C675.564 523.937 687.765 516.708 702.817 516.708C717.869 516.708 730.07 523.937 730.07 532.855C730.07 541.773 717.869 549.003 702.817 549.003Z" fill="#EDF5FF"/>
<path d="M702.817 523.027C689.592 523.027 678.566 528.61 676.087 536.015C675.744 534.992 675.564 533.935 675.564 532.855C675.564 523.94 687.765 516.708 702.817 516.708C717.869 516.708 730.07 523.94 730.07 532.855C730.07 533.935 729.89 534.992 729.547 536.015C727.068 528.61 716.042 523.027 702.817 523.027Z" fill="#C7E0FF" stroke="#657A99" stroke-miterlimit="10" stroke-linecap="round" stroke-linejoin="round"/>
<path d="M675.558 391.759C675.558 391.759 693.818 421.148 697.778 442.366C704.463 478.185 702.817 536.017 702.817 536.017" stroke="#657A99" stroke-miterlimit="10" stroke-linecap="round" stroke-linejoin="round"/>
<path d="M671.068 470.243C671.068 470.243 688.017 445.198 700.474 458.473" stroke="#657A99" stroke-miterlimit="10" stroke-linecap="round" stroke-linejoin="round"/>
<path d="M727.384 472.008C727.384 472.008 708.87 462.226 701.637 476.012" stroke="#657A99" stroke-miterlimit="10" stroke-linecap="round" stroke-linejoin="round"/>
<path d="M727.388 376.34C727.388 376.34 706.058 397.881 703.149 416.665C700.24 435.449 701.147 467.261 701.147 467.261C712.284 445.473 748.189 432.698 748.189 432.698" stroke="#657A99" stroke-miterlimit="10" stroke-linecap="round" stroke-linejoin="round"/>
<path d="M685.986 545.556C685.051 545.121 684.165 544.65 683.334 544.146M680.609 542.217C677.432 539.577 675.564 536.345 675.564 532.855C675.564 523.937 687.765 516.708 702.817 516.708C717.869 516.708 730.07 523.937 730.07 532.855C730.07 541.773 717.869 549.003 702.817 549.003C697.992 549.003 693.46 548.26 689.529 546.957" stroke="#657A99" stroke-miterlimit="10" stroke-linecap="round" stroke-linejoin="round"/>
<path d="M645.239 486.414C653.705 453.872 682.035 446.301 689.191 454.601V454.596C693.336 459.405 692.658 467.081 689.686 474.738M644.327 490.395C639.002 517.74 663.21 504.495 673.4 497.259C677.925 494.046 683.101 487.777 686.86 480.816M688.672 477.156C688.418 477.721 688.152 478.285 687.876 478.846" stroke="#657A99" stroke-miterlimit="10" stroke-linecap="round" stroke-linejoin="round"/>
<path d="M75.9343 504.178C75.6212 502.912 75.1616 501.694 74.5688 500.53L62.0731 467.186H39.4464L26.9507 500.543C26.3646 501.701 25.905 502.906 25.5986 504.158V504.178C25.2922 505.423 25.1257 506.708 25.1257 508.028C25.1257 519.167 36.6089 528.199 50.7698 528.199C64.9306 528.199 76.4138 519.167 76.4138 508.028C76.4138 506.708 76.2473 505.423 75.9409 504.178H75.9343Z" fill="white"/>
<path d="M25.5986 504.155C25.905 502.903 26.3646 501.698 26.9507 500.541L33.1986 483.862C33.1251 492.308 36.8777 507.199 49.4394 511.59C65.194 517.097 72.5897 507.443 75.9342 504.175H75.9409C76.2473 505.42 76.4138 506.706 76.4138 508.025C76.4138 519.164 64.9306 528.197 50.7698 528.197C36.6089 528.197 25.1257 519.164 25.1257 508.025C25.1257 506.706 25.2922 505.42 25.5986 504.175V504.155Z" fill="#C7E0FF"/>
<path d="M50.767 473.682C57.0171 473.682 62.0837 470.774 62.0837 467.187C62.0837 463.6 57.0171 460.692 50.767 460.692C44.517 460.692 39.4503 463.6 39.4503 467.187C39.4503 470.774 44.517 473.682 50.767 473.682Z" fill="#E0EEFF"/>
<path d="M50.767 473.682C57.0171 473.682 62.0837 470.774 62.0837 467.187C62.0837 463.6 57.0171 460.692 50.767 460.692C44.517 460.692 39.4503 463.6 39.4503 467.187C39.4503 470.774 44.517 473.682 50.767 473.682Z" stroke="#657A99" stroke-miterlimit="10" stroke-linecap="round" stroke-linejoin="round"/>
<path d="M62.0731 467.186L74.5688 500.53C75.1616 501.694 75.6212 502.912 75.9343 504.178H75.9409C76.2473 505.423 76.4138 506.708 76.4138 508.028C76.4138 519.167 64.9306 528.199 50.7698 528.199C36.6089 528.199 25.1257 519.167 25.1257 508.028C25.1257 506.708 25.2922 505.423 25.5986 504.178V504.158C25.905 502.906 26.3646 501.701 26.9507 500.543L39.4464 467.186" stroke="#657A99" stroke-miterlimit="10" stroke-linecap="round" stroke-linejoin="round"/>
<path d="M43.6694 444.767C46.1329 440.284 44.4959 434.653 40.013 432.189L28.3758 425.794C23.8929 423.331 18.2618 424.968 15.7982 429.451C13.3347 433.933 14.9717 439.565 19.4546 442.028L31.0919 448.423C35.5747 450.887 41.2059 449.25 43.6694 444.767Z" fill="#C7E0FF"/>
<path d="M57.5889 418.929C53.5062 415.847 52.6947 410.039 55.7763 405.957L63.7761 395.358C66.8577 391.276 72.6656 390.464 76.7483 393.546C80.8309 396.627 81.6425 402.435 78.5608 406.518L70.5611 417.116C67.4794 421.199 61.6716 422.01 57.5889 418.929Z" fill="#C7E0FF"/>
<ellipse cx="23.517" cy="391.231" rx="18.6909" ry="16.9467" transform="rotate(-33.5382 23.517 391.231)" fill="#C7E0FF"/>
<g style="mix-blend-mode:overlay" opacity="0.5">
<path d="M9.60345 404.492C16.3505 411.239 27.7601 410.769 35.0875 403.441C35.9399 402.589 36.6995 401.681 37.3658 400.732C27.2688 390.731 11.4754 391.507 4.84074 393.146C4.94167 397.345 6.51775 401.406 9.60345 404.492Z" fill="#253650"/>
</g>
<path d="M21.6363 404.941C24.8998 408.205 30.589 407.807 34.3434 404.053C38.0978 400.298 38.4957 394.609 35.2322 391.345C31.9687 388.082 26.2795 388.48 22.5251 392.234C20.4717 394.288 19.4224 396.92 19.4269 399.417M20.1562 402.818C19.9099 402.285 19.7265 401.724 19.6052 401.146" stroke="#657A99" stroke-miterlimit="10" stroke-linecap="round" stroke-linejoin="round"/>
<path d="M51.4166 473.689C51.4166 470.304 51.2507 466.633 50.894 462.746M28.6562 397.722C32.7642 403.956 36.2196 410.458 39.097 417.019M48.5682 447.064C47.5964 439.977 49.0519 423.143 62.6491 412.502M48.5682 447.064C49.6836 452.544 50.442 457.819 50.894 462.746M48.5682 447.064C46.7027 437.897 43.8385 428.156 39.7393 418.507M28.6562 435.705C29.9073 436.209 31.468 437.003 33.1854 438.095M50.894 462.746C48.2441 451.398 41.0882 443.715 35.0663 439.371" stroke="#657A99" stroke-miterlimit="10" stroke-linecap="round" stroke-linejoin="round"/>
<path d="M39.9966 384.168C42.1491 390.487 40.465 398.064 35.0867 403.442C27.7593 410.77 16.3497 411.24 9.60266 404.493C3.14215 398.033 3.29917 387.297 9.75714 379.964M39.1576 382.155C38.3995 380.632 37.3936 379.214 36.1376 377.958C30.2638 372.085 20.8563 371.681 13.6848 376.509M11.3565 378.338C11.5414 378.17 11.7286 378.006 11.9178 377.846" stroke="#657A99" stroke-miterlimit="10" stroke-linecap="round" stroke-linejoin="round"/>
<path d="M396.33 421.039L282.173 355.217C280.164 354.063 279.164 352.516 279.135 350.892C279.135 350.843 279.135 345.294 279.135 345.245C279.174 343.278 280.624 346.694 283.437 345.079L348.229 307.725C353.433 304.721 361.312 304.398 365.821 307.001L479.977 372.813C481.487 373.684 482.574 369.994 482.966 371.169C483.094 371.56 483.016 376.727 483.025 377.128C483.064 379.144 481.604 381.287 478.723 382.951L413.931 420.305C408.727 423.309 400.848 423.632 396.339 421.029L396.33 421.039Z" fill="#E0EEFF"/>
<path d="M406.27 422.668C402.612 423.051 398.922 422.52 396.339 421.029L396.33 421.039L282.173 355.217C280.164 354.063 279.164 352.516 279.135 350.892C279.135 350.843 279.135 345.294 279.135 345.245C279.174 343.278 280.624 346.694 283.437 345.079L348.229 307.725C353.433 304.721 361.312 304.398 365.821 307.001L479.977 372.813C481.487 373.684 482.574 369.994 482.966 371.169C483.094 371.56 483.016 376.727 483.025 377.128C483.065 379.144 481.604 381.287 478.723 382.951L413.931 420.305C412.987 420.85 411.955 421.306 410.871 421.674" stroke="#657A99" stroke-width="1.04694" stroke-miterlimit="10" stroke-linecap="round" stroke-linejoin="round"/>
<path d="M396.326 415.505L282.169 349.694C277.661 347.091 278.23 342.56 283.434 339.555L348.225 302.202C353.429 299.198 361.309 298.875 365.817 301.478L479.974 367.289C484.482 369.892 483.914 374.423 478.709 377.428L413.918 414.781C408.714 417.786 400.834 418.108 396.326 415.505Z" fill="#C7E0FF"/>
<path d="M357.592 311.883L364.343 315.777C365.201 316.278 366.593 316.278 367.44 315.777C368.298 315.287 368.287 314.487 367.44 313.986L360.689 310.092C359.831 309.592 358.438 309.592 357.592 310.092C356.734 310.582 356.745 311.383 357.592 311.883ZM369.144 318.547L372.342 320.393C373.2 320.883 374.592 320.894 375.439 320.393C376.297 319.904 376.286 319.103 375.439 318.602L372.241 316.756C371.384 316.266 369.991 316.255 369.144 316.756C368.287 317.245 368.298 318.046 369.144 318.547ZM377.154 323.163L380.352 325.01C381.21 325.511 382.602 325.511 383.449 325.01C384.296 324.509 384.296 323.72 383.449 323.219L380.252 321.372C379.394 320.883 378.001 320.872 377.154 321.372C376.297 321.862 376.308 322.663 377.154 323.163ZM385.165 327.78L388.362 329.627C389.22 330.116 390.612 330.127 391.459 329.627C392.317 329.137 392.306 328.336 391.459 327.836L388.262 325.989C387.404 325.488 386.011 325.488 385.165 325.989C384.307 326.478 384.318 327.279 385.165 327.78ZM393.175 332.396L396.372 334.243C397.23 334.744 398.622 334.744 399.469 334.243C400.327 333.754 400.316 332.953 399.469 332.452L396.272 330.605C395.414 330.105 394.021 330.105 393.175 330.605C392.317 331.095 392.328 331.896 393.175 332.396ZM401.185 337.013L404.382 338.86C405.24 339.349 406.633 339.36 407.479 338.86C408.337 338.37 408.326 337.569 407.479 337.069L404.282 335.222C403.424 334.733 402.031 334.721 401.185 335.222C400.327 335.711 400.338 336.512 401.185 337.013ZM409.184 341.63L412.381 343.476C413.239 343.966 414.632 343.977 415.478 343.476C416.336 342.987 416.325 342.186 415.478 341.685L412.281 339.839C411.423 339.338 410.03 339.338 409.184 339.839C408.326 340.328 408.337 341.129 409.184 341.63ZM417.194 346.246L420.391 348.093C421.249 348.582 422.642 348.593 423.488 348.093C424.346 347.603 424.335 346.802 423.488 346.302L420.291 344.455C419.433 343.955 418.041 343.955 417.194 344.455C416.336 344.945 416.347 345.745 417.194 346.246ZM425.204 350.863L428.401 352.709C429.259 353.21 430.652 353.21 431.498 352.709C432.356 352.22 432.345 351.419 431.498 350.918L428.301 349.072C427.443 348.571 426.051 348.571 425.204 349.072C424.346 349.561 424.357 350.362 425.204 350.863ZM433.214 355.479L436.411 357.326C437.269 357.826 438.662 357.826 439.508 357.326C440.366 356.836 440.355 356.035 439.508 355.535L436.311 353.688C435.453 353.199 434.061 353.188 433.214 353.688C432.356 354.178 432.367 354.979 433.214 355.479ZM441.224 360.096L444.421 361.942C445.279 362.432 446.672 362.443 447.519 361.942C448.376 361.453 448.365 360.652 447.519 360.151L444.321 358.305C443.463 357.815 442.071 357.804 441.224 358.305C440.377 358.805 440.377 359.595 441.224 360.096ZM449.223 364.712L452.42 366.559C453.278 367.059 454.671 367.059 455.518 366.559C456.375 366.069 456.364 365.268 455.518 364.768L452.32 362.921C451.462 362.421 450.07 362.421 449.223 362.921C448.365 363.411 448.376 364.212 449.223 364.712ZM457.4 369.429L460.598 371.276C461.455 371.765 462.848 371.776 463.695 371.276C464.553 370.786 464.541 369.985 463.695 369.485L460.497 367.638C459.64 367.148 458.247 367.137 457.4 367.638C456.542 368.127 456.554 368.928 457.4 369.429ZM350.384 316.278L353.158 317.879C354.138 318.447 355.72 318.447 356.689 317.879L359.441 316.289C360.41 315.732 360.41 314.82 359.441 314.253L356.667 312.651C355.687 312.084 354.105 312.084 353.135 312.651L350.384 314.242C349.414 314.798 349.414 315.71 350.384 316.278ZM364.688 322.496L367.44 320.905C368.409 320.349 368.409 319.437 367.44 318.869L364.666 317.268C363.686 316.7 362.104 316.7 361.134 317.268L358.383 318.858C357.413 319.415 357.413 320.327 358.383 320.894L361.157 322.496C362.137 323.063 363.719 323.063 364.688 322.496ZM366.404 325.511L369.178 327.112C370.158 327.68 371.74 327.68 372.709 327.112L375.461 325.522C376.43 324.966 376.43 324.053 375.461 323.486L372.687 321.884C371.707 321.317 370.125 321.317 369.156 321.884L366.404 323.475C365.435 324.031 365.435 324.943 366.404 325.511ZM374.403 330.127L377.177 331.729C378.157 332.296 379.739 332.296 380.708 331.729L383.46 330.138C384.429 329.582 384.429 328.67 383.46 328.103L380.686 326.501C379.706 325.933 378.124 325.933 377.154 326.501L374.403 328.091C373.434 328.648 373.434 329.56 374.403 330.127ZM391.459 332.73L388.685 331.128C387.705 330.561 386.123 330.561 385.153 331.128L382.402 332.719C381.432 333.275 381.432 334.187 382.402 334.755L385.176 336.357C386.156 336.924 387.738 336.924 388.707 336.357L391.459 334.766C392.428 334.21 392.428 333.298 391.459 332.73ZM399.458 337.347L396.684 335.745C395.704 335.178 394.122 335.178 393.152 335.745L390.401 337.336C389.431 337.892 389.431 338.804 390.401 339.371L393.175 340.973C394.155 341.541 395.737 341.541 396.706 340.973L399.458 339.382C400.427 338.826 400.427 337.914 399.458 337.347ZM407.468 341.963L404.694 340.361C403.714 339.794 402.132 339.794 401.162 340.361L398.411 341.952C397.442 342.508 397.442 343.421 398.411 343.988L401.185 345.59C402.165 346.157 403.747 346.157 404.716 345.59L407.468 343.999C408.437 343.443 408.437 342.531 407.468 341.963ZM415.478 346.58L412.704 344.978C411.724 344.411 410.142 344.411 409.173 344.978L406.421 346.569C405.452 347.125 405.452 348.037 406.421 348.604L409.195 350.206C410.175 350.774 411.757 350.774 412.726 350.206L415.478 348.616C416.447 348.059 416.447 347.147 415.478 346.58ZM423.488 351.196L420.714 349.594C419.734 349.027 418.152 349.027 417.183 349.594L414.431 351.185C413.462 351.741 413.462 352.654 414.431 353.221L417.205 354.823C418.185 355.39 419.767 355.39 420.737 354.823L423.488 353.232C424.458 352.676 424.458 351.764 423.488 351.196ZM431.498 355.813L428.724 354.211C427.744 353.644 426.162 353.644 425.193 354.211L422.441 355.802C421.472 356.358 421.472 357.27 422.441 357.837L425.215 359.439C426.195 360.007 427.777 360.007 428.747 359.439L431.498 357.849C432.468 357.292 432.468 356.38 431.498 355.813ZM430.462 362.443L433.236 364.045C434.217 364.612 435.799 364.612 436.768 364.045L439.52 362.454C440.489 361.898 440.489 360.986 439.52 360.418L436.746 358.816C435.765 358.249 434.183 358.249 433.214 358.816L430.462 360.407C429.493 360.963 429.493 361.876 430.462 362.443ZM447.507 365.046L444.733 363.444C443.753 362.877 442.171 362.877 441.202 363.444L438.45 365.035C437.481 365.591 437.481 366.503 438.45 367.071L441.224 368.672C442.204 369.24 443.786 369.24 444.756 368.672L447.507 367.082C448.477 366.525 448.477 365.613 447.507 365.046ZM459.238 371.809L452.911 368.161C451.93 367.593 450.348 367.593 449.379 368.161L446.627 369.751C445.658 370.308 445.658 371.22 446.627 371.787L452.955 375.436C453.936 376.003 455.518 376.003 456.487 375.436L459.238 373.845C460.208 373.289 460.208 372.377 459.238 371.809ZM342.964 320.56L349.292 324.209C350.272 324.776 351.854 324.776 352.823 324.209L355.575 322.618C356.544 322.062 356.544 321.15 355.575 320.583L349.247 316.934C348.267 316.367 346.685 316.367 345.716 316.934L342.964 318.525C341.995 319.081 341.995 319.993 342.964 320.56ZM354.528 327.224L357.302 328.826C358.282 329.393 359.864 329.393 360.834 328.826L363.585 327.235C364.554 326.679 364.554 325.766 363.585 325.199L360.811 323.597C359.831 323.03 358.249 323.03 357.28 323.597L354.528 325.188C353.559 325.744 353.559 326.656 354.528 327.224ZM365.301 333.431C366.281 333.998 367.863 333.998 368.832 333.431L371.584 331.84C372.553 331.284 372.553 330.372 371.584 329.805L368.81 328.203C367.83 327.635 366.248 327.635 365.279 328.203L362.527 329.793C361.558 330.35 361.558 331.262 362.527 331.829L365.301 333.431ZM373.311 338.048C374.291 338.615 375.873 338.615 376.843 338.048L379.594 336.457C380.564 335.901 380.564 334.988 379.594 334.421L376.82 332.819C375.84 332.252 374.258 332.252 373.289 332.819L370.537 334.41C369.568 334.966 369.568 335.878 370.537 336.446L373.311 338.048ZM381.299 337.447L378.547 339.038C377.578 339.594 377.578 340.506 378.547 341.073L381.321 342.675C382.301 343.243 383.883 343.243 384.853 342.675L387.604 341.084C388.574 340.528 388.574 339.616 387.604 339.049L384.83 337.447C383.85 336.88 382.268 336.88 381.299 337.447ZM389.476 341.974L386.39 343.754C385.51 344.255 385.521 345.078 386.39 345.59L389.498 347.381C390.378 347.892 391.804 347.892 392.684 347.381L395.77 345.601C396.651 345.1 396.639 344.277 395.77 343.765L392.662 341.974C391.782 341.463 390.356 341.463 389.476 341.974ZM397.475 346.591L394.389 348.371C393.509 348.871 393.52 349.695 394.389 350.206L397.497 351.997C398.377 352.509 399.803 352.509 400.683 351.997L403.769 350.217C404.65 349.717 404.638 348.894 403.769 348.382L400.661 346.591C399.781 346.079 398.355 346.079 397.475 346.591ZM405.485 351.207L402.399 352.987C401.519 353.488 401.53 354.311 402.399 354.823L405.507 356.614C406.387 357.126 407.813 357.126 408.694 356.614L411.779 354.834C412.66 354.333 412.648 353.51 411.779 352.998L408.671 351.207C407.791 350.696 406.365 350.696 405.485 351.207ZM413.495 355.824L410.409 357.604C409.529 358.104 409.54 358.928 410.409 359.439L413.517 361.23C414.398 361.742 415.824 361.742 416.704 361.23L419.79 359.45C420.67 358.95 420.659 358.127 419.79 357.615L416.681 355.824C415.801 355.312 414.375 355.312 413.495 355.824ZM421.505 360.441L418.419 362.22C417.539 362.721 417.55 363.544 418.419 364.056L421.528 365.847C422.408 366.359 423.834 366.359 424.714 365.847L427.8 364.067C428.68 363.566 428.669 362.743 427.8 362.232L424.691 360.441C423.811 359.929 422.385 359.929 421.505 360.441ZM432.724 370.475L435.81 368.695C436.69 368.194 436.679 367.371 435.81 366.859L432.702 365.068C431.821 364.556 430.395 364.556 429.515 365.068L426.429 366.848C425.549 367.349 425.56 368.172 426.429 368.684L429.538 370.475C430.418 370.986 431.844 370.986 432.724 370.475ZM440.734 375.091L443.82 373.311C444.7 372.811 444.689 371.987 443.82 371.476L440.712 369.685C439.832 369.173 438.406 369.173 437.525 369.685L434.439 371.465C433.559 371.965 433.571 372.788 434.439 373.3L437.548 375.091C438.428 375.603 439.854 375.603 440.734 375.091ZM451.986 376.181L448.878 374.39C447.998 373.879 446.572 373.879 445.692 374.39L442.606 376.17C441.725 376.671 441.737 377.494 442.606 378.006L445.714 379.797C446.594 380.308 448.02 380.308 448.9 379.797L451.986 378.017C452.866 377.516 452.855 376.693 451.986 376.181ZM335.377 324.732L345.415 330.516C346.295 331.028 347.721 331.028 348.601 330.516L351.687 328.737C352.567 328.236 352.556 327.413 351.687 326.901L341.649 321.117C340.769 320.605 339.343 320.605 338.463 321.117L335.377 322.896C334.497 323.397 334.508 324.22 335.377 324.732ZM350.317 333.342L353.425 335.133C354.305 335.645 355.731 335.645 356.611 335.133L359.697 333.353C360.577 332.853 360.566 332.029 359.697 331.518L356.589 329.727C355.709 329.215 354.283 329.215 353.403 329.727L350.317 331.507C349.437 332.007 349.448 332.83 350.317 333.342ZM358.327 337.959L361.435 339.75C362.315 340.261 363.741 340.261 364.621 339.75L367.707 337.97C368.587 337.469 368.576 336.646 367.707 336.134L364.599 334.343C363.719 333.831 362.293 333.831 361.413 334.343L358.327 336.123C357.447 336.624 357.458 337.447 358.327 337.959ZM366.337 342.575L369.445 344.366C370.325 344.878 371.751 344.878 372.631 344.366L375.717 342.586C376.597 342.086 376.586 341.262 375.717 340.751L372.609 338.96C371.729 338.448 370.303 338.448 369.423 338.96L366.337 340.74C365.457 341.24 365.468 342.063 366.337 342.575ZM380.641 348.994L383.727 347.214C384.608 346.713 384.596 345.89 383.727 345.378L380.619 343.587C379.739 343.076 378.313 343.076 377.433 343.587L374.347 345.367C373.467 345.868 373.478 346.691 374.347 347.203L377.455 348.994C378.335 349.505 379.761 349.505 380.641 348.994ZM388.652 353.61L391.738 351.83C392.618 351.33 392.607 350.507 391.738 349.995L388.629 348.204C387.749 347.692 386.323 347.692 385.443 348.204L382.357 349.984C381.477 350.484 381.488 351.308 382.357 351.819L385.465 353.61C386.345 354.122 387.771 354.122 388.652 353.61ZM396.651 358.227L399.737 356.447C400.617 355.946 400.605 355.123 399.737 354.611L396.628 352.82C395.748 352.309 394.322 352.309 393.442 352.82L390.356 354.6C389.476 355.101 389.487 355.924 390.356 356.436L393.464 358.227C394.344 358.739 395.77 358.739 396.651 358.227ZM404.661 362.843L407.747 361.063C408.627 360.563 408.616 359.74 407.747 359.228L404.638 357.437C403.758 356.925 402.332 356.925 401.452 357.437L398.366 359.217C397.486 359.717 397.497 360.541 398.366 361.052L401.474 362.843C402.355 363.355 403.781 363.355 404.661 362.843ZM412.671 367.46L415.757 365.68C416.637 365.179 416.626 364.356 415.757 363.845L412.648 362.054C411.768 361.542 410.342 361.542 409.462 362.054L406.376 363.833C405.496 364.334 405.507 365.157 406.376 365.669L409.485 367.46C410.365 367.972 411.791 367.972 412.671 367.46ZM420.681 372.076L423.767 370.297C424.647 369.796 424.636 368.973 423.767 368.461L420.659 366.67C419.778 366.158 418.352 366.158 417.472 366.67L414.386 368.45C413.506 368.951 413.517 369.774 414.386 370.285L417.495 372.076C418.375 372.588 419.801 372.588 420.681 372.076ZM422.385 374.891L425.494 376.682C426.374 377.194 427.8 377.194 428.68 376.682L431.766 374.902C432.646 374.401 432.635 373.578 431.766 373.066L428.658 371.276C427.777 370.764 426.351 370.764 425.471 371.276L422.385 373.055C421.505 373.556 421.516 374.379 422.385 374.891ZM444.577 380.453L436.668 375.892C435.788 375.38 434.362 375.38 433.481 375.892L430.395 377.672C429.515 378.173 429.526 378.996 430.395 379.507L438.305 384.068C439.185 384.58 440.611 384.58 441.491 384.068L444.577 382.288C445.458 381.788 445.446 380.965 444.577 380.453ZM327.991 329.226L342.24 337.436C343.242 338.014 344.847 338.014 345.838 337.436L348.512 335.889C349.504 335.322 349.504 334.388 348.501 333.809L334.252 325.6C333.249 325.021 331.645 325.021 330.654 325.6L327.98 327.146C326.988 327.713 326.988 328.648 327.991 329.226ZM347.554 340.506L350.25 342.063C351.253 342.642 352.857 342.642 353.848 342.063L356.522 340.517C357.514 339.95 357.514 339.015 356.511 338.437L353.815 336.88C352.812 336.301 351.208 336.301 350.217 336.88L347.543 338.426C346.551 338.993 346.551 339.928 347.554 340.506ZM355.564 345.123L358.26 346.68C359.263 347.258 360.867 347.258 361.858 346.68L364.532 345.134C365.524 344.566 365.524 343.632 364.521 343.053L361.825 341.496C360.822 340.918 359.218 340.918 358.227 341.496L355.553 343.042C354.561 343.61 354.561 344.544 355.564 345.123ZM363.563 349.739L366.259 351.296C367.262 351.875 368.866 351.875 369.857 351.296L372.531 349.75C373.523 349.183 373.523 348.248 372.52 347.67L369.824 346.113C368.821 345.534 367.217 345.534 366.226 346.113L363.552 347.659C362.56 348.226 362.56 349.161 363.563 349.739ZM371.573 354.356L374.269 355.913C375.272 356.491 376.876 356.491 377.867 355.913L380.541 354.367C381.533 353.799 381.533 352.865 380.53 352.287L377.834 350.729C376.831 350.151 375.227 350.151 374.236 350.729L371.562 352.275C370.57 352.843 370.57 353.777 371.573 354.356ZM379.583 358.972L382.279 360.53C383.282 361.108 384.886 361.108 385.878 360.53L388.551 358.983C389.543 358.416 389.543 357.481 388.54 356.903L385.844 355.346C384.842 354.767 383.237 354.767 382.246 355.346L379.572 356.892C378.58 357.459 378.58 358.394 379.583 358.972ZM387.593 363.589L390.289 365.146C391.292 365.725 392.896 365.725 393.888 365.146L396.561 363.6C397.553 363.032 397.553 362.098 396.55 361.52L393.854 359.962C392.852 359.384 391.247 359.384 390.256 359.962L387.582 361.508C386.591 362.076 386.591 363.01 387.593 363.589ZM395.603 368.205L398.299 369.763C399.302 370.341 400.906 370.341 401.898 369.763L404.572 368.216C405.563 367.649 405.563 366.715 404.56 366.136L401.864 364.579C400.862 364 399.257 364 398.266 364.579L395.592 366.125C394.601 366.692 394.601 367.627 395.603 368.205ZM403.602 372.822L406.298 374.379C407.301 374.958 408.905 374.958 409.897 374.379L412.57 372.833C413.562 372.266 413.562 371.331 412.559 370.753L409.863 369.195C408.861 368.617 407.256 368.617 406.265 369.195L403.591 370.742C402.6 371.309 402.6 372.243 403.602 372.822ZM411.612 377.438L414.308 378.996C415.311 379.574 416.915 379.574 417.907 378.996L420.581 377.449C421.572 376.882 421.572 375.948 420.569 375.369L417.873 373.812C416.871 373.233 415.267 373.233 414.275 373.812L411.601 375.358C410.61 375.925 410.61 376.86 411.612 377.438ZM419.622 382.055L422.319 383.612C423.321 384.191 424.925 384.191 425.917 383.612L428.591 382.066C429.582 381.499 429.582 380.564 428.58 379.986L425.884 378.428C424.881 377.85 423.277 377.85 422.285 378.428L419.611 379.975C418.62 380.542 418.62 381.476 419.622 382.055ZM436.768 384.714L434.072 383.156C433.069 382.578 431.465 382.578 430.473 383.156L427.8 384.702C426.808 385.27 426.808 386.204 427.811 386.783L430.507 388.34C431.51 388.918 433.114 388.918 434.105 388.34L436.779 386.794C437.771 386.226 437.771 385.292 436.768 384.714ZM333.093 333.498L326.844 329.894C325.841 329.315 324.237 329.315 323.245 329.894L320.571 331.44C319.58 332.007 319.58 332.942 320.582 333.52L326.832 337.124C327.835 337.703 329.439 337.703 330.431 337.124L333.105 335.578C334.096 335.011 334.096 334.076 333.093 333.498ZM341.103 338.114L338.407 336.557C337.405 335.978 335.801 335.978 334.809 336.557L332.135 338.103C331.144 338.671 331.144 339.605 332.146 340.183L334.842 341.741C335.845 342.319 337.449 342.319 338.441 341.741L341.115 340.195C342.106 339.627 342.106 338.693 341.103 338.114ZM349.114 342.731L346.418 341.173C345.415 340.595 343.811 340.595 342.819 341.173L340.145 342.72C339.154 343.287 339.154 344.221 340.157 344.8L342.853 346.357C343.855 346.936 345.459 346.936 346.451 346.357L349.125 344.811C350.116 344.244 350.116 343.309 349.114 342.731ZM405.162 375.047L354.417 345.79C353.414 345.212 351.81 345.212 350.818 345.79L348.144 347.336C347.153 347.904 347.153 348.838 348.155 349.416L398.901 378.673C399.904 379.252 401.508 379.252 402.499 378.673L405.173 377.127C406.165 376.559 406.165 375.625 405.162 375.047ZM413.172 379.663L410.476 378.106C409.473 377.527 407.869 377.527 406.878 378.106L404.204 379.652C403.212 380.219 403.212 381.154 404.215 381.732L406.911 383.29C407.914 383.868 409.518 383.868 410.509 383.29L413.183 381.743C414.175 381.176 414.175 380.242 413.172 379.663ZM421.182 384.28L418.486 382.722C417.483 382.144 415.879 382.144 414.888 382.722L412.214 384.269C411.222 384.836 411.222 385.77 412.225 386.349L414.921 387.906C415.924 388.485 417.528 388.485 418.52 387.906L421.193 386.36C422.185 385.793 422.185 384.858 421.182 384.28ZM429.359 388.985L426.663 387.428C425.661 386.849 424.056 386.849 423.065 387.428L420.391 388.974C419.4 389.541 419.4 390.476 420.402 391.054L423.098 392.612C424.101 393.19 425.705 393.19 426.697 392.612L429.371 391.065C430.362 390.498 430.362 389.564 429.359 388.985Z" fill="#EDF5FF"/>
<path d="M360.913 385.88L324.932 365.137C324.213 364.723 324.3 363.998 325.133 363.515L338.641 355.729C339.474 355.25 340.733 355.197 341.452 355.611L377.433 376.354C378.152 376.768 378.065 377.493 377.232 377.975L363.724 385.762C362.891 386.241 361.632 386.294 360.913 385.88Z" fill="#EDF5FF"/>
<path d="M479.856 367.106L362.534 299.553C358.506 297.234 355.232 291 355.232 285.627V195.233C355.232 189.87 358.496 187.404 362.534 189.724L479.856 257.277C483.884 259.596 487.158 265.83 487.158 271.203V361.587C487.158 366.95 483.894 369.416 479.856 367.097V367.106Z" fill="#C7E0FF"/>
<path d="M355.232 280.381V285.627C355.232 291 358.506 297.234 362.534 299.553L479.856 367.106V367.097C483.894 369.416 487.158 366.95 487.158 361.587V271.203C487.158 265.83 483.884 259.596 479.856 257.277L362.534 189.724C358.496 187.404 355.232 189.87 355.232 195.233V276.114" stroke="#657A99" stroke-width="1.04694" stroke-miterlimit="10" stroke-linecap="round" stroke-linejoin="round"/>
<path d="M480.796 362.905L364.591 295.998C361.347 293.943 359.338 289.823 359.338 285.615V202.847C359.338 201.849 360.426 201.232 361.288 201.731C361.386 201.79 361.465 201.839 361.514 201.868L477.807 268.835C481.668 271.056 483.06 275.01 483.06 279.218V361.8C483.06 362.866 481.904 363.541 480.973 363.013C480.894 362.974 480.845 362.935 480.806 362.915L480.796 362.905Z" fill="#EDF5FF"/>
<path d="M402.096 256.379C401.795 254.622 401.841 253.009 402.23 251.689C402.62 250.369 403.339 249.385 404.323 248.828C405.306 248.271 406.521 248.16 407.855 248.504C409.189 248.848 410.6 249.637 411.955 250.797C412.701 249.883 413.729 249.377 414.944 249.326C416.158 249.275 417.521 249.68 418.906 250.504C420.291 251.328 421.653 252.544 422.868 254.041C424.083 255.537 425.111 257.266 425.857 259.068C427.214 259.52 428.627 260.411 429.963 261.656C431.3 262.902 432.516 264.463 433.5 266.193C434.484 267.923 435.203 269.767 435.591 271.552C435.978 273.338 436.021 275.007 435.716 276.405C436.883 277.967 437.843 279.734 438.508 281.544C439.173 283.353 439.522 285.146 439.522 286.757C439.522 288.369 439.173 289.747 438.508 290.765C437.843 291.782 436.883 292.407 435.716 292.581C436.02 294.339 435.976 295.954 435.59 297.277C435.204 298.599 434.487 299.587 433.505 300.147C432.524 300.707 431.311 300.823 429.977 300.482C428.644 300.142 427.233 299.357 425.877 298.199C425.132 299.119 424.104 299.629 422.887 299.683C421.67 299.736 420.304 299.331 418.916 298.505C417.528 297.679 416.162 296.459 414.946 294.958C413.729 293.457 412.7 291.723 411.955 289.917C410.6 289.464 409.189 288.574 407.855 287.331C406.521 286.088 405.306 284.53 404.323 282.804C403.339 281.077 402.62 279.237 402.23 277.454C401.841 275.67 401.795 274.002 402.096 272.603C400.92 271.038 399.952 269.264 399.281 267.446C398.61 265.629 398.258 263.827 398.258 262.208C398.258 260.589 398.61 259.205 399.281 258.186C399.952 257.167 400.92 256.546 402.096 256.379Z" fill="#DD0707"/>
<path d="M396.492 294.945L437.273 317.101" stroke="#C7E0FF" stroke-width="2.09389" stroke-miterlimit="10" stroke-linecap="round"/>
<path d="M396.27 304.395L437.051 326.55" stroke="#C7E0FF" stroke-width="2.09389" stroke-miterlimit="10" stroke-linecap="round"/>
<path d="M410.239 273.34L414.107 279.814L428.808 270.803" stroke="#EDF5FF" stroke-width="3.14083" stroke-linecap="round" stroke-linejoin="round"/>
<path d="M480.203 256.423L362.891 188.869C361.235 187.92 359.715 188.468 358.49 188.996C359.539 188.83 360.735 189.084 362.009 189.818L479.331 257.372C484.728 261.06 486.632 264.555 486.632 271.297V361.682C486.632 364.852 485.486 366.995 483.732 367.749C485.986 368.081 488.189 365.087 488.189 361.417V271.033C488.189 264.301 486.295 260.121 480.203 256.423Z" fill="#657A99"/>
<path d="M331.944 311.58L283.434 339.548C278.23 342.552 277.661 347.083 282.169 349.686L396.326 415.498C400.834 418.101 408.714 417.778 413.918 414.773L462.062 387.018M339.032 307.494L348.225 302.194C353.429 299.19 361.309 298.867 365.817 301.47L479.974 367.281C484.482 369.885 483.914 374.416 478.709 377.42L470.365 382.231M465.127 385.251L466.823 384.273" stroke="#657A99" stroke-width="1.04694" stroke-miterlimit="10" stroke-linecap="round" stroke-linejoin="round"/>
<ellipse cx="414.981" cy="226.715" rx="2.15206" ry="3.58973" transform="rotate(-30 414.981 226.715)" fill="#EDF5FF"/>
<ellipse cx="420.633" cy="230.667" rx="1.17417" ry="1.95857" transform="rotate(-30 420.633 230.667)" fill="#EDF5FF"/>
</g>
<path d="M423.875 171.814L370.681 146.442C370.608 142.027 375.342 139.59 379.715 143.38C379.146 139.669 384.204 138.925 388.381 140.775C392.756 142.712 397.951 148.498 397.883 152.046C398.214 149.045 402.774 148.903 408.422 157.073C412.941 163.608 420.607 169.623 423.875 171.814Z" fill="#C7E0FF"/>
<path d="M197.629 96.4948C200.918 69.1176 187.319 54.0078 167.253 62.7462C147.188 71.4846 128.255 100.762 124.966 128.139C121.676 155.516 135.276 170.626 155.341 161.888C175.407 153.149 194.339 123.872 197.629 96.4948Z" stroke="#657A99" stroke-miterlimit="10" stroke-linecap="round" stroke-linejoin="round"/>
<path d="M202.629 100.214C205.918 72.8363 192.319 57.7266 172.253 66.4649C152.188 75.2033 133.255 104.481 129.966 131.858C126.676 159.235 140.276 174.345 160.341 165.607C180.407 156.868 199.339 127.591 202.629 100.214Z" fill="white"/>
<path d="M202.629 100.212C205.918 72.8344 192.319 57.7246 172.253 66.463C160.748 71.4736 149.615 83.2374 141.589 97.5237M201.106 108.814C195.378 133.472 178.314 157.778 160.341 165.605C140.276 174.343 126.676 159.233 129.966 131.856C130.805 124.869 132.664 117.759 135.299 110.898M137.552 105.507C138.233 104.002 138.95 102.514 139.7 101.048" stroke="#657A99" stroke-miterlimit="10" stroke-linecap="round" stroke-linejoin="round"/>
<path d="M193.672 106.753C197.28 85.5568 187.946 72.5323 172.824 77.6621C157.701 82.7919 142.517 104.133 138.909 125.33C135.301 146.526 144.635 159.551 159.757 154.421C174.88 149.291 190.064 127.949 193.672 106.753Z" fill="#C7E0FF"/>
<path d="M165.601 92.1553V121.261L174.338 116.286" stroke="white" stroke-width="2" stroke-miterlimit="10"/>
<path d="M519.208 238.174L463.88 214.296C463.88 214.296 463.622 276.034 452.972 283.336L504.574 307.753C504.574 307.753 518.114 305.81 519.212 238.182L519.208 238.174Z" fill="#EDF5FF"/>
<path d="M519.209 238.171L463.881 214.293C463.881 214.293 463.623 276.031 452.973 283.333L504.575 307.75C504.575 307.75 518.115 305.808 519.213 238.179L519.209 238.171Z" stroke="#657A99" stroke-miterlimit="10" stroke-linecap="round" stroke-linejoin="round"/>
<path d="M474.802 228.825L507.127 242.996" stroke="#657A99" stroke-miterlimit="10" stroke-linecap="round"/>
<path d="M473.908 239.448L504.668 252.84" stroke="#657A99" stroke-miterlimit="10" stroke-linecap="round"/>
<path d="M472.75 249.091L504.06 262.451L503.047 272.397L472.047 259.047L472.75 249.091Z" fill="#DD0707"/>
<path d="M471.879 268.966L501.261 283.154" stroke="#657A99" stroke-miterlimit="10" stroke-linecap="round"/>
<path d="M470.691 278.68L482.213 284.426" stroke="#657A99" stroke-miterlimit="10" stroke-linecap="round"/>
</g>
<defs>
<linearGradient id="paint0_linear_483_42985" x1="572.194" y1="171.253" x2="311.088" y2="319.196" gradientUnits="userSpaceOnUse">
<stop stop-color="#FF8D8D"/>
<stop offset="1" stop-color="#BA2020"/>
</linearGradient>
<linearGradient id="paint1_linear_483_42985" x1="190.884" y1="338.94" x2="222.509" y2="338.94" gradientUnits="userSpaceOnUse">
<stop offset="0.01" stop-color="#C1A1D5"/>
<stop offset="0.05" stop-color="#C7ABD9"/>
<stop offset="0.11" stop-color="#D9C6E5"/>
<stop offset="0.2" stop-color="#F6F2F9"/>
<stop offset="0.22" stop-color="white"/>
<stop offset="0.25" stop-color="#F9F5FB"/>
<stop offset="0.3" stop-color="#E9DBF1"/>
<stop offset="0.36" stop-color="#D1B4E3"/>
<stop offset="0.43" stop-color="#B294D5"/>
<stop offset="0.49" stop-color="#9B7CCB"/>
<stop offset="0.56" stop-color="#8D6EC5"/>
<stop offset="0.61" stop-color="#8969C3"/>
<stop offset="0.76" stop-color="#9371C5"/>
<stop offset="1" stop-color="#B086CC"/>
</linearGradient>
<linearGradient id="paint2_linear_483_42985" x1="210.767" y1="348.538" x2="154.211" y2="295.624" gradientUnits="userSpaceOnUse">
<stop stop-color="white"/>
<stop offset="1" stop-color="white" stop-opacity="0"/>
</linearGradient>
<clipPath id="clip0_483_42985">
<rect width="720" height="562" fill="white" transform="translate(0 0.945312)"/>
</clipPath>
<clipPath id="clip1_483_42985">
<rect width="720" height="385" fill="white" transform="translate(0 177.945)"/>
</clipPath>
</defs>
</svg>
