<svg width="720" height="386" viewBox="0 0 720 386" fill="none" xmlns="http://www.w3.org/2000/svg">
<g clip-path="url(#clip0_522_11573)">
<g clip-path="url(#clip1_522_11573)">
<path d="M720 37.3027H0.75V386.924H720V37.3027Z" fill="#FFF5F5"/>
<path opacity="0.5" d="M0.25354 37.125L353.26 37.125L655.86 387.407L0.25354 387.407V37.125Z" fill="white"/>
<path d="M0.403252 202.594H86.9385C86.9385 196.11 79.1093 189.161 72.0426 191.684C72.8739 186.592 64.5603 181.92 57.7604 181.708C50.6394 181.487 42.2781 186.384 42.4859 191.684C41.8625 187.008 34.3811 183.579 25.3411 191.684C18.1091 198.167 5.70254 201.659 0.403252 202.594Z" fill="#FFEBEB"/>
<path d="M169.331 217.262H110.396C110.396 212.846 115.729 208.114 120.541 209.832C119.975 206.364 125.637 203.182 130.268 203.038C135.118 202.887 140.812 206.223 140.671 209.832C141.095 206.647 146.191 204.312 152.347 209.832C157.273 214.247 165.722 216.625 169.331 217.262Z" fill="#FFEBEB"/>
<path d="M464.458 61.4216V51.3351M464.458 5.02539L464.458 40.793M464.458 47.5384V44.5006" stroke="#996565" stroke-miterlimit="10" stroke-linecap="round" stroke-linejoin="round"/>
<circle cx="464.456" cy="106.788" r="19.2573" fill="white"/>
<circle cx="464.605" cy="106.788" r="19.2573" stroke="#996565" stroke-miterlimit="10" stroke-linecap="round" stroke-linejoin="round"/>
<path d="M464.458 61.4238C463.711 65.1612 459.63 73.5572 449.284 77.2421C436.351 81.8483 406.234 95.4895 403.045 109.131H464.458H525.869C522.68 95.4895 492.563 81.8483 479.631 77.2421C469.285 73.5572 465.205 65.1612 464.458 61.4238Z" fill="white"/>
<path d="M464.456 61.4238C465.203 65.1612 469.284 73.5572 479.631 77.2421C492.563 81.8483 522.68 95.4895 525.869 109.131H495.163C492.793 103.711 491.08 98.1499 474.066 87.5139C460.157 78.8192 462.997 68.3348 464.456 61.4238Z" fill="#FFD1D1"/>
<path d="M492.151 109.131H464.458H403.045C404.498 102.913 411.547 96.6952 420.012 91.333M495.434 109.131H500.46M504.647 109.131H525.869C522.68 95.4895 492.563 81.8483 479.631 77.2421C469.285 73.5572 465.205 65.1612 464.458 61.4238C463.711 65.1612 459.63 73.5572 449.284 77.2421C442.905 79.5139 432.346 83.9836 422.9 89.567" stroke="#996565" stroke-miterlimit="10" stroke-linecap="round" stroke-linejoin="round"/>
<path fill-rule="evenodd" clip-rule="evenodd" d="M296.019 60.1951H14.6552V366.164H296.019V60.1951ZM0.253906 36.3926V386.967H351.821V36.3926H0.253906Z" fill="url(#paint0_linear_522_11573)"/>
<path d="M296.141 58.5801H14.7148V74.2942H296.141V58.5801Z" fill="#FFEBEB"/>
<path d="M46.2998 152.425V74.2949" stroke="#996565" stroke-miterlimit="10" stroke-linecap="round" stroke-linejoin="round"/>
<path d="M296.141 106.025H14.7148V121.739H296.141V106.025Z" fill="#FFEBEB"/>
<path d="M20.7882 106.025H14.7148V121.739H20.7882V106.025Z" fill="#FFD1D1"/>
<path d="M20.7882 58.5801H14.7148V74.2942H20.7882V58.5801Z" fill="#FFD1D1"/>
<path d="M296.14 121.74H82.3178M13.2676 121.74H66.784" stroke="#996565" stroke-miterlimit="10" stroke-linecap="round" stroke-linejoin="round"/>
<path d="M296.141 82.3965H14.7148V98.1106H296.141V82.3965Z" fill="#FFEBEB"/>
<path d="M20.7882 82.3965H14.7148V98.1106H20.7882V82.3965Z" fill="#FFD1D1"/>
<path d="M296.142 98.1152H242.526M14.5518 98.1152H125.907M221.196 98.1152H134.444M227.186 98.1152H235.689" stroke="#996565" stroke-miterlimit="10" stroke-linecap="round" stroke-linejoin="round"/>
<path d="M296.139 74.2949H177.901M14.2275 74.2949H50.7309M168.697 74.2949H64.1077M54.6351 74.2949H59.2824" stroke="#996565" stroke-miterlimit="10" stroke-linecap="round" stroke-linejoin="round"/>
<path d="M316.151 218.421L334.169 170.164C335.921 165.472 340.403 162.361 345.411 162.361H453.657C459.191 162.361 463.054 167.846 461.189 173.057L438.441 236.622C437.872 238.213 436.365 239.274 434.675 239.274H314.16C311.372 239.274 309.439 236.495 310.41 233.882L316.151 218.421Z" fill="#FFD1D1"/>
<path d="M340.179 175.149L323.259 220.471L316.292 239.272H414.308L437.113 176.659C438.301 173.397 435.885 169.948 432.415 169.948H347.674C344.335 169.948 341.347 172.021 340.179 175.149Z" fill="white"/>
<path d="M342.04 196.172C342.09 194.955 342.476 193.689 343.162 192.492C343.849 191.295 344.813 190.206 345.966 189.325C347.119 188.444 348.423 187.801 349.758 187.454C351.093 187.107 352.415 187.068 353.601 187.341C354.579 186.294 355.768 185.432 357.06 184.835C358.351 184.238 359.703 183.925 360.991 183.925C362.279 183.925 363.461 184.238 364.429 184.835C365.397 185.432 366.119 186.294 366.53 187.341C367.866 187.067 369.169 187.106 370.318 187.453C371.467 187.801 372.423 188.446 373.099 189.33C373.775 190.213 374.147 191.305 374.183 192.504C374.218 193.704 373.914 194.972 373.3 196.19C374.204 196.86 374.847 197.783 375.17 198.873C375.493 199.963 375.486 201.186 375.149 202.429C374.812 203.673 374.157 204.896 373.243 205.986C372.329 207.076 371.186 207.999 369.919 208.669C369.872 209.885 369.489 211.151 368.805 212.349C368.122 213.546 367.159 214.637 366.008 215.52C364.856 216.402 363.552 217.048 362.218 217.397C360.883 217.747 359.56 217.788 358.372 217.518C357.395 218.569 356.204 219.435 354.91 220.035C353.615 220.634 352.26 220.949 350.969 220.949C349.678 220.949 348.493 220.634 347.524 220.035C346.555 219.435 345.833 218.569 345.425 217.518C344.091 217.791 342.79 217.752 341.643 217.405C340.496 217.058 339.541 216.415 338.865 215.534C338.189 214.653 337.815 213.564 337.777 212.367C337.74 211.17 338.04 209.904 338.649 208.687C337.737 208.019 337.087 207.095 336.759 206.001C336.431 204.907 336.437 203.678 336.775 202.429C337.114 201.181 337.774 199.952 338.694 198.858C339.615 197.764 340.766 196.84 342.04 196.172Z" fill="#DD0707"/>
<path d="M354.057 204.682L358.016 192.925" stroke="white" stroke-width="3" stroke-linecap="round" stroke-linejoin="round"/>
<path d="M352.193 209.715L352.193 209.714L351.826 210.671" stroke="white" stroke-width="3" stroke-linecap="round" stroke-linejoin="round"/>
<path d="M388.27 188.178H420.121" stroke="#FFEBEB" stroke-width="4" stroke-miterlimit="10" stroke-linecap="round" stroke-linejoin="round"/>
<path d="M384.875 198.178H416.726" stroke="#FFEBEB" stroke-width="4" stroke-miterlimit="10" stroke-linecap="round" stroke-linejoin="round"/>
<path d="M435.409 239.271H301.143V245.305H435.409V239.271Z" fill="#FFEBEB" stroke="#253650" stroke-miterlimit="10" stroke-linecap="round" stroke-linejoin="round"/>
<path d="M435.41 239.272H386.722V245.306H435.41V239.272Z" stroke="#996565" stroke-miterlimit="10" stroke-linecap="round" stroke-linejoin="round"/>
<path d="M292.889 239.272H360.257M386.705 239.272H366.013" stroke="#996565" stroke-miterlimit="10" stroke-linecap="round" stroke-linejoin="round"/>
<path d="M380.295 210.671H388.885M379.331 214.118H387.921M382.908 223.08L378.366 217.565H380.514C385.287 217.565 387.215 210.671 382.443 210.671" stroke="#FFD1D1" stroke-width="2" stroke-linecap="round" stroke-linejoin="round"/>
<path d="M395.605 210.671H404.196M394.641 214.118H403.232M398.219 223.08L393.677 217.565H395.824C400.597 217.565 402.526 210.671 397.753 210.671" stroke="#FFD1D1" stroke-width="2" stroke-linecap="round" stroke-linejoin="round"/>
<path d="M440.48 230.927L437.493 239.274H308.408L316.152 218.421L334.17 170.164C335.922 165.472 340.404 162.361 345.412 162.361H362.389M442.478 225.347L461.19 173.057C463.055 167.846 459.192 162.361 453.658 162.361H375.179M366.324 162.361H370.26" stroke="#996565" stroke-miterlimit="10" stroke-linecap="round" stroke-linejoin="round"/>
<path d="M405.026 245.306H292.891V255.74H405.026V245.306Z" fill="#FFF5F5"/>
<path d="M340.698 255.74H292.891V245.306H313.627M344.382 255.74H346.75M350.258 255.74H405.026V245.306H319.038" stroke="#996565" stroke-miterlimit="10" stroke-linecap="round" stroke-linejoin="round"/>
<path d="M498.328 245.306H405.025V255.725L390.158 387.407H398.338L413.204 255.725H491.641L506.134 387.407H514.314L498.328 245.306Z" fill="#FFD1D1"/>
<path d="M390.158 387.407L397 326.801M398.338 387.407L399.222 379.578L410.995 275.292M397.87 319.101L405.025 255.725V245.306H498.328L509.466 344.311M411.369 272.23L411.754 268.572M412.291 263.814L413.204 255.725H491.641L506.134 387.407H514.314L510.591 354.317" stroke="#996565" stroke-miterlimit="10" stroke-linecap="round" stroke-linejoin="round"/>
<path d="M461.303 204.608C461.015 212.583 465.346 216.178 467.547 216.979L478.717 217.58C487.245 213.256 480.639 210.854 481.239 203.648C481.84 196.442 500.696 201.966 508.863 197.042C515.397 193.103 511.185 182.989 508.262 178.425C506.941 182.989 504.04 180.829 494.792 180.829C485.544 180.829 487.826 191.037 487.706 195.601C487.586 200.165 461.663 194.64 461.303 204.608Z" fill="url(#paint1_linear_522_11573)"/>
<path d="M456.326 217.579H486.805V234.405C486.805 240.423 481.922 245.306 475.904 245.306H467.211C461.193 245.306 456.311 240.423 456.311 234.405V217.579H456.326Z" fill="white"/>
<path d="M456.311 225.994V230.201H486.805V225.994H456.311Z" fill="#FFEBEB"/>
<path d="M456.291 233.018H486.773" stroke="#FFD1D1" stroke-miterlimit="10" stroke-linecap="round" stroke-linejoin="round"/>
<path d="M478.893 217.579H456.326H456.311V234.405C456.311 240.423 461.193 245.306 467.211 245.306H475.904C481.922 245.306 486.805 240.423 486.805 234.405V217.579H484.512" stroke="#996565" stroke-miterlimit="10" stroke-linecap="round" stroke-linejoin="round"/>
<path d="M482.731 222.884H487.023C491.269 222.884 494.705 226.32 494.705 230.566C494.705 234.811 491.269 238.248 487.023 238.248H482.731" stroke="#996565" stroke-miterlimit="10" stroke-linecap="round" stroke-linejoin="round"/>
<path d="M334.627 255.726H323.804L337.799 387.408H348.933L334.627 255.726Z" fill="#FFD1D1"/>
<path d="M336.37 373.957L337.799 387.408H348.933L334.627 255.726H323.804L333.808 349.856M335.588 367.85L334.595 357.355" stroke="#996565" stroke-miterlimit="10" stroke-linecap="round" stroke-linejoin="round"/>
<path d="M166.251 389.576L182.595 337.186L174.415 332.396L161.15 389.576H166.251Z" fill="#FFEBEB" stroke="#996565" stroke-miterlimit="10" stroke-linecap="round" stroke-linejoin="round"/>
<path d="M252.912 135.168C252.912 135.168 255.618 137.065 254.048 150.563C254.048 150.563 257.463 151.152 257.314 152.911C257.221 154.002 255.65 155.134 255.759 156.021C255.868 156.907 257.05 161.463 254.981 166.129C252.912 170.794 246.428 175.459 237.284 174.573C237.284 174.573 232.712 187.617 232.837 193.028L219.23 189.004L204.208 182.177L214.596 158.276L222.667 158.151C222.667 158.151 218.339 153.999 220.5 147.966C222.133 143.394 229.244 142.165 232.837 145.991L226.274 130.223L252.912 135.168Z" fill="white" stroke="#253650" stroke-miterlimit="10" stroke-linecap="round" stroke-linejoin="round"/>
<path d="M225.386 149.77C225.808 148.544 227.45 146.41 230.643 147.678" stroke="#253650" stroke-miterlimit="10" stroke-linecap="round" stroke-linejoin="round"/>
<path d="M228.614 168.877L237.264 174.614L236.507 177.223L228.614 168.877Z" fill="#253650" stroke="#253650" stroke-miterlimit="10" stroke-linecap="round" stroke-linejoin="round"/>
<path d="M244.626 160.834C244.626 160.834 250.631 158.912 252.671 164.499" stroke="#253650" stroke-miterlimit="10" stroke-linecap="round" stroke-linejoin="round"/>
<path d="M252.571 143.84C252.571 142.945 252.155 142.219 251.642 142.219C251.13 142.219 250.714 142.945 250.714 143.84C250.714 144.735 251.13 145.461 251.642 145.461C252.155 145.461 252.571 144.735 252.571 143.84Z" fill="#253650"/>
<path d="M244.098 136.396C244.098 136.396 247.071 137.442 254.206 136.396C268.325 134.328 268.979 111.7 254.206 108.591C239.433 105.483 235.545 117.144 235.545 117.144C235.545 117.144 220.773 116.368 211.442 125.699C202.396 134.745 207.522 156.07 212.996 162.242L224.517 163.035L225.614 155.655C225.614 155.655 219.867 151.649 223.851 145.851C226.355 143.207 231.284 144.063 232.839 146.022C233.943 147.422 235.172 150.205 233.788 153.066H238.111C238.111 153.066 237.473 142.383 237.551 141.093C237.629 139.802 240.319 140.626 241.423 140.175C242.527 139.724 244.082 136.412 244.082 136.412L244.098 136.396Z" fill="#253650" stroke="#253650" stroke-miterlimit="10" stroke-linecap="round" stroke-linejoin="round"/>
<path d="M225.851 155.863L230.117 157.092" stroke="#253650" stroke-miterlimit="10" stroke-linecap="round" stroke-linejoin="round"/>
<path d="M208.017 121.977L212.946 123.675" stroke="#253650" stroke-miterlimit="10" stroke-linecap="round" stroke-linejoin="round"/>
<path d="M208.021 126.169L212.004 125.383" stroke="#253650" stroke-miterlimit="10" stroke-linecap="round" stroke-linejoin="round"/>
<path d="M180.339 242.329C180.339 242.329 182.759 199.979 198.561 177.975C202.494 172.498 209.381 170.034 216.012 171.26C235.653 174.891 238.654 189.236 243.381 200.981C248.839 214.541 243.381 274.049 243.381 274.049L210.803 278.189L180.339 242.329Z" fill="#FFD1D1"/>
<path d="M257.461 231.983L291.756 229.43L296.141 255.642C296.141 255.642 248.176 261.619 240.035 258.887C231.057 255.872 212.995 210.267 212.995 210.267L242.758 198.785L257.461 231.983Z" fill="#FFD1D1"/>
<path d="M238.33 251.104C238.8 252.62 240.713 255.808 244.603 256.436" stroke="#253650" stroke-miterlimit="10" stroke-linecap="round" stroke-linejoin="round"/>
<path d="M296.782 255.158C299.19 254.668 299.962 248.47 298.506 241.313C297.051 234.157 293.918 228.752 291.51 229.242C289.102 229.732 288.331 235.93 289.786 243.087C291.242 250.243 294.374 255.648 296.782 255.158Z" fill="#253650" stroke="#253650" stroke-miterlimit="10" stroke-linecap="round" stroke-linejoin="round"/>
<path d="M291.106 247.209L310.402 241.018C313.484 241.687 319.321 240.41 323.207 236.871C327.094 233.332 328.301 236.737 330.25 238.148C332.2 239.559 334.003 237.078 333.735 235.862C333.467 234.646 331.322 231.581 329.373 228.103C327.423 224.624 322.805 224.357 322.805 224.357C318.248 221.414 312.899 221.365 311.023 221.62C309.147 221.876 303.383 227.871 301.885 227.993C300.386 228.115 289.785 229.655 289.785 229.655C289.785 229.655 288.353 232.917 289.113 239.467C289.874 246.016 291.106 247.209 291.106 247.209Z" fill="white" stroke="#253650" stroke-miterlimit="10" stroke-linecap="round" stroke-linejoin="round"/>
<path d="M316.654 230.854C316.654 230.854 326.788 226.053 329.095 228.381" stroke="#253650" stroke-miterlimit="10" stroke-linecap="round" stroke-linejoin="round"/>
<path d="M313.546 227.747L321.321 224.637" stroke="#253650" stroke-miterlimit="10" stroke-linecap="round" stroke-linejoin="round"/>
<path d="M311.99 224.633L318.21 223.078" stroke="#253650" stroke-miterlimit="10" stroke-linecap="round" stroke-linejoin="round"/>
<path d="M244.079 263.303L243.428 273.655C260.823 275.234 278.333 275.876 287.567 277.379C306.693 280.316 311.868 291.409 311.681 307.084C311.495 322.759 306.187 389.56 306.187 389.56H265.103L271.059 311.574L202.077 316.675L198.889 278.187V278.171C198.889 278.171 207.724 277.315 220.001 276.396V274.681V266.653L244.079 263.303Z" fill="#253650" stroke="#253650" stroke-miterlimit="10" stroke-linecap="round" stroke-linejoin="round"/>
<path d="M243.939 273.955L229.946 275.867" stroke="white" stroke-miterlimit="10" stroke-linecap="round" stroke-linejoin="round"/>
<path d="M236.55 274.969C239.212 277.198 244.715 282.414 245.434 285.448C246.331 289.241 246.232 296.827 234.554 298.923" stroke="white" stroke-miterlimit="10" stroke-linecap="round" stroke-linejoin="round"/>
<path d="M300.964 303.209L292.303 311.575" stroke="#253650" stroke-miterlimit="10"/>
<path d="M238.787 389.576L244.743 313.487L270.588 311.574L264.617 389.576H238.787Z" fill="#253650" stroke="#253650" stroke-miterlimit="10" stroke-linecap="round" stroke-linejoin="round"/>
<path d="M270.588 311.574L264.616 389.576" stroke="white" stroke-miterlimit="10" stroke-linecap="round" stroke-linejoin="round"/>
<path d="M150.373 270.814C146.066 257.098 149.907 241.719 166.25 241.035C182.594 240.35 187.508 240.506 194.786 240.086C202.063 239.666 215.872 245.933 221.315 264.454C226.757 282.974 227.037 305.787 240.255 311.587C253.473 317.388 281.884 299.8 294.698 306.876C307.511 313.951 301.385 339.283 285.414 339.967C269.444 340.651 199.653 340.2 189.84 339.967C180.028 339.734 169.08 334.493 162.689 313.049C156.298 291.605 150.373 270.829 150.373 270.829V270.814Z" fill="#FFF5F5"/>
<g style="mix-blend-mode:overlay" opacity="0.5">
<path d="M166.25 241.037C149.907 241.721 146.066 257.101 150.373 270.816V270.832C150.373 270.832 156.298 291.608 162.689 313.052C169.08 334.496 180.028 339.736 189.84 339.97C199.653 340.203 269.444 340.654 285.414 339.97C301.385 339.285 307.511 313.954 294.698 306.878C285.468 314.463 258.889 328.264 226.415 322.791C193.942 317.318 172.775 266.008 166.25 241.037Z" fill="#253650"/>
</g>
<path d="M162.689 313.049C169.08 334.493 180.028 339.734 189.84 339.967C194.305 340.073 208.092 340.225 226.67 340.293M152.495 247.677C148.145 253.57 147.761 262.498 150.373 270.814V270.829C150.373 270.829 154.915 286.754 160.334 305.11M154.952 245.045C157.708 242.712 161.437 241.236 166.25 241.035C182.594 240.35 187.508 240.506 194.786 240.086C199.602 239.808 207.278 242.459 213.497 249.651M161.75 309.893C161.594 309.365 161.437 308.838 161.282 308.313M232.477 340.303C253.991 340.372 277.062 340.325 285.414 339.967C301.385 339.283 307.511 313.951 294.698 306.876C281.884 299.8 253.473 317.388 240.255 311.587C227.037 305.787 226.757 282.974 221.315 264.454C219.867 259.528 217.828 255.469 215.477 252.172" stroke="#996565" stroke-miterlimit="10" stroke-linecap="round" stroke-linejoin="round"/>
<path d="M180.883 389.574H186.559C186.559 389.574 201.083 339.704 203.338 333.126C205.593 326.548 197.444 326.315 194.941 335.163C192.437 344.011 180.883 389.559 180.883 389.559V389.574Z" fill="white" stroke="#996565" stroke-miterlimit="10" stroke-linecap="round" stroke-linejoin="round"/>
<path d="M297.279 389.574H291.603C291.603 389.574 277.078 339.704 274.824 333.126C272.569 326.548 280.717 326.315 283.221 335.163C285.725 344.011 297.279 389.559 297.279 389.559V389.574Z" fill="white" stroke="#996565" stroke-miterlimit="10" stroke-linecap="round" stroke-linejoin="round"/>
<path d="M273.903 230.602L256.983 232.225L251.581 218.733L253.92 209.888L276.416 214.46C274.303 223.703 273.903 230.602 273.903 230.602Z" fill="#FFD1D1"/>
<ellipse cx="265.105" cy="212.564" rx="11.5008" ry="3.754" transform="rotate(11.357 265.105 212.564)" fill="#253650" stroke="#253650" stroke-miterlimit="10" stroke-linecap="round" stroke-linejoin="round"/>
<path d="M268.171 180.999C274.828 184.269 275.405 192.531 274.579 195.198C274.171 196.517 271.506 207.273 269.563 215.793C269.563 215.793 264.883 215.85 261.571 215.061C258.169 214.249 254.18 211.198 254.18 211.198L256.211 202.946C252.193 188.582 261.348 182.876 261.348 182.876L259.928 179.895C259.928 179.895 253.978 182.732 253.27 180.999C252.563 179.265 254.502 177.11 259.338 175.889C264.174 174.667 268.171 180.999 268.171 180.999Z" fill="white" stroke="#253650" stroke-miterlimit="10" stroke-linecap="round" stroke-linejoin="round"/>
<path d="M257.295 195.767C257.295 195.767 260.238 193.634 260.146 190.424C260.146 190.424 262.589 188.36 263.456 187.493C264.323 186.625 263.128 184.771 260.921 185.678C258.714 186.586 257.282 187.702 257.282 187.702" stroke="#253650" stroke-miterlimit="10" stroke-linecap="round" stroke-linejoin="round"/>
<path d="M266.154 184.401C266.154 184.401 264.883 187.028 263.348 190.507C261.813 193.986 260.989 196.902 263.848 197.159C263.848 197.159 263.823 199.438 266.98 198.066C266.98 198.066 267.729 199.18 268.99 198.801C270.25 198.421 272.834 195.542 272.834 195.542" stroke="#253650" stroke-miterlimit="10" stroke-linecap="round" stroke-linejoin="round"/>
<path d="M271.608 188.78C271.608 188.78 265.938 195.846 267.099 198.111" stroke="#253650" stroke-miterlimit="10" stroke-linecap="round" stroke-linejoin="round"/>
<path d="M270.051 186.438C270.051 186.438 263.725 193.591 263.832 197.323" stroke="#253650" stroke-miterlimit="10" stroke-linecap="round" stroke-linejoin="round"/>
<path d="M291.757 229.431L257.782 231.938M212.996 210.268C212.996 210.268 231.058 255.873 240.036 258.888C241.067 259.234 242.735 259.44 244.864 259.536" stroke="#253650" stroke-miterlimit="10" stroke-linecap="round" stroke-linejoin="round"/>
<path d="M578.812 54.125H679.631V168.879H578.812V54.125Z" fill="#FFEBEB"/>
<path d="M578.812 54.125H673.695V168.879H578.812V54.125Z" fill="white"/>
<path d="M578.812 116.867V168.879H654.154M578.812 110.795V105.012M578.812 99.4617V54.125H673.695V168.879H667.678" stroke="#996565" stroke-miterlimit="10" stroke-linecap="round" stroke-linejoin="round"/>
<path d="M587.667 63.3778H664.049V148.632H587.667V63.3778Z" fill="#FFEBEB"/>
<path d="M587.663 83.1861V148.633H664.045V89.8851C664.045 89.8851 627.67 81.791 587.663 83.1861Z" fill="#FFF5F5"/>
<path d="M587.663 122.838V148.626H664.045V103.274C664.045 103.274 630.12 103.05 587.663 122.838Z" fill="#FFEBEB"/>
<path d="M587.667 127.558V148.63H652.455C652.455 148.63 628.593 127.558 587.667 127.558Z" fill="#FFD1D1"/>
<path d="M643.701 80.9902C640.387 80.9902 637.701 78.3039 637.701 74.9902C637.701 71.6765 640.387 68.9902 643.701 68.9902C647.015 68.9902 649.701 71.6765 649.701 74.9902C649.701 78.3039 647.015 80.9902 643.701 80.9902Z" fill="#FFD1D1"/>
<path d="M586.772 292.158C600.946 350.306 611.848 354.304 621.661 352.85C640.559 349.579 633.654 301.607 630.746 288.524C627.839 275.44 615.846 216.929 594.767 214.748C573.688 212.568 572.598 234.01 586.772 292.158Z" fill="#FFEBEB"/>
<g style="mix-blend-mode:overlay" opacity="0.5">
<path d="M594.769 214.748C573.69 212.568 572.6 234.01 586.773 292.158C594.593 324.238 601.417 339.836 607.611 347.13C575.431 239.012 585.641 213.827 594.769 214.748Z" fill="#253650"/>
</g>
<path d="M586.772 292.158C600.946 350.306 611.848 354.304 621.661 352.85C625.303 352.22 627.987 349.929 629.925 346.547M603.304 218.888C600.647 216.543 597.801 215.062 594.767 214.748C574.542 212.656 572.719 232.313 585.126 285.277M606.334 222.014C620.283 238.534 628.421 278.059 630.746 288.524C632.73 297.452 636.576 322.629 632.813 338.759M632.088 341.441C631.839 342.241 631.567 343.012 631.27 343.75" stroke="#996565" stroke-miterlimit="10" stroke-linecap="round" stroke-linejoin="round"/>
<g style="mix-blend-mode:overlay" opacity="0.5">
<path d="M635.08 288.524C633.683 282.239 630.19 265.47 624.6 249.499C622.072 265.476 621.231 299.696 638.084 308.764C637.306 300.216 635.995 292.642 635.08 288.524Z" fill="#253650"/>
<path d="M635.08 288.524C633.683 282.239 630.19 265.47 624.6 249.499C622.072 265.476 621.231 299.696 638.084 308.764C637.306 300.216 635.995 292.642 635.08 288.524Z" stroke="#996565" stroke-miterlimit="10" stroke-linecap="round" stroke-linejoin="round"/>
</g>
<path d="M628.067 250.001C627.34 299.427 632.065 310.693 643.694 311.056C659.321 309.603 657.504 288.524 658.231 253.999C658.958 219.473 653.896 194.033 643.694 194.033C636.062 194.033 628.794 200.575 628.067 250.001Z" fill="#FFD1D1"/>
<g style="mix-blend-mode:overlay" opacity="0.5">
<path d="M643.693 194.033C636.061 194.033 628.792 200.575 628.066 250.001C627.663 277.345 628.93 293.01 632.111 301.611C628.836 229.599 642.132 201.833 649.189 196.952C647.566 195.05 645.732 194.033 643.693 194.033Z" fill="#253650"/>
</g>
<g style="mix-blend-mode:overlay" opacity="0.5">
<path d="M647.004 310.371C659.057 306.273 657.56 285.861 658.231 253.995C658.354 248.177 658.312 242.617 658.109 237.393C647.38 251.842 646.235 292.065 647.004 310.371Z" fill="#253650"/>
</g>
<path d="M643.694 194.033C651.392 194.033 656.163 208.516 657.729 230.456M638.498 195.558C633.031 199.408 628.624 212.089 628.067 250.001C627.34 299.427 632.065 310.693 643.694 311.056C659.321 309.603 657.504 288.524 658.231 253.999C658.359 247.921 658.308 242.126 658.08 236.701M657.946 233.913C657.926 233.542 657.905 233.174 657.883 232.807" stroke="#996565" stroke-miterlimit="10" stroke-linecap="round" stroke-linejoin="round"/>
<path d="M647.171 307.934C643.633 347.081 647.171 368.918 660.669 362.247C666.031 359.598 676.095 338.786 680.273 307.934C684.451 277.081 678.666 242.693 667.418 241.729C656.169 240.765 651.991 254.584 647.171 307.934Z" fill="#FFEBEB"/>
<g style="mix-blend-mode:overlay" opacity="0.5">
<path d="M667.418 241.729C656.17 240.765 651.992 254.584 647.171 307.934C644.008 342.936 646.501 364.1 656.713 363.421C649.946 305.472 661.03 258.147 667.418 241.729Z" fill="#253650"/>
</g>
<path d="M651.658 386.969L665.568 273.698" stroke="#996565" stroke-miterlimit="10" stroke-linecap="round" stroke-linejoin="round"/>
<g style="mix-blend-mode:overlay" opacity="0.5">
<path d="M680.273 307.934C682.048 294.827 682.025 281.083 680.549 269.533C675.583 271.998 665.914 279.929 666.964 291.931C668.014 303.932 675.777 310.953 679.527 312.963C679.793 311.318 680.042 309.642 680.273 307.934Z" fill="#253650"/>
</g>
<path d="M586.975 333.218C605.873 355.896 610.598 381.675 610.598 391.729H584.431C580.554 387.61 570.403 376.32 560.808 364.109C548.815 348.845 531.371 315.41 539.003 308.141C546.635 300.873 563.352 304.871 586.975 333.218Z" fill="#FFEBEB"/>
<g style="mix-blend-mode:overlay" opacity="0.5">
<path d="M586.975 333.218C605.873 355.896 610.598 381.675 610.598 391.729C601.693 373.455 574.608 333.087 537.504 317.808C536.754 313.412 537.095 309.959 539.003 308.141C546.635 300.873 563.352 304.871 586.975 333.218Z" fill="#253650"/>
</g>
<path d="M545.524 305.093C542.905 305.436 540.723 306.502 539.003 308.141C531.371 315.409 548.815 348.845 560.808 364.108C570.403 376.319 580.554 387.61 584.431 391.729H610.598C610.598 381.674 605.873 355.895 586.975 333.217C574.792 318.598 564.445 310.454 556.235 306.993M549.422 305.093C550.473 305.216 551.576 305.436 552.729 305.758" stroke="#996565" stroke-miterlimit="10" stroke-linecap="round" stroke-linejoin="round"/>
<path d="M720.731 385.801V329.467C692.052 341.53 661.658 376.032 660.046 391.776H687.644L720.731 385.801Z" fill="#FFD1D1"/>
<path d="M720.731 385.801V329.467C692.052 341.53 661.658 376.032 660.046 391.776H687.644L720.731 385.801Z" stroke="#996565" stroke-miterlimit="10" stroke-linecap="round" stroke-linejoin="round"/>
<path d="M604.448 391.973C600.968 382.51 592.964 365.861 580.46 349.42M564.551 331.455C565.833 332.688 567.086 333.94 568.309 335.207C568.743 335.656 569.172 336.107 569.598 336.56M573.738 341.142C574.87 342.446 575.972 343.759 577.044 345.077" stroke="#996565" stroke-miterlimit="10" stroke-linecap="round" stroke-linejoin="round"/>
<path d="M592.543 228.706C597.641 240.111 606.075 266.412 613.185 305.774M624.819 412.052C622.954 372.305 618.826 338.171 613.979 310.258" stroke="#996565" stroke-miterlimit="10" stroke-linecap="round" stroke-linejoin="round"/>
<path d="M642.684 213.46V259.962M642.684 411.599V274.935M642.684 271.734V264.991" stroke="#996565" stroke-miterlimit="10" stroke-linecap="round" stroke-linejoin="round"/>
<path d="M647.171 307.934C643.633 347.081 647.171 368.918 660.669 362.247C666.031 359.598 676.095 338.786 680.273 307.934C684.451 277.081 678.666 242.693 667.418 241.729C656.169 240.765 651.991 254.584 647.171 307.934Z" stroke="#996565" stroke-miterlimit="10" stroke-linecap="round" stroke-linejoin="round"/>
<path d="M666.508 358.565C663.661 353.385 665.553 346.877 670.733 344.03L684.183 336.639C689.363 333.792 695.871 335.684 698.718 340.864C701.565 346.045 699.674 352.553 694.493 355.4L681.044 362.791C675.863 365.638 669.355 363.746 666.508 358.565Z" fill="white"/>
<path d="M710.733 358.285C703.683 361.797 696.479 366.012 689.78 370.739M666.893 392.419C669.28 389.06 672.142 385.787 675.349 382.637M681.115 377.405C682.447 376.283 683.817 375.182 685.217 374.102" stroke="#996565" stroke-miterlimit="10" stroke-linecap="round" stroke-linejoin="round"/>
<path d="M650.426 328.698C655.145 325.137 656.083 318.425 652.521 313.706L643.276 301.458C639.714 296.739 633.002 295.802 628.284 299.363C623.565 302.924 622.628 309.637 626.189 314.355L635.434 326.604C638.996 331.322 645.708 332.26 650.426 328.698Z" fill="white"/>
<ellipse cx="21.6844" cy="19.9669" rx="21.6844" ry="19.9669" transform="matrix(-0.707107 -0.707107 -0.707107 0.707107 720 297.896)" fill="#FFD1D1"/>
<g style="mix-blend-mode:overlay" opacity="0.5">
<path d="M705.882 312.014C698.084 319.811 684.898 319.267 676.43 310.799C675.445 309.814 674.567 308.765 673.797 307.668C685.466 296.11 703.718 297.007 711.386 298.901C711.269 303.754 709.448 308.448 705.882 312.014Z" fill="#253650"/>
</g>
<path d="M558.938 391.55C556.636 383.57 546.058 375.227 537.499 368.517" stroke="#996565" stroke-miterlimit="10" stroke-linecap="round" stroke-linejoin="round"/>
<circle cx="19.0253" cy="19.0253" r="19.0253" transform="matrix(-1 0 0 1 543.454 335.571)" fill="#FFF5F5"/>
<g style="mix-blend-mode:overlay">
<path d="M531.19 336.807C538.359 339.533 543.454 346.469 543.454 354.596C543.454 357.972 542.574 361.143 541.032 363.892C530.989 368.828 519.294 363.835 518.875 351.15C518.541 341.003 526.946 337.36 531.19 336.807Z" fill="#253650"/>
</g>
<path d="M691.976 312.544C688.205 316.316 681.63 315.856 677.291 311.517C672.952 307.178 672.492 300.603 676.264 296.831C680.035 293.059 686.61 293.519 690.949 297.858C693.322 300.231 694.535 303.273 694.53 306.16M693.687 310.089C693.972 309.473 694.184 308.825 694.324 308.157" stroke="#996565" stroke-miterlimit="10" stroke-linecap="round" stroke-linejoin="round"/>
<path d="M657.555 391.972C657.555 388.061 657.747 383.819 658.159 379.326M683.859 304.178C679.112 311.382 675.118 318.897 671.793 326.479M660.847 361.202C661.97 353.012 660.288 333.557 644.574 321.259M660.847 361.202C659.558 367.536 658.682 373.632 658.159 379.326M660.847 361.202C663.003 350.609 666.313 339.351 671.051 328.199M683.859 348.075C682.414 348.658 680.61 349.575 678.625 350.837M658.159 379.326C661.222 366.212 669.492 357.332 676.451 352.312" stroke="#996565" stroke-miterlimit="10" stroke-linecap="round" stroke-linejoin="round"/>
<path d="M670.755 288.525C668.267 295.828 670.214 304.585 676.429 310.801C684.898 319.269 698.084 319.813 705.881 312.015C713.348 304.549 713.166 292.142 705.703 283.667M671.725 286.199C672.601 284.439 673.763 282.8 675.215 281.349C682.003 274.56 692.876 274.094 701.164 279.674M703.854 281.788C703.641 281.593 703.424 281.404 703.206 281.219" stroke="#996565" stroke-miterlimit="10" stroke-linecap="round" stroke-linejoin="round"/>
<path d="M524.429 373.623C534.936 373.623 543.454 365.105 543.454 354.598C543.454 348.637 540.713 343.316 536.422 339.828M520.934 373.303C512.096 371.661 505.403 363.911 505.403 354.598C505.403 344.09 513.921 335.572 524.429 335.572C527.154 335.572 529.744 336.145 532.088 337.177M534.061 338.187C534.262 338.305 534.883 338.681 535.079 338.807" stroke="#996565" stroke-miterlimit="10" stroke-linecap="round" stroke-linejoin="round"/>
<ellipse cx="7.09243" cy="11.724" rx="7.09243" ry="11.724" transform="matrix(-0.707107 -0.707107 -0.707107 0.707107 528.652 343.494)" stroke="#996565" stroke-miterlimit="10" stroke-linecap="round" stroke-linejoin="round"/>
<path d="M39.7149 366.531C39.7149 366.531 33.9414 366.678 30.0916 366.531C26.2419 366.384 24.7612 359.723 25.0573 355.577C25.3535 351.431 27.8694 336.776 27.8694 336.776H51.5555C51.5555 336.776 54.0715 351.431 54.3676 355.577C54.6638 359.723 53.1831 366.384 49.3333 366.531C45.4836 366.678 39.7101 366.531 39.7101 366.531H39.7149Z" fill="white" stroke="#996565" stroke-miterlimit="10" stroke-linecap="round" stroke-linejoin="round"/>
<path d="M29.9456 305.835C28.4886 309.531 17.5103 314.42 8.47935 305.835C-0.551588 297.249 3.29817 283.776 11.1446 283.333C18.991 282.89 35.719 291.18 29.9456 305.835Z" fill="#FFD1D1" stroke="#996565" stroke-miterlimit="10" stroke-linecap="round" stroke-linejoin="round"/>
<path d="M3.43139 296.399L26.4707 301.564" stroke="#996565" stroke-miterlimit="10" stroke-linecap="round" stroke-linejoin="round"/>
<path d="M23.0225 286.973L23.6006 297.534" stroke="#996565" stroke-miterlimit="10" stroke-linecap="round" stroke-linejoin="round"/>
<path d="M35.1506 287.399C30.1969 289.14 21.6943 281.808 18.8111 274.992C15.9279 268.176 17.2072 258.477 23.6014 256.38C29.9955 254.284 35.5866 258.477 38.2091 264.769C40.8317 271.062 41.6159 285.127 35.1506 287.399Z" fill="#FFD1D1" stroke="#996565" stroke-miterlimit="10" stroke-linecap="round" stroke-linejoin="round"/>
<path d="M40.1426 301.567L23.6017 256.384" stroke="#996565" stroke-miterlimit="10" stroke-linecap="round" stroke-linejoin="round"/>
<path d="M18.2707 262.01L31.4072 277.7" stroke="#996565" stroke-miterlimit="10" stroke-linecap="round" stroke-linejoin="round"/>
<path d="M36.7842 262.01L32.6146 280.998" stroke="#996565" stroke-miterlimit="10" stroke-linecap="round" stroke-linejoin="round"/>
<path d="M64.11 244.901C61.1084 242.106 56.7279 242.715 51.9898 247.545C47.2516 252.376 45.3374 263.404 49.8031 267.87C54.2688 272.335 64.5672 267.96 66.9363 259.758C69.3054 251.556 66.7539 247.363 64.11 244.901Z" fill="#FFD1D1" stroke="#996565" stroke-miterlimit="10" stroke-linecap="round" stroke-linejoin="round"/>
<path d="M39.714 336.777C39.714 336.777 31.7325 280.549 64.1084 244.901" stroke="#996565" stroke-miterlimit="10" stroke-linecap="round" stroke-linejoin="round"/>
<path d="M54.0675 245.675L54.2783 258.217" stroke="#996565" stroke-miterlimit="10" stroke-linecap="round" stroke-linejoin="round"/>
<path d="M67.8691 253.428L51.1813 263.852" stroke="#996565" stroke-miterlimit="10" stroke-linecap="round" stroke-linejoin="round"/>
<path d="M61.1933 279.524C57.7794 275.257 50.9067 276.434 47.2773 282.504C43.6479 288.574 41.5512 298.948 48.9451 300.604C56.339 302.26 70.9065 291.665 61.1957 279.526L61.1933 279.524Z" fill="white" stroke="#996565" stroke-miterlimit="10" stroke-linecap="round" stroke-linejoin="round"/>
<path d="M61.1934 279.523L50.6178 289.95" stroke="#996565" stroke-miterlimit="10" stroke-linecap="round" stroke-linejoin="round"/>
<path d="M46.5422 283.844L49.6836 292.256" stroke="#996565" stroke-miterlimit="10" stroke-linecap="round" stroke-linejoin="round"/>
<path d="M61.1936 295.568C61.1936 295.568 68.0355 295.462 69.2509 301.565C70.4662 307.667 64.617 313.626 58.2157 315.613C51.8145 317.599 46.7257 316.262 45.2971 315.166C43.8686 314.069 42.7646 299.584 61.196 295.571L61.1936 295.568Z" fill="#FFD1D1" stroke="#996565" stroke-miterlimit="10" stroke-linecap="round" stroke-linejoin="round"/>
<path d="M51.7283 309.104L54.1992 300.147" stroke="#996565" stroke-miterlimit="10" stroke-linecap="round" stroke-linejoin="round"/>
<path d="M69.251 301.564L55.8704 305.201" stroke="#996565" stroke-miterlimit="10" stroke-linecap="round" stroke-linejoin="round"/>
<path d="M52.6152 343.135H31.4072" stroke="#996565" stroke-miterlimit="10" stroke-linecap="round" stroke-linejoin="round"/>
<path d="M64.6152 296.966L38.8467 321.242" stroke="#996565" stroke-miterlimit="10" stroke-linecap="round" stroke-linejoin="round"/>
<path d="M55.8701 277.01L38.8459 318.959L14.705 285.041" stroke="#996565" stroke-miterlimit="10" stroke-linecap="round" stroke-linejoin="round"/>
</g>
</g>
<defs>
<linearGradient id="paint0_linear_522_11573" x1="332.165" y1="47.593" x2="16.3459" y2="376.099" gradientUnits="userSpaceOnUse">
<stop stop-color="#FF8D8D"/>
<stop offset="1" stop-color="#BA2020"/>
</linearGradient>
<linearGradient id="paint1_linear_522_11573" x1="468.886" y1="217.58" x2="468.886" y2="172.373" gradientUnits="userSpaceOnUse">
<stop stop-color="white"/>
<stop offset="1" stop-color="white" stop-opacity="0"/>
</linearGradient>
<clipPath id="clip0_522_11573">
<rect width="720" height="385" fill="white" transform="translate(0 0.945312)"/>
</clipPath>
<clipPath id="clip1_522_11573">
<rect width="720" height="385" fill="white" transform="translate(0 0.945312)"/>
</clipPath>
</defs>
</svg>
