<svg width="720" height="429" viewBox="0 0 720 429" fill="none" xmlns="http://www.w3.org/2000/svg">
<g clip-path="url(#clip0_483_44486)">
<rect y="0.945312" width="720" height="475" fill="#EEF6FF"/>
<path d="M-51.8502 274.16C-51.8502 274.16 160.227 259.031 296.328 259.008C462.011 258.979 667.91 258.631 719.999 281.3V432.318L-15.0521 433.922L-51.8502 274.16Z" fill="#E0EEFF"/>
<path d="M-51.8633 274.16L-51.8502 274.16M-51.8502 274.16C-51.8502 274.16 160.227 259.031 296.328 259.008C462.011 258.979 667.91 258.631 719.999 281.3V432.318L-15.0521 433.922L-51.8502 274.16Z" stroke="#657A99" stroke-miterlimit="10"/>
<rect x="149.242" y="219.812" width="11.8203" height="127.648" fill="#C7E0FF"/>
<rect x="153.242" y="219.812" width="11.8203" height="127.648" fill="#EEF6FF"/>
<path d="M165.062 239.812H153.242V251.482L165.062 244.528V239.812Z" fill="#657A99"/>
<path d="M153.242 302.278V347.461H165.062V242.762M153.242 296.152V219.812H165.062V237.86" stroke="#657A99" stroke-miterlimit="10" stroke-linecap="round" stroke-linejoin="round"/>
<path fill-rule="evenodd" clip-rule="evenodd" d="M472.909 67.298H194.889V329.113H472.909V67.298ZM184.625 28.8743L184.627 28.873L181.625 348.273H499.438V28.8743H184.625Z" fill="#FCFEFF" stroke="#657A99" stroke-miterlimit="10" stroke-linecap="round" stroke-linejoin="round"/>
<path fill-rule="evenodd" clip-rule="evenodd" d="M467.909 70.2985H189.889V332.113H467.909V70.2985ZM176.625 28.375V351.273H494.438V28.375H176.625Z" fill="url(#paint0_linear_483_44486)"/>
<path d="M377.131 34.75C374.73 44.9999 362.313 65.4997 331.856 65.4997C301.4 65.4997 289.614 44.9999 287.527 34.75" stroke="#253650" stroke-linecap="round" stroke-linejoin="round"/>
<path d="M493.792 125.397C480.539 125.839 427.278 118.849 403.073 94.0067C380.619 70.9616 371.794 36.039 372.456 28.75" stroke="#253650" stroke-linecap="round" stroke-linejoin="round"/>
<path d="M333.542 65.3022C330.53 64.8971 324.49 65.1812 324.42 69.559C324.332 75.0313 339.536 66.0867 333.542 65.3022Z" fill="white" stroke="#253650" stroke-linecap="round" stroke-linejoin="round"/>
<path d="M333.669 65.384C330.696 64.755 325.101 62.4603 326.505 58.3129C328.259 53.1286 339.579 66.6567 333.669 65.384Z" fill="white" stroke="#253650" stroke-linecap="round" stroke-linejoin="round"/>
<path d="M458.049 120.4C455.038 119.995 448.998 120.279 448.928 124.657C448.84 130.129 464.044 121.184 458.049 120.4Z" fill="white" stroke="#253650" stroke-linecap="round" stroke-linejoin="round"/>
<path d="M458.177 120.482C455.204 119.853 449.609 117.558 451.012 113.411C452.766 108.226 464.087 121.754 458.177 120.482Z" fill="white" stroke="#253650" stroke-linecap="round" stroke-linejoin="round"/>
<path d="M492.794 125.586C489.783 125.181 483.743 125.465 483.672 129.843C483.585 135.315 498.789 126.371 492.794 125.586Z" fill="white" stroke="#253650" stroke-linecap="round" stroke-linejoin="round"/>
<path d="M492.918 125.668C489.945 125.039 484.351 122.744 485.754 118.597C487.508 113.413 498.828 126.941 492.918 125.668Z" fill="white" stroke="#253650" stroke-linecap="round" stroke-linejoin="round"/>
<path d="M362.356 55.7874C359.614 57.0978 353.779 58.6826 352.367 54.5379C350.603 49.357 367.82 53.1997 362.356 55.7874Z" fill="white" stroke="#253650" stroke-linecap="round" stroke-linejoin="round"/>
<path d="M362.448 55.6701C359.812 57.1817 355.193 61.0838 357.802 64.5998C361.063 68.9948 367.682 52.6437 362.448 55.6701Z" fill="white" stroke="#253650" stroke-linecap="round" stroke-linejoin="round"/>
<path d="M379.525 31.9634C377.686 34.3824 373.221 38.4602 370.071 35.4195C366.133 31.6186 383.201 27.1636 379.525 31.9634Z" fill="white" stroke="#253650" stroke-linecap="round" stroke-linejoin="round"/>
<path d="M379.557 31.8153C377.904 34.3649 375.58 39.9475 379.509 41.8813C384.419 44.2986 382.828 26.7305 379.557 31.8153Z" fill="white" stroke="#253650" stroke-linecap="round" stroke-linejoin="round"/>
<path d="M303.272 57.8492C300.261 57.4441 294.22 57.7282 294.15 62.106C294.063 67.5783 309.267 58.6337 303.272 57.8492Z" fill="white" stroke="#253650" stroke-linecap="round" stroke-linejoin="round"/>
<path d="M302.536 57.0417C300.273 55.014 296.568 50.235 299.852 47.3399C303.958 43.721 307.024 61.0924 302.536 57.0417Z" fill="white" stroke="#253650" stroke-linecap="round" stroke-linejoin="round"/>
<path d="M424.924 109.609C421.913 109.204 415.872 109.488 415.802 113.866C415.715 119.338 430.919 110.393 424.924 109.609Z" fill="white" stroke="#253650" stroke-linecap="round" stroke-linejoin="round"/>
<path d="M424.191 108.801C421.928 106.774 418.223 101.994 421.508 99.0994C425.614 95.4805 428.68 112.852 424.191 108.801Z" fill="white" stroke="#253650" stroke-linecap="round" stroke-linejoin="round"/>
<path d="M401.234 91.4975C400.064 88.6936 398.775 82.7855 402.985 81.5849C408.248 80.084 403.544 97.0849 401.234 91.4975Z" fill="white" stroke="#253650" stroke-linecap="round" stroke-linejoin="round"/>
<path d="M400.265 90.9973C397.72 89.3362 392.145 86.9944 390.199 90.9163C387.766 95.8188 405.339 94.2841 400.265 90.9973Z" fill="white" stroke="#253650" stroke-linecap="round" stroke-linejoin="round"/>
<path d="M385.469 69.224C382.797 67.7765 377.049 65.8987 375.43 69.9668C373.407 75.0518 390.795 72.0846 385.469 69.224Z" fill="white" stroke="#253650" stroke-linecap="round" stroke-linejoin="round"/>
<path d="M385.069 68.2067C383.673 65.508 381.905 59.7252 386.003 58.1841C391.126 56.2577 387.828 73.5865 385.069 68.2067Z" fill="white" stroke="#253650" stroke-linecap="round" stroke-linejoin="round"/>
<path d="M286.589 33.79C284.48 31.6023 279.569 28.0738 276.796 31.4615C273.329 35.6962 290.8 38.1278 286.589 33.79Z" fill="white" stroke="#253650" stroke-linecap="round" stroke-linejoin="round"/>
<path d="M286.516 32.698C286.002 29.7033 286.066 23.6567 290.438 23.4274C295.904 23.1407 287.518 38.6602 286.516 32.698Z" fill="white" stroke="#253650" stroke-linecap="round" stroke-linejoin="round"/>
<path d="M-217.742 432.181C-217.742 432.181 -98.0859 387.634 -13.6845 372.12C120.975 347.35 301.876 310.246 323.674 299.869C360.301 287.102 427.057 262.462 341.183 258.5C341.183 258.5 368.32 258.606 384.267 258.61C408.999 258.616 441.489 269.438 449.01 275.777C465.515 289.687 480.404 307.77 454.408 432.195H-217.742V432.181Z" fill="url(#paint1_linear_483_44486)"/>
<path d="M196.221 300.043C197.884 300.043 199.232 298.694 199.232 297.031C199.232 295.368 197.884 294.02 196.221 294.02C194.558 294.02 193.209 295.368 193.209 297.031C193.209 298.694 194.558 300.043 196.221 300.043Z" fill="#E0EEFF"/>
<path d="M196.221 300.043C197.884 300.043 199.232 298.694 199.232 297.031C199.232 295.368 197.884 294.02 196.221 294.02C194.557 294.02 193.209 295.368 193.209 297.031C193.209 298.694 194.557 300.043 196.221 300.043Z" fill="#E0EEFF" stroke="#657A99" stroke-miterlimit="10" stroke-linecap="round" stroke-linejoin="round"/>
<path d="M188.594 278.359C186.26 284.317 190.275 291.462 197.55 294.304C204.825 297.146 212.621 294.616 214.941 288.659L188.581 278.359H188.594Z" fill="#C7E0FF"/>
<path d="M188.594 278.359C186.26 284.317 190.275 291.462 197.55 294.304C204.825 297.146 212.621 294.616 214.941 288.659L188.581 278.359H188.594Z" stroke="#657A99" stroke-miterlimit="10" stroke-linecap="round" stroke-linejoin="round"/>
<path d="M190.94 331.524L195.477 300.04" stroke="#657A99" stroke-miterlimit="10" stroke-linecap="round" stroke-linejoin="round"/>
<path d="M193.379 314.566C193.379 314.566 200.106 303.602 207.811 305.714C207.811 305.714 210.432 312.193 193.379 314.566Z" fill="#E0EEFF" stroke="#657A99" stroke-miterlimit="10" stroke-linecap="round" stroke-linejoin="round"/>
<path d="M447.337 274.553C437.502 268.141 407.47 258.615 384.267 258.61C368.32 258.606 341.183 258.5 341.183 258.5C427.057 262.462 360.301 287.102 323.674 299.869C315.526 303.748 285.149 311.361 243.267 320.668M449.974 276.596C464.5 289.075 477.164 306.375 460.809 399.151M228.167 323.989C158.928 339.069 64.773 357.688 -13.6845 372.12C-98.0859 387.634 -217.742 432.181 -217.742 432.181V432.195H454.408C455.462 427.148 456.449 422.276 457.372 417.572M233.239 322.881C235.248 322.44 237.235 322.003 239.198 321.57L233.239 322.881ZM458.514 411.66C459.05 408.843 459.196 408.056 459.685 405.364L458.514 411.66Z" stroke="#657A99" stroke-miterlimit="10" stroke-linecap="round" stroke-linejoin="round"/>
<path d="M468.761 318.105L462.077 226.091" stroke="#657A99" stroke-miterlimit="10" stroke-linecap="round" stroke-linejoin="round"/>
<path d="M459.882 225.382C461.702 226.434 464.031 225.81 465.082 223.989C466.133 222.168 465.509 219.84 463.688 218.789C461.868 217.738 459.539 218.361 458.488 220.182C457.437 222.003 458.061 224.331 459.882 225.382Z" fill="#C7E0FF" stroke="#657A99" stroke-miterlimit="10" stroke-linecap="round" stroke-linejoin="round"/>
<path d="M477.963 200.688C479.063 209.106 471.632 217.024 461.353 218.375C451.073 219.727 441.845 213.992 440.744 205.574L477.963 200.688Z" fill="#EEF6FF"/>
<path d="M477.963 200.688C479.063 209.106 471.632 217.024 461.353 218.375C451.073 219.727 441.845 213.992 440.744 205.574L477.963 200.688Z" stroke="#657A99" stroke-miterlimit="10" stroke-linecap="round" stroke-linejoin="round"/>
<path d="M463.689 252.68C463.689 252.68 459.786 240.431 451.789 240.646C451.789 240.646 447.705 246.312 463.689 252.68Z" fill="#C7E0FF" stroke="#657A99" stroke-miterlimit="10" stroke-linecap="round" stroke-linejoin="round"/>
<path d="M78.1399 298.008C90.1339 304.435 100.863 311.488 95.3748 321.748C89.8862 332.008 70.2395 341.591 58.2455 335.177C46.2514 328.749 42.5359 307.329 48.0245 297.069C53.5131 286.809 66.1459 291.594 78.1399 298.021V298.008Z" fill="white"/>
<path d="M96.332 316.175C98.2756 312.544 90.1254 304.394 78.1279 297.972C66.1305 291.549 54.8289 289.287 52.8853 292.918C50.9416 296.549 59.0919 304.698 71.0893 311.121C83.0868 317.543 94.3883 319.806 96.332 316.175Z" fill="#C7E0FF"/>
<path d="M81.9967 315.954C83.6785 312.825 80.1194 307.975 74.4222 304.924C68.7251 301.874 62.9367 301.665 61.2549 304.807C61.2549 304.807 68.3209 310.961 81.9837 315.954H81.9967Z" stroke="#657A99" stroke-miterlimit="10" stroke-linecap="round" stroke-linejoin="round"/>
<path d="M73.8591 389.521L85.3708 401.867C85.3708 401.867 100.311 386.17 101.889 380.004C103.466 373.837 98.5381 369.965 87.8739 376.562C77.2096 383.159 73.8591 389.521 73.8591 389.521Z" fill="#C7E0FF"/>
<path d="M102.054 379.235C102.161 378.615 102.198 378.024 102.166 377.471M101.3 381.585C98.1005 388.493 85.3708 401.867 85.3708 401.867L73.8591 389.521C73.8591 389.521 77.2096 383.159 87.8739 376.562C95.3056 371.965 99.9516 372.452 101.551 375.256" stroke="#657A99" stroke-miterlimit="10" stroke-linecap="round" stroke-linejoin="round"/>
<path d="M100.441 374.032C100.441 374.032 94.2236 378.118 88.2473 383.94M79.3337 395.4C80.9654 392.125 83.4602 388.93 86.1701 386.051" stroke="#657A99" stroke-miterlimit="10" stroke-linecap="round" stroke-linejoin="round"/>
<path d="M-0.808594 284.32V252.614C-0.808594 252.614 5.46219 252.914 10.2077 259.133C10.2077 259.133 -1.89065 235.431 7.86101 226.253C17.6127 217.075 28.5768 231.885 28.5768 231.885C28.5768 231.885 17.6127 201.965 28.5768 194.56C39.5409 187.155 48.8623 203.738 48.8623 203.738C48.8623 203.738 60.5695 170.26 75.0797 179.151C89.5899 188.042 71.8205 217.662 71.8205 217.662C71.8205 217.662 89.0032 212.03 91.3759 221.508C93.7487 230.986 60.6217 245.496 60.6217 245.496C60.6217 245.496 79.2255 243.423 80.7117 251.715C82.1979 260.006 71.1034 272.157 52.6561 275.703C52.6561 275.703 80.9985 274.764 64.0504 315.57C47.1023 356.376 21.1066 366.114 21.1066 366.114H-0.808594V284.307V284.32Z" fill="#EDF5FF"/>
<path d="M48.8623 203.738C48.8623 203.738 39.5409 187.155 28.5768 194.56C17.6127 201.965 28.5768 231.885 28.5768 231.885C28.5768 231.885 17.6127 217.075 7.86101 226.253C-1.89065 235.431 10.2077 259.133 10.2077 259.133C5.46219 252.914 -0.808594 252.614 -0.808594 252.614V284.32V284.307V366.114H21.1066C21.1066 366.114 47.1023 356.376 64.0504 315.57C69.3411 302.831 70.2182 294.161 68.9218 288.26M50.5843 199.412C54.3494 190.669 63.8796 172.288 75.0797 179.151C89.5899 188.042 71.8205 217.662 71.8205 217.662C71.8205 217.662 89.0032 212.03 91.3759 221.508C93.7487 230.986 60.6217 245.496 60.6217 245.496C60.6217 245.496 79.2255 243.423 80.7117 251.715C82.1979 260.006 71.1034 272.157 52.6561 275.703C52.6561 275.703 58.598 275.506 63.4136 279.209M65.9911 281.775C66.5289 282.47 67.0248 283.243 67.4633 284.106" stroke="#657A99" stroke-miterlimit="10" stroke-linecap="round" stroke-linejoin="round"/>
<path d="M10.8848 310.434L21.517 288.757M70.3334 189.229L24.6191 282.433" stroke="#657A99" stroke-miterlimit="10" stroke-linecap="round" stroke-linejoin="round"/>
<path d="M32.6592 201.966L46.9477 236.918L53.1835 234.633M80.1138 224.767L56.7727 233.318" stroke="#657A99" stroke-miterlimit="10" stroke-linecap="round" stroke-linejoin="round"/>
<path d="M13.7573 236.918L22.8832 252.145M63.5195 257.647L32.0091 267.373L24.1577 254.272" stroke="#657A99" stroke-miterlimit="10" stroke-linecap="round" stroke-linejoin="round"/>
<path d="M-0.808594 273.057L15.618 300.799L49.2033 292.639M57.897 290.526L52.1456 291.924" stroke="#657A99" stroke-miterlimit="10" stroke-linecap="round" stroke-linejoin="round"/>
<path d="M16.4512 365.187C16.4512 365.187 20.623 292.597 38.6532 293.288C56.6833 293.979 45.3281 371.054 45.3281 371.054L16.4512 365.187Z" fill="#C7E0FF"/>
<path d="M22.2903 321.542C17.8028 341.676 16.4517 365.185 16.4517 365.185L45.3286 371.052C45.3286 371.052 56.6838 293.977 38.6536 293.286C32.6158 293.055 28.132 301.041 24.8385 311.768M22.9496 318.706C23.1963 317.688 23.4516 316.682 23.7157 315.693" stroke="#657A99" stroke-miterlimit="10" stroke-linecap="round" stroke-linejoin="round"/>
<path d="M-0.806885 284.32V366.127L16.4541 365.188C16.4541 365.188 18.7095 309.612 -0.806885 284.32Z" fill="#C7E0FF"/>
<path d="M1.29557 287.284C0.624675 286.257 -0.0754804 285.267 -0.806152 284.32V366.127L16.4548 365.189C16.4548 365.189 18.3516 318.448 3.61405 291.189" stroke="#657A99" stroke-miterlimit="10" stroke-linecap="round" stroke-linejoin="round"/>
<path d="M67.7068 384.035C67.7068 384.035 74.0558 367.53 77.9278 362.511" stroke="#657A99" stroke-miterlimit="10" stroke-linecap="round" stroke-linejoin="round"/>
<path d="M96.7007 368.206C102.159 362.748 101.341 353.082 94.8754 346.616C88.4095 340.15 78.7434 339.333 73.2856 344.791C67.8278 350.249 68.645 359.915 75.1109 366.381C81.5767 372.846 91.2429 373.664 96.7007 368.206Z" fill="#E0EEFF"/>
<path d="M85.6408 355.856C90.2128 360.428 95.9868 362.066 98.5375 359.516C101.088 356.965 99.4497 351.191 94.8778 346.619C90.3058 342.047 84.5318 340.408 81.981 342.959C79.7707 345.17 80.7062 349.8 83.9704 353.972" stroke="#657A99" stroke-miterlimit="10" stroke-linecap="round" stroke-linejoin="round"/>
<path d="M72.3496 345.845C67.9498 351.427 69.0428 360.313 75.111 366.382C76.9697 368.24 79.0929 369.632 81.3045 370.543M74.3312 343.862C79.9123 339.455 88.8045 340.546 94.8755 346.617C101.341 353.083 102.159 362.749 96.7008 368.207C94.567 370.341 91.79 371.515 88.8124 371.768M84.3957 371.492C84.9398 371.603 85.4843 371.687 86.0267 371.742" stroke="#657A99" stroke-miterlimit="10" stroke-linecap="round" stroke-linejoin="round"/>
<path d="M38.6577 368.802C38.6577 368.802 42.2559 342.258 45.3326 330.76C48.4094 319.261 56.9225 306.615 64.0407 315.585C71.172 324.554 61.3812 379.349 61.3812 379.349L38.6577 368.789V368.802Z" fill="#E0EEFF"/>
<path d="M38.6577 368.802C38.6577 368.802 42.2559 342.258 45.3326 330.76C48.4094 319.261 56.9225 306.615 64.0407 315.585C71.172 324.554 61.3812 379.349 61.3812 379.349L38.6577 368.789V368.802Z" stroke="#657A99" stroke-miterlimit="10" stroke-linecap="round" stroke-linejoin="round"/>
<path d="M51.6182 373.787L56.9247 337.917M60.6267 312.892L57.8854 331.422" stroke="#657A99" stroke-miterlimit="10" stroke-linecap="round" stroke-linejoin="round"/>
<path d="M673.366 337.864C673.366 337.864 660.42 329.181 679.076 316.014C679.076 316.014 640.382 311.073 635.441 294.607C630.5 278.142 657.265 277.32 657.265 277.32C657.265 277.32 626.667 267.438 625.011 249.604C623.369 231.769 639.561 221.339 650.812 230.387C662.062 239.448 669.754 262.771 669.754 262.771C669.754 262.771 669.48 236.149 685.946 238.613C702.412 241.077 706.532 294.047 706.532 294.047C706.532 294.047 709.856 278.819 719.999 282.457V301.191L673.379 337.864H673.366Z" fill="#EEF6FF"/>
<path d="M671.728 249.604C669.685 256 669.754 262.771 669.754 262.771C669.754 262.771 662.062 239.448 650.812 230.387C639.561 221.339 623.369 231.769 625.011 249.604C626.667 267.438 657.265 277.32 657.265 277.32C657.265 277.32 632.341 278.085 635.036 292.935M672.654 247.102C674.9 241.852 678.883 237.556 685.946 238.613C702.412 241.077 706.532 294.047 706.532 294.047C706.532 294.047 709.856 278.819 719.999 282.457V301.191L673.379 337.864H673.366C673.366 337.864 660.42 329.181 679.076 316.014C679.076 316.014 643.655 311.491 636.265 296.678" stroke="#657A99" stroke-miterlimit="10" stroke-linecap="round" stroke-linejoin="round"/>
<path d="M700.994 316.133L681.604 291.609M641.754 241.209L677.743 286.726" stroke="#657A99" stroke-miterlimit="10" stroke-linecap="round" stroke-linejoin="round"/>
<path d="M547.25 390.952L518.504 408.237C518.504 408.237 485.602 383.136 474.975 358.113C464.347 333.089 494.376 331.513 513.159 350.914C531.942 370.316 547.266 390.952 547.266 390.952H547.25Z" fill="#C7E0FF"/>
<path d="M486.007 376.176C481.532 370.398 477.583 364.253 474.975 358.113C464.347 333.089 494.376 331.513 513.159 350.914C531.942 370.316 547.266 390.952 547.266 390.952H547.25L518.504 408.237C518.504 408.237 502.149 395.76 488.777 379.63" stroke="#657A99" stroke-miterlimit="10" stroke-linecap="round" stroke-linejoin="round"/>
<path d="M490.931 353.46L493.852 356.76M532.158 400.032L496.224 359.44" stroke="#657A99" stroke-miterlimit="10" stroke-linecap="round" stroke-linejoin="round"/>
<path d="M597.201 425.375C597.201 425.375 612.199 382.155 628.619 365.148C645.024 348.141 659.235 341.545 670.434 349.145C681.633 356.745 655.976 431.723 655.976 431.723L575.235 429.916C575.235 429.916 569.288 364.205 568.67 333.837C568.037 303.484 574.926 242.778 597.154 247.15C619.367 251.537 597.216 425.375 597.216 425.375H597.201Z" fill="#EEF6FF"/>
<path d="M586.179 250.964C587.076 250.065 588.013 249.302 588.992 248.69M591.969 247.341C593.596 246.871 595.323 246.79 597.154 247.15C610.794 249.844 607.706 316.435 603.29 367.433M583.869 253.685C572.092 269.76 568.187 310.653 568.67 333.837C569.288 364.205 575.235 429.916 575.235 429.916L655.976 431.723C655.976 431.723 681.633 356.745 670.434 349.145C663.906 344.715 656.354 345.108 647.941 349.576M602.483 376.44C599.914 404.198 597.216 425.375 597.216 425.375H597.201C597.201 425.375 612.199 382.155 628.619 365.148C632.155 361.482 635.589 358.3 638.913 355.639M644.506 351.594C643.442 352.277 642.364 353.021 641.275 353.824" stroke="#657A99" stroke-miterlimit="10" stroke-linecap="round" stroke-linejoin="round"/>
<path d="M526.736 390.601L563.623 393.891C563.623 393.891 532.683 295.34 509.528 308.177C486.373 321.013 526.736 390.601 526.736 390.601Z" fill="#C7E0FF"/>
<path d="M531.051 320.497C523.862 310.293 516.356 304.391 509.528 308.177C495.977 315.689 504.181 342.638 513.317 363.702M532.629 322.812C549.171 347.858 563.623 393.891 563.623 393.891L526.736 390.601C526.736 390.601 522.953 384.078 518.367 374.659M516.499 370.749C515.98 369.64 515.455 368.503 514.93 367.341" stroke="#657A99" stroke-miterlimit="10" stroke-linecap="round" stroke-linejoin="round"/>
<path d="M518.59 320.997L526.124 338.119M549.931 392.222L527.516 341.283" stroke="#657A99" stroke-miterlimit="10" stroke-linecap="round" stroke-linejoin="round"/>
<path d="M631.879 373.731L635.354 407.807L646.916 403.829M658.478 399.852L650.759 402.508" stroke="#657A99" stroke-miterlimit="10" stroke-linecap="round" stroke-linejoin="round"/>
<path d="M613.419 401.31L616.972 411.517M660.98 356.607L647.233 384.077M645.269 388.002L630.003 418.51M628.272 421.967L623.753 430.999L618.017 414.521" stroke="#657A99" stroke-miterlimit="10" stroke-linecap="round" stroke-linejoin="round"/>
<path d="M568.621 393.878C568.621 393.878 563.173 368.724 558.876 344.747M553.776 305.862C553.608 312.178 555.533 325.577 558.049 340.06" stroke="#657A99" stroke-miterlimit="10" stroke-linecap="round" stroke-linejoin="round"/>
<path d="M553.413 306.289C563.349 302.942 569.213 293.727 566.511 285.707C563.809 277.687 553.564 273.899 543.628 277.247C533.692 280.595 527.828 289.81 530.53 297.83C533.232 305.849 543.477 309.637 553.413 306.289Z" fill="white"/>
<path d="M548.886 292.888C554.23 291.087 557.511 286.508 556.214 282.66C554.917 278.812 549.534 277.152 544.191 278.952C538.847 280.752 535.566 285.332 536.862 289.18C538.159 293.028 543.542 294.688 548.886 292.888Z" fill="#C7E0FF"/>
<path d="M562.738 365.16C562.738 365.16 563.989 341.155 571.867 325.616C579.745 310.076 590.032 301.859 590.032 301.859C590.032 301.859 591.407 321.847 584.549 335.44C577.691 349.033 562.738 365.16 562.738 365.16Z" fill="#C7E0FF"/>
<path d="M590.116 308.5C590.214 304.493 590.032 301.859 590.032 301.859C590.032 301.859 579.745 310.076 571.867 325.616C563.989 341.155 562.738 365.16 562.738 365.16C562.738 365.16 577.691 349.033 584.549 335.44C587.056 330.471 588.463 324.647 589.239 319.257M589.941 312.438C589.865 313.611 589.764 314.845 589.629 316.121" stroke="#657A99" stroke-miterlimit="10" stroke-linecap="round" stroke-linejoin="round"/>
<path d="M669.971 196.686C669.971 196.686 688.353 249.029 719.994 265.052" stroke="#657A99" stroke-miterlimit="10" stroke-linecap="round" stroke-linejoin="round"/>
<path d="M652.227 149.091C662.761 144.084 680.934 139.6 685.132 156.157C689.33 172.714 680.439 195.346 670.857 199.048C661.288 202.751 640.963 190.379 637.43 175.582C633.897 160.785 647.403 151.372 652.227 149.091Z" fill="#E0EEFF"/>
<path d="M661.805 168.01C668.073 165.899 672.266 161.554 671.172 158.306C670.078 155.058 664.11 154.137 657.842 156.249C651.575 158.36 647.381 162.705 648.476 165.953C649.57 169.201 655.538 170.122 661.805 168.01Z" fill="white"/>
<path d="M687.281 192.395C694.738 186.737 699.953 204.363 702.299 211.885C704.646 219.394 709.443 256.915 717.135 263.511C717.135 263.511 698.388 247.124 689.08 224.557C682.222 207.935 680.462 197.557 687.281 192.395Z" fill="#C7E0FF"/>
<path d="M701.605 209.66C699.006 201.41 694.074 187.239 687.28 192.394C680.462 197.556 682.222 207.934 689.079 224.556C698.387 247.123 717.135 263.51 717.135 263.51C710.136 257.508 705.534 225.908 702.993 214.602" stroke="#657A99" stroke-miterlimit="10" stroke-linecap="round" stroke-linejoin="round"/>
<path d="M660.01 208.991C664.573 200.829 676.424 214.883 681.573 220.828C686.736 226.773 706.148 259.235 715.834 262.194C715.834 262.194 692.094 254.685 674.533 237.737C661.588 225.248 655.838 216.448 660.01 208.991Z" fill="#C7E0FF"/>
<path d="M660.01 208.992C664.573 200.831 676.424 214.885 681.574 220.83C686.736 226.775 706.148 259.237 715.835 262.196C715.835 262.196 692.094 254.687 674.534 237.739C661.588 225.25 655.839 216.45 660.01 208.992Z" stroke="#657A99" stroke-miterlimit="10" stroke-linecap="round" stroke-linejoin="round"/>
<path d="M682.371 184.514C679.464 191.719 675.233 197.357 670.857 199.048C661.288 202.751 640.963 190.379 637.43 175.582C635.972 169.474 637.417 164.283 639.956 160.133M684.252 178.971C686.318 171.574 686.943 163.3 685.132 156.157C680.934 139.6 662.761 144.084 652.227 149.091C650.931 149.703 649.008 150.831 646.958 152.44M641.793 157.519C642.528 156.598 643.306 155.743 644.099 154.958" stroke="#657A99" stroke-miterlimit="10" stroke-linecap="round" stroke-linejoin="round"/>
<path d="M681.481 148.974C686.005 164.097 670.517 174.135 664.155 176.247C656.202 178.894 637.507 181.97 636.986 167.617" stroke="#657A99" stroke-miterlimit="10" stroke-linecap="round" stroke-linejoin="round"/>
<path d="M214.408 152.524C214.408 147.876 210.46 144.206 205.825 144.545L114.233 151.238C106.393 151.811 100.326 158.338 100.326 166.198V241.16C100.326 244.889 102.903 248.124 106.537 248.957L107.989 249.29C108.932 249.507 109.907 249.55 110.866 249.418L204.04 236.626C209.981 235.811 214.408 230.735 214.408 224.738V152.524Z" fill="#C7E0FF"/>
<path d="M217.406 155.526C217.406 150.878 213.459 147.208 208.823 147.547L117.231 154.24C109.392 154.813 103.324 161.34 103.324 169.2V241.623C103.324 246.382 107.453 250.088 112.184 249.577L206.695 239.362C212.788 238.704 217.406 233.56 217.406 227.432V155.526Z" fill="#E0EEFF"/>
<path d="M213.418 159.146C213.418 154.498 209.47 150.829 204.835 151.167L116.584 157.616C111.358 157.998 107.313 162.35 107.313 167.59V241.34C107.313 244.314 109.893 246.631 112.85 246.311L204.492 236.407C209.57 235.858 213.418 231.572 213.418 226.465V159.146Z" fill="white"/>
<path d="M217.406 192.561V155.524C217.406 150.876 213.459 147.206 208.823 147.545L136.104 152.859M217.406 198.622V227.43C217.406 233.558 212.789 238.702 206.696 239.361L112.184 249.575C107.453 250.086 103.324 246.38 103.324 241.621V168.269C103.324 160.933 108.987 154.841 116.304 154.306L123.924 153.749M128.476 153.417L132.396 153.13" stroke="#657A99" stroke-miterlimit="10" stroke-linecap="round" stroke-linejoin="round"/>
<path d="M130.66 183.449C132.725 183.259 134.398 181.425 134.398 179.352C134.398 177.28 132.725 175.753 130.66 175.943C128.596 176.132 126.923 177.967 126.923 180.039C126.923 182.112 128.596 183.639 130.66 183.449Z" fill="#DD0707"/>
<path fill-rule="evenodd" clip-rule="evenodd" d="M137.449 187.71C137.483 187.77 137.493 187.842 137.478 187.913C137.463 187.984 137.423 188.05 137.365 188.098C135.43 189.731 133.076 190.733 130.658 190.951C128.24 191.177 125.886 190.608 123.951 189.331C123.894 189.293 123.854 189.235 123.838 189.167C123.823 189.098 123.833 189.024 123.867 188.958C125.051 186.702 127.646 184.973 130.658 184.696C133.67 184.419 136.265 185.671 137.449 187.71Z" fill="#DD0707"/>
<path d="M137.515 172.18L137.764 172.158C139.995 171.953 141.111 171.85 141.805 172.482C142.498 173.115 142.498 174.236 142.498 176.476V176.727M137.515 193.448L137.764 193.425C139.995 193.22 141.111 193.117 141.805 192.358C142.498 191.598 142.498 190.477 142.498 188.236V187.986M123.811 173.44L123.562 173.463C121.331 173.668 120.215 173.77 119.522 174.529C118.828 175.291 118.828 176.412 118.828 178.651V178.902M123.811 194.707L123.562 194.73C121.331 194.935 120.215 195.038 119.522 194.406C118.828 193.773 118.828 192.65 118.828 190.411V190.161" stroke="#C7E0FF" stroke-width="1.5" stroke-linecap="round"/>
<path d="M151.768 175.209C151.768 174.104 152.659 173.127 153.759 173.026L202.275 168.568C203.375 168.467 204.266 169.281 204.266 170.385V171.447C204.266 172.551 203.375 173.529 202.275 173.63L153.759 178.088C152.659 178.189 151.768 177.375 151.768 176.271V175.209Z" fill="#EEF6FF"/>
<path d="M151.768 185.272C151.768 184.167 152.659 183.19 153.759 183.089L188.845 179.865C189.945 179.764 190.837 180.577 190.837 181.682V182.743C190.837 183.848 189.945 184.825 188.845 184.926L153.759 188.15C152.659 188.251 151.768 187.438 151.768 186.333V185.272Z" fill="#EEF6FF"/>
<path d="M130.48 227.122C131.31 227.045 132.132 226.806 132.899 226.416C133.667 226.026 134.364 225.495 134.951 224.851C135.538 224.207 136.004 223.465 136.322 222.665C136.64 221.865 136.803 221.024 136.803 220.191V216.66C136.803 215.1 136.231 213.647 135.197 212.578M124.156 219.232V221.353C124.156 222.603 124.523 223.791 125.211 224.77C125.899 225.748 126.879 226.472 128.026 226.852M133.641 211.451C132.189 210.743 130.463 210.673 128.843 211.258C127.223 211.842 125.842 213.034 125.003 214.569C124.658 215.2 124.414 215.874 124.282 216.566" stroke="#DD0707" stroke-width="1.5" stroke-linecap="round" stroke-linejoin="round"/>
<path d="M129.823 214.638C130.289 214.499 130.769 214.463 131.231 214.536C131.692 214.608 132.122 214.785 132.488 215.055C132.855 215.325 133.149 215.68 133.348 216.095C133.548 216.509 133.649 216.972 133.643 217.45V219.494M132.833 222.236C132.403 222.757 131.837 223.147 131.21 223.354C130.583 223.56 129.926 223.574 129.326 223.393C128.727 223.212 128.213 222.845 127.854 222.34C127.496 221.836 127.309 221.219 127.319 220.571V218.031C127.317 217.595 127.403 217.155 127.572 216.738M130.481 217.88V220.001" stroke="#DD0707" stroke-width="1.5" stroke-linecap="round" stroke-linejoin="round"/>
<path d="M137.439 207.596L137.692 207.573C139.957 207.364 141.091 207.26 141.795 207.902C142.498 208.544 142.498 209.682 142.498 211.957V212.211M137.439 229.186L137.692 229.163C139.957 228.955 141.091 228.851 141.795 228.08C142.498 227.308 142.498 226.17 142.498 223.895V223.641M123.528 208.874L123.275 208.897C121.01 209.105 119.876 209.21 119.173 209.98C118.469 210.754 118.469 211.892 118.469 214.165V214.419M123.528 230.465L123.275 230.488C121.01 230.696 119.876 230.8 119.173 230.159C118.469 229.516 118.469 228.377 118.469 226.103V225.849" stroke="#C7E0FF" stroke-width="1.5" stroke-linecap="round"/>
<path d="M151.766 212.232C151.766 211.128 152.658 210.151 153.757 210.049L202.273 205.592C203.373 205.49 204.265 206.304 204.265 207.409V208.47C204.265 209.575 203.373 210.552 202.273 210.653L153.757 215.111C152.658 215.212 151.766 214.399 151.766 213.294V212.232Z" fill="#EEF6FF"/>
<path d="M151.766 222.295C151.766 221.19 152.658 220.213 153.757 220.112L188.843 216.888C189.943 216.787 190.835 217.6 190.835 218.705V219.767C190.835 220.871 189.943 221.849 188.843 221.95L153.757 225.174C152.658 225.275 151.766 224.461 151.766 223.357V222.295Z" fill="#EEF6FF"/>
<path d="M385.893 352.397C388.469 361.129 392.102 374.845 392.729 384.635C392.894 387.223 390.744 390.944 390.318 391.43C390.004 391.788 388.051 393.034 387.862 394.26C387.674 395.485 388.051 396.619 388.996 396.619H395.635C397.294 396.619 397.162 394.079 396.161 391.732C395.422 390 399.955 379.39 400.963 374.508C402.089 369.046 404.379 356.251 403.049 345.344" fill="#C7E0FF"/>
<path d="M385.893 352.397C388.469 361.129 392.102 374.845 392.729 384.635C392.894 387.223 390.744 390.944 390.318 391.43C390.004 391.788 388.051 393.034 387.862 394.26C387.674 395.485 388.051 396.619 388.996 396.619H395.635C397.294 396.619 397.162 394.079 396.161 391.732C395.422 390 399.955 379.39 400.963 374.508C402.089 369.046 404.379 356.251 403.049 345.344" stroke="#253650" stroke-linecap="round" stroke-linejoin="round"/>
<path d="M355.493 357.305C353.83 364.218 346.099 369.628 337.614 363.885C329.125 358.141 334.678 348.125 328.088 339.282C321.498 330.438 313.085 332.026 311.632 332.8C311.632 332.8 313.761 333.252 314.77 336.056C315.781 338.855 314.614 344.257 317.642 350.35C317.642 350.35 314.813 347.409 313.835 341.836C313.835 341.836 312.986 351.398 321.222 359.349C329.457 367.301 334.955 369.138 334.955 369.138C334.955 369.138 332.9 369.043 329.457 367.301C329.457 367.301 335.964 372.249 344.291 372.084C352.616 371.924 356.928 362.938 356.961 360.164L355.495 357.301L355.493 357.305Z" fill="#C7E0FF"/>
<path d="M328.088 339.282C334.678 348.125 329.125 358.141 337.614 363.885C346.099 369.628 353.83 364.218 355.493 357.305L355.495 357.301L356.961 360.164C356.928 362.938 352.616 371.924 344.291 372.084C335.964 372.249 329.457 367.301 329.457 367.301C332.9 369.043 334.955 369.138 334.955 369.138C334.955 369.138 329.457 367.301 321.222 359.349C312.986 351.398 313.835 341.836 313.835 341.836C314.813 347.409 317.642 350.35 317.642 350.35C314.614 344.257 315.781 338.855 314.77 336.056C313.761 333.252 311.632 332.8 311.632 332.8C312.821 332.166 318.67 330.988 324.367 335.426" stroke="#253650" stroke-miterlimit="10" stroke-linecap="round" stroke-linejoin="round"/>
<path d="M362.115 355.704C364.691 364.437 368.324 378.153 368.951 387.942C369.115 390.53 366.965 394.252 366.539 394.738C366.226 395.096 364.273 396.341 364.084 397.567C363.895 398.793 364.273 399.926 365.217 399.926H371.856C373.516 399.926 373.383 397.386 372.383 395.039C371.643 393.307 376.176 382.698 377.185 377.815C378.31 372.354 380.601 359.558 379.271 348.652" fill="#C7E0FF"/>
<path d="M362.115 355.704C364.691 364.437 368.324 378.153 368.951 387.942C369.115 390.53 366.965 394.252 366.539 394.738C366.226 395.096 364.273 396.341 364.084 397.567C363.895 398.793 364.273 399.926 365.217 399.926H371.856C373.516 399.926 373.383 397.386 372.383 395.039C371.643 393.307 376.176 382.698 377.185 377.815C378.31 372.354 380.601 359.558 379.271 348.652" stroke="#253650" stroke-linecap="round" stroke-linejoin="round"/>
<path d="M401.135 336.847C398.919 330.219 399.276 325.344 399.527 321.909C399.543 321.691 399.559 321.479 399.573 321.272C399.672 319.87 400.174 317.62 400.705 315.24C401.381 312.21 402.105 308.968 402.105 306.99C402.105 303.457 401.527 298.937 400.872 298.688C400.217 298.443 394.79 303.622 391.586 309.29C391.586 309.29 389.667 308.905 388.407 308.933C388.407 308.933 387.969 303.345 387.531 300.932C387.094 298.52 386.439 297.203 385.889 297.203C385.34 297.203 379.37 302.39 376.632 314.67C376.632 314.67 368.242 313.847 367.832 314.67C367.423 315.492 365.133 320.114 367.832 322.484C368.331 322.922 371.62 324.377 374.775 325.774C377.731 327.082 380.57 328.339 380.887 328.657C381.542 329.312 383.036 337.852 376.632 342.726C374.32 344.485 370.447 345.863 366.381 347.31C359.143 349.885 351.297 352.678 350.578 358.219C348.837 365.98 351.379 375.194 353.372 382.422C354.265 385.659 355.047 388.497 355.286 390.627C355.666 394.004 356.408 397.011 357.039 399.568C357.559 401.671 358.002 403.469 358.108 404.918C355.909 406.035 355.536 408.932 357.151 408.932H365.265C366.209 408.932 366.587 407.799 366.398 406.573C366.285 405.839 365.425 405.14 364.754 404.595C364.306 404.231 363.943 403.936 363.943 403.744C363.943 403.652 363.937 403.438 363.928 403.133C363.891 401.866 363.81 399.036 363.943 396.949C364.091 384.156 366.514 376.6 368.972 370.89C371.513 371.072 374.233 371.084 377.077 370.924C378.1 376.923 379.36 384.809 380.037 390.838C380.416 394.214 381.158 397.221 381.79 399.778C382.309 401.881 382.752 403.679 382.858 405.128C380.659 406.245 380.286 409.143 381.901 409.143H390.015C390.959 409.143 391.337 408.01 391.148 406.784C391.035 406.049 390.175 405.35 389.504 404.805C389.056 404.441 388.693 404.146 388.693 403.955C388.693 403.862 388.687 403.648 388.678 403.344C388.641 402.076 388.56 399.246 388.693 397.159C388.876 381.36 390.129 374.547 398.624 363.04C400.795 360.099 403.135 356.778 403.465 354.617C404.599 347.181 402.105 339.749 401.135 336.843V336.847Z" fill="#E0EEFF"/>
<path d="M387.135 309.036C387.135 309.036 387.132 302.264 385.33 298.954C385.33 298.954 382.859 301.189 380.674 307.973C380.674 307.973 383.497 307.372 387.132 309.033H387.135V309.036Z" fill="#C7E0FF"/>
<path d="M401.135 336.847C398.919 330.219 399.276 325.344 399.527 321.909C399.543 321.691 399.559 321.479 399.573 321.272C399.672 319.87 400.174 317.62 400.705 315.24C401.381 312.21 402.105 308.968 402.105 306.99C402.105 303.457 401.527 298.937 400.872 298.688C400.217 298.443 394.79 303.622 391.586 309.29C391.586 309.29 389.667 308.905 388.407 308.933C388.407 308.933 387.969 303.345 387.531 300.932C387.094 298.52 386.439 297.203 385.889 297.203C385.34 297.203 379.37 302.39 376.632 314.67C376.632 314.67 368.242 313.847 367.832 314.67C367.423 315.492 365.133 320.114 367.832 322.484C368.331 322.922 371.62 324.377 374.775 325.774C377.731 327.082 380.57 328.339 380.887 328.657C381.542 329.312 383.036 337.852 376.632 342.726C374.32 344.485 370.447 345.863 366.381 347.31C359.143 349.885 351.297 352.678 350.578 358.219C348.837 365.98 351.379 375.194 353.372 382.422C354.265 385.659 355.047 388.497 355.286 390.627C355.666 394.004 356.408 397.011 357.039 399.568C357.559 401.671 358.002 403.469 358.108 404.918C355.909 406.035 355.536 408.932 357.151 408.932H365.265C366.209 408.932 366.587 407.799 366.398 406.573C366.285 405.839 365.425 405.14 364.754 404.595C364.306 404.231 363.943 403.936 363.943 403.744C363.943 403.652 363.937 403.438 363.928 403.133C363.891 401.866 363.81 399.036 363.943 396.949C364.091 384.156 366.514 376.6 368.972 370.89C371.513 371.072 374.233 371.084 377.077 370.924C378.1 376.923 379.36 384.809 380.037 390.838C380.416 394.214 381.158 397.221 381.79 399.778C382.309 401.881 382.752 403.679 382.858 405.128C380.659 406.245 380.286 409.143 381.901 409.143H390.015C390.959 409.143 391.337 408.01 391.148 406.784C391.035 406.049 390.175 405.35 389.504 404.805C389.056 404.441 388.693 404.146 388.693 403.955C388.693 403.862 388.687 403.648 388.678 403.344C388.641 402.076 388.56 399.246 388.693 397.159C388.876 381.36 390.129 374.547 398.624 363.04C400.795 360.099 403.135 356.778 403.465 354.617C404.599 347.181 402.105 339.749 401.135 336.843V336.847Z" stroke="#29364E" stroke-linecap="round" stroke-linejoin="round"/>
<path d="M387.723 408.954C388.114 408.492 388.561 407.133 387.219 405.389" stroke="#29364E" stroke-linecap="round" stroke-linejoin="round"/>
<path d="M384.579 408.954C384.188 408.492 383.741 407.133 385.083 405.389" stroke="#29364E" stroke-linecap="round" stroke-linejoin="round"/>
<path d="M363.439 408.954C363.83 408.492 364.277 407.133 362.936 405.389" stroke="#29364E" stroke-linecap="round" stroke-linejoin="round"/>
<path d="M360.3 408.954C359.909 408.492 359.462 407.133 360.803 405.389" stroke="#29364E" stroke-linecap="round" stroke-linejoin="round"/>
<path d="M370.267 399.846C370.658 399.385 371.105 398.026 369.763 396.281" stroke="#29364E" stroke-linecap="round" stroke-linejoin="round"/>
<path d="M367.131 399.846C366.74 399.385 366.293 398.026 367.635 396.281" stroke="#29364E" stroke-linecap="round" stroke-linejoin="round"/>
<path d="M394.554 396.81C394.945 396.349 395.392 394.99 394.051 393.245" stroke="#29364E" stroke-linecap="round" stroke-linejoin="round"/>
<path d="M390.649 396.81C390.257 396.349 389.811 394.99 391.152 393.245" stroke="#29364E" stroke-linecap="round" stroke-linejoin="round"/>
<path d="M381.72 332.932C383.038 333.21 386.157 334.228 391.716 333.202C397.275 332.176 398.864 330.749 399.231 330.533C399.599 330.316 399.624 330.817 399.739 331.646C399.854 332.474 400.246 333.208 399.799 333.553C399.352 333.899 397.175 335.484 391.689 336.295C386.612 337.042 382.602 335.965 382.037 335.809C381.469 335.653 381.652 334.937 381.637 334.357C381.614 333.559 381.368 332.86 381.72 332.932Z" fill="#DD0707"/>
<path d="M390.119 339.418C390.119 341.244 391.601 342.725 393.427 342.725C395.252 342.725 396.734 341.244 396.734 339.418C396.734 337.592 395.252 336.111 393.427 336.111C391.601 336.111 390.119 337.592 390.119 339.418Z" fill="#DD0707"/>
<path d="M392.734 336.188C391.544 336.688 390.704 337.863 390.704 339.237C390.704 341.063 392.185 342.545 394.011 342.545C394.249 342.545 394.478 342.52 394.701 342.472C394.308 342.637 393.875 342.729 393.424 342.729C391.598 342.729 390.117 341.248 390.117 339.422C390.117 337.834 391.238 336.508 392.734 336.188Z" fill="#253650"/>
<path d="M376.631 342.726C374.32 344.485 370.447 345.863 366.381 347.31C361.548 349.03 356.444 350.846 353.372 353.513C353.611 354.616 358.589 358.401 361.908 357.25C369.539 354.605 370.184 348.213 376.631 342.726Z" fill="#253650"/>
<path d="M381.372 340.587C382.85 339.137 385.022 342.374 384.453 344.374C383.883 346.374 381.258 349.51 380.176 348.427C379.093 347.345 379.89 342.044 381.372 340.589V340.587Z" fill="#253650"/>
<path d="M393.75 309.671C393.75 309.671 396.135 304.821 399.671 302.108C399.671 302.108 400.081 307.202 398.439 315.011C398.439 315.011 397.122 312.462 393.754 309.667H393.75V309.671Z" fill="#C7E0FF"/>
<path d="M386.851 315.531C386.643 316.403 386.046 317.005 385.518 316.879C384.99 316.753 384.73 315.942 384.937 315.074C385.145 314.206 385.743 313.6 386.271 313.726C386.798 313.852 387.058 314.663 386.851 315.531Z" fill="#29364E"/>
<path d="M381.22 313.47C381.046 314.199 380.547 314.706 380.104 314.6C379.662 314.495 379.445 313.82 379.619 313.088C379.794 312.356 380.292 311.852 380.735 311.958C381.178 312.064 381.395 312.738 381.22 313.47Z" fill="#29364E"/>
<path d="M372.585 320.046C372.585 320.186 372.473 320.291 372.339 320.291C372.206 320.291 372.094 320.179 372.094 320.046C372.094 319.912 372.206 319.8 372.339 319.8C372.473 319.8 372.585 319.912 372.585 320.046Z" fill="#29364E"/>
<path d="M372.617 318.232C372.774 318.232 372.898 318.107 372.898 317.95C372.898 317.793 372.774 317.668 372.617 317.668C372.46 317.668 372.335 317.793 372.335 317.95C372.335 318.107 372.46 318.232 372.617 318.232Z" fill="#29364E"/>
<path d="M375.511 318.472C375.648 318.472 375.757 318.363 375.757 318.226C375.757 318.089 375.648 317.981 375.511 317.981C375.374 317.981 375.266 318.089 375.266 318.226C375.266 318.363 375.374 318.472 375.511 318.472Z" fill="#29364E"/>
<path d="M370.68 319.057C370.68 319.19 370.568 319.303 370.434 319.303C370.301 319.303 370.189 319.19 370.189 319.057C370.189 318.924 370.301 318.812 370.434 318.812C370.568 318.812 370.68 318.924 370.68 319.057Z" fill="#29364E"/>
<path d="M366.216 319.65C365.895 320.63 365.477 322.238 365.296 324.348C364.99 327.981 366.421 329.234 367.51 328.395C368.43 327.687 370.412 323.377 371.807 321.143C369.423 321.143 367.381 320.056 366.216 319.642V319.65Z" fill="#CA2D20"/>
<path d="M366.502 319.8C366.502 319.8 374.605 322.533 379.423 322.137" stroke="#29364E" stroke-linecap="round" stroke-linejoin="round"/>
<path d="M372.9 314.857C370.572 314.475 367.872 314.146 367.645 314.605C367.456 314.986 366.965 316.219 366.766 317.669C366.766 317.669 371.938 317.381 372.904 314.857H372.9Z" fill="#29364E"/>
<path d="M297.441 163.05C292.018 163.05 280.17 163.916 274.649 156.711C269.551 150.06 275.096 142.285 276.148 137.032C277.2 131.778 278.139 127.109 280.099 121.607C285.882 111.88 299.296 113.153 299.296 113.153C299.296 113.153 309.867 112.211 316.098 120.665C319.248 124.939 319.393 131.778 320.445 137.032C321.497 142.285 326.891 149.947 321.944 156.711C316.2 164.565 303.285 163.057 297.448 163.05H297.441Z" fill="#253650" stroke="#253650" stroke-miterlimit="10" stroke-linecap="round" stroke-linejoin="round"/>
<path d="M316.985 203.554L314.982 214.557L281.203 213.685C281.203 213.685 276.851 195.702 276.424 191.802C275.998 187.902 276.424 182.016 276.424 182.016C276.424 182.016 275.247 192.208 274.605 197.637L259.542 197.43C260.819 190.343 262.63 180.83 264.321 172.88C265.863 165.628 277.342 164.6 280.912 163.651C282.126 163.329 287.295 162.356 287.295 162.356C287.295 162.356 290.314 170.718 299.34 170.718C307.529 170.717 309.692 162.551 309.692 162.551C309.692 162.551 321.432 164.746 325.548 167.245C329.664 169.743 331.432 179.231 334.234 196.627L318.254 196.513L316.977 203.547L316.985 203.554Z" fill="#C7E0FF"/>
<path d="M318.234 196.232C318.898 193.977 319.827 188.473 318.234 184.492" stroke="#253650" stroke-miterlimit="10" stroke-linecap="round" stroke-linejoin="round"/>
<path d="M277.316 194.337C276.653 192.083 275.723 186.578 277.316 182.598" stroke="#253650" stroke-miterlimit="10" stroke-linecap="round" stroke-linejoin="round"/>
<path d="M292.143 379.073C292.143 379.073 292.333 390.85 289.974 396.262C287.615 401.674 287.297 404.066 289.221 409.164H302.226C302.226 409.164 304.802 404.694 302.451 399.065C300.101 393.437 300.519 375.848 300.519 375.848L292.143 379.063V379.073Z" fill="white" stroke="#253650" stroke-miterlimit="10" stroke-linecap="round" stroke-linejoin="round"/>
<path d="M290.656 393.719H259.074" stroke="#253650" stroke-linecap="round" stroke-linejoin="round"/>
<path d="M330.692 379.547H314.039" stroke="#253650" stroke-linecap="round" stroke-linejoin="round"/>
<path d="M406.465 409.145H385.895" stroke="#253650" stroke-linecap="round" stroke-linejoin="round"/>
<path d="M288.332 408.703C287.101 406.344 287.611 401.697 289.97 396.285C290.809 398.38 293.291 402.569 296.501 402.569C299.712 402.569 301.803 400.249 302.448 399.089C304.798 404.717 303.623 408.433 302.448 409.724C301.272 411.015 298.828 412.299 295.302 412.299C291.776 412.299 289.564 411.062 288.332 408.703Z" fill="#253650"/>
<path d="M306.319 364.258C306.319 364.258 305.085 372.192 305.085 374.184C305.085 376.175 306.682 402.185 314.432 402.759C322.182 403.332 314.432 373.935 314.432 373.935L315.339 368.923L306.319 364.258Z" fill="white" stroke="#253650" stroke-miterlimit="10" stroke-linecap="round" stroke-linejoin="round"/>
<path d="M314.43 402.758C309.79 402.414 307.356 392.951 306.149 384.985C307.296 387.975 310.263 393.978 312.96 394.07C315.658 394.162 316.473 387.116 316.543 383.582C318.097 392.097 319.203 403.111 314.43 402.758Z" fill="#253650"/>
<path d="M318.038 222.097C328.045 244.458 330.032 250.475 332.166 291.196C332.91 337.789 329.991 355.604 322.492 366.508C319.42 370.976 314.28 373.749 309.28 370.773C304.28 367.786 302.492 362.471 304.098 352.664C305.705 342.858 310.202 324.098 308.278 305.154C306.354 286.201 302.846 261.301 300.877 256.614C300.877 256.614 299.452 277.493 300.341 309.013C301.231 340.532 304.089 368.436 303.735 370.352C303.381 372.268 299.452 380.147 292.129 379.087C284.806 378.026 283.2 372.268 280.877 360.134C278.553 347.99 273.145 311.978 271.947 291.759C269.388 248.55 273.891 235.58 276.663 223.53C277.388 220.376 281.084 217.025 281.084 217.025V213.727L315.344 214.766V217.992C315.344 217.992 317.235 220.301 318.038 222.097Z" fill="#253650" stroke="#253650" stroke-miterlimit="10" stroke-linecap="round" stroke-linejoin="round"/>
<path d="M300.744 218.235V237.404" stroke="white" stroke-miterlimit="10" stroke-linecap="round" stroke-linejoin="round"/>
<path d="M281.362 217.692L315.162 218.802" stroke="white" stroke-linecap="round" stroke-linejoin="round"/>
<path d="M309.53 218.785C309.53 218.785 310.564 243.637 324.875 242.522" stroke="white" stroke-miterlimit="10" stroke-linecap="round" stroke-linejoin="round"/>
<path d="M287.497 218.235C287.497 218.235 286.472 243.086 272.284 241.971" stroke="white" stroke-miterlimit="10" stroke-linecap="round" stroke-linejoin="round"/>
<path d="M288.663 315.439C288.663 315.439 292.075 315.439 295.079 306.813" stroke="white" stroke-miterlimit="10" stroke-linecap="round" stroke-linejoin="round"/>
<path d="M307.213 299.883C307.213 299.883 308.248 308.023 311.932 311.93" stroke="white" stroke-miterlimit="10" stroke-linecap="round" stroke-linejoin="round"/>
<path d="M291.674 150.907H305.644V161.558C306.948 161.812 308.366 162.099 309.828 162.413C309.828 162.413 307.421 170.809 299.08 170.809C290.74 170.809 287.195 162.274 287.195 162.274C288.553 162.036 290.057 161.809 291.674 161.621V150.907Z" fill="white"/>
<path d="M343.42 257.803C341.928 254.112 340.397 238.278 338.5 225.701C336.865 214.869 334.9 204.231 333.882 196.513H318.276L336.879 258.923C337.655 261.023 338.958 265.706 339.505 267.35C340.85 271.391 341.675 273.868 342.816 273.868C343.395 273.868 343.28 272.805 343.162 271.721C343.05 270.687 342.935 269.632 343.42 269.464C344.093 269.226 345.352 270.393 347.051 271.97L347.051 271.97C347.861 272.722 348.772 273.566 349.766 274.396C352.848 276.965 353.819 275.29 353.819 275.29C353.819 275.29 355.057 276.33 355.99 276.009C356.873 275.704 356.183 274.854 354.159 272.361L354.159 272.361C353.134 271.097 351.766 269.412 350.088 267.163C348.306 264.77 343.42 257.803 343.42 257.803Z" fill="white"/>
<path d="M257.194 210.545C255.367 224.896 265.197 226.203 267.491 222.648C269.535 220.912 272.157 207.931 274.031 197.1H260.117C259.241 202.021 257.668 206.805 257.194 210.545Z" fill="white"/>
<path d="M291.674 150.907H305.644V161.558C306.948 161.812 308.366 162.099 309.828 162.413C309.828 162.413 307.421 170.809 299.08 170.809C290.74 170.809 287.195 162.274 287.195 162.274C288.553 162.036 290.057 161.809 291.674 161.621V150.907Z" stroke="#253650" stroke-miterlimit="10" stroke-linecap="round" stroke-linejoin="round"/>
<path d="M343.42 257.803C341.928 254.112 340.397 238.278 338.5 225.701C336.865 214.869 334.9 204.231 333.882 196.513H318.276L336.879 258.923C337.655 261.023 338.958 265.706 339.505 267.35C340.85 271.391 341.675 273.868 342.816 273.868C343.395 273.868 343.28 272.805 343.162 271.721C343.05 270.687 342.935 269.632 343.42 269.464C344.093 269.226 345.352 270.393 347.051 271.97L347.051 271.97C347.861 272.722 348.772 273.566 349.766 274.396C352.848 276.965 353.819 275.29 353.819 275.29C353.819 275.29 355.057 276.33 355.99 276.009C356.873 275.704 356.183 274.854 354.159 272.361L354.159 272.361C353.134 271.097 351.766 269.412 350.088 267.163C348.306 264.77 343.42 257.803 343.42 257.803Z" stroke="#253650" stroke-miterlimit="10" stroke-linecap="round" stroke-linejoin="round"/>
<path d="M257.194 210.545C255.367 224.896 265.197 226.203 267.491 222.648C269.535 220.912 272.157 207.931 274.031 197.1H260.117C259.241 202.021 257.668 206.805 257.194 210.545Z" stroke="#253650" stroke-miterlimit="10" stroke-linecap="round" stroke-linejoin="round"/>
<path d="M291.677 150.907H305.647V152.856C302.052 157.893 294.836 158.234 291.677 157.775V150.907Z" fill="#253650" stroke="#253650" stroke-miterlimit="10" stroke-linecap="round" stroke-linejoin="round"/>
<path d="M298.294 116.41C314.914 116.621 312.593 132.748 312.593 132.748C312.593 132.748 315.811 131.529 315.743 134.771C315.675 138.763 312.501 140.341 312.501 140.341C309.759 149.85 306.153 154.382 298.301 154.584C290.24 154.791 285.093 149.85 283.351 140.341C283.351 140.341 280.927 138.769 280.859 134.771C280.792 131.523 284.009 132.748 284.009 132.748C284.009 132.748 281.688 116.621 298.308 116.41H298.294Z" fill="white" stroke="#253650" stroke-miterlimit="10" stroke-linecap="round" stroke-linejoin="round"/>
<path d="M313.422 133.983C313.422 133.983 314.317 133.983 314.317 135.578" stroke="#253650" stroke-miterlimit="10" stroke-linecap="round" stroke-linejoin="round"/>
<path d="M283.342 133.983C283.342 133.983 282.446 133.983 282.446 135.578" stroke="#253650" stroke-miterlimit="10" stroke-linecap="round" stroke-linejoin="round"/>
<path d="M297.179 132.492C297.325 133.146 297.341 135.372 297.341 135.372C296.61 135.535 294.993 136.341 295.255 137.464C295.54 138.683 297.616 138.031 298.412 138.013" stroke="#253650" stroke-miterlimit="10" stroke-linecap="round" stroke-linejoin="round"/>
<path d="M301.55 139.154C301.55 139.154 300.577 142.571 296.945 141.68" stroke="#253650" stroke-miterlimit="10" stroke-linecap="round" stroke-linejoin="round"/>
<path d="M302.469 132.067C302.517 131.155 302.133 130.394 301.611 130.367C301.089 130.34 300.627 131.056 300.579 131.967C300.531 132.879 300.915 133.64 301.437 133.667C301.959 133.695 302.421 132.978 302.469 132.067Z" fill="#253650"/>
<path d="M294.422 132.141C294.47 131.23 294.086 130.469 293.564 130.441C293.042 130.414 292.58 131.13 292.532 132.042C292.484 132.953 292.868 133.714 293.39 133.741C293.912 133.769 294.374 133.052 294.422 132.141Z" fill="#253650"/>
<path d="M307.25 166.649H298.892C297.235 166.649 295.892 167.992 295.892 169.649V187.359C295.892 189.016 297.235 190.359 298.892 190.359H307.25C308.907 190.359 310.25 189.016 310.25 187.359V169.649C310.25 167.992 308.907 166.649 307.25 166.649Z" fill="#DD0707"/>
<path d="M267.376 222.839C267.376 222.839 289.282 189.779 291.291 189.134C293.301 188.49 300.34 185.699 300.81 185.259C301.28 184.819 304.481 185.373 306.051 185.502C307.62 185.631 309.714 184.562 308.402 184.152C307.09 183.743 301.189 182.468 301.189 182.468L299.513 182.256C299.513 182.256 303.669 181.854 306.43 181.581C309.19 181.308 308.402 179.7 308.402 179.7C310.874 179.283 309.941 177.812 309.266 177.766C308.591 177.721 307.385 177.508 307.385 177.508C307.385 177.508 308.318 177.266 307.658 176.477C306.999 175.688 298.102 176.174 296.055 177.031C294.007 177.888 287.744 183.174 287.744 183.174L264.988 204.596" fill="white"/>
<path d="M267.376 222.839C267.376 222.839 289.282 189.779 291.291 189.134C293.301 188.49 300.34 185.699 300.81 185.259C301.28 184.819 304.481 185.373 306.051 185.502C307.62 185.631 309.714 184.562 308.402 184.152C307.09 183.743 301.189 182.468 301.189 182.468L299.513 182.256C299.513 182.256 303.669 181.854 306.43 181.581C309.19 181.308 308.402 179.7 308.402 179.7C310.874 179.283 309.941 177.812 309.266 177.766C308.591 177.721 307.385 177.508 307.385 177.508C307.385 177.508 308.318 177.266 307.658 176.477C306.999 175.688 298.102 176.174 296.055 177.031C294.007 177.888 287.744 183.174 287.744 183.174L264.988 204.596" stroke="#253650" stroke-miterlimit="10" stroke-linecap="round" stroke-linejoin="round"/>
<path d="M301.423 178.066L307.755 177.566" stroke="#253650" stroke-miterlimit="10" stroke-linecap="round" stroke-linejoin="round"/>
<path d="M301.569 180.153L308.774 179.759" stroke="#253650" stroke-miterlimit="10" stroke-linecap="round" stroke-linejoin="round"/>
<path d="M290.748 116.875C290.748 116.875 295.489 126.148 307.951 124.634C307.951 124.634 307.819 129.309 312.461 132.825C312.461 132.825 313.773 123.523 309.632 119.552C305.492 115.581 294.767 113.325 290.742 116.875H290.748Z" fill="#253650" stroke="#253650" stroke-miterlimit="10" stroke-linecap="round" stroke-linejoin="round"/>
<path d="M293.447 117.824C293.447 117.824 292.918 128.068 284.269 132.759C284.269 132.759 280.666 118.469 293.447 117.824Z" fill="#253650" stroke="#253650" stroke-miterlimit="10" stroke-linecap="round" stroke-linejoin="round"/>
<path d="M353.914 275.358L347.247 267.239" stroke="#253650" stroke-miterlimit="10" stroke-linecap="round" stroke-linejoin="round"/>
<path d="M274.034 195.083C271.161 211.47 276.277 253.715 308.31 293.857C340.343 333.999 376.735 338.29 390.926 335.418" stroke="#657A99" stroke-miterlimit="10" stroke-linecap="round" stroke-linejoin="round"/>
<path d="M279.205 190.933C279.339 194.709 280.486 202.342 284.005 202.663C287.525 202.984 288.405 196.398 288.405 193.065" stroke="#657A99" stroke-miterlimit="10" stroke-linecap="round" stroke-linejoin="round"/>
<path d="M285.63 185.205C288.648 185.016 294.939 183.084 295.957 176.86" stroke="#657A99" stroke-miterlimit="10" stroke-linecap="round" stroke-linejoin="round"/>
<circle cx="224.372" cy="179.581" r="0.866211" fill="white"/>
<circle cx="226.517" cy="179.581" r="0.418945" fill="white"/>
</g>
<defs>
<linearGradient id="paint0_linear_483_44486" x1="476.669" y1="38.6912" x2="185.619" y2="335.824" gradientUnits="userSpaceOnUse">
<stop stop-color="#FF8D8D"/>
<stop offset="1" stop-color="#BA2020"/>
</linearGradient>
<linearGradient id="paint1_linear_483_44486" x1="148.623" y1="246.618" x2="146.638" y2="432.194" gradientUnits="userSpaceOnUse">
<stop stop-color="white"/>
<stop offset="1" stop-color="#F2F8FF"/>
</linearGradient>
<clipPath id="clip0_483_44486">
<rect width="720" height="428" fill="white" transform="translate(0 0.945312)"/>
</clipPath>
</defs>
</svg>
