<svg width="720" height="360" viewBox="0 0 720 360" fill="none" xmlns="http://www.w3.org/2000/svg">
<g clip-path="url(#clip0_483_43695)">
<path d="M22.8291 179.562C22.8291 181.032 23.8596 182.231 25.1266 182.231C26.3936 182.231 27.424 181.04 27.424 179.562C27.424 178.084 26.3936 176.901 25.1266 176.901C23.8596 176.901 22.8291 178.092 22.8291 179.562Z" fill="white"/>
<path d="M51.2275 191.452C51.2275 192.93 52.2665 194.138 53.5419 194.138C54.8173 194.138 55.8563 192.93 55.8563 191.452C55.8563 189.974 54.8173 188.766 53.5419 188.766C52.2665 188.766 51.2275 189.965 51.2275 191.452Z" fill="#C7E0FF"/>
<path d="M78.1045 202.12C78.1045 203.987 79.4053 205.508 81.0186 205.508C82.6319 205.508 83.9326 203.987 83.9326 202.12C83.9326 200.254 82.6234 198.733 81.0186 198.733C79.4137 198.733 78.1045 200.245 78.1045 202.12Z" fill="white"/>
<path d="M30.2197 119.54C30.2197 120.858 31.1404 121.922 32.2722 121.922C33.4041 121.922 34.3248 120.858 34.3248 119.54C34.3248 118.222 33.4041 117.158 32.2722 117.158C31.1404 117.158 30.2197 118.222 30.2197 119.54Z" fill="#C7E0FF"/>
<path d="M62.5771 122.978C62.5771 124.372 63.5485 125.503 64.7479 125.503C65.9473 125.503 66.9187 124.372 66.9187 122.978C66.9187 121.584 65.9473 120.461 64.7479 120.461C63.5485 120.461 62.5771 121.593 62.5771 122.978Z" fill="white"/>
<path d="M71.1426 113.956C71.1426 115.359 72.1224 116.499 73.3302 116.499C74.5381 116.499 75.5179 115.359 75.5179 113.956C75.5179 112.554 74.5381 111.414 73.3302 111.414C72.1224 111.414 71.1426 112.554 71.1426 113.956Z" fill="#C7E0FF"/>
<path d="M175.908 150.548C175.908 152.525 177.285 154.129 178.991 154.129C180.697 154.129 182.074 152.525 182.074 150.548C182.074 148.572 180.689 146.967 178.991 146.967C177.293 146.967 175.908 148.572 175.908 150.548Z" fill="white"/>
<path d="M83.9346 157.183C83.9346 158.872 85.1171 160.249 86.5783 160.249C88.0396 160.249 89.2221 158.872 89.2221 157.183C89.2221 155.494 88.0396 154.117 86.5783 154.117C85.1171 154.117 83.9346 155.494 83.9346 157.183Z" fill="#CFE4FF"/>
<path d="M107.338 111.505C107.338 112.882 108.301 114.005 109.492 114.005C110.683 114.005 111.646 112.882 111.646 111.505C111.646 110.128 110.683 109.005 109.492 109.005C108.301 109.005 107.338 110.12 107.338 111.505Z" fill="#C7E0FF"/>
<path d="M135.753 114.944C135.753 115.983 136.479 116.828 137.375 116.828C138.27 116.828 138.996 115.983 138.996 114.944C138.996 113.905 138.27 113.06 137.375 113.06C136.479 113.06 135.753 113.905 135.753 114.944Z" fill="white"/>
<path d="M143.378 110.012C143.378 111.625 144.51 112.943 145.903 112.943C147.297 112.943 148.429 111.634 148.429 110.012C148.429 108.39 147.297 107.081 145.903 107.081C144.51 107.081 143.378 108.39 143.378 110.012Z" fill="#A5CEFF"/>
<path d="M91.002 30.3925C91.002 31.6426 91.8719 32.6562 92.9531 32.6562C94.0343 32.6562 94.9043 31.6426 94.9043 30.3925C94.9043 29.1424 94.0343 28.1288 92.9531 28.1288C91.8719 28.1288 91.002 29.1424 91.002 30.3925Z" fill="white"/>
<path d="M174.234 113.482C174.234 114.554 174.978 115.424 175.907 115.424C176.836 115.424 177.579 114.554 177.579 113.482C177.579 112.409 176.827 111.539 175.907 111.539C174.986 111.539 174.234 112.409 174.234 113.482Z" fill="#A5CEFF"/>
<path d="M206.608 115.441C206.608 117.426 207.994 119.039 209.708 119.039C211.423 119.039 212.808 117.426 212.808 115.441C212.808 113.456 211.423 111.843 209.708 111.843C207.994 111.843 206.608 113.456 206.608 115.441Z" fill="#CFE4FF"/>
<path d="M173.861 50.7746C173.861 52.4893 175.061 53.8745 176.53 53.8745C178 53.8745 179.2 52.4809 179.2 50.7746C179.2 49.0684 178 47.6747 176.53 47.6747C175.061 47.6747 173.861 49.06 173.861 50.7746Z" fill="#CFE4FF"/>
<path d="M214.751 32.1432C214.751 33.4017 215.629 34.4153 216.711 34.4153C217.792 34.4153 218.67 33.3932 218.67 32.1432C218.67 30.8931 217.792 29.871 216.711 29.871C215.629 29.871 214.751 30.8931 214.751 32.1432Z" fill="#C7E0FF"/>
<path d="M194.192 1.30316C194.192 2.33364 194.91 3.16985 195.797 3.16985C196.684 3.16985 197.402 2.33364 197.402 1.30316C197.402 0.272674 196.684 -0.563538 195.797 -0.563538C194.91 -0.563538 194.192 0.272674 194.192 1.30316Z" fill="white"/>
<path d="M194.843 80.4796C194.843 82.1267 195.991 83.4613 197.411 83.4613C198.83 83.4613 199.978 82.1267 199.978 80.4796C199.978 78.8325 198.83 77.498 197.411 77.498C195.991 77.498 194.843 78.8325 194.843 80.4796Z" fill="white"/>
<path d="M223.47 66.4192C223.47 67.4919 224.221 68.3619 225.142 68.3619C226.063 68.3619 226.815 67.4919 226.815 66.4192C226.815 65.3465 226.063 64.4765 225.142 64.4765C224.221 64.4765 223.47 65.3465 223.47 66.4192Z" fill="#A5CEFF"/>
<path d="M267.063 83.4622C267.063 84.5349 267.815 85.4049 268.736 85.4049C269.657 85.4049 270.408 84.5349 270.408 83.4622C270.408 82.3895 269.657 81.5195 268.736 81.5195C267.815 81.5195 267.063 82.3895 267.063 83.4622Z" fill="#A5CEFF"/>
<path d="M263.72 133.282C263.72 134.355 264.471 135.225 265.392 135.225C266.313 135.225 267.065 134.355 267.065 133.282C267.065 132.21 266.313 131.34 265.392 131.34C264.471 131.34 263.72 132.21 263.72 133.282Z" fill="#A5CEFF"/>
<path d="M356.657 54.052C356.657 55.1247 357.409 55.9947 358.33 55.9947C359.25 55.9947 360.002 55.1247 360.002 54.052C360.002 52.9793 359.25 52.1093 358.33 52.1093C357.409 52.1093 356.657 52.9793 356.657 54.052Z" fill="#A5CEFF"/>
<path d="M335.375 172.14C335.375 173.213 336.127 174.083 337.047 174.083C337.968 174.083 338.72 173.213 338.72 172.14C338.72 171.067 337.968 170.197 337.047 170.197C336.127 170.197 335.375 171.067 335.375 172.14Z" fill="#A5CEFF"/>
<path d="M218.898 46.3823C218.898 48.1139 220.106 49.5244 221.601 49.5244C223.096 49.5244 224.304 48.1139 224.304 46.3823C224.304 44.6508 223.096 43.2402 221.601 43.2402C220.106 43.2402 218.898 44.6423 218.898 46.3823Z" fill="white"/>
<path d="M463.556 174.596L460.565 175.618C460.565 175.618 461.638 176.353 461.917 180.196C462.196 184.031 462.289 188.043 464.932 189.918L470 187.502C470 187.502 467.441 186.294 466.486 182.502C465.532 178.718 465.684 177.324 463.572 174.596H463.556Z" fill="#A5CEFF"/>
<path d="M442.212 42.3203L447.255 41.0026C447.255 41.0026 445.565 39.9637 445.489 34.7015C445.422 29.4392 445.684 23.949 441.52 21.3221L432.921 24.4811C432.921 24.4811 437.018 26.1958 438.208 31.4157C439.399 36.6273 439.011 38.5278 442.204 42.3203H442.212Z" fill="#C7E0FF"/>
<path d="M43.3725 126.508L40.999 126.981C40.999 126.981 41.7677 127.513 41.7254 129.962C41.6748 132.404 41.4636 134.954 43.3725 136.289L47.4353 135.056C47.4353 135.056 45.5517 134.144 45.0787 131.686C44.6057 129.228 44.8169 128.358 43.381 126.508H43.3725Z" fill="white"/>
<path d="M39.9839 190.053L42.9486 187.46C42.9486 187.46 41.31 187.316 38.9956 183.752C36.6813 180.187 34.4936 176.344 30.4392 175.947L25.7852 180.99C25.7852 180.99 29.4003 180.787 32.4833 183.946C35.5663 187.105 36.1153 188.541 39.9923 190.053H39.9839Z" fill="#CFE4FF"/>
<path d="M74.2279 92.3935C77.522 92.309 80.6388 93.2382 83.139 95.4174C84.2709 96.4056 85.1155 97.6642 85.749 99.0156C86.1038 99.7674 86.3234 100.578 86.4923 101.389C86.5176 101.533 86.543 101.668 86.5683 101.811C87.016 105.275 87.0329 102.352 86.6275 93.0439C86.5852 93.5084 86.4923 93.973 86.3994 94.4291C86.0362 96.2705 86.3403 98.4919 86.3403 100.35C86.3403 101.744 86.3403 103.146 86.3572 104.54C86.3572 104.979 86.4923 105.815 86.3994 106.271C87.2272 102.124 86.7795 97.6135 86.7372 93.424C86.7119 90.9407 86.543 88.677 85.3858 86.4386C83.2657 82.3336 78.6539 80.4416 74.2194 80.5514C74.0336 80.5514 74.2279 92.3935 74.2194 92.3935H74.2279Z" fill="white"/>
<path d="M74.4727 231.744C74.2278 233.645 74.3207 235.596 74.3122 237.513C74.3122 240.267 74.118 243.105 74.4389 245.85C74.7177 248.156 76.7026 249.575 78.5862 250.589C80.681 251.712 82.9615 252.354 84.7522 253.984C85.4871 254.66 86.0023 255.521 86.3655 256.442C86.5429 256.89 86.6527 257.363 86.7456 257.836C86.8216 258.191 86.9652 260.606 86.9483 259.12C86.9483 258.993 86.9483 260.851 86.9906 260.851C87.0328 260.851 87.0328 258.993 87.0328 259.12C87.0581 256.332 87.0581 253.537 87.0328 250.741C86.9906 246.686 86.7625 243.139 83.0122 240.858C81.2469 239.785 79.2535 239.186 77.4797 238.113C76.7111 237.648 76.0353 237.066 75.461 236.373C75.1484 236.001 74.9288 235.562 74.7346 235.115C74.6416 234.878 74.5656 234.633 74.5065 234.388C73.8561 230.857 73.8392 233.924 74.4643 243.586C74.7092 241.661 74.5234 239.6 74.5234 237.665C74.5234 235.731 74.2278 233.628 74.4643 231.744H74.4727Z" fill="#C7E0FF"/>
<path d="M592.022 134.888C586.337 135.082 582.629 130.808 579.639 126.525C579.741 126.677 579.597 128.181 579.597 128.24C579.58 129.617 579.58 131.002 579.58 132.379C579.58 133.756 579.58 135.141 579.597 136.518C579.597 136.661 579.487 138.013 579.639 138.232C582.629 142.523 586.337 146.797 592.022 146.594C592.241 146.594 591.98 134.888 592.022 134.888Z" fill="#CFE4FF"/>
<path d="M53.0599 91.9715C47.3754 92.1658 43.6673 87.8918 40.6773 83.6094C40.7786 83.7614 40.635 85.2649 40.635 85.324C40.6181 86.7008 40.6181 88.0861 40.6181 89.4629C40.6181 90.8396 40.6181 92.2249 40.635 93.6017C40.635 93.7453 40.5252 95.0967 40.6773 95.3163C43.6673 99.6072 47.3754 103.881 53.0599 103.678C53.2796 103.678 53.0177 91.9715 53.0599 91.9715Z" fill="#CFE4FF"/>
<path d="M628.956 93.7769C631.82 96.3447 635.19 99.149 635.283 103.347C635.274 102.941 635.3 104.749 635.325 103.938C635.359 103.043 635.359 102.148 635.359 101.244C635.376 98.5746 635.392 95.897 635.333 93.2364C635.283 90.8882 634.928 88.8357 633.627 86.8423C632.411 84.984 630.586 83.5312 628.948 82.0615C629.015 82.1206 628.906 83.8269 628.906 83.7762C628.889 85.153 628.889 86.5382 628.889 87.915C628.889 89.2918 628.889 90.677 628.906 92.0538C628.906 92.0707 628.821 93.6502 628.948 93.7685L628.956 93.7769Z" fill="#A5CEFF"/>
<path d="M581.929 288.523C585.417 286.901 589.328 284.907 593.222 286.47C592.842 286.318 594.514 287.011 593.779 286.664C592.969 286.284 592.141 285.93 591.322 285.575C588.872 284.51 586.423 283.438 583.948 282.441C581.768 281.563 579.741 281.081 577.402 281.495C575.214 281.884 573.161 282.99 571.168 283.911C571.252 283.869 572.773 284.646 572.731 284.629C573.998 285.186 575.265 285.727 576.532 286.276C577.799 286.816 579.074 287.357 580.341 287.889C580.358 287.889 581.777 288.599 581.937 288.523H581.929Z" fill="#A5CEFF"/>
<path d="M143.489 260.861C146.353 263.429 149.723 266.233 149.816 270.431C149.807 270.025 149.833 271.833 149.858 271.022C149.892 270.127 149.892 269.231 149.892 268.328C149.909 265.659 149.926 262.981 149.867 260.32C149.816 257.972 149.461 255.92 148.16 253.926C146.944 252.068 145.12 250.615 143.481 249.146C143.549 249.205 143.439 250.911 143.439 250.86C143.422 252.237 143.422 253.622 143.422 254.999C143.422 256.376 143.422 257.761 143.439 259.138C143.439 259.155 143.354 260.734 143.481 260.852L143.489 260.861Z" fill="#CFE4FF"/>
<path d="M610.351 186.608C611.812 184.336 613.273 182.064 614.684 179.758C614.794 179.589 614.878 179.412 614.954 179.251C614.954 179.251 614.963 179.243 614.963 179.234C614.963 179.234 614.963 179.234 614.963 179.243C615.689 177.655 615.165 176.312 614.236 174.707C612.91 172.409 611.128 170.365 609.464 168.313C607.808 166.269 605.806 163.963 604.911 161.463C606.541 161.074 608.231 160.922 609.591 160.838C613.349 160.593 617.142 160.981 620.858 161.479C620.96 161.496 621.863 159.976 621.821 160.035C622.581 158.861 623.333 157.687 624.085 156.513C624.837 155.339 625.58 154.156 626.323 152.974C626.264 153.067 627.193 151.487 627.219 151.487C622.235 150.82 617.049 150.33 612.082 151.344C609.751 151.817 607.437 152.796 605.899 154.68C603.914 157.121 602.377 160.035 600.705 162.696C599.767 164.191 598.72 165.627 598.314 167.367C597.25 171.894 600.722 175.366 603.332 178.592C603.669 179.015 604.016 179.437 604.354 179.859C603.737 179.733 603.12 179.606 602.512 179.471C600.485 179.04 598.433 178.482 596.363 178.339C594.91 178.238 593.348 178.508 591.988 179.015C590.265 179.665 589.42 181.532 588.483 182.976C587.182 184.986 585.898 187.005 584.639 189.032C584.225 189.691 583.778 190.341 583.491 191.068C583.026 192.234 583.44 193.627 583.871 194.725C585.062 197.825 587.562 200.021 589.64 202.505C590.307 203.299 590.898 204.185 591.16 205.131C589.277 207.944 587.798 211.061 585.771 213.747C587.249 211.787 589.2 210.199 590.611 208.198C592.892 204.971 594.986 201.567 597.014 198.171C597.478 197.394 597.765 196.643 597.681 195.722C597.419 192.951 594.26 190.764 592.664 188.754C592.613 188.694 592.562 188.627 592.52 188.568C594.809 188.982 597.047 189.657 598.711 189.97C601.186 190.443 603.847 190.924 606.356 190.485C607.175 190.341 607.96 190.004 608.509 189.353C609.219 188.525 609.759 187.503 610.351 186.6V186.608Z" fill="#A5CEFF"/>
<path d="M604.363 179.86C603.857 179.758 603.358 179.648 602.86 179.547C606.585 181.177 611.019 180.958 614.862 179.454C614.896 179.387 614.93 179.319 614.964 179.26V179.243C614.964 179.243 614.964 179.243 614.964 179.251C615.69 177.663 615.166 176.32 614.237 174.716C612.911 172.418 611.129 170.374 609.465 168.322C607.81 166.277 605.808 163.971 604.912 161.471C604.912 161.463 604.904 161.446 604.895 161.438C604.313 159.917 604.076 158.38 604.287 156.91C603.02 158.794 601.897 160.812 600.714 162.705C599.777 164.2 598.729 165.635 598.324 167.375C597.26 171.903 600.731 175.374 603.341 178.601C603.679 179.023 604.025 179.446 604.363 179.868V179.86Z" fill="#C7E0FF"/>
<path d="M591.009 205.393C592.074 204.405 593.07 203.341 594.109 202.31C594.869 201.238 595.613 200.157 596.331 199.042C596.508 198.771 596.702 198.543 596.914 198.349C596.947 198.29 596.981 198.239 597.015 198.18C597.479 197.403 597.767 196.651 597.682 195.731C597.42 192.96 594.261 190.772 592.665 188.762C592.614 188.703 592.564 188.635 592.521 188.576C592.69 188.61 592.868 188.644 593.037 188.678C592.817 188.441 592.606 188.196 592.412 187.934C590.308 185.088 590.182 181.667 592.15 178.964C592.099 178.981 592.048 178.998 591.998 179.015C590.275 179.665 589.43 181.532 588.492 182.976C587.192 184.986 585.908 187.005 584.649 189.032C584.235 189.691 583.788 190.342 583.5 191.068C583.036 192.234 583.45 193.627 583.88 194.725C585.071 197.825 587.572 200.021 589.649 202.505C590.317 203.299 590.908 204.186 591.17 205.132C591.119 205.216 591.06 205.292 591.009 205.377V205.393Z" fill="#C7E0FF"/>
<path d="M136.316 139.167C137.642 139.969 138.842 140.957 139.746 142.233H139.754C141.933 145.299 144.045 148.433 146.08 151.592C147.871 154.362 148.724 157.335 148.42 160.663C148.125 163.898 147.001 166.762 145.928 169.794C145.793 170.157 145.658 170.546 145.531 170.934C145.954 170.917 146.368 170.892 146.765 170.867C149.957 170.689 153.142 171.517 155.583 173.705C156.368 174.414 157.036 175.217 157.661 176.07L161.217 181.214L158.539 181.391C158.514 181.383 158.48 181.366 158.455 181.357C156.022 180.496 153.885 180.783 151.377 180.791C149.282 180.808 147.052 180.521 145.692 178.731C143.623 176.002 141.781 173.071 139.898 170.208C139.137 169.051 138.208 167.86 138.09 166.424C137.879 163.898 138.766 161.44 139.636 159.109C140.827 155.925 142.085 152.09 141.925 148.475C139.45 147.318 136.587 146.929 133.884 147.267C129.99 147.748 125.437 149.252 121.737 147.174C119.617 145.983 118.435 144.116 117.092 142.148C116.957 141.937 116.813 141.734 116.669 141.523C115.588 139.935 114.355 138.466 113.266 136.886C112.818 136.244 112.387 135.619 112.007 134.935C110.191 131.666 109.507 127.612 110.267 123.946C110.47 122.966 110.748 121.961 111.112 121.023C111.095 121.083 112.167 122.51 112.117 122.442C112.902 123.591 113.688 124.748 114.465 125.906L114.465 125.906C115.242 127.063 116.019 128.22 116.788 129.386C116.771 129.36 117.768 130.712 117.717 130.847C116.855 133.068 116.433 135.535 116.593 137.942C116.686 137.976 116.779 138.001 116.872 138.026C120.04 138.795 123.156 137.993 126.307 137.553C129.762 137.072 133.25 137.308 136.316 139.167Z" fill="#A5CEFF"/>
<path d="M158.455 181.356C158.455 181.356 158.514 181.382 158.54 181.39C158.54 181.399 158.54 181.407 158.54 181.416C160.609 181.753 162.493 183.417 163.962 185.301C163.194 183.882 162.18 182.522 161.217 181.213L157.661 176.069C157.036 175.216 156.369 174.413 155.583 173.704C153.142 171.516 149.958 170.688 146.765 170.866C146.368 170.891 145.954 170.916 145.532 170.933C145.549 170.883 145.566 170.832 145.583 170.781C144.299 170.959 143.074 170.815 141.807 170.165C140.76 169.818 139.754 169.286 138.851 168.568C139.172 169.126 139.552 169.666 139.898 170.19C141.782 173.053 143.623 175.984 145.692 178.713C147.052 180.503 149.282 180.791 151.377 180.774C153.886 180.765 156.022 180.478 158.455 181.34V181.356Z" fill="#C7E0FF"/>
<path d="M141.408 146.167C141.146 145.027 141.019 144.647 140.614 143.473C140.326 143.059 140.039 142.645 139.752 142.24C138.848 140.964 137.649 139.976 136.323 139.174C133.257 137.315 129.768 137.079 126.313 137.56C123.163 138 120.046 138.802 116.879 138.033C116.786 138.008 116.693 137.983 116.6 137.949C116.6 137.898 116.6 137.839 116.6 137.78C116.591 137.78 116.575 137.78 116.566 137.78C114.666 137.29 113.204 136.302 112.056 135.026C112.495 135.795 114.032 137.966 116.667 141.53C116.811 141.741 116.955 141.944 117.09 142.155C118.433 144.123 119.615 145.99 121.735 147.181C125.435 149.259 129.988 147.755 133.882 147.274C136.542 146.944 139.363 147.316 141.805 148.431C141.805 147.941 141.585 146.75 141.408 146.176V146.167Z" fill="#C7E0FF"/>
<path d="M631.088 16.0273C631.527 14.5323 631.569 12.9781 631.383 11.4324C630.953 7.87639 628.985 4.9792 626.476 2.56348C624.178 0.358921 621.628 -1.59224 620.285 -4.56543C620.242 -4.65835 620.209 -4.74281 620.175 -4.83572C621.965 -6.44902 624.17 -7.64 626.451 -8.33262C626.586 -8.37485 627.033 -9.99659 627.025 -9.97125C627.464 -11.2974 627.903 -12.6235 628.334 -13.9496C628.765 -15.2757 629.187 -16.6103 629.61 -17.9364C629.584 -17.8604 630.04 -19.5835 630.1 -19.6004C629.137 -19.3047 628.174 -18.9077 627.278 -18.4601C623.925 -16.7961 621.155 -13.7469 619.71 -10.3091C619.406 -9.59115 619.178 -8.86475 618.95 -8.113C618.384 -6.28009 617.987 -4.3965 617.404 -2.57204C617.328 -2.33554 617.252 -2.09058 617.176 -1.85408C616.458 0.418051 615.723 2.50436 616.095 4.90319C616.745 9.09269 620.732 11.7534 623.528 14.5154C625.462 16.4328 626.932 18.9245 627.54 21.5852C624.795 23.9418 621.003 25.3186 617.759 26.3491C615.386 27.1008 612.911 27.9201 611.052 29.6517C609.997 30.6399 609.633 32.0927 609.194 33.4189C608.105 36.6708 606.939 39.9227 606.069 43.2422C605.495 45.413 606.652 47.3473 607.953 48.9944C609.507 50.9624 611.052 52.4659 611.88 54.9154C611.889 54.9408 611.897 54.9745 611.906 54.9999C611.492 55.2279 611.052 55.4391 610.613 55.6334C609.448 56.1402 608.231 56.8159 606.956 56.8412C606.576 56.8412 605.199 62.0697 605.072 62.4582C604.962 62.7876 603.087 67.9907 603.307 68.109L603.881 68.0499C605.098 67.8556 606.297 67.1799 607.412 66.6984C609.101 65.972 610.444 64.781 611.39 63.2184C612.497 61.394 613.105 59.1303 613.696 56.9848L615.546 51.0131C615.833 49.9995 616.053 48.969 616.12 47.9132C616.332 44.6444 615.022 41.6289 612.902 39.2301C612.64 38.9345 612.362 38.622 612.091 38.301C612.48 38.1658 612.868 38.0307 613.24 37.904C616.281 36.8735 619.237 35.9951 621.965 34.2297C624.77 32.4137 626.577 29.9051 627.658 26.7883C628.883 23.2323 630.049 19.6425 631.113 16.0358L631.088 16.0273Z" fill="#85BCFF"/>
<path d="M611.865 54.89C611.865 54.89 611.882 54.9491 611.89 54.9744C611.89 54.9744 611.873 54.9744 611.865 54.9913C612.878 56.8242 612.726 59.3329 612.16 61.6557C612.802 60.1775 613.25 58.5389 613.681 56.9678L615.531 50.9961C615.818 49.9825 616.037 48.952 616.105 47.8962C616.316 44.6274 615.007 41.6119 612.887 39.2131C612.625 38.9175 612.346 38.6049 612.076 38.284C612.127 38.2671 612.177 38.2502 612.228 38.2333C611.29 37.3295 610.657 36.2821 610.378 34.88C609.998 33.8411 609.804 32.7261 609.812 31.5774C609.567 32.1771 609.381 32.8106 609.179 33.4103C608.089 36.6622 606.923 39.9142 606.053 43.2337C605.479 45.4044 606.636 47.3387 607.937 48.9858C609.491 50.9538 611.037 52.4573 611.865 54.9069V54.89Z" fill="#C7E0FF"/>
<path d="M629.017 19.7621C629.752 18.8498 629.971 18.512 630.647 17.473C630.791 16.9916 630.943 16.5101 631.086 16.0287C631.525 14.5336 631.568 12.9794 631.382 11.4337C630.951 7.87771 628.983 4.98053 626.474 2.5648C624.177 0.360244 621.626 -1.59091 620.283 -4.56411C620.241 -4.65702 620.207 -4.74149 620.173 -4.8344C620.216 -4.86819 620.258 -4.90198 620.3 -4.94421C620.3 -4.95266 620.292 -4.96955 620.283 -4.978C619.498 -6.77712 619.362 -8.53401 619.667 -10.2233C619.337 -9.40401 618.577 -6.85314 617.394 -2.57916C617.318 -2.34266 617.242 -2.09771 617.166 -1.86121C616.448 0.410925 615.713 2.49723 616.085 4.89606C616.736 9.08557 620.722 11.7462 623.518 14.5083C625.427 16.3919 626.871 18.8414 627.496 21.4598C627.885 21.1642 628.687 20.252 629.025 19.7621H629.017Z" fill="#C7E0FF"/>
<path d="M132.231 14.8311C131.632 13.3868 130.686 12.1536 129.571 11.0808C127.003 8.5891 123.65 7.57551 120.17 7.27988C117.002 7.00959 113.784 7.09405 110.87 5.64124C110.785 5.599 110.701 5.54833 110.616 5.49765C110.997 3.11571 111.959 0.801346 113.294 -1.16671C113.37 -1.28496 112.703 -2.82223 112.711 -2.79689C112.221 -4.10611 111.723 -5.40689 111.225 -6.70767C110.726 -8.00844 110.219 -9.30921 109.704 -10.61C109.738 -10.534 109.003 -12.1642 109.045 -12.2148C108.479 -11.3871 107.99 -10.4664 107.567 -9.55416C106.013 -6.15019 105.777 -2.04515 106.815 1.54465C107.035 2.2964 107.314 3.00591 107.601 3.73231C108.311 5.51454 109.189 7.22076 109.89 9.00299C109.983 9.23949 110.076 9.46755 110.16 9.70406C111.03 11.9171 111.774 14.0034 113.573 15.6336C116.715 18.48 121.487 18.0324 125.398 18.4209C128.109 18.6912 130.821 19.7048 132.966 21.3941C132.316 24.9586 130.238 28.4132 128.363 31.2513C126.994 33.3292 125.584 35.5253 125.229 38.0339C125.026 39.4614 125.668 40.8297 126.15 42.1305C127.349 45.3402 128.489 48.6006 129.9 51.7258C130.821 53.7783 132.941 54.547 134.985 55.0031C137.434 55.5521 139.58 55.7464 141.759 57.1316C141.784 57.1485 141.81 57.1654 141.835 57.1823C141.658 57.6215 141.455 58.0607 141.227 58.4915C140.636 59.6149 140.12 60.9157 139.149 61.735C138.862 61.98 141.075 66.8959 141.218 67.2844C141.345 67.6138 143.161 72.8338 143.406 72.7916L143.82 72.3862C144.639 71.4739 145.155 70.19 145.712 69.1173C146.565 67.4871 146.861 65.7218 146.616 63.9058C146.329 61.7941 145.374 59.6487 144.487 57.6131L142.164 51.8103C141.742 50.8474 141.269 49.9098 140.661 49.0482C138.769 46.3707 135.855 44.8503 132.696 44.3182C132.299 44.2506 131.893 44.183 131.48 44.107C131.691 43.7522 131.91 43.4144 132.121 43.0765C133.845 40.3652 135.576 37.8143 136.59 34.7313C137.629 31.5554 137.451 28.4639 136.328 25.364C135.044 21.8249 133.684 18.3111 132.248 14.8311H132.231Z" fill="#85BCFF"/>
<path d="M141.76 57.1413C141.76 57.1413 141.811 57.1751 141.836 57.1919C141.836 57.2004 141.836 57.2088 141.828 57.2173C143.762 58.0028 145.232 60.0469 146.254 62.2092C145.823 60.655 145.139 59.1093 144.489 57.6143L142.166 51.8115C141.743 50.8486 141.27 49.911 140.662 49.0494C138.77 46.3719 135.856 44.8515 132.697 44.3193C132.3 44.2518 131.895 44.1842 131.481 44.1082C131.506 44.0575 131.54 44.0153 131.565 43.973C130.273 43.8632 129.116 43.4493 128.018 42.5287C127.072 41.9627 126.21 41.2194 125.492 40.3157C125.686 40.9323 125.931 41.5404 126.151 42.1317C127.35 45.3414 128.491 48.6018 129.901 51.727C130.822 53.7795 132.942 54.5482 134.986 55.0043C137.436 55.5533 139.581 55.7476 141.76 57.1328V57.1413Z" fill="#A5CEFF"/>
<path d="M132.976 19.0367C132.976 17.8626 132.934 17.4656 132.799 16.2324C132.613 15.7679 132.427 15.3033 132.233 14.8387C131.633 13.3944 130.687 12.1612 129.572 11.0884C127.004 8.59671 123.651 7.58312 120.171 7.28749C117.004 7.0172 113.786 7.10166 110.871 5.64885C110.787 5.60661 110.703 5.55594 110.618 5.50526C110.626 5.45458 110.643 5.39545 110.652 5.34477C110.643 5.34477 110.635 5.33632 110.618 5.32787C108.87 4.42409 107.662 3.14021 106.834 1.63672C107.096 2.48138 108.109 4.93933 109.883 9.00214C109.976 9.23865 110.069 9.46671 110.153 9.70321C111.023 11.9162 111.767 14.0025 113.566 15.6327C116.708 18.4792 121.48 18.0315 125.391 18.4201C128.06 18.6904 130.721 19.6786 132.858 21.3173C132.976 20.8443 133.018 19.6279 132.976 19.0367Z" fill="#A5CEFF"/>
<path d="M69.1526 128.999C65.4867 129.126 63.0964 126.372 61.1621 123.602C61.2297 123.695 61.1367 124.674 61.1367 124.708C61.1283 125.595 61.1283 126.49 61.1283 127.377C61.1283 128.264 61.1283 129.16 61.1367 130.046C61.1367 130.139 61.0607 131.009 61.1621 131.153C63.0879 133.923 65.4867 136.677 69.1526 136.55C69.2961 136.55 69.1188 128.991 69.1526 128.991V128.999Z" fill="#C7E0FF"/>
<path d="M561.578 215.856C557.913 215.983 555.522 213.229 553.588 210.459C553.655 210.552 553.563 211.532 553.563 211.565C553.554 212.452 553.554 213.348 553.554 214.235C553.554 215.122 553.554 216.017 553.563 216.904C553.563 216.997 553.486 217.867 553.588 218.01C555.514 220.781 557.913 223.534 561.578 223.408C561.722 223.408 561.545 215.848 561.578 215.848V215.856Z" fill="#CFE4FF"/>
<path d="M203.335 58.4636C205.184 60.1192 207.364 61.9352 207.423 64.6381C207.423 64.3762 207.431 65.5419 207.448 65.0182C207.473 64.4438 207.465 63.861 207.473 63.2782C207.482 61.5551 207.499 59.832 207.456 58.1089C207.423 56.5969 207.195 55.2708 206.35 53.9785C205.564 52.7791 204.39 51.8415 203.335 50.8955C203.377 50.9377 203.309 52.0358 203.309 52.002C203.309 52.8889 203.301 53.7842 203.301 54.6711C203.301 55.558 203.301 56.4534 203.309 57.3402C203.309 57.3487 203.25 58.3707 203.335 58.4467V58.4636Z" fill="#A5CEFF"/>
<path d="M201.106 219.158C203.243 217.891 205.625 216.362 208.226 217.113C207.973 217.037 209.088 217.375 208.598 217.198C208.049 217.004 207.5 216.835 206.951 216.657C205.312 216.134 203.665 215.602 202.018 215.12C200.565 214.698 199.231 214.52 197.752 214.934C196.367 215.323 195.125 216.167 193.909 216.885C193.96 216.852 194.99 217.249 194.957 217.24C195.801 217.519 196.654 217.781 197.499 218.051C198.352 218.321 199.197 218.583 200.05 218.845C200.058 218.845 201.013 219.208 201.114 219.149L201.106 219.158Z" fill="#A5CEFF"/>
<path d="M87.0982 62.6483C88.948 64.3038 91.1272 66.1198 91.1863 68.8227C91.1863 68.5609 91.1948 69.7265 91.2117 69.2028C91.237 68.6285 91.2286 68.0457 91.237 67.4628C91.2455 65.7397 91.2624 64.0166 91.2201 62.2935C91.1863 60.7816 90.9583 59.4555 90.1136 58.1631C89.3281 56.9637 88.154 56.0262 87.0982 55.0801C87.1404 55.1224 87.0729 56.2204 87.0729 56.1866C87.0729 57.0735 87.0644 57.9689 87.0644 58.8558C87.0644 59.7427 87.0644 60.638 87.0729 61.5249C87.0729 61.5333 87.0137 62.5554 87.0982 62.6314V62.6483Z" fill="#C7E0FF"/>
<path d="M640.023 310.28C641.873 311.936 644.052 313.752 644.111 316.454C644.111 316.193 644.12 317.358 644.136 316.835C644.162 316.26 644.153 315.677 644.162 315.095C644.17 313.372 644.187 311.648 644.145 309.925C644.111 308.413 643.883 307.087 643.038 305.795C642.253 304.595 641.079 303.658 640.023 302.712C640.065 302.754 639.998 303.852 639.998 303.818C639.998 304.705 639.989 305.601 639.989 306.488C639.989 307.374 639.989 308.27 639.998 309.157C639.998 309.165 639.939 310.187 640.023 310.263V310.28Z" fill="#C7E0FF"/>
<path d="M297.464 43.2164C299.314 44.8719 301.493 46.688 301.553 49.3909C301.553 49.129 301.561 50.2947 301.578 49.771C301.603 49.1966 301.595 48.6138 301.603 48.031C301.612 46.3079 301.629 44.5848 301.586 42.8617C301.553 41.3497 301.324 40.0236 300.48 38.7313C299.694 37.5319 298.52 36.5943 297.464 35.6483C297.507 35.6905 297.439 36.7886 297.439 36.7548C297.439 37.6417 297.431 38.537 297.431 39.4239C297.431 40.3108 297.431 41.2061 297.439 42.093C297.439 42.1015 297.38 43.1235 297.464 43.1995V43.2164Z" fill="#C7E0FF"/>
<path d="M507.065 125.393C507.698 123.231 507.326 121.676 505.755 120.038C504.235 118.45 502.199 117.411 500.409 116.178C498.905 115.139 497.309 114.235 496.126 112.833C499.066 110.105 502.917 108.035 506.71 107.655C507.158 107.613 508.391 102.452 508.526 102.021C508.644 101.633 509.92 96.3789 510.232 96.3535C505.73 96.8096 501.591 99.5801 498.5 102.748C497.064 104.217 495.941 105.907 495.214 107.832C495.079 108.204 494.944 108.576 494.817 108.947L491.937 118.213C491.751 118.872 491.582 119.539 491.455 120.215C490.771 124.016 494.834 126.128 497.452 127.876C498.432 128.527 499.758 129.287 500.958 130.199C500.738 130.3 500.527 130.393 500.316 130.486C500.164 130.554 499.767 132.125 499.758 132.133C499.328 133.459 498.914 134.794 498.5 136.128C498.086 137.463 497.672 138.798 497.267 140.132C497.284 140.081 496.87 141.762 496.794 141.796C498.888 140.901 500.873 139.693 502.461 138.037C503.247 137.21 503.678 136.238 504.032 135.174C505.097 131.939 506.119 128.679 507.073 125.41L507.065 125.393Z" fill="#A5CEFF"/>
<path d="M503.22 128.611C504.546 127.581 505.805 126.466 506.962 125.249C507.03 125.182 507.097 125.106 507.165 125.03C507.646 123.062 507.232 121.584 505.754 120.046C504.234 118.458 502.198 117.419 500.407 116.186C498.904 115.147 497.308 114.243 496.125 112.841C496.142 112.824 496.159 112.816 496.167 112.799C496.108 112.732 496.057 112.656 495.998 112.58C495.263 111.938 494.934 110.983 494.841 109.919C494.79 109.691 494.757 109.454 494.723 109.218L491.927 118.222C491.741 118.881 491.572 119.548 491.446 120.224C490.761 124.025 494.824 126.136 497.443 127.885C498.38 128.51 499.647 129.236 500.804 130.098C501.641 129.65 502.468 129.202 503.22 128.62V128.611Z" fill="#85BCFF"/>
<path d="M48.3723 223.228C46.7928 221.631 45.2471 221.201 43.051 221.784C40.9224 222.349 39.0304 223.616 37.0877 224.588C35.449 225.399 33.878 226.362 32.0873 226.708C31.1244 222.814 31.1835 218.447 32.687 214.942C32.8644 214.528 28.9536 210.947 28.6411 210.617C28.3539 210.321 24.384 206.664 24.5023 206.377C22.7116 210.541 23.1339 215.499 24.4094 219.739C25.0006 221.707 25.9297 223.507 27.2643 225.078C27.5177 225.382 27.7795 225.677 28.0498 225.965L34.7649 232.975C35.2548 233.465 35.7531 233.93 36.2853 234.36C39.2753 236.793 43.0932 234.268 45.889 232.832C46.9364 232.291 48.2456 231.497 49.6224 230.889C49.6055 231.125 49.5802 231.362 49.5633 231.59C49.5464 231.759 50.7289 232.865 50.7289 232.874C51.6834 233.896 52.6463 234.901 53.6092 235.915C54.5721 236.92 55.5435 237.933 56.5148 238.93C56.4726 238.888 57.7565 240.07 57.7396 240.155C57.9761 237.891 57.8747 235.56 57.199 233.381C56.8611 232.291 56.2192 231.446 55.4506 230.619C53.1362 228.118 50.7796 225.652 48.3808 223.228H48.3723Z" fill="#A5CEFF"/>
<path d="M49.318 228.144C49.0646 226.48 48.693 224.841 48.1862 223.237C48.1524 223.144 48.1271 223.051 48.0933 222.958C46.6067 221.581 45.1116 221.226 43.0507 221.775C40.9221 222.341 39.0301 223.608 37.0874 224.58C35.4487 225.39 33.8777 226.353 32.087 226.7C32.087 226.683 32.0785 226.657 32.0701 226.64C31.9772 226.657 31.8927 226.666 31.7998 226.683C30.8791 227.012 29.8824 226.835 28.9111 226.404C28.683 226.336 28.4634 226.252 28.2354 226.167L34.7561 232.975C35.246 233.465 35.7444 233.93 36.2765 234.361C39.2666 236.793 43.0844 234.268 45.8803 232.832C46.8854 232.317 48.1355 231.565 49.4532 230.965C49.4616 230.019 49.4785 229.082 49.3349 228.136L49.318 228.144Z" fill="#C7E0FF"/>
<path d="M91.4219 186.719L100.738 189.582L92.6382 196.187L91.4219 186.719Z" fill="white"/>
<path d="M543.055 162.676L552.371 165.539L544.271 172.144L543.055 162.676Z" fill="white"/>
<path d="M503.9 61.6523L513.217 64.5157L505.117 71.121L503.9 61.6523Z" fill="white"/>
<path d="M635.335 53.6317L641.324 45.9453L644.618 55.8616L635.335 53.6317Z" fill="white"/>
<path d="M12.6849 66.3514C7.0004 66.5456 3.29234 62.2717 0.302254 57.9893C0.403613 58.1413 0.260021 59.6448 0.260021 59.7039C0.243128 61.0807 0.243128 62.4659 0.243128 63.8427C0.243128 65.2195 0.243128 66.6048 0.260021 67.9816C0.260021 68.1252 0.150215 69.4766 0.302254 69.6962C3.29234 73.9871 7.0004 78.2611 12.6849 78.0583C12.9046 78.0583 12.6427 66.3514 12.6849 66.3514Z" fill="#C7E0FF"/>
<path d="M669.351 167.11C663.666 167.304 659.958 163.03 656.968 158.748C657.07 158.9 656.926 160.404 656.926 160.463C656.909 161.839 656.909 163.225 656.909 164.602C656.909 165.978 656.909 167.364 656.926 168.74C656.926 168.884 656.816 170.235 656.968 170.455C659.958 174.746 663.666 179.02 669.351 178.817C669.571 178.817 669.309 167.11 669.351 167.11Z" fill="#C7E0FF"/>
<path d="M44.8257 329.48C46.6755 331.136 48.8548 332.952 48.9139 335.655C48.9139 335.393 48.9223 336.558 48.9392 336.035C48.9646 335.46 48.9561 334.878 48.9646 334.295C48.973 332.572 48.9899 330.849 48.9477 329.125C48.9139 327.614 48.6858 326.287 47.8412 324.995C47.0556 323.796 45.8816 322.858 44.8257 321.912C44.868 321.954 44.8004 323.052 44.8004 323.019C44.8004 323.906 44.7919 324.801 44.7919 325.688C44.7919 326.575 44.7919 327.47 44.8004 328.357C44.8004 328.365 44.7413 329.387 44.8257 329.463V329.48Z" fill="#A5CEFF"/>
<path d="M220.032 104.259C214.347 104.453 210.639 100.179 207.649 95.8965C207.75 96.0485 207.607 97.552 207.607 97.6111C207.59 98.9879 207.59 100.373 207.59 101.75C207.59 103.127 207.59 104.512 207.607 105.889C207.607 106.032 207.497 107.384 207.649 107.603C210.639 111.894 214.347 116.168 220.032 115.966C220.251 115.966 219.989 104.259 220.032 104.259Z" fill="#C7E0FF"/>
<path d="M560.32 97.0811C558.859 102.58 553.698 104.886 548.731 106.507C548.909 106.448 550.311 107.023 550.362 107.048C551.679 107.462 552.997 107.867 554.323 108.264C555.641 108.661 556.967 109.058 558.293 109.447C558.437 109.489 559.695 109.987 559.949 109.903C564.924 108.281 570.084 105.975 571.537 100.477C571.596 100.265 560.32 97.1317 560.329 97.0811H560.32Z" fill="#C7E0FF"/>
<path d="M59.1681 42.609C62.0315 45.1767 65.4017 47.981 65.4946 52.1789C65.4862 51.7735 65.5115 53.5811 65.5368 52.7702C65.5706 51.8749 65.5706 50.9795 65.5706 50.0758C65.5875 47.4066 65.6044 44.7291 65.5453 42.0684C65.4946 39.7202 65.1398 37.6677 63.8391 35.6743C62.6228 33.8161 60.7983 32.3633 59.1597 30.8936C59.2272 30.9527 59.1174 32.6589 59.1174 32.6082C59.1005 33.985 59.1005 35.3703 59.1005 36.747C59.1005 38.1238 59.1005 39.5091 59.1174 40.8859C59.1174 40.9028 59.033 42.4823 59.1597 42.6005L59.1681 42.609Z" fill="#A5CEFF"/>
<path d="M452.727 137.641C455.025 139.998 456.461 142.912 456.571 146.231C456.621 147.726 456.266 149.213 455.709 150.59C455.396 151.367 454.957 152.076 454.476 152.752C454.391 152.862 454.307 152.98 454.222 153.09C451.992 155.776 454.146 153.799 460.692 147.177C460.321 147.464 459.924 147.709 459.527 147.954C457.93 148.934 456.511 150.674 455.143 151.933C454.121 152.879 453.099 153.833 452.085 154.796C451.764 155.092 451.241 155.759 450.844 156.004C454.442 153.791 457.449 150.395 460.49 147.524C462.289 145.817 463.835 144.153 464.696 141.78C466.267 137.43 464.519 132.767 461.419 129.591C461.284 129.456 452.736 137.65 452.736 137.641H452.727Z" fill="white"/>
<path d="M464.562 50.4368C464.629 54.28 464.857 58.6638 461.842 61.5863C462.138 61.2991 460.828 62.5492 461.437 62.0171C462.112 61.4343 462.771 60.8177 463.438 60.218C465.407 58.4104 467.383 56.6113 469.3 54.753C470.99 53.1228 472.248 51.4673 472.823 49.1529C473.363 46.999 473.186 44.6762 473.144 42.4717C473.144 42.5646 471.826 43.6373 471.86 43.6035C470.838 44.5326 469.824 45.4702 468.81 46.4078C467.797 47.3453 466.792 48.2914 465.787 49.2374C465.77 49.2543 464.553 50.2594 464.553 50.4368H464.562Z" fill="#C7E0FF"/>
<path d="M317.304 37.6323C319.602 39.9889 321.038 42.903 321.148 46.2225C321.198 47.7175 320.844 49.2041 320.286 50.5809C319.974 51.358 319.534 52.0675 319.053 52.7432C318.968 52.853 318.884 52.9713 318.8 53.0811C316.57 55.7671 318.723 53.7906 325.27 47.1685C324.898 47.4557 324.501 47.7006 324.104 47.9456C322.508 48.9254 321.089 50.6654 319.72 51.9239C318.698 52.8699 317.676 53.8244 316.663 54.7873C316.342 55.083 315.818 55.7502 315.421 55.9952C319.019 53.7822 322.026 50.3867 325.067 47.5148C326.866 45.8086 328.412 44.1446 329.273 41.7711C330.844 37.4211 329.096 32.7586 325.996 29.5827C325.861 29.4476 317.313 37.6407 317.313 37.6323H317.304Z" fill="white"/>
<path d="M116.556 101.608C116.624 105.451 116.852 109.835 113.836 112.757C114.132 112.47 112.823 113.72 113.431 113.188C114.106 112.605 114.765 111.989 115.433 111.389C117.401 109.581 119.377 107.782 121.295 105.924C122.984 104.294 124.242 102.638 124.817 100.324C125.357 98.1699 125.18 95.8471 125.138 93.6426C125.138 93.7355 123.82 94.8082 123.854 94.7744C122.832 95.7035 121.818 96.6411 120.805 97.5787C119.791 98.5162 118.786 99.4623 117.781 100.408C117.764 100.425 116.548 101.43 116.548 101.608H116.556Z" fill="#A5CEFF"/>
<path d="M529.303 112.95C525.637 113.077 523.247 110.323 521.312 107.553C521.38 107.646 521.287 108.625 521.287 108.659C521.279 109.546 521.279 110.441 521.279 111.328C521.279 112.215 521.279 113.111 521.287 113.997C521.287 114.09 521.211 114.96 521.312 115.104C523.238 117.874 525.637 120.628 529.303 120.501C529.447 120.501 529.269 112.942 529.303 112.942V112.95Z" fill="#C7E0FF"/>
<path d="M585.837 96.7607L595.154 99.624L587.053 106.229L585.837 96.7607Z" fill="white"/>
<path d="M545.032 72.9917C545.099 76.8349 545.327 81.2187 542.312 84.1412C542.607 83.854 541.298 85.1041 541.906 84.572C542.582 83.9891 543.241 83.3725 543.908 82.7728C545.876 80.9653 547.853 79.1661 549.77 77.3079C551.459 75.6777 552.718 74.0222 553.292 71.7078C553.833 69.5539 553.656 67.2311 553.613 65.0266C553.613 65.1195 552.296 66.1922 552.329 66.1584C551.307 67.0875 550.294 68.0251 549.28 68.9627C548.267 69.9002 547.261 70.8463 546.256 71.7923C546.239 71.8092 545.023 72.8143 545.023 72.9917H545.032Z" fill="#A5CEFF"/>
<path d="M414.4 181.184C408.715 181.379 405.007 177.105 402.017 172.822C402.118 172.974 401.975 174.478 401.975 174.537C401.958 175.914 401.958 177.299 401.958 178.676C401.958 180.053 401.958 181.438 401.975 182.815C401.975 182.958 401.865 184.31 402.017 184.529C405.007 188.82 408.715 193.094 414.4 192.891C414.619 192.891 414.358 181.184 414.4 181.184Z" fill="#CFE4FF"/>
<path d="M444.906 218.104L452.567 212.09L453.378 222.513L444.906 218.104Z" fill="white"/>
<path d="M384.934 53.1146L392.595 47.1006L393.405 57.5237L384.934 53.1146Z" fill="white"/>
<path d="M152.799 222.165L146.312 214.901L156.667 213.439L152.799 222.165Z" fill="white"/>
<path d="M247.03 219.124C243.364 219.251 240.973 216.497 239.039 213.727C239.107 213.819 239.014 214.799 239.014 214.833C239.005 215.72 239.005 216.615 239.005 217.502C239.005 218.389 239.005 219.284 239.014 220.171C239.014 220.264 238.938 221.134 239.039 221.278C240.965 224.048 243.364 226.802 247.03 226.675C247.173 226.675 246.996 219.115 247.03 219.115V219.124Z" fill="#C7E0FF"/>
<path d="M305.328 195.111L314.636 197.974L306.536 204.579L305.328 195.111Z" fill="white"/>
<path d="M163.187 24.8956C163.254 28.7388 163.482 33.1226 160.467 36.0451C160.763 35.758 159.453 37.0081 160.062 36.4759C160.737 35.8931 161.396 35.2765 162.063 34.6768C164.032 32.8692 166.008 31.0701 167.925 29.2118C169.615 27.5817 170.873 25.9261 171.448 23.6118C171.988 21.4579 171.811 19.1351 171.769 16.9305C171.769 17.0234 170.451 18.0961 170.485 18.0624C169.463 18.9915 168.449 19.9291 167.435 20.8666C166.422 21.8042 165.417 22.7502 164.412 23.6962C164.395 23.7131 163.178 24.7183 163.178 24.8956H163.187Z" fill="#C7E0FF"/>
<path d="M111.706 13.3163L117.686 5.62988L120.989 15.5462L111.706 13.3163Z" fill="white"/>
<path d="M156.016 63.3074C156.016 64.7771 154.985 65.9765 153.718 65.9765C152.451 65.9765 151.421 64.7771 151.421 63.3074C151.421 61.8377 152.451 60.6467 153.718 60.6467C154.985 60.6467 156.016 61.8377 156.016 63.3074Z" fill="white"/>
<path d="M127.619 75.2009C127.619 76.679 126.58 77.8869 125.305 77.8869C124.029 77.8869 122.99 76.679 122.99 75.2009C122.99 73.7227 124.029 72.5149 125.305 72.5149C126.58 72.5149 127.619 73.7143 127.619 75.2009Z" fill="#C7E0FF"/>
<path d="M100.739 85.8795C100.739 87.7462 99.4385 89.2666 97.8252 89.2666C96.2119 89.2666 94.9111 87.7462 94.9111 85.8795C94.9111 84.0128 96.2119 82.4924 97.8252 82.4924C99.4385 82.4924 100.739 84.0043 100.739 85.8795Z" fill="white"/>
<path d="M148.624 3.28938C148.624 4.60704 147.703 5.67131 146.571 5.67131C145.439 5.67131 144.519 4.60704 144.519 3.28938C144.519 1.97171 145.439 0.90744 146.571 0.90744C147.703 0.90744 148.624 1.97171 148.624 3.28938Z" fill="#C7E0FF"/>
<path d="M116.265 6.7341C116.265 8.12778 115.294 9.25962 114.095 9.25962C112.895 9.25962 111.924 8.12778 111.924 6.7341C111.924 5.34041 112.895 4.21701 114.095 4.21701C115.294 4.21701 116.265 5.34886 116.265 6.7341Z" fill="white"/>
<path d="M107.701 -2.28828C107.701 -0.886147 106.721 0.254144 105.513 0.254144C104.305 0.254144 103.325 -0.886147 103.325 -2.28828C103.325 -3.69041 104.305 -4.8307 105.513 -4.8307C106.721 -4.8307 107.701 -3.69041 107.701 -2.28828Z" fill="#C7E0FF"/>
<path d="M43.1689 43.9995C43.1689 45.976 41.7921 47.5809 40.0859 47.5809C38.3797 47.5809 37.0029 45.976 37.0029 43.9995C37.0029 42.023 38.3882 40.4182 40.0859 40.4182C41.7837 40.4182 43.1689 42.023 43.1689 43.9995Z" fill="white"/>
<path d="M61.7866 10.2714C61.7866 11.9607 60.6041 13.3375 59.1428 13.3375C57.6815 13.3375 56.499 11.9607 56.499 10.2714C56.499 8.58208 57.6815 7.20529 59.1428 7.20529C60.6041 7.20529 61.7866 8.58208 61.7866 10.2714Z" fill="#CFE4FF"/>
<path d="M43.0941 -1.3076C43.0941 -0.268671 42.3677 0.575984 41.4723 0.575984C40.577 0.575984 39.8506 -0.268671 39.8506 -1.3076C39.8506 -2.34653 40.577 -3.19119 41.4723 -3.19119C42.3677 -3.19119 43.0941 -2.34653 43.0941 -1.3076Z" fill="white"/>
<path d="M148.624 343.288C148.624 344.606 147.703 345.67 146.571 345.67C145.439 345.67 144.519 344.606 144.519 343.288C144.519 341.971 145.439 340.906 146.571 340.906C147.703 340.906 148.624 341.971 148.624 343.288Z" fill="#C7E0FF"/>
<path d="M116.265 346.732C116.265 348.126 115.294 349.257 114.095 349.257C112.895 349.257 111.924 348.126 111.924 346.732C111.924 345.338 112.895 344.215 114.095 344.215C115.294 344.215 116.265 345.347 116.265 346.732Z" fill="white"/>
<path d="M107.701 337.711C107.701 339.113 106.721 340.253 105.513 340.253C104.305 340.253 103.325 339.113 103.325 337.711C103.325 336.308 104.305 335.168 105.513 335.168C106.721 335.168 107.701 336.308 107.701 337.711Z" fill="#C7E0FF"/>
<path d="M61.7866 350.271C61.7866 351.961 60.6041 353.337 59.1428 353.337C57.6815 353.337 56.499 351.961 56.499 350.271C56.499 348.582 57.6815 347.205 59.1428 347.205C60.6041 347.205 61.7866 348.582 61.7866 350.271Z" fill="#CFE4FF"/>
<path d="M71.507 335.253C71.507 336.63 70.5441 337.753 69.3531 337.753C68.1621 337.753 67.1992 336.63 67.1992 335.253C67.1992 333.876 68.1621 332.753 69.3531 332.753C70.5441 332.753 71.507 333.868 71.507 335.253Z" fill="#C7E0FF"/>
<path d="M43.0941 338.691C43.0941 339.73 42.3677 340.575 41.4723 340.575C40.577 340.575 39.8506 339.73 39.8506 338.691C39.8506 337.652 40.577 336.808 41.4723 336.808C42.3677 336.808 43.0941 337.652 43.0941 338.691Z" fill="white"/>
<path d="M35.4651 333.767C35.4651 335.38 34.3333 336.698 32.9396 336.698C31.5459 336.698 30.4141 335.389 30.4141 333.767C30.4141 332.145 31.5459 330.836 32.9396 330.836C34.3333 330.836 35.4651 332.145 35.4651 333.767Z" fill="#CFE4FF"/>
<path d="M4.61145 337.23C4.61145 338.302 3.86815 339.172 2.93903 339.172C2.0099 339.172 1.2666 338.302 1.2666 337.23C1.2666 336.157 2.01835 335.287 2.93903 335.287C3.8597 335.287 4.61145 336.157 4.61145 337.23Z" fill="#A5CEFF"/>
<path d="M707.577 330.536C707.577 329.057 706.538 327.85 705.263 327.85C703.987 327.85 702.948 329.057 702.948 330.536C702.948 332.014 703.987 333.222 705.263 333.222C706.538 333.222 707.577 332.022 707.577 330.536Z" fill="#C7E0FF"/>
<path d="M680.708 319.868C680.708 318.001 679.407 316.481 677.794 316.481C676.181 316.481 674.88 318.001 674.88 319.868C674.88 321.734 676.181 323.255 677.794 323.255C679.407 323.255 680.708 321.743 680.708 319.868Z" fill="white"/>
<path d="M510.426 244.507C510.426 243.189 509.506 242.125 508.374 242.125C507.242 242.125 506.321 243.189 506.321 244.507C506.321 245.824 507.242 246.889 508.374 246.889C509.506 246.889 510.426 245.824 510.426 244.507Z" fill="#C7E0FF"/>
<path d="M578.099 255.892C578.099 254.422 577.068 253.223 575.801 253.223C574.534 253.223 573.504 254.422 573.504 255.892C573.504 257.362 574.534 258.553 575.801 258.553C577.068 258.553 578.099 257.362 578.099 255.892Z" fill="white"/>
<path d="M549.702 244.001C549.702 242.523 548.663 241.315 547.388 241.315C546.112 241.315 545.073 242.523 545.073 244.001C545.073 245.48 546.112 246.687 547.388 246.687C548.663 246.687 549.702 245.488 549.702 244.001Z" fill="#C7E0FF"/>
<path d="M522.826 233.333C522.826 231.466 521.525 229.946 519.912 229.946C518.299 229.946 516.998 231.466 516.998 233.333C516.998 235.199 518.299 236.72 519.912 236.72C521.525 236.72 522.826 235.208 522.826 233.333Z" fill="white"/>
<path d="M22.3072 314.507C22.3072 313.189 21.3865 312.125 20.2547 312.125C19.1228 312.125 18.2021 313.189 18.2021 314.507C18.2021 315.824 19.1228 316.889 20.2547 316.889C21.3865 316.889 22.3072 315.824 22.3072 314.507Z" fill="#C7E0FF"/>
<path d="M89.9797 325.892C89.9797 324.422 88.9493 323.223 87.6823 323.223C86.4153 323.223 85.3848 324.422 85.3848 325.892C85.3848 327.362 86.4153 328.553 87.6823 328.553C88.9493 328.553 89.9797 327.362 89.9797 325.892Z" fill="white"/>
<path d="M61.5828 314.001C61.5828 312.523 60.5439 311.315 59.2685 311.315C57.993 311.315 56.9541 312.523 56.9541 314.001C56.9541 315.48 57.993 316.687 59.2685 316.687C60.5439 316.687 61.5828 315.488 61.5828 314.001Z" fill="#C7E0FF"/>
<path d="M34.7071 303.333C34.7071 301.466 33.4063 299.946 31.793 299.946C30.1797 299.946 28.8789 301.466 28.8789 303.333C28.8789 305.199 30.1797 306.72 31.793 306.72C33.4063 306.72 34.7071 305.208 34.7071 303.333Z" fill="white"/>
<path d="M700.708 162.144C700.708 164.011 699.407 165.531 697.794 165.531C696.181 165.531 694.88 164.011 694.88 162.144C694.88 160.277 696.181 158.757 697.794 158.757C699.407 158.757 700.708 160.269 700.708 162.144Z" fill="white"/>
<path d="M530.426 237.505C530.426 238.823 529.506 239.887 528.374 239.887C527.242 239.887 526.321 238.823 526.321 237.505C526.321 236.187 527.242 235.123 528.374 235.123C529.506 235.123 530.426 236.187 530.426 237.505Z" fill="#C7E0FF"/>
<path d="M598.099 226.12C598.099 227.589 597.068 228.789 595.801 228.789C594.534 228.789 593.504 227.589 593.504 226.12C593.504 224.65 594.534 223.459 595.801 223.459C597.068 223.459 598.099 224.65 598.099 226.12Z" fill="white"/>
<path d="M569.702 238.01C569.702 239.488 568.663 240.696 567.388 240.696C566.112 240.696 565.073 239.488 565.073 238.01C565.073 236.532 566.112 235.324 567.388 235.324C568.663 235.324 569.702 236.524 569.702 238.01Z" fill="#C7E0FF"/>
<path d="M542.826 248.679C542.826 250.546 541.525 252.066 539.912 252.066C538.299 252.066 536.998 250.546 536.998 248.679C536.998 246.812 538.299 245.292 539.912 245.292C541.525 245.292 542.826 246.804 542.826 248.679Z" fill="white"/>
<path d="M716.233 82.9985C716.233 84.3922 715.262 85.5241 714.062 85.5241C712.863 85.5241 711.892 84.3922 711.892 82.9985C711.892 81.6048 712.863 80.4814 714.062 80.4814C715.262 80.4814 716.233 81.6133 716.233 82.9985Z" fill="white"/>
<path d="M707.668 73.9799C707.668 75.3821 706.689 76.5223 705.481 76.5223C704.273 76.5223 703.293 75.3821 703.293 73.9799C703.293 72.5778 704.273 71.4375 705.481 71.4375C706.689 71.4375 707.668 72.5778 707.668 73.9799Z" fill="#C7E0FF"/>
<path d="M687.625 21.2228C687.625 22.5404 686.704 23.6047 685.572 23.6047C684.44 23.6047 683.52 22.5404 683.52 21.2228C683.52 19.9051 684.44 18.8408 685.572 18.8408C686.704 18.8408 687.625 19.9051 687.625 21.2228Z" fill="#C7E0FF"/>
<path d="M655.276 24.6673C655.276 26.061 654.305 27.1929 653.105 27.1929C651.906 27.1929 650.935 26.061 650.935 24.6673C650.935 23.2736 651.906 22.1502 653.105 22.1502C654.305 22.1502 655.276 23.2821 655.276 24.6673Z" fill="white"/>
<path d="M646.711 15.6459C646.711 17.0481 645.731 18.1884 644.524 18.1884C643.316 18.1884 642.336 17.0481 642.336 15.6459C642.336 14.2438 643.316 13.1035 644.524 13.1035C645.731 13.1035 646.711 14.2438 646.711 15.6459Z" fill="#C7E0FF"/>
<path d="M643.138 120.274C643.138 122.25 641.761 123.855 640.055 123.855C638.348 123.855 636.972 122.25 636.972 120.274C636.972 118.297 638.357 116.692 640.055 116.692C641.752 116.692 643.138 118.297 643.138 120.274Z" fill="white"/>
<path d="M661.746 86.5465C661.746 88.2358 660.563 89.6126 659.102 89.6126C657.641 89.6126 656.458 88.2358 656.458 86.5465C656.458 84.8572 657.641 83.4804 659.102 83.4804C660.563 83.4804 661.746 84.8572 661.746 86.5465Z" fill="#CFE4FF"/>
<path d="M671.466 71.5295C671.466 72.9063 670.503 74.0297 669.312 74.0297C668.121 74.0297 667.158 72.9063 667.158 71.5295C667.158 70.1527 668.121 69.0293 669.312 69.0293C670.503 69.0293 671.466 70.1443 671.466 71.5295Z" fill="#C7E0FF"/>
<path d="M643.052 74.9674C643.052 76.0063 642.326 76.851 641.43 76.851C640.535 76.851 639.809 76.0063 639.809 74.9674C639.809 73.9285 640.535 73.0838 641.43 73.0838C642.326 73.0838 643.052 73.9285 643.052 74.9674Z" fill="white"/>
<path d="M635.425 70.0325C635.425 71.6458 634.293 72.9635 632.9 72.9635C631.506 72.9635 630.374 71.6543 630.374 70.0325C630.374 68.4108 631.506 67.1016 632.9 67.1016C634.293 67.1016 635.425 68.4108 635.425 70.0325Z" fill="#CFE4FF"/>
<path d="M553.534 34.7503C553.534 36.3636 552.403 37.6813 551.009 37.6813C549.615 37.6813 548.483 36.372 548.483 34.7503C548.483 33.1286 549.615 31.8193 551.009 31.8193C552.403 31.8193 553.534 33.1286 553.534 34.7503Z" fill="#CFE4FF"/>
<path d="M604.578 73.5052C604.578 74.5779 603.835 75.4479 602.906 75.4479C601.977 75.4479 601.233 74.5779 601.233 73.5052C601.233 72.4325 601.985 71.5625 602.906 71.5625C603.826 71.5625 604.578 72.4325 604.578 73.5052Z" fill="#A5CEFF"/>
<path d="M510.232 35.7396C510.232 36.8123 509.488 37.6823 508.559 37.6823C507.63 37.6823 506.887 36.8123 506.887 35.7396C506.887 34.6669 507.638 33.7969 508.559 33.7969C509.48 33.7969 510.232 34.6669 510.232 35.7396Z" fill="#A5CEFF"/>
<path d="M572.205 75.4654C572.205 77.4504 570.819 79.0637 569.105 79.0637C567.39 79.0637 566.005 77.4504 566.005 75.4654C566.005 73.4805 567.39 71.8672 569.105 71.8672C570.819 71.8672 572.205 73.4805 572.205 75.4654Z" fill="#CFE4FF"/>
<path d="M450.355 87.0787C450.355 89.0637 448.97 90.677 447.255 90.677C445.54 90.677 444.155 89.0637 444.155 87.0787C444.155 85.0938 445.54 83.4805 447.255 83.4805C448.97 83.4805 450.355 85.0938 450.355 87.0787Z" fill="#CFE4FF"/>
<path d="M604.95 10.7991C604.95 12.5138 603.75 13.899 602.28 13.899C600.811 13.899 599.611 12.5053 599.611 10.7991C599.611 9.09291 600.811 7.69922 602.28 7.69922C603.75 7.69922 604.95 9.08446 604.95 10.7991Z" fill="#CFE4FF"/>
<path d="M653.945 347.359C653.945 349.073 652.745 350.459 651.276 350.459C649.806 350.459 648.606 349.065 648.606 347.359C648.606 345.652 649.806 344.259 651.276 344.259C652.745 344.259 653.945 345.644 653.945 347.359Z" fill="#CFE4FF"/>
<path d="M670.204 345.086C670.204 346.344 669.326 347.366 668.245 347.366C667.164 347.366 666.285 346.344 666.285 345.086C666.285 343.827 667.164 342.813 668.245 342.813C669.326 342.813 670.204 343.835 670.204 345.086Z" fill="#C7E0FF"/>
<path d="M690.763 314.249C690.763 315.28 690.045 316.116 689.159 316.116C688.272 316.116 687.554 315.28 687.554 314.249C687.554 313.219 688.272 312.383 689.159 312.383C690.045 312.383 690.763 313.219 690.763 314.249Z" fill="white"/>
<path d="M674.387 289.559C674.387 291.494 673.035 293.056 671.371 293.056C669.707 293.056 668.364 291.485 668.364 289.559C668.364 287.634 669.716 286.062 671.371 286.062C673.027 286.062 674.387 287.625 674.387 289.559Z" fill="#A5CEFF"/>
<path d="M643.639 295.244C643.639 296.891 642.491 298.226 641.072 298.226C639.653 298.226 638.504 296.891 638.504 295.244C638.504 293.597 639.653 292.263 641.072 292.263C642.491 292.263 643.639 293.597 643.639 295.244Z" fill="white"/>
<path d="M649.407 276.045C649.407 277.118 648.656 277.988 647.735 277.988C646.814 277.988 646.062 277.118 646.062 276.045C646.062 274.973 646.814 274.103 647.735 274.103C648.656 274.103 649.407 274.973 649.407 276.045Z" fill="#A5CEFF"/>
<path d="M653.98 256.009C653.98 257.741 652.772 259.151 651.277 259.151C649.782 259.151 648.574 257.741 648.574 256.009C648.574 254.278 649.782 252.867 651.277 252.867C652.772 252.867 653.98 254.278 653.98 256.009Z" fill="white"/>
</g>
<defs>
<clipPath id="clip0_483_43695">
<rect width="720" height="360" fill="white"/>
</clipPath>
</defs>
</svg>
