<svg width="40" height="41" viewBox="0 0 40 41" fill="none" xmlns="http://www.w3.org/2000/svg">
<g clip-path="url(#clip0_483_42870)">
<rect y="0.945312" width="40" height="40" rx="20" fill="white"/>
<g clip-path="url(#clip1_483_42870)">
<rect y="0.890625" width="40" height="40" rx="20" fill="white"/>
<mask id="mask0_483_42870" style="mask-type:alpha" maskUnits="userSpaceOnUse" x="0" y="0" width="41" height="41">
<circle cx="20.0062" cy="20.8875" r="20" fill="#D9D9D9"/>
</mask>
<g mask="url(#mask0_483_42870)">
<path d="M40.0062 20.8875C40.0062 31.9332 31.0519 40.8875 20.0062 40.8875C8.96053 40.8875 0.00622559 31.9332 0.00622559 20.8875C0.00622559 9.84185 8.96053 0.887543 20.0062 0.887543C31.0519 0.887543 40.0062 9.84185 40.0062 20.8875Z" fill="white"/>
<path d="M35.3908 18.7026C33.2599 15.5986 27.3931 19.2127 19.3528 20.1412C16.3759 20.4846 13.6936 22.9704 10.2355 22.7336C8.81756 22.6362 4.54321 19.5156 4.54321 19.5156V22.2289L13.7324 33.5387L15.0112 35.1039C15.0112 35.1039 21.5539 33.2415 24.7463 28.812C25.5105 27.7515 26.4217 26.8684 27.365 26.1306C30.4278 23.8659 35.2184 22.3803 35.2184 22.3803L35.3908 18.7026Z" fill="#C7E0FF" stroke="#253650" stroke-width="0.75" stroke-miterlimit="10" stroke-linecap="round" stroke-linejoin="round"/>
<path d="M14.0512 12.7953C10.929 17.1282 4.54321 19.5421 4.54321 19.5421H4.54458L14.6087 31.751C14.6087 31.751 20.3014 30.7088 24.3883 25.0381C27.6062 20.5731 35.4678 18.8285 35.4678 18.8285L24.5696 6.67188C24.5696 6.67188 17.2691 8.32865 14.0512 12.7953Z" fill="#E0EEFF" stroke="#253650" stroke-width="0.75" stroke-linecap="round" stroke-linejoin="round"/>
<path d="M15.9557 17.4293L11.6292 20.874L12.8091 19.9345C13.2264 19.6023 13.7585 19.4495 14.2885 19.5096C14.8185 19.5697 15.3028 19.8379 15.6351 20.2552C15.9673 20.6725 16.1201 21.2046 16.06 21.7346C15.9999 22.2645 15.7317 22.7489 15.3144 23.0811L14.1344 24.0206L18.3733 24.5016M12.8818 22.4473L17.2083 19.0026" stroke="#253650" stroke-width="0.75" stroke-linecap="round" stroke-linejoin="round"/>
<path d="M15.4902 14.4157C13.1624 17.6463 8.03735 19.9455 8.03735 19.9455H8.03837L15.5419 29.0482C15.5419 29.0482 20.1503 27.7717 23.1974 23.5437C25.5966 20.2147 31.458 18.1701 31.458 18.1701L23.3326 9.10645C23.3326 9.10645 17.8894 11.0855 15.4902 14.4157Z" stroke="white" stroke-width="0.75"/>
<path d="M22.2819 19.6613C24.4007 19.6613 26.1183 17.9437 26.1183 15.8249C26.1183 13.7061 24.4007 11.9884 22.2819 11.9884C20.1631 11.9884 18.4454 13.7061 18.4454 15.8249C18.4454 17.9437 20.1631 19.6613 22.2819 19.6613Z" fill="white" stroke="#253650" stroke-width="0.75" stroke-linecap="round" stroke-linejoin="round"/>
</g>
</g>
</g>
<defs>
<clipPath id="clip0_483_42870">
<rect y="0.945312" width="40" height="40" rx="20" fill="white"/>
</clipPath>
<clipPath id="clip1_483_42870">
<rect y="0.890625" width="40" height="40" rx="20" fill="white"/>
</clipPath>
</defs>
</svg>
