<svg width="40" height="41" viewBox="0 0 40 41" fill="none" xmlns="http://www.w3.org/2000/svg">
<g clip-path="url(#clip0_483_42885)">
<rect y="0.945312" width="40" height="40" rx="20" fill="white"/>
<mask id="mask0_483_42885" style="mask-type:alpha" maskUnits="userSpaceOnUse" x="0" y="0" width="41" height="41">
<circle cx="20.0076" cy="20.9431" r="20" fill="#D9D9D9"/>
</mask>
<g mask="url(#mask0_483_42885)">
<path d="M40.0076 20.9431C40.0076 31.9888 31.0533 40.9431 20.0076 40.9431C8.96187 40.9431 0.00756836 31.9888 0.00756836 20.9431C0.00756836 9.89742 8.96187 0.943115 20.0076 0.943115C31.0533 0.943115 40.0076 9.89742 40.0076 20.9431Z" fill="white"/>
<path d="M7.21422 13.8698L13.6648 17.555L13.5438 36.9281L7.21422 33.1752V13.8698Z" fill="#C7E0FF" stroke="#253650" stroke-width="0.833333" stroke-miterlimit="10" stroke-linecap="round" stroke-linejoin="round"/>
<path d="M7.21422 18.0133L13.6648 21.6274L13.5438 36.9291L7.21422 33.1762V18.0133Z" fill="#C7E0FF" stroke="#253650" stroke-width="0.75" stroke-miterlimit="10" stroke-linecap="round" stroke-linejoin="round"/>
<path d="M29.0039 8.55001L22.6868 4.96082L7.21074 13.8706L13.6613 17.5559L29.0039 8.55001Z" fill="white" stroke="#253650" stroke-width="0.75" stroke-linecap="round" stroke-linejoin="round"/>
<path d="M13.5469 36.9305L29.2578 26.9174L29.0105 8.55151L13.6679 17.5574L13.5469 36.9305Z" fill="#C7E0FF" stroke="#253650" stroke-width="0.75" stroke-linecap="round" stroke-linejoin="round"/>
<path d="M29.0069 8.55151L13.6625 17.5574C13.6625 17.5574 12.4151 32.4106 17.9457 35.4126L32.799 26.9174C32.799 26.9174 28.8485 24.8248 29.0069 8.55151Z" fill="#EDF5FF" stroke="#253650" stroke-width="0.75" stroke-miterlimit="10" stroke-linecap="round" stroke-linejoin="round"/>
<path d="M29.0625 12.7445C29.0127 11.4633 28.9913 10.0682 29.0056 8.54852L13.6612 17.5544C13.6612 17.5544 13.5188 19.2574 13.5437 21.6276L29.0625 12.7445Z" fill="#E0EEFF" stroke="#253650" stroke-width="0.75" stroke-miterlimit="10" stroke-linecap="round" stroke-linejoin="round"/>
<path d="M25.2794 12.6329V10.3226C25.2794 9.69089 24.9591 9.10188 24.4288 8.75666L19.6421 5.64971C19.1847 5.35254 18.5815 5.68174 18.5815 6.22626V7.32775" stroke="#253650" stroke-width="0.75" stroke-linecap="round" stroke-linejoin="round"/>
<path d="M17.8054 16.9835V14.6732C17.8054 14.0415 17.4851 13.4525 16.9548 13.1072L12.1681 10.0003C11.7107 9.70313 11.1075 10.0323 11.1075 10.5768V11.6783" stroke="#253650" stroke-width="0.75" stroke-linecap="round" stroke-linejoin="round"/>
</g>
</g>
<defs>
<clipPath id="clip0_483_42885">
<rect y="0.945312" width="40" height="40" rx="20" fill="white"/>
</clipPath>
</defs>
</svg>
