<svg width="40" height="41" viewBox="0 0 40 41" fill="none" xmlns="http://www.w3.org/2000/svg">
<g clip-path="url(#clip0_483_42902)">
<rect y="0.945312" width="40" height="40" rx="20" fill="white"/>
<mask id="mask0_483_42902" style="mask-type:alpha" maskUnits="userSpaceOnUse" x="0" y="0" width="41" height="41">
<circle cx="20.0083" cy="20.9443" r="20" fill="#D9D9D9"/>
</mask>
<g mask="url(#mask0_483_42902)">
<path d="M40.0083 20.9443C40.0083 31.99 31.054 40.9443 20.0083 40.9443C8.96261 40.9443 0.00830078 31.99 0.00830078 20.9443C0.00830078 9.89864 8.96261 0.944336 20.0083 0.944336C31.054 0.944336 40.0083 9.89864 40.0083 20.9443Z" fill="white"/>
<path d="M28.844 35.1777C37.7194 37.2616 37.2912 32.7201 36.5185 30.8383L27.6664 30.0468L28.844 35.1777Z" fill="#C7E0FF" stroke="#253650" stroke-width="0.75" stroke-miterlimit="10" stroke-linecap="round" stroke-linejoin="round"/>
<path d="M25.1068 29.8195L22.42 33.8729C22.42 33.8729 24.6121 37.9031 27.1768 38.9631C27.1768 38.9631 28.6539 37.9744 28.612 35.8483L28.9846 31.729C28.9846 31.729 32.6511 33.1669 35.1071 31.975C37.563 30.7831 37.8483 28.6169 37.1574 26.4079C36.6876 24.9058 37.2902 22.9885 37.1574 21.5434C37.0246 20.0984 36.1642 16.7395 33.6077 16.7393C31.2596 16.8115 28.1538 19.9538 26.9619 21.5433C26.4404 22.2395 24.0389 22.17 23.1964 23.4795C22.1151 25.1608 22.6277 28.189 22.6277 28.189L25.1068 29.8186V29.8195Z" fill="white" stroke="#253650" stroke-width="0.75" stroke-miterlimit="10" stroke-linecap="round" stroke-linejoin="round"/>
<path d="M34.6558 23.6623C34.5963 23.9286 34.5898 24.8347 34.5898 24.8347C34.8874 24.9011 35.5456 25.2292 35.4388 25.6865C35.3228 26.1825 34.478 25.9173 34.1538 25.91" stroke="#253650" stroke-width="0.75" stroke-miterlimit="10" stroke-linecap="round" stroke-linejoin="round"/>
<path d="M32.6433 26.7348C32.6433 26.7348 33.5 28.4473 35.1466 27.7051" stroke="#253650" stroke-width="0.75" stroke-miterlimit="10" stroke-linecap="round" stroke-linejoin="round"/>
<path d="M32.5048 23.4869C32.4853 23.1159 32.6418 22.8061 32.8543 22.7949C33.0668 22.7838 33.2549 23.0755 33.2744 23.4465C33.2939 23.8175 33.1374 24.1273 32.9249 24.1385C32.7124 24.1497 32.5243 23.858 32.5048 23.4869Z" fill="#253650"/>
<path d="M35.7767 23.2173C35.7572 22.8463 35.9136 22.5364 36.1262 22.5253C36.3387 22.5141 36.5268 22.8058 36.5462 23.1768C36.5657 23.5479 36.4093 23.8577 36.1967 23.8689C35.9842 23.88 35.7961 23.5883 35.7767 23.2173Z" fill="#253650"/>
<path d="M34.1826 16.7373C34.1826 16.7373 33.2956 19.6408 29.6443 19.7433C29.6443 19.7433 30.3065 23.0949 28.7366 23.9141C28.7366 23.9141 28.578 22.5299 26.9395 22.8705C25.3011 23.211 25.457 26.7994 27.5386 26.8333C27.5386 26.8333 27.5386 32.0604 26.0865 33.46C24.6344 34.8596 20.4647 35.5356 17.8121 33.0709C13.6385 29.1932 16.5737 21.7312 20.7232 17.9767C25.7949 13.3878 34.1817 16.7373 34.1817 16.7373H34.1826Z" fill="#C7E0FF" stroke="#253650" stroke-width="0.75" stroke-miterlimit="10" stroke-linecap="round" stroke-linejoin="round"/>
<path d="M27.6396 23.9567C27.3494 23.851 26.7529 23.8376 26.6894 24.6298" stroke="#253650" stroke-width="0.75" stroke-miterlimit="10" stroke-linecap="round" stroke-linejoin="round"/>
<path d="M15.0166 14.3652C17.7698 15.6056 19.7452 17.3933 19.3324 24.1453C21.1418 30.3654 17.7632 32.6707 16.1599 33.2185C14.5993 33.7516 13.0223 33.9988 13.0223 33.9988L13.0223 39.9486L11.433 42.4832C11.433 42.4832 9.44437 43.401 8.07899 43.5067C5.5101 43.7056 -0.445694 40.3646 -0.445694 40.3646L2.46909 33.426L4.13283 28.6603C4.13283 28.6603 2.27379 27.9374 1.85888 25.8709C1.44398 23.8044 2.35045 22.4337 4.13301 22.5853C4.13301 22.5853 11.7477 12.8912 15.0142 14.3617L15.0166 14.3652Z" fill="white" stroke="#253650" stroke-width="0.75" stroke-miterlimit="10" stroke-linecap="round" stroke-linejoin="round"/>
<path d="M15.0895 23.4326C15.0895 23.7916 15.341 24.957 15.341 24.957C15.7422 24.9569 16.6814 25.1893 16.6753 25.8072C16.6687 26.4773 15.5078 26.379 15.0895 26.4627" stroke="#253650" stroke-width="0.75" stroke-miterlimit="10" stroke-linecap="round" stroke-linejoin="round"/>
<path d="M4.4873 24.1572C4.10239 24.176 3.41909 24.219 3.21964 24.7244C2.91936 25.4854 3.68622 26.6388 4.48699 26.7402" stroke="#253650" stroke-width="0.75" stroke-miterlimit="10" stroke-linecap="round" stroke-linejoin="round"/>
<path d="M7.99925 32.4083L12.9226 34.0071L12.9749 35.7236L7.99925 32.4083Z" fill="#253650" stroke="#253650" stroke-width="0.75" stroke-miterlimit="10" stroke-linecap="round" stroke-linejoin="round"/>
<path d="M5.67773 28.4268C5.67773 28.4268 5.16665 28.63 4.21325 28.7017" stroke="#253650" stroke-width="0.75" stroke-miterlimit="10" stroke-linecap="round" stroke-linejoin="round"/>
<path d="M20.9588 16.154C19.4174 19.1864 15.8417 18.5845 9.19999 17.9589L8.2236 20.985C8.2236 20.985 6.94465 20.9555 6.81787 21.5753C6.6911 22.195 7.06815 25.4474 7.06815 25.4474L6.12754 25.5073C6.12754 25.5073 6.22923 23.8284 5.55501 23.1783C4.6775 22.3321 3.02253 22.5049 2.32733 23.0389C2.32733 23.0389 2.17791 20.7895 2.20897 19.3994C2.24003 18.0092 3.77278 13.2918 9.03338 12.6177C14.0269 4.19377 23.8824 10.402 20.9588 16.154Z" fill="#C7E0FF" stroke="#253650" stroke-width="0.75" stroke-miterlimit="10" stroke-linecap="round" stroke-linejoin="round"/>
<path d="M12.7955 27.3388C12.7955 27.3388 13.9225 29.5917 16.0889 28.6152" stroke="#253650" stroke-width="0.75" stroke-miterlimit="10" stroke-linecap="round" stroke-linejoin="round"/>
<path d="M12.0211 23.0688C11.9955 22.5807 12.2014 22.1731 12.481 22.1584C12.7605 22.1437 13.008 22.5275 13.0336 23.0156C13.0593 23.5037 12.8534 23.9113 12.5738 23.926C12.2942 23.9407 12.0468 23.5569 12.0211 23.0688Z" fill="#253650"/>
<path d="M16.9132 22.7094C16.8876 22.2213 17.0935 21.8137 17.373 21.799C17.6526 21.7843 17.9001 22.1681 17.9257 22.6562C17.9514 23.1443 17.7455 23.5519 17.4659 23.5666C17.1863 23.5813 16.9389 23.1975 16.9132 22.7094Z" fill="#253650"/>
<path d="M2.28506 15.1514L4.04541 15.7581" stroke="#253650" stroke-width="0.833333" stroke-miterlimit="10" stroke-linecap="round" stroke-linejoin="round"/>
<path d="M2.28734 16.6491L3.70996 16.3682" stroke="#253650" stroke-width="0.833333" stroke-miterlimit="10" stroke-linecap="round" stroke-linejoin="round"/>
</g>
</g>
<defs>
<clipPath id="clip0_483_42902">
<rect y="0.945312" width="40" height="40" rx="20" fill="white"/>
</clipPath>
</defs>
</svg>
