<svg width="70" height="71" viewBox="0 0 70 71" fill="none" xmlns="http://www.w3.org/2000/svg">
<path d="M65.1674 49.8902C64.5772 46.6323 63.3324 39.5355 63.0749 37.2113C62.7529 34.306 62.43 33.1758 58.6358 30.9962C57.9249 28.7998 57.1013 26.4747 56.7784 25.5867C56.2944 24.6182 54.7775 22.4391 52.5817 21.4704C49.8371 20.2595 44.4278 17.1111 43.2976 17.8376C42.1674 18.5641 43.6205 20.7454 45.235 21.4704C46.8495 22.1954 49.9987 24.455 50.5638 25.0208C51.1289 25.5867 52.1779 28.492 52.5817 29.2993C50.0794 28.2499 47.0126 27.2004 46.1238 27.1197C45.4128 27.0551 43.557 27.0928 42.718 27.1197L44.4514 34.0502C44.8235 34.0834 45.8491 34.3217 46.9746 35.0095C48.1002 35.6974 49.5279 36.4946 50.1011 36.8072L48.9287 39.0739C48.0223 38.7094 46.7374 38.2025 45.4358 37.7064C43.2953 36.8905 41.1095 36.1034 40.4873 36.0256C39.2367 35.8693 37.4385 37.2762 38.2201 38.6831C39.0017 40.09 43.4581 41.7313 45.6466 43.6854C46.1734 44.1558 46.8498 44.7666 47.5992 45.4426C49.963 47.5746 53.0545 50.355 54.4787 51.4232C56.3546 52.8301 57.5125 53.6117 58.0741 55.9566C58.5235 57.8324 59.1993 60.0209 59.481 60.8807" stroke="#002D62" stroke-width="0.986799" stroke-linejoin="round"/>
<path d="M63.0763 37.2113C63.3339 39.5355 64.5787 46.6323 65.1688 49.8902L59.4825 60.8807C59.2008 60.0209 58.525 57.8324 58.0756 55.9566C57.5139 53.6117 56.3561 52.8301 54.4802 51.4232C53.0559 50.355 49.9645 47.5746 47.6007 45.4426C46.8512 44.7666 46.1749 44.1558 45.648 43.6854C43.4595 41.7313 39.0032 40.09 38.2216 38.6831C37.44 37.2762 39.2382 35.8693 40.4888 36.0256C41.1109 36.1034 43.2968 36.8905 45.4373 37.7064C46.7389 38.2025 48.0238 38.7094 48.9301 39.0739L50.1025 36.8072C49.5294 36.4946 48.1016 35.6974 46.9761 35.0095C45.8506 34.3217 44.825 34.0834 44.4528 34.0502L42.7195 27.1197C43.5585 27.0928 45.4142 27.0551 46.1253 27.1197C47.0141 27.2004 50.0809 28.2499 52.5832 29.2993C52.1794 28.492 51.1303 25.5867 50.5652 25.0208C50.0001 24.455 46.851 22.1954 45.2365 21.4704C43.6219 20.7454 42.1689 18.5641 43.299 17.8376C44.4292 17.1111 49.8385 20.2595 52.5832 21.4704C54.779 22.4391 56.2959 24.6182 56.7799 25.5867C57.1028 26.4747 57.9263 28.7998 58.6373 30.9962C62.4314 33.1758 62.7543 34.306 63.0763 37.2113Z" fill="#002D62" fill-opacity="0.12"/>
<path d="M38.2209 38.6858C37.4393 37.279 39.2376 35.8721 40.4881 36.0284C41.1103 36.1062 43.2961 36.8932 45.4367 37.7092L38.9237 11.7245C38.5385 10.1874 36.9624 9.26961 35.4354 9.69314L8.65179 17.1217C7.16132 17.5351 6.28219 19.0721 6.68151 20.5664L17.8695 62.4326C18.2778 63.9603 19.8625 64.8536 21.3809 64.4119L47.6589 56.7675C49.1169 56.3434 49.9771 54.8409 49.6047 53.3688L47.6001 45.4454C46.8506 44.7693 46.1742 44.1585 45.6474 43.6881C43.4589 41.7341 39.0025 40.0927 38.2209 38.6858Z" fill="white" stroke="#002D62" stroke-width="0.986799" stroke-linejoin="round"/>
<g style="mix-blend-mode:multiply">
<path d="M46.6442 51.3936L44.6396 43.4701L42.4762 35.7339L35.9633 9.74925C35.578 8.21213 34.002 7.29436 32.475 7.71789L5.69134 15.1464C4.20087 15.5598 3.32174 17.0969 3.72106 18.5912L14.9091 60.4573C15.3174 61.9851 16.902 62.8783 18.4204 62.4366L44.6985 54.7923C46.1564 54.3681 47.0166 52.8656 46.6442 51.3936Z" stroke="#D40000" stroke-opacity="0.15" stroke-width="2.9604" stroke-linejoin="round"/>
</g>
<path d="M43.6929 30.8682C44.5008 30.7374 46.3978 30.6793 47.5227 31.4932C48.6476 32.3071 50.7526 33.7612 51.6645 34.3865" stroke="#002D62" stroke-width="0.986799"/>
<path d="M52.2024 28.5939L52.6457 29.541C52.3696 31.3465 52.0599 35.4326 53.0301 37.3325C51.3827 38.3778 50.2564 39.1834 49.8993 39.4556L48.2495 38.8077" stroke="#002D62" stroke-width="0.986799" stroke-linejoin="round"/>
<path d="M49.25 39.2051L53.18 41.0635" stroke="#002D62" stroke-width="0.986799"/>
<ellipse cx="25.5393" cy="25.4268" rx="6.00221" ry="6.00218" fill="#D40000"/>
<ellipse cx="23.6361" cy="48.3558" rx="2.79874" ry="2.79873" stroke="#002D62" stroke-width="0.704845" stroke-linejoin="round"/>
<ellipse cx="30.9145" cy="46.0156" rx="2.79874" ry="2.79873" stroke="#002D62" stroke-width="0.704845" stroke-linejoin="round"/>
<ellipse cx="38.0292" cy="43.8617" rx="2.79874" ry="2.79873" stroke="#002D62" stroke-width="0.704845" stroke-linejoin="round"/>
<path d="M23.5396 26.5439L25.6926 27.5268L27.7245 23.2806" stroke="white" stroke-width="1.05727" stroke-linecap="round"/>
<path d="M14.2671 23.2169L15.4801 25.14" stroke="#002D62" stroke-width="0.704845" stroke-linecap="round"/>
<path d="M12.1475 19.4246L13.3604 21.3477" stroke="#002D62" stroke-width="0.704845" stroke-linecap="round"/>
<path d="M14.8721 21.5989L16.7952 20.3859" stroke="#002D62" stroke-width="0.704845" stroke-linecap="round"/>
<path d="M10.5566 24.1815L12.4798 22.9686" stroke="#002D62" stroke-width="0.704845" stroke-linecap="round"/>
<line x1="0.352423" y1="-0.352423" x2="22.873" y2="-0.352423" transform="matrix(0.96201 -0.273013 0.273015 0.96201 16.9541 42.8494)" stroke="#002D62" stroke-width="0.704845" stroke-linecap="round"/>
<path d="M35.3848 34.9338L26.7331 37.2128M24.5902 37.9738L22.0781 38.6378" stroke="#002D62" stroke-width="0.704845" stroke-linecap="round"/>
<path d="M50.061 36.8673L52.2802 33.3899" stroke="#002D62" stroke-width="0.986799" stroke-linecap="round" stroke-linejoin="round"/>
</svg>
