<svg width="71" height="71" viewBox="0 0 71 71" fill="none" xmlns="http://www.w3.org/2000/svg">
<path d="M64.592 16.961C61.075 17.0274 53.3113 16.9822 50.3924 16.2713C46.7439 15.3826 41.616 14.5937 39.052 15.0868C36.5871 12.6217 35.7666 12.0106 34.8269 11.9479C33.8871 11.8853 33.51 12.9504 33.8859 14.3287C32.3209 13.953 31.0679 14.5917 30.7546 15.0868C28.3109 13.5145 27.3085 12.951 26.682 12.4495C26.0555 11.9479 24.3016 11.9485 24.051 13.1386C23.8004 14.3287 25.3037 15.7072 28.9373 17.524C24.6761 17.8373 23.0472 17.524 21.4184 17.524C19.7895 17.524 17.5333 17.4614 18.0971 19.6541C18.661 21.8468 30.9393 22.2227 35.3874 21.4082C32.9441 24.9166 31.8164 27.6104 31.8164 29.1767C31.8164 30.7429 32.3176 36.6945 31.8164 37.5716C31.3152 38.4487 29.3731 40.704 31.2526 41.3305C33.132 41.957 35.3874 38.1354 35.3874 36.8198C35.3874 35.5042 35.5753 30.6176 36.703 29.1767C37.6051 28.0239 39.919 25.5222 40.9631 24.4154C41.8402 24.8957 43.7823 26.0568 44.5341 26.8587C45.4738 27.861 47.8545 29.5525 52.5531 29.6152C57.2518 29.6778 59.3818 27.1719 60.2589 26.5454C61.136 25.9189 62.8481 25.731 64.592 25.731" stroke="#002D62" stroke-width="1.08548" stroke-linecap="round" stroke-linejoin="round"/>
<path d="M50.3924 16.2713C53.3113 16.9822 61.075 17.0274 64.592 16.961V25.731C62.8481 25.731 61.136 25.9189 60.2589 26.5454C59.3818 27.1719 57.2518 29.6778 52.5531 29.6152C47.8545 29.5525 45.4738 27.861 44.5341 26.8587C43.7823 26.0568 41.8402 24.8957 40.9631 24.4154C39.919 25.5222 37.6051 28.0239 36.703 29.1767C35.5753 30.6176 35.3874 35.5042 35.3874 36.8198C35.3874 38.1354 33.132 41.957 31.2526 41.3305C29.3731 40.704 31.3152 38.4487 31.8164 37.5716C32.3176 36.6945 31.8164 30.7429 31.8164 29.1767C31.8164 27.6104 32.9441 24.9166 35.3874 21.4082C30.9393 22.2227 18.661 21.8468 18.0971 19.6541C17.5333 17.4614 19.7895 17.524 21.4184 17.524C23.0472 17.524 24.6761 17.8373 28.9373 17.524C25.3037 15.7072 23.8004 14.3287 24.051 13.1386C24.3016 11.9485 26.0555 11.9479 26.682 12.4495C27.3085 12.951 28.3109 13.5145 30.7546 15.0868C31.0679 14.5917 32.3209 13.953 33.8859 14.3287C33.51 12.9504 33.8871 11.8853 34.8269 11.9479C35.7666 12.0106 36.5871 12.6217 39.052 15.0868C41.616 14.5937 46.7439 15.3826 50.3924 16.2713Z" fill="#002D62" fill-opacity="0.12"/>
<path d="M4.15461 45.7538L31.8159 37.3673C31.6717 37.6196 31.4082 37.986 31.1508 38.3949C30.5135 39.4073 29.9133 40.6799 31.252 41.1262C32.5833 41.5699 34.1031 39.7821 34.8765 38.2338C35.195 37.5962 35.3869 36.9992 35.3869 36.6155C36.9132 35.9977 40.9667 35.1698 42.2228 34.7842C43.4789 34.3986 44.3967 34.6236 44.6987 34.7842C51.5627 37.2199 64.9541 41.7802 66.3551 42.5532C67.7561 43.3262 66.9389 43.9623 66.3551 44.1837C54.2977 48.0686 29.7119 55.9593 27.8278 56.4424C25.9437 56.9255 24.2247 56.6437 23.6007 56.4424C17.1187 54.3892 3.81667 49.9567 2.46493 48.6524C1.11318 47.348 3.02815 46.1765 4.15461 45.7538Z" fill="white" stroke="#002D62" stroke-width="1.08548" stroke-linecap="round" stroke-linejoin="round"/>
<g style="mix-blend-mode:multiply">
<path d="M3.45272 51.6127C2.10097 50.3083 4.01595 49.1368 5.1424 48.7141L43.2106 37.7446C44.4666 37.359 45.3845 37.5839 45.6865 37.7446C52.5505 40.1802 65.9419 44.7406 67.3429 45.5135C68.7439 46.2865 67.9267 46.9226 67.3429 47.144C55.2855 51.0289 30.6997 58.9196 28.8156 59.4027C26.9315 59.8858 25.2125 59.604 24.5885 59.4027C18.1065 57.3495 4.80447 52.9171 3.45272 51.6127Z" stroke="#D40000" stroke-opacity="0.15" stroke-width="2.9604" stroke-linejoin="round"/>
</g>
<path d="M25.8394 30.9807V34.2156" stroke="#002D62" stroke-width="1.08548" stroke-linecap="round" stroke-linejoin="round"/>
<path d="M23.7096 42.5029C21.3614 43.0906 17.2491 44.8402 19.5854 47.1373C22.5057 50.0087 33.8117 49.8234 34.5994 49.8234C35.387 49.8234 40.947 49.6368 43.7733 48.387C46.5997 47.1373 49.3797 44.773 42.8003 42.827" stroke="#002D62" stroke-width="1.08548" stroke-linecap="round" stroke-linejoin="round"/>
<path d="M39.0283 17.4947C40.106 16.6653 42.5929 15.0327 43.9192 15.1376" stroke="#002D62" stroke-width="1.08548" stroke-linecap="round" stroke-linejoin="round"/>
<path d="M36.106 15.7462C36.7031 15.6155 38.1941 15.2844 39.3808 15.0052" stroke="#002D62" stroke-width="1.08548" stroke-linecap="round" stroke-linejoin="round"/>
<path d="M33.3081 14.2319C33.8783 14.4953 35.3139 15.2345 36.4946 16.0845C37.9704 17.1471 43.731 20.0616 48.0172 20.5417" stroke="#002D62" stroke-width="1.08548" stroke-linecap="round" stroke-linejoin="round"/>
<path d="M28.2334 17.5817L30.8943 17.3249" stroke="#002D62" stroke-width="1.08548" stroke-linecap="round" stroke-linejoin="round"/>
<path d="M21.0342 33.0707L23.2801 35.368" stroke="#002D62" stroke-width="1.08548" stroke-linecap="round" stroke-linejoin="round"/>
<path d="M30.9145 14.8571C30.541 15.3112 30.0984 16.5477 31.3164 17.8612C32.8389 19.5032 38.6081 23.2691 41.2523 24.5511" stroke="#002D62" stroke-width="1.08548" stroke-linecap="round" stroke-linejoin="round"/>
<path d="M18.8931 37.769H22.1309" stroke="#002D62" stroke-width="1.08548" stroke-linecap="round" stroke-linejoin="round"/>
<path d="M34.855 38.2921C34.0816 39.8404 32.5618 41.6283 31.2306 41.1845C29.8919 40.7383 30.4921 39.4656 31.1294 38.4533C30.4119 38.5388 28.5096 38.8249 26.6406 39.2845C24.3042 39.859 23.8072 40.6633 23.7689 41.5442C23.7382 42.2489 23.7561 44.9784 23.7689 46.2551C24.7514 47.0211 28.0265 48.5531 33.2659 48.5531C38.5054 48.5531 41.7558 47.0211 42.726 46.2551V40.9314C42.675 40.6888 42.3124 40.0811 41.2706 39.5909C40.2289 39.1006 36.5595 38.5208 34.855 38.2921Z" fill="#D40000"/>
<path d="M36.2686 43.5117C34.3845 43.5117 30.4928 43.8918 26.4869 42.9116C24.8998 42.5232 24.0681 42.0352 23.835 41.5229" stroke="white" stroke-width="1.08548" stroke-linecap="round" stroke-linejoin="round"/>
<path d="M38.6099 43.1523C40.1306 42.9327 43.0759 42.1692 42.6913 40.8722" stroke="white" stroke-width="1.08548" stroke-linecap="round" stroke-linejoin="round"/>
</svg>
