<svg width="70" height="71" viewBox="0 0 70 71" fill="none" xmlns="http://www.w3.org/2000/svg">
<path d="M58.402 56.3377C56.4513 54.5334 52.5142 50.2861 52.3711 47.7317C52.1923 44.5386 52.281 36.9975 51.8374 32.2954C51.3938 27.5933 49.975 22.0033 50.3299 19.3417C50.6848 16.6801 51.1284 15.439 49.0879 14.9067C47.0473 14.3744 45.1829 19.43 45.1829 22.8013C45.1829 26.1726 44.6508 32.0287 42.078 33.0934C40.8703 38.2036 38.6757 47.3476 37.7293 51.2808C37.5814 52.0792 36.8775 53.6762 35.2451 53.6762C38.9711 55.7167 41.1037 57.225 42.078 58.0234C42.8574 58.6622 46.6601 62.8438 48.4641 64.8548" stroke="#002D62" stroke-width="0.777399" stroke-linecap="round" stroke-linejoin="round"/>
<path d="M52.3711 47.7317C52.5142 50.2861 56.4513 54.5334 58.402 56.3377L48.4641 64.8548C46.6601 62.8438 42.8574 58.6622 42.078 58.0234C41.1037 57.225 38.9711 55.7167 35.2451 53.6762C36.8775 53.6762 37.5814 52.0792 37.7293 51.2808C38.6757 47.3476 40.8703 38.2036 42.078 33.0934C44.6508 32.0287 45.1829 26.1726 45.1829 22.8013C45.1829 19.43 47.0473 14.3744 49.0879 14.9067C51.1284 15.439 50.6848 16.6801 50.3299 19.3417C49.975 22.0033 51.3938 27.5933 51.8374 32.2954C52.281 36.9975 52.1923 44.5386 52.3711 47.7317Z" fill="#002D62" fill-opacity="0.12"/>
<path d="M37.7274 51.2801C38.6737 47.3469 40.8683 38.2029 42.076 33.0927L46.4564 14.4513C46.709 13.5253 46.8606 11.5468 45.4458 11.0415C44.0309 10.5362 34.3112 8.13122 29.6282 6.99188C28.7477 6.75437 26.8726 6.86471 26.4158 9.20611C26.1782 10.4236 25.4158 13.5465 24.578 16.8829C24.0623 18.9362 23.5182 21.0704 23.0503 22.8911C22.8163 23.8014 22.6014 24.6334 22.4187 25.3377L24.4881 27.4792C24.6785 27.8837 24.8593 28.9497 24.0598 29.9776C23.2603 31.0056 22.1086 30.9294 21.6327 30.7629C22.1567 31.3577 23.0475 32.8473 22.4187 34.0465C21.7899 35.2458 20.7765 35.4028 20.3484 35.3314C20.634 35.8311 21.1196 36.9733 20.7768 37.5444C20.3484 38.2582 19.9916 38.8293 18.8494 39.0434C18.4507 41.0422 17.5895 44.6828 17.2088 46.2532C16.8516 47.2526 16.8368 49.4084 19.6351 50.0366C22.4333 50.6647 31.2064 52.7243 35.2432 53.6755C36.8756 53.6755 37.5795 52.0786 37.7274 51.2801Z" fill="white"/>
<path d="M35.6322 48.3198C36.5785 44.3866 38.7731 35.2426 39.9808 30.1324L44.3612 11.491C44.6138 10.5649 44.7654 8.5865 43.3505 8.0812C41.9357 7.5759 32.216 5.17089 27.533 4.03155C26.6525 3.79405 24.7774 3.90439 24.3206 6.24578C24.083 7.46326 23.3205 10.5862 22.4827 13.9226C21.9671 15.9759 21.423 18.1101 20.9551 19.9308C20.7211 20.8411 20.5062 21.6731 20.3235 22.3774L22.3929 24.5189C22.5832 24.9234 22.7641 25.9894 21.9646 27.0173C21.1651 28.0453 20.0134 27.9691 19.5375 27.8025C20.0615 28.3974 20.9523 29.887 20.3235 31.0862C19.6947 32.2855 18.6813 32.4425 18.2531 32.3711C18.5388 32.8708 19.0244 34.013 18.6816 34.584C18.2531 35.2979 17.8964 35.8689 16.7542 36.0831C16.3554 38.0818 15.4943 41.7224 15.1136 43.2929C14.7564 44.2923 14.7416 46.4481 17.5399 47.0762C20.3381 47.7044 29.1112 49.7639 33.148 50.7152C34.7804 50.7152 35.4843 49.1182 35.6322 48.3198Z" stroke="#DD0707" stroke-opacity="0.15" stroke-width="1.9736" stroke-linecap="round" stroke-linejoin="round"/>
<path d="M24.4885 27.4839L22.4191 25.3424C21.7966 24.6982 21.187 24.494 19.9076 24.494C18.6282 24.494 17.9223 25.8175 18.187 27.1852C18.3987 28.2793 19.7164 29.5059 20.3488 29.9824C19.7752 29.9824 18.487 30.2082 17.9223 31.1117C17.2164 32.2409 17.4811 34.0513 18.8499 34.962C18.1889 35.1128 17.2997 35.3362 16.9982 36.9218C16.757 38.1902 18.1322 38.8679 18.8499 39.0482C19.992 38.834 20.3488 38.2629 20.7772 37.5491C21.12 36.978 20.6344 35.8359 20.3488 35.3362C20.7769 35.4076 21.7904 35.2505 22.4191 34.0513C23.0479 32.852 22.1571 31.3625 21.6332 30.7676C22.1091 30.9342 23.2607 31.0103 24.0602 29.9824C24.8597 28.9545 24.6789 27.8885 24.4885 27.4839Z" fill="#002D62" fill-opacity="0.12" stroke="#002D62" stroke-width="0.777399" stroke-linecap="round" stroke-linejoin="round"/>
<path d="M18.7158 34.9546L20.3982 35.401" stroke="#002D62" stroke-width="0.777399" stroke-linecap="round" stroke-linejoin="round"/>
<path d="M20.1284 29.9119L21.8593 30.8745" stroke="#002D62" stroke-width="0.777399" stroke-linecap="round" stroke-linejoin="round"/>
<path d="M23.0507 22.8942C23.5186 21.0735 24.0627 18.9393 24.5783 16.886L21.065 13.3469C20.5178 12.8225 19.1523 11.9311 18.0672 12.5604C16.7109 13.3469 17.3529 15.3591 18.4236 16.886C19.2802 18.1076 21.8652 21.4005 23.0507 22.8942Z" fill="#002D62" fill-opacity="0.12" stroke="#002D62" stroke-width="0.777399" stroke-linecap="round" stroke-linejoin="round"/>
<circle cx="32.9653" cy="26.1852" r="5.583" fill="#D40000"/>
<path d="M33.585 10.2411L40.2475 11.8171" stroke="#002D62" stroke-width="0.777399" stroke-linecap="round" stroke-linejoin="round"/>
<path d="M24.5142 34.3064L33.7701 36.5263" stroke="#002D62" stroke-width="0.777399" stroke-linecap="round" stroke-linejoin="round"/>
<path d="M26.1055 36.8253L33.4618 38.6685" stroke="#002D62" stroke-width="0.777399" stroke-linecap="round" stroke-linejoin="round"/>
<path d="M35.2246 37.083L36.667 37.4383" stroke="#002D62" stroke-width="0.777399" stroke-linecap="round" stroke-linejoin="round"/>
<path d="M30.6479 25.9997L31.6501 27.4543L35.2852 24.9074" stroke="white" stroke-width="1.1661" stroke-linecap="round"/>
<path d="M17.4499 48.8094C17.6334 49.9065 17.5612 52.5126 15.804 54.1601C14.0468 55.8076 11.8692 57.6376 11 58.3466" stroke="#002D62" stroke-width="0.777399" stroke-linecap="round" stroke-linejoin="round"/>
<path d="M23.6293 50.9301C23.8339 52.2801 23.5847 55.474 20.9509 57.45C18.3171 59.4259 16.1034 61.6124 15.3257 62.4587" stroke="#002D62" stroke-width="0.777399" stroke-linecap="round" stroke-linejoin="round"/>
<path d="M30.4868 52.5838C30.6697 53.9108 30.5552 56.9899 28.6344 58.6907C26.2335 60.8167 21.3616 63.4927 21.1558 65.963" stroke="#002D62" stroke-width="0.777399" stroke-linecap="round" stroke-linejoin="round"/>
<path d="M36.1841 54.1584C36.3891 55.5312 36.3191 58.6884 34.3985 60.3351C31.9977 62.3934 26.9886 65.0009 26.5083 68.0887" stroke="#002D62" stroke-width="0.777399" stroke-linecap="round" stroke-linejoin="round"/>
<path d="M37.7274 51.2801C38.6737 47.3469 40.8683 38.2029 42.076 33.0927L46.4564 14.4513C46.709 13.5253 46.8606 11.5468 45.4458 11.0415C44.0309 10.5362 34.3112 8.13122 29.6282 6.99188C28.7477 6.75437 26.8726 6.86471 26.4158 9.20611C26.1782 10.4236 25.4158 13.5465 24.578 16.8829C24.0623 18.9362 23.5182 21.0704 23.0503 22.8911C22.8163 23.8014 22.6014 24.6334 22.4187 25.3377L24.4881 27.4792C24.6785 27.8837 24.8593 28.9497 24.0598 29.9777C23.2603 31.0056 22.1086 30.9294 21.6327 30.7629C22.1567 31.3577 23.0475 32.8473 22.4187 34.0465C21.7899 35.2458 20.7765 35.4028 20.3484 35.3315C20.634 35.8311 21.1196 36.9733 20.7768 37.5444C20.3484 38.2582 19.9916 38.8293 18.8494 39.0434C18.4507 41.0422 17.5895 44.6828 17.2088 46.2532C16.8516 47.2526 16.8368 49.4084 19.6351 50.0366C22.4333 50.6647 31.2064 52.7243 35.2432 53.6755C36.8756 53.6755 37.5795 52.0786 37.7274 51.2801Z" stroke="#002D62" stroke-width="0.777399" stroke-linecap="round" stroke-linejoin="round"/>
</svg>
