<svg width="24" height="25" viewBox="0 0 24 25" fill="none" xmlns="http://www.w3.org/2000/svg">
<path d="M8 13.9478V5.4478C8 5.04997 8.15804 4.66844 8.43934 4.38714C8.72064 4.10583 9.10218 3.9478 9.5 3.9478C9.89782 3.9478 10.2794 4.10583 10.5607 4.38714C10.842 4.66844 11 5.04997 11 5.4478V12.9478" stroke="white" stroke-width="1.49583" stroke-linecap="round" stroke-linejoin="round"/>
<path d="M11.0005 12.446V10.446C11.0005 10.0482 11.1585 9.66669 11.4398 9.38538C11.7211 9.10408 12.1027 8.94604 12.5005 8.94604C12.8983 8.94604 13.2798 9.10408 13.5611 9.38538C13.8425 9.66669 14.0005 10.0482 14.0005 10.446V12.946" stroke="white" stroke-width="1.49583" stroke-linecap="round" stroke-linejoin="round"/>
<path d="M14.0005 11.4448C14.0005 11.047 14.1585 10.6654 14.4398 10.3841C14.7211 10.1028 15.1027 9.94478 15.5005 9.94478C15.8983 9.94478 16.2798 10.1028 16.5611 10.3841C16.8425 10.6654 17.0005 11.047 17.0005 11.4448V12.9448" stroke="white" stroke-width="1.49583" stroke-linecap="round" stroke-linejoin="round"/>
<path d="M16.9973 12.4477C16.9973 12.0499 17.1553 11.6684 17.4366 11.387C17.7179 11.1057 18.0994 10.9477 18.4973 10.9477C18.8951 10.9477 19.2766 11.1057 19.5579 11.387C19.8392 11.6684 19.9973 12.0499 19.9973 12.4477V16.9477C19.9973 18.539 19.3651 20.0651 18.2399 21.1903C17.1147 22.3156 15.5886 22.9477 13.9973 22.9477H11.9973H12.2053C11.2116 22.9479 10.2334 22.7013 9.35864 22.23C8.48383 21.7587 7.73977 21.0776 7.19325 20.2477L6.99725 19.9477C6.68525 19.4687 5.59025 17.5597 3.71125 14.2197C3.5197 13.8792 3.46854 13.4775 3.56864 13.0999C3.66873 12.7222 3.9122 12.3986 4.24725 12.1977C4.60413 11.9836 5.02233 11.8948 5.43541 11.9456C5.8485 11.9963 6.23279 12.1836 6.52725 12.4777L7.99725 13.9477" stroke="white" stroke-width="1.49583" stroke-linecap="round" stroke-linejoin="round"/>
<path d="M5.00049 3.94518L4.00049 2.94518" stroke="white" stroke-width="1.49583" stroke-linecap="round" stroke-linejoin="round"/>
<path d="M4.00049 7.94719H3.00049" stroke="white" stroke-width="1.49583" stroke-linecap="round" stroke-linejoin="round"/>
<path d="M14.0005 3.94518L15.0005 2.94518" stroke="white" stroke-width="1.49583" stroke-linecap="round" stroke-linejoin="round"/>
<path d="M14.9985 6.94635H15.9985" stroke="white" stroke-width="1.49583" stroke-linecap="round" stroke-linejoin="round"/>
</svg>
