<svg width="25" height="25" viewBox="0 0 25 25" fill="none" xmlns="http://www.w3.org/2000/svg">
<path d="M14.5 3.94531V7.94531C14.5 8.21053 14.6054 8.46488 14.7929 8.65242C14.9804 8.83996 15.2348 8.94531 15.5 8.94531H19.5" stroke="white" stroke-width="1.5" stroke-linecap="round" stroke-linejoin="round"/>
<path d="M17.5 21.9453H7.5C6.96957 21.9453 6.46086 21.7346 6.08579 21.3595C5.71071 20.9845 5.5 20.4757 5.5 19.9453V5.94531C5.5 5.41488 5.71071 4.90617 6.08579 4.5311C6.46086 4.15603 6.96957 3.94531 7.5 3.94531H14.5L19.5 8.94531V19.9453C19.5 20.4757 19.2893 20.9845 18.9142 21.3595C18.5391 21.7346 18.0304 21.9453 17.5 21.9453Z" stroke="white" stroke-width="1.5" stroke-linecap="round" stroke-linejoin="round"/>
<path d="M12.5 17.9453V11.9453" stroke="white" stroke-width="1.5" stroke-linecap="round" stroke-linejoin="round"/>
<path d="M10 15.4453L12.5 17.9453L15 15.4453" stroke="white" stroke-width="1.5" stroke-linecap="round" stroke-linejoin="round"/>
</svg>
