<svg width="25" height="24" viewBox="0 0 25 24" fill="none" xmlns="http://www.w3.org/2000/svg">
<path fill-rule="evenodd" clip-rule="evenodd" d="M13.709 4.51288C13.709 4.09866 13.3732 3.76288 12.959 3.76288C12.5448 3.76288 12.209 4.09866 12.209 4.51288V13.264L9.07916 10.1342C8.78626 9.84127 8.31139 9.84127 8.0185 10.1342C7.7256 10.4271 7.7256 10.9019 8.0185 11.1948L12.334 15.5104C12.4684 15.7124 12.6981 15.8456 12.959 15.8456C13.2216 15.8456 13.4527 15.7106 13.5867 15.5062L17.8981 11.1948C18.1909 10.9019 18.1909 10.4271 17.8981 10.1342C17.6052 9.84127 17.1303 9.84127 16.8374 10.1342L13.709 13.2626V4.51288ZM5.9043 15.2097C6.31851 15.2097 6.6543 15.5455 6.6543 15.9597V17.7235C6.6543 17.9923 6.76111 18.2502 6.95123 18.4403C7.14135 18.6304 7.39921 18.7372 7.66808 18.7372H18.2508C18.5196 18.7372 18.7775 18.6304 18.9676 18.4403C19.1577 18.2502 19.2645 17.9923 19.2645 17.7235V15.9597C19.2645 15.5455 19.6003 15.2097 20.0145 15.2097C20.4287 15.2097 20.7645 15.5455 20.7645 15.9597V17.7235C20.7645 18.3902 20.4997 19.0295 20.0283 19.501C19.5568 19.9724 18.9175 20.2372 18.2508 20.2372H7.66808C7.00138 20.2372 6.36199 19.9724 5.89057 19.501C5.41914 19.0295 5.1543 18.3902 5.1543 17.7235V15.9597C5.1543 15.5455 5.49008 15.2097 5.9043 15.2097Z" fill="white"/>
</svg>
